<svg width="220" height="220" viewBox="0 0 220 220" fill="none" xmlns="http://www.w3.org/2000/svg">
<rect x="1" y="1" width="218" height="218" rx="11" stroke="#98FFAF" stroke-width="2"/>
<path d="M108.055 140.092C101.659 140.092 96.1475 138.844 91.5195 136.348C86.8915 133.8 83.3295 130.264 80.8335 125.74C78.3375 121.164 77.0895 115.834 77.0895 109.75C77.0895 103.666 78.3375 98.362 80.8335 93.838C83.3295 89.262 86.8915 85.726 91.5195 83.23C96.1475 80.682 101.659 79.408 108.055 79.408C114.451 79.408 119.937 80.682 124.513 83.23C129.141 85.726 132.703 89.262 135.199 93.838C137.695 98.362 138.943 103.666 138.943 109.75C138.943 115.834 137.695 121.164 135.199 125.74C132.703 130.264 129.141 133.8 124.513 136.348C119.937 138.844 114.451 140.092 108.055 140.092ZM108.055 131.59C114.555 131.59 119.599 129.692 123.187 125.896C126.775 122.048 128.569 116.666 128.569 109.75C128.569 102.834 126.775 97.478 123.187 93.682C119.599 89.834 114.555 87.91 108.055 87.91C101.555 87.91 96.4855 89.834 92.8455 93.682C89.2575 97.478 87.4635 102.834 87.4635 109.75C87.4635 116.666 89.2575 122.048 92.8455 125.896C96.4855 129.692 101.555 131.59 108.055 131.59Z" fill="#98FFAF"/>
</svg>
