<svg width="50" height="68" viewBox="0 0 50 68" fill="none" xmlns="http://www.w3.org/2000/svg">
<path d="M11.5098 46.7358V67.2398H7.90111V47.8294L9.86949 49.5791L1.28516 51.0827V48.2121L8.80328 46.7358H11.5098Z" fill="white"/>
<path d="M31.8143 62.5376C31.8143 63.5764 31.5227 64.4786 30.9395 65.2441C30.3562 66.0096 29.4723 66.6019 28.2876 67.0211C27.1029 67.4221 25.6175 67.6226 23.8314 67.6226C21.9906 67.6226 20.3959 67.3947 19.0472 66.9391C17.6984 66.4652 16.6505 65.8091 15.9032 64.9707C15.1742 64.1141 14.7823 63.1299 14.7276 62.0181H18.3363C18.4457 62.6014 18.7373 63.1208 19.2112 63.5764C19.7033 64.0139 20.3412 64.351 21.1249 64.588C21.9268 64.8249 22.8381 64.9434 23.8588 64.9434C25.335 64.9434 26.4468 64.7702 27.1941 64.4239C27.9413 64.0594 28.3149 63.5127 28.3149 62.7836C28.3149 62.2915 28.0598 61.9179 27.5495 61.6627C27.0574 61.4076 26.1187 61.2162 24.7336 61.0886L21.699 60.8152C20.0587 60.6694 18.7647 60.3778 17.8169 59.9404C16.8692 59.4848 16.1948 58.938 15.7939 58.3001C15.3929 57.644 15.1924 56.9514 15.1924 56.2223C15.1924 55.1653 15.5205 54.2813 16.1766 53.5705C16.8327 52.8597 17.744 52.322 18.9105 51.9575C20.0769 51.5748 21.4347 51.3834 22.9839 51.3834C24.5878 51.3834 26.0185 51.6112 27.2761 52.0669C28.5337 52.5043 29.5361 53.124 30.2833 53.9259C31.0306 54.7096 31.4498 55.6209 31.5409 56.6598H27.9322C27.8593 56.2406 27.6406 55.8396 27.2761 55.4569C26.9298 55.0559 26.3921 54.7278 25.6631 54.4727C24.9523 54.1993 23.9954 54.0626 22.7925 54.0626C21.5167 54.0626 20.5143 54.2266 19.7853 54.5547C19.0745 54.8828 18.7191 55.3657 18.7191 56.0036C18.7191 56.4046 18.9378 56.7509 19.3752 57.0425C19.8126 57.3159 20.6237 57.5073 21.8084 57.6166L25.7178 57.972C27.2852 58.1178 28.5063 58.4003 29.3812 58.8195C30.2742 59.2205 30.903 59.7399 31.2675 60.3778C31.632 61.0157 31.8143 61.7356 31.8143 62.5376Z" fill="white"/>
<path d="M32.8128 54.5V52.887L36.1208 52.0395L37.5971 47.72H39.6748V51.7661H46.8649V54.5H39.6748V61.198C39.6748 62.492 39.9482 63.4033 40.495 63.9318C41.06 64.4422 41.9712 64.6973 43.2288 64.6973C44.0307 64.6973 44.7416 64.6153 45.3612 64.4513C45.9809 64.269 46.5732 64.0139 47.1382 63.6858V66.611C46.6644 66.848 45.99 67.0758 45.1152 67.2945C44.2586 67.5132 43.3746 67.6226 42.4633 67.6226C40.9506 67.6226 39.7295 67.3765 38.8 66.8844C37.8704 66.3741 37.187 65.6815 36.7496 64.8067C36.3304 63.9136 36.1208 62.893 36.1208 61.7448V54.5H32.8128Z" fill="white"/>
<path d="M9.85254 34.1129L6.03274 18.6736L12.1457 24.3373C12.5443 24.6759 12.9899 24.9549 13.4687 25.1656L13.821 25.3206C15.168 25.9133 16.7162 25.8322 17.994 25.102C19.4199 24.2872 19.9931 22.6045 20.5244 21.0449L20.5553 20.9541L24.7906 8.53135L29.136 20.9605L29.1786 21.0825C29.7186 22.6294 30.2992 24.2926 31.7158 25.102C32.9935 25.8322 34.5418 25.9133 35.8888 25.3206L36.2411 25.1656C36.7198 24.9549 37.1655 24.6759 37.5641 24.3373L43.677 18.6736L39.8572 34.1129H9.85254Z" fill="#98FFAF"/>
<path d="M9.85254 36.8047V42.059H39.8572V36.8047H9.85254Z" fill="#98FFAF"/>
<path d="M28.2258 3.65671C28.2258 5.51849 26.7166 7.02777 24.8548 7.02777C22.993 7.02777 21.4837 5.51849 21.4837 3.65671C21.4837 1.79492 22.993 0.285645 24.8548 0.285645C26.7166 0.285645 28.2258 1.79492 28.2258 3.65671Z" fill="#98FFAF"/>
<path d="M49.4248 14.5988C49.4248 16.4612 47.915 17.971 46.0526 17.971C44.1902 17.971 42.6804 16.4612 42.6804 14.5988C42.6804 12.7363 44.1902 11.2265 46.0526 11.2265C47.915 11.2265 49.4248 12.7363 49.4248 14.5988Z" fill="#98FFAF"/>
<path d="M7.0296 14.5988C7.0296 16.4612 5.51981 17.971 3.65738 17.971C1.79495 17.971 0.285156 16.4612 0.285156 14.5988C0.285156 12.7363 1.79495 11.2265 3.65738 11.2265C5.51981 11.2265 7.0296 12.7363 7.0296 14.5988Z" fill="#98FFAF"/>
</svg>
