<svg width="220" height="220" viewBox="0 0 220 220" fill="none" xmlns="http://www.w3.org/2000/svg">
<rect x="1" y="1" width="218" height="218" rx="11" stroke="#98FFAF" stroke-width="2"/>
<path d="M81.5026 100.624C81.8146 96.308 83.1926 92.564 85.6366 89.392C88.1326 86.22 91.4346 83.776 95.5426 82.06C99.6506 80.292 104.331 79.408 109.583 79.408C114.575 79.408 118.943 80.188 122.687 81.748C126.483 83.308 129.421 85.492 131.501 88.3C133.633 91.108 134.699 94.358 134.699 98.05C134.699 100.91 133.997 103.562 132.593 106.006C131.241 108.45 128.979 110.946 125.807 113.494C122.687 115.99 118.449 118.824 113.093 121.996L93.6706 133.462L92.3446 130.42H136.493V139H82.0486V131.512L106.931 116.38C111.299 113.728 114.731 111.44 117.227 109.516C119.775 107.54 121.595 105.694 122.687 103.978C123.779 102.262 124.325 100.442 124.325 98.518C124.325 96.49 123.779 94.67 122.687 93.058C121.595 91.446 119.931 90.172 117.695 89.236C115.511 88.3 112.703 87.832 109.271 87.832C105.371 87.832 102.173 88.404 99.6766 89.548C97.1806 90.692 95.3086 92.252 94.0606 94.228C92.8646 96.152 92.1366 98.284 91.8766 100.624H81.5026Z" fill="#98FFAF"/>
</svg>
