<svg width="47" height="56" viewBox="0 0 47 56" fill="none" xmlns="http://www.w3.org/2000/svg">
<path d="M8.49558 25.7895L4.67578 10.3503L10.7887 16.0139C11.1873 16.3526 11.633 16.6316 12.1117 16.8422L12.464 16.9972C13.811 17.5899 15.3593 17.5088 16.637 16.7787C18.0629 15.9639 18.6362 14.2811 19.1674 12.7215L19.1984 12.6307L23.4336 0.208008L27.779 12.6371L27.8216 12.7592C28.3617 14.3061 28.9423 15.9693 30.3588 16.7787C31.6366 17.5088 33.1848 17.5899 34.5318 16.9972L34.8842 16.8422C35.3629 16.6316 35.8085 16.3526 36.2071 16.0139L42.3201 10.3503L38.5003 25.7895H8.49558Z" fill="#98FFAF"/>
<path d="M8.49558 28.4814V33.7356H38.5003V28.4814H8.49558Z" fill="#98FFAF"/>
<path d="M0.571289 45.284C0.653016 44.1535 1.01398 43.1728 1.65417 42.3419C2.30799 41.511 3.17293 40.8708 4.24901 40.4213C5.32508 39.9582 6.55099 39.7266 7.92673 39.7266C9.23436 39.7266 10.3785 39.9309 11.3593 40.3395C12.3536 40.7482 13.1232 41.3203 13.6681 42.0558C14.2265 42.7914 14.5058 43.6427 14.5058 44.6098C14.5058 45.359 14.3219 46.0536 13.9541 46.6938C13.5999 47.334 13.0074 47.9878 12.1765 48.6553C11.3593 49.3091 10.2491 50.0514 8.84616 50.8823L3.75865 53.8858L3.4113 53.089H14.9757V55.3365H0.714311V53.375L7.23205 49.4113C8.37622 48.7166 9.27522 48.1172 9.92904 47.6133C10.5965 47.0957 11.0732 46.6121 11.3593 46.1626C11.6453 45.7131 11.7883 45.2364 11.7883 44.7324C11.7883 44.2012 11.6453 43.7244 11.3593 43.3022C11.0732 42.8799 10.6373 42.5462 10.0516 42.301C9.47954 42.0558 8.744 41.9332 7.845 41.9332C6.82341 41.9332 5.98571 42.0831 5.33189 42.3827C4.67807 42.6824 4.18771 43.091 3.8608 43.6086C3.54752 44.1126 3.35682 44.6711 3.28871 45.284H0.571289Z" fill="white"/>
<path d="M16.6932 43.7721H19.3494L20.044 47.9402V55.3365H17.3879V47.552L16.6932 43.7721ZM24.6412 43.486C25.7309 43.486 26.6571 43.704 27.4199 44.1399C28.1827 44.5757 28.7616 45.2023 29.1566 46.0196C29.5652 46.8232 29.7696 47.7971 29.7696 48.9413V55.3365H27.1134V49.3704C27.1134 48.1581 26.8274 47.2455 26.2553 46.6325C25.6968 46.006 24.8727 45.6927 23.7831 45.6927C23.0339 45.6927 22.3733 45.8629 21.8012 46.2035C21.2427 46.5304 20.8068 46.9935 20.4935 47.5928C20.1939 48.1922 20.044 48.8936 20.044 49.6973L19.1042 49.1865C19.2268 47.9878 19.5401 46.9663 20.044 46.1217C20.548 45.2772 21.195 44.6302 21.9851 44.1807C22.7751 43.7176 23.6605 43.486 24.6412 43.486Z" fill="white"/>
<path d="M43.2579 55.3365L42.8084 50.9436L43.4009 49.5747L42.8288 48.0015L43.6869 39.604H46.4248L45.3828 49.3908L45.9753 55.3365H43.2579ZM44.0343 49.5543C43.7755 50.7666 43.3464 51.829 42.7471 52.7416C42.1478 53.6543 41.4054 54.3626 40.52 54.8665C39.6483 55.3705 38.6744 55.6225 37.5983 55.6225C36.4677 55.6225 35.4666 55.3705 34.5948 54.8665C33.7231 54.3489 33.042 53.6338 32.5516 52.7212C32.0613 51.8086 31.8161 50.7529 31.8161 49.5543C31.8161 48.342 32.0613 47.2863 32.5516 46.3874C33.042 45.4747 33.7231 44.7664 34.5948 44.2624C35.4666 43.7448 36.4677 43.486 37.5983 43.486C38.6744 43.486 39.6483 43.738 40.52 44.242C41.4054 44.746 42.1478 45.4543 42.7471 46.3669C43.36 47.2659 43.7891 48.3284 44.0343 49.5543ZM34.5131 49.5543C34.5131 50.3307 34.6697 51.0186 34.983 51.6179C35.3099 52.2036 35.7526 52.6667 36.3111 53.0072C36.8695 53.3342 37.5097 53.4976 38.2317 53.4976C38.9672 53.4976 39.6483 53.3342 40.2748 53.0072C40.9014 52.6667 41.4531 52.2036 41.9298 51.6179C42.4202 51.0186 42.8084 50.3307 43.0944 49.5543C42.8084 48.7779 42.4202 48.0968 41.9298 47.5111C41.4531 46.9118 40.9014 46.4486 40.2748 46.1217C39.6483 45.7812 38.9672 45.6109 38.2317 45.6109C37.5097 45.6109 36.8695 45.7812 36.3111 46.1217C35.7526 46.4486 35.3099 46.9118 34.983 47.5111C34.6697 48.0968 34.5131 48.7779 34.5131 49.5543Z" fill="white"/>
</svg>
