<svg width="220" height="220" viewBox="0 0 220 220" fill="none" xmlns="http://www.w3.org/2000/svg">
<rect x="1" y="1" width="218" height="218" rx="11" stroke="#98FFAF" stroke-width="2"/>
<path d="M82.6013 98.518C82.9653 94.93 84.2653 91.706 86.5013 88.846C88.7893 85.934 91.9613 83.646 96.0173 81.982C100.125 80.266 105.013 79.408 110.681 79.408C115.725 79.408 120.093 80.084 123.785 81.436C127.529 82.736 130.415 84.582 132.443 86.974C134.471 89.314 135.485 92.096 135.485 95.32C135.485 98.024 134.679 100.468 133.067 102.652C131.507 104.784 129.115 106.474 125.891 107.722C122.667 108.97 118.637 109.594 113.801 109.594V108.112C118.585 107.904 122.693 108.346 126.125 109.438C129.557 110.478 132.183 112.09 134.003 114.274C135.875 116.406 136.811 119.032 136.811 122.152C136.811 125.636 135.745 128.73 133.613 131.434C131.481 134.138 128.387 136.27 124.331 137.83C120.327 139.338 115.413 140.092 109.589 140.092C103.921 140.092 98.9813 139.286 94.7693 137.674C90.5573 136.01 87.2553 133.696 84.8633 130.732C82.5233 127.768 81.2233 124.31 80.9633 120.358H91.3373C91.8053 123.998 93.5733 126.806 96.6413 128.782C99.7093 130.706 104.025 131.668 109.589 131.668C115.153 131.668 119.339 130.758 122.147 128.938C124.955 127.118 126.359 124.622 126.359 121.45C126.359 119.578 125.865 118.018 124.877 116.77C123.941 115.47 122.355 114.482 120.119 113.806C117.935 113.13 114.971 112.792 111.227 112.792H100.619V105.148H111.227C116.063 105.148 119.573 104.368 121.757 102.808C123.941 101.196 125.033 99.142 125.033 96.646C125.033 93.89 123.811 91.732 121.367 90.172C118.975 88.612 115.231 87.832 110.135 87.832C105.143 87.832 101.165 88.768 98.2013 90.64C95.2893 92.46 93.5473 95.086 92.9753 98.518H82.6013Z" fill="#98FFAF"/>
</svg>
