<svg width="47" height="48" viewBox="0 0 47 48" fill="none" xmlns="http://www.w3.org/2000/svg">
<path d="M11.072 22.2217L7.8125 9.04713L13.0288 13.88C13.3689 14.169 13.7492 14.4071 14.1577 14.5868L14.4583 14.7191C15.6077 15.2248 16.9289 15.1556 18.0192 14.5326C19.236 13.8373 19.7251 12.4014 20.1785 11.0706L20.2049 10.9931L23.8188 0.392578L27.5268 10.9985L27.5632 11.1027C28.024 12.4227 28.5195 13.8419 29.7282 14.5326C30.8186 15.1556 32.1397 15.2248 33.2891 14.7191L33.5898 14.5868C33.9983 14.4071 34.3785 14.169 34.7187 13.88L39.935 9.04713L36.6755 22.2217V24.7356H11.072V22.2217Z" fill="#98FFAF"/>
<path d="M1.42727 35.3905C1.53393 34.339 1.91489 33.3943 2.57013 32.5562C3.24061 31.7028 4.17013 31.0324 5.35871 30.5448C6.56252 30.0419 7.9949 29.7905 9.65586 29.7905C11.134 29.7905 12.414 29.9886 13.4959 30.3848C14.593 30.7657 15.4387 31.3067 16.033 32.0076C16.6273 32.6933 16.9245 33.5086 16.9245 34.4533C16.9245 35.2457 16.6883 35.9619 16.2159 36.6019C15.7587 37.2267 15.0578 37.7219 14.113 38.0876C13.1683 38.4533 11.9873 38.6362 10.5701 38.6362V38.2019C11.9721 38.141 13.1759 38.2705 14.1816 38.5905C15.1873 38.8953 15.9568 39.3676 16.4902 40.0076C17.0387 40.6324 17.313 41.4019 17.313 42.3162C17.313 43.3372 17.0006 44.2438 16.3759 45.0362C15.7511 45.8286 14.8444 46.4534 13.6559 46.9105C12.4825 47.3524 11.0425 47.5734 9.33586 47.5734C7.6749 47.5734 6.22728 47.3372 4.99299 46.8648C3.7587 46.3772 2.79108 45.6991 2.09013 44.8305C1.40441 43.9619 1.02346 42.9486 0.947266 41.7905H3.98727C4.12442 42.8572 4.64251 43.68 5.54156 44.2591C6.44061 44.8229 7.70538 45.1048 9.33586 45.1048C10.9663 45.1048 12.193 44.8381 13.0159 44.3048C13.8387 43.7715 14.2502 43.04 14.2502 42.1105C14.2502 41.5619 14.1054 41.1048 13.8159 40.7391C13.5416 40.3581 13.0768 40.0686 12.4216 39.8705C11.7816 39.6724 10.913 39.5733 9.81586 39.5733H6.70728V37.3333H9.81586C11.233 37.3333 12.2616 37.1048 12.9016 36.6476C13.5416 36.1752 13.8616 35.5733 13.8616 34.8419C13.8616 34.0343 13.5035 33.4019 12.7873 32.9448C12.0863 32.4876 10.9892 32.259 9.49586 32.259C8.033 32.259 6.86728 32.5333 5.99871 33.0819C5.14537 33.6152 4.63489 34.3848 4.46728 35.3905H1.42727Z" fill="white"/>
<path d="M19.455 34.3162H22.4264L23.2036 39.0248V47.2534H20.2321V38.4533L19.455 34.3162ZM29.7636 34.2248V36.8305C29.4284 36.7391 29.0626 36.6705 28.6664 36.6248C28.2703 36.5791 27.8969 36.5562 27.5464 36.5562C26.7083 36.5562 25.9617 36.7391 25.3064 37.1048C24.6512 37.4705 24.1331 38.0191 23.7521 38.7505C23.3864 39.4667 23.2036 40.3505 23.2036 41.4019L22.5179 40.5562C22.5788 39.6419 22.7312 38.7886 22.975 37.9962C23.2341 37.1886 23.5845 36.4876 24.0264 35.8933C24.4836 35.2991 25.0398 34.8343 25.695 34.499C26.3502 34.1638 27.1122 33.9962 27.9807 33.9962C28.2855 33.9962 28.5979 34.019 28.9179 34.0648C29.2379 34.0952 29.5198 34.1486 29.7636 34.2248Z" fill="white"/>
<path d="M43.2579 47.2534L42.7551 42.3391L43.4179 40.8076L42.7779 39.0476L43.7379 29.6533H46.8008L45.6351 40.6019L46.2979 47.2534H43.2579ZM44.1265 40.7848C43.837 42.141 43.357 43.3295 42.6865 44.3505C42.016 45.3715 41.1855 46.1638 40.1951 46.7277C39.2198 47.2915 38.1303 47.5734 36.9265 47.5734C35.6617 47.5734 34.5417 47.2915 33.5665 46.7277C32.5912 46.1486 31.8293 45.3486 31.2807 44.3276C30.7322 43.3067 30.4579 42.1257 30.4579 40.7848C30.4579 39.4286 30.7322 38.2476 31.2807 37.2419C31.8293 36.221 32.5912 35.4286 33.5665 34.8648C34.5417 34.2857 35.6617 33.9962 36.9265 33.9962C38.1303 33.9962 39.2198 34.2781 40.1951 34.8419C41.1855 35.4057 42.016 36.1981 42.6865 37.2191C43.3722 38.2248 43.8522 39.4133 44.1265 40.7848ZM33.475 40.7848C33.475 41.6534 33.6503 42.4229 34.0007 43.0934C34.3665 43.7486 34.8617 44.2667 35.4865 44.6476C36.1112 45.0134 36.8274 45.1962 37.635 45.1962C38.4579 45.1962 39.2198 45.0134 39.9208 44.6476C40.6217 44.2667 41.2389 43.7486 41.7722 43.0934C42.3208 42.4229 42.7551 41.6534 43.0751 40.7848C42.7551 39.9162 42.3208 39.1543 41.7722 38.4991C41.2389 37.8286 40.6217 37.3105 39.9208 36.9448C39.2198 36.5638 38.4579 36.3733 37.635 36.3733C36.8274 36.3733 36.1112 36.5638 35.4865 36.9448C34.8617 37.3105 34.3665 37.8286 34.0007 38.4991C33.6503 39.1543 33.475 39.9162 33.475 40.7848Z" fill="white"/>
</svg>
