<svg width="220" height="220" viewBox="0 0 220 220" fill="none" xmlns="http://www.w3.org/2000/svg">
<rect x="1" y="1" width="218" height="218" rx="11" stroke="#98FFAF" stroke-width="2"/>
<path d="M88.0878 80.5H130.832V88.846H91.4418L95.7318 86.116L92.4558 110.764L89.4138 110.842C90.6098 109.022 92.2218 107.306 94.2498 105.694C96.3298 104.082 98.8258 102.782 101.738 101.794C104.702 100.754 108.03 100.234 111.722 100.234C116.818 100.234 121.134 101.118 124.67 102.886C128.206 104.602 130.884 106.942 132.704 109.906C134.576 112.87 135.512 116.224 135.512 119.968C135.512 123.868 134.42 127.326 132.236 130.342C130.052 133.358 126.958 135.75 122.954 137.518C119.002 139.234 114.296 140.092 108.836 140.092C103.376 140.092 98.6438 139.286 94.6398 137.674C90.6358 136.062 87.4638 133.878 85.1238 131.122C82.8358 128.314 81.4318 125.194 80.9118 121.762H91.2858C92.0138 124.83 93.8858 127.248 96.9018 129.016C99.9178 130.784 103.896 131.668 108.836 131.668C112.164 131.668 115.024 131.2 117.416 130.264C119.86 129.276 121.758 127.924 123.11 126.208C124.462 124.44 125.138 122.36 125.138 119.968C125.138 117.628 124.566 115.6 123.422 113.884C122.33 112.116 120.64 110.764 118.352 109.828C116.116 108.84 113.256 108.346 109.772 108.346C106.912 108.346 104.338 108.684 102.05 109.36C99.8138 110.036 97.8638 110.894 96.1998 111.934C94.5878 112.974 93.2358 114.066 92.1438 115.21H83.5638L88.0878 80.5Z" fill="#98FFAF"/>
</svg>
