<svg width="220" height="220" viewBox="0 0 220 220" fill="none" xmlns="http://www.w3.org/2000/svg">
<rect x="1" y="1" width="218" height="218" rx="11" stroke="#98FFAF" stroke-width="2"/>
<path d="M111.169 79.408C115.797 79.408 119.905 80.11 123.493 81.514C127.081 82.918 130.019 84.842 132.307 87.286C134.595 89.678 136.025 92.434 136.597 95.554H126.457C125.625 93.422 124.065 91.628 121.777 90.172C119.489 88.664 116.031 87.91 111.403 87.91C106.723 87.91 102.901 88.794 99.9374 90.562C96.9734 92.278 94.7894 94.748 93.3854 97.972C92.0334 101.144 91.3574 104.966 91.3574 109.438C91.3574 114.066 92.1374 118.044 93.6974 121.372C95.2574 124.7 97.5714 127.248 100.639 129.016C103.707 130.732 107.503 131.59 112.027 131.59C115.459 131.59 118.319 131.122 120.607 130.186C122.947 129.198 124.689 127.846 125.833 126.13C127.029 124.414 127.627 122.49 127.627 120.358C127.627 118.33 127.107 116.536 126.067 114.976C125.027 113.364 123.415 112.09 121.231 111.154C119.099 110.218 116.343 109.75 112.963 109.75C108.439 109.75 104.253 110.842 100.405 113.026C96.5574 115.21 93.3594 118.044 90.8114 121.528L86.4434 118.33C88.1594 115.158 90.3694 112.298 93.0734 109.75C95.8294 107.15 99.0274 105.096 102.667 103.588C106.359 102.028 110.467 101.248 114.991 101.248C119.619 101.248 123.649 102.028 127.081 103.588C130.565 105.096 133.243 107.254 135.115 110.062C137.039 112.87 138.001 116.198 138.001 120.046C138.001 123.998 136.935 127.482 134.803 130.498C132.671 133.514 129.655 135.88 125.755 137.596C121.907 139.26 117.331 140.092 112.027 140.092C105.319 140.092 99.6774 138.818 95.1014 136.27C90.5254 133.67 87.0674 130.082 84.7274 125.506C82.4394 120.93 81.2954 115.678 81.2954 109.75C81.2954 103.822 82.4394 98.57 84.7274 93.994C87.0154 89.418 90.3694 85.856 94.7894 83.308C99.2614 80.708 104.721 79.408 111.169 79.408Z" fill="#98FFAF"/>
</svg>
