<svg width="220" height="220" viewBox="0 0 220 220" fill="none" xmlns="http://www.w3.org/2000/svg">
<rect x="1" y="1" width="218" height="218" rx="11" stroke="#98FFAF" stroke-width="2"/>
<path d="M108.519 79.408C117.203 79.408 123.911 80.812 128.643 83.62C133.375 86.428 135.741 90.354 135.741 95.398C135.741 100.026 133.583 103.588 129.267 106.084C124.951 108.58 118.919 109.75 111.171 109.594V107.956C119.699 107.488 126.303 108.554 130.983 111.154C135.663 113.754 138.003 117.68 138.003 122.932C138.003 128.392 135.455 132.63 130.359 135.646C125.263 138.61 117.983 140.092 108.519 140.092C99.1069 140.092 91.8269 138.61 86.6789 135.646C81.5829 132.63 79.0349 128.392 79.0349 122.932C79.0349 117.68 81.3749 113.754 86.0549 111.154C90.7869 108.502 97.3909 107.436 105.867 107.956V109.594C98.1709 109.75 92.1389 108.58 87.7709 106.084C83.4549 103.588 81.2969 100.026 81.2969 95.398C81.2969 90.354 83.6629 86.428 88.3949 83.62C93.1269 80.812 99.8349 79.408 108.519 79.408ZM108.519 131.824C114.707 131.824 119.439 131.044 122.715 129.484C125.991 127.872 127.629 125.506 127.629 122.386C127.629 119.162 125.991 116.796 122.715 115.288C119.439 113.78 114.707 113.026 108.519 113.026C102.331 113.026 97.5989 113.78 94.3229 115.288C91.0469 116.796 89.4089 119.162 89.4089 122.386C89.4089 125.506 91.0469 127.872 94.3229 129.484C97.5989 131.044 102.331 131.824 108.519 131.824ZM108.519 104.914C112.107 104.914 115.149 104.602 117.645 103.978C120.193 103.354 122.117 102.392 123.417 101.092C124.769 99.792 125.445 98.18 125.445 96.256C125.445 93.5 123.963 91.394 120.999 89.938C118.087 88.43 113.927 87.676 108.519 87.676C103.163 87.676 99.0029 88.43 96.0389 89.938C93.0749 91.394 91.5929 93.5 91.5929 96.256C91.5929 98.18 92.2429 99.792 93.5429 101.092C94.8949 102.392 96.8189 103.354 99.3149 103.978C101.863 104.602 104.931 104.914 108.519 104.914Z" fill="#98FFAF"/>
</svg>
