<svg width="220" height="220" viewBox="0 0 220 220" fill="none" xmlns="http://www.w3.org/2000/svg">
<rect x="1" y="1" width="218" height="218" rx="11" stroke="#98FFAF" stroke-width="2"/>
<path d="M107.815 140.092C103.239 140.092 99.1314 139.39 95.4914 137.986C91.9034 136.582 88.9654 134.658 86.6774 132.214C84.4414 129.77 83.0114 127.014 82.3874 123.946H92.5274C93.3594 126.078 94.9194 127.898 97.2074 129.406C99.4954 130.862 102.953 131.59 107.581 131.59C112.313 131.59 116.135 130.732 119.047 129.016C122.011 127.248 124.169 124.752 125.521 121.528C126.925 118.304 127.627 114.482 127.627 110.062C127.627 105.382 126.847 101.404 125.287 98.128C123.727 94.8 121.413 92.278 118.345 90.562C115.277 88.794 111.481 87.91 106.957 87.91C103.525 87.91 100.639 88.404 98.2994 89.392C96.0114 90.328 94.2694 91.654 93.0734 93.37C91.9294 95.034 91.3574 96.958 91.3574 99.142C91.3574 101.118 91.8774 102.912 92.9174 104.524C93.9574 106.136 95.5694 107.41 97.7534 108.346C99.9374 109.282 102.693 109.75 106.021 109.75C110.545 109.75 114.731 108.658 118.579 106.474C122.427 104.29 125.625 101.456 128.173 97.972L132.541 101.17C130.877 104.342 128.667 107.228 125.911 109.828C123.155 112.376 119.931 114.43 116.239 115.99C112.599 117.498 108.517 118.252 103.993 118.252C99.3654 118.252 95.3094 117.498 91.8254 115.99C88.3934 114.43 85.7154 112.246 83.7914 109.438C81.9194 106.578 80.9834 103.25 80.9834 99.454C80.9834 95.502 82.0494 92.018 84.1814 89.002C86.3134 85.986 89.3294 83.646 93.2294 81.982C97.1294 80.266 101.705 79.408 106.957 79.408C113.665 79.408 119.307 80.708 123.883 83.308C128.459 85.856 131.917 89.418 134.257 93.994C136.597 98.518 137.741 103.77 137.689 109.75C137.741 115.678 136.597 120.93 134.257 125.506C131.969 130.03 128.589 133.592 124.117 136.192C119.697 138.792 114.263 140.092 107.815 140.092Z" fill="#98FFAF"/>
</svg>
