<svg width="112" height="114" viewBox="0 0 112 114" fill="none" xmlns="http://www.w3.org/2000/svg">
<path d="M59.783 53.1668L47.5238 16.1912C47.2733 15.4357 47.0534 14.2687 47.8455 14.288C48.675 14.3082 48.8 15.4811 49.0331 16.2809L59.783 53.1668L59.3618 19.1258C59.3467 17.9107 59.5571 16.1371 60.7222 16.5125C61.8963 16.8908 61.5809 18.5696 61.5175 19.7909L59.783 53.1668L70.7138 22.477C71.0358 21.7831 71.9411 21.6086 72.6241 22.1088C73.201 22.5313 73.406 23.2871 73.0969 23.8519L59.783 53.1668Z" fill="#358E49"/>
<path d="M59.783 53.1668L97.564 63.1145C98.3338 63.3172 99.5124 63.4623 99.4423 62.6731C99.3689 61.8466 98.1905 61.7965 97.3777 61.6139L59.783 53.1668L93.875 51.4863C95.0888 51.4265 96.8453 51.1042 96.396 49.9657C95.9431 48.8184 94.2876 49.2391 93.0726 49.3774L59.783 53.1668L89.8026 40.3776C90.4743 40.0116 90.5903 39.097 90.0473 38.4475C89.5887 37.8989 88.8212 37.7428 88.2775 38.0876L59.783 53.1668Z" fill="#358E49"/>
<path d="M46.4942 11.5732L51.7151 12.1492C60.6606 13.1363 69.2745 16.2931 76.8026 21.3434C81.8931 24.7583 86.4495 29.0454 90.1885 33.9028C95.6919 41.0524 99.509 49.4709 101.18 58.2734L102.238 63.8473L107.063 55.5866C110.125 50.3437 111.717 44.3513 111.675 38.2248C111.63 31.7303 109.75 25.3411 106.253 19.7917L105.82 19.1054C102.052 13.1259 96.7641 8.15331 90.55 4.78563L89.695 4.32229C84.0558 1.26615 77.703 -0.161687 71.3628 0.20204C65.1112 0.560686 59.1189 2.64706 54.0528 6.22901L46.4942 11.5732Z" fill="#98FFAF"/>
<path d="M59.7775 53.1617L24.7996 38.7282L2.85713 62.1271L36.9956 77.4558L54.4837 110.54L76.4261 87.1412L59.7775 53.1617Z" fill="#98FFAF"/>
<path d="M34.617 79.9923L0.478516 64.6636L20.821 94.704L52.1051 113.077L34.617 79.9923Z" fill="#358E49"/>
</svg>
