<svg width="220" height="220" viewBox="0 0 220 220" fill="none" xmlns="http://www.w3.org/2000/svg">
<path fill-rule="evenodd" clip-rule="evenodd" d="M12 0C5.37258 0 0 5.37259 0 12V208C0 214.627 5.37259 220 12 220H208C214.627 220 220 214.627 220 208V12C220 5.37258 214.627 0 208 0H12ZM83.0924 123L92.0416 131.949C93.6037 133.511 93.6037 136.044 92.0416 137.606C90.4795 139.168 87.9469 139.168 86.3848 137.606L68 119.221L68.0042 119.217L68.0003 119.213L86.3851 100.828C87.9472 99.2663 90.4798 99.2663 92.0419 100.828C93.604 102.391 93.604 104.923 92.0419 106.485L83.5272 115H101H131C145.713 113.161 145.713 91.8391 131 90H108V82H131L139 82C157.335 89.5173 157.335 115.483 139 123H131H101H83.0924Z" fill="#EF687E"/>
</svg>
