<?xml version="1.0" encoding="UTF-8"?>
<svg xmlns="http://www.w3.org/2000/svg" xmlns:xlink="http://www.w3.org/1999/xlink" width="11px" height="16px" viewBox="0 0 11 16" version="1.1">
<g id="surface1">
<path style=" stroke:none;fill-rule:nonzero;fill:rgb(8.235294%,12.54902%,16.862746%);fill-opacity:1;" d="M 7.183594 0 L 7.070312 0.105469 C 5.671875 1.417969 4.804688 3.164062 4.625 5.03125 C 4.5625 5.695312 4.585938 6.363281 4.695312 7.019531 L 4.703125 7.066406 C 4.835938 7.839844 5.082031 8.589844 5.433594 9.296875 L 6.230469 10.910156 L 5.550781 10.46875 C 4.714844 9.925781 4.058594 9.164062 3.660156 8.277344 C 3.453125 7.816406 3.316406 7.324219 3.261719 6.828125 L 3.003906 4.554688 L 3.003906 3.117188 C 2.730469 4.074219 2.351562 4.996094 1.871094 5.875 L 1.371094 6.792969 L 0.535156 9.007812 C 0.378906 9.425781 0.269531 9.855469 0.203125 10.296875 L 0.132812 10.789062 C 0.0429688 11.382812 0.09375 11.984375 0.273438 12.558594 C 0.460938 13.15625 0.789062 13.707031 1.234375 14.167969 L 1.363281 14.304688 C 2.011719 14.980469 2.84375 15.472656 3.769531 15.726562 L 4.214844 15.847656 C 4.582031 15.949219 4.964844 16 5.34375 16 C 5.679688 16 6.011719 15.960938 6.335938 15.882812 L 7.078125 15.707031 C 8.078125 15.46875 8.96875 14.921875 9.609375 14.152344 C 10.167969 13.480469 10.515625 12.667969 10.605469 11.816406 L 10.632812 11.558594 C 10.726562 10.679688 10.589844 9.789062 10.234375 8.972656 L 9.8125 8.003906 C 9.601562 7.507812 9.34375 7.035156 9.046875 6.582031 L 8.328125 5.492188 L 7.949219 4.90625 C 7.546875 4.277344 7.269531 3.585938 7.125 2.867188 C 7.003906 2.257812 6.980469 1.636719 7.054688 1.023438 Z M 7.183594 0 "/>
</g>
</svg>
