<svg width="32" height="32" viewBox="0 0 32 32" fill="none" xmlns="http://www.w3.org/2000/svg">
<path fill-rule="evenodd" clip-rule="evenodd" d="M32 16C32 24.8366 24.8366 32 16 32C7.16344 32 0 24.8366 0 16C0 7.16344 7.16344 0 16 0C24.8366 0 32 7.16344 32 16ZM8.54818 10.3345V19.1157L11.1493 21.75H19.893L22.4941 24.5405V19.1157L18.9535 15.4471H15.7492L19.3399 19.1157H12.1923L11.3229 18.2925V11.2127L12.1923 10.3345H22.4941L19.893 7.7002H11.1493L8.54818 10.3345ZM8.45146 4.7469L7.9025 4.00018C8.52538 3.55961 9.1894 3.18371 9.88771 2.87637L10.2574 3.72457C9.55911 4.0319 9.07434 4.30632 8.45146 4.7469ZM5.47651 7.45942L4.72801 6.90952C5.27646 6.23299 5.88304 5.60648 6.54149 5.03645L7.12623 5.75548C6.46778 6.32551 6.02496 6.78289 5.47651 7.45942ZM3.31638 11.2324L2.43229 10.9477C2.73833 10.1324 3.11536 9.34603 3.55947 8.59686L4.34178 9.09378C3.89767 9.84295 3.62243 10.417 3.31638 11.2324ZM2.45551 15.5036L1.52676 15.5119C1.56049 14.6416 1.67074 13.7766 1.85635 12.9257L2.75533 13.151C2.56972 14.0019 2.48924 14.6334 2.45551 15.5036ZM2.99566 19.8248L2.11767 20.1278C1.87311 19.2919 1.70275 18.4367 1.60835 17.5709L2.53233 17.4988C2.62673 18.3646 2.7511 18.989 2.99566 19.8248ZM4.91186 23.7922L4.17715 24.3603C3.67775 23.6468 3.24244 22.8912 2.87572 22.1013L3.72795 21.7371C4.09468 22.527 4.41247 23.0787 4.91186 23.7922ZM7.94924 26.9036L7.43365 27.6761C6.73308 27.1587 6.07985 26.581 5.48071 25.949L6.17264 25.3324C6.77178 25.9645 7.24866 26.3862 7.94924 26.9036ZM11.8117 28.888L11.566 29.7837C10.738 29.5136 9.93593 29.1713 9.16806 28.7604L9.6303 27.9571C10.3982 28.368 10.9837 28.6179 11.8117 28.888ZM16.121 29.5511L16.1735 30.4784C15.3026 30.4862 14.4333 30.4173 13.5745 30.2724L13.7567 29.3637C14.6155 29.5086 15.2501 29.5589 16.121 29.5511ZM20.3793 28.8246L20.7219 29.6879C19.898 29.9702 19.0514 30.1794 18.1909 30.3131L18.0768 29.3933C18.9374 29.2596 19.5555 29.1069 20.3793 28.8246ZM23.5485 27.2531L24.0975 27.9998C23.4746 28.4404 22.8106 28.8163 22.1123 29.1236L21.7426 28.2754C22.4409 27.9681 22.9257 27.6936 23.5485 27.2531ZM26.5235 24.5405L27.272 25.0904C26.7235 25.7669 26.117 26.3935 25.4585 26.9635L24.8738 26.2444C25.5322 25.6744 25.975 25.217 26.5235 24.5405ZM28.6836 20.7676L29.5677 21.0522C29.2617 21.8676 28.8846 22.6539 28.4405 23.4031L27.6582 22.9062C28.1023 22.157 28.3776 21.5829 28.6836 20.7676ZM29.5445 16.4963L30.4732 16.488C30.4395 17.3583 30.3293 18.2234 30.1437 19.0743L29.2447 18.849C29.4303 17.9981 29.5108 17.3665 29.5445 16.4963ZM29.0043 12.1751L29.8823 11.8722C30.1269 12.708 30.2973 13.5633 30.3917 14.4291L29.4677 14.5011C29.3733 13.6353 29.2489 13.011 29.0043 12.1751ZM27.0881 8.20777L27.8228 7.63958C28.3222 8.35308 28.7576 9.10871 29.1243 9.89864L28.272 10.2628C27.9053 9.4729 27.5875 8.92127 27.0881 8.20777ZM24.0508 5.09634L24.5663 4.32381C25.2669 4.84119 25.9202 5.4189 26.5193 6.05097L25.8274 6.66754C25.2282 6.03547 24.7513 5.61372 24.0508 5.09634ZM20.1883 3.11193L20.434 2.21624C21.262 2.48635 22.0641 2.82863 22.8319 3.23956L22.3697 4.04285C21.6018 3.63192 21.0163 3.38204 20.1883 3.11193ZM15.879 2.44878L15.8265 1.52148C16.6974 1.51372 17.5667 1.58264 18.4255 1.72752L18.2433 2.63622C17.3845 2.49134 16.7499 2.44102 15.879 2.44878ZM11.6207 3.17534L11.2781 2.31205C12.102 2.02969 12.9486 1.82057 13.8091 1.68686L13.9232 2.60661C13.0626 2.74032 12.4445 2.89298 11.6207 3.17534Z" fill="#15202B"/>
</svg>
