<svg width="440" height="120" viewBox="0 0 440 120" fill="none" xmlns="http://www.w3.org/2000/svg">
<path fill-rule="evenodd" clip-rule="evenodd" d="M142.755 51.647V59.519H151.075C152.526 59.519 153.657 59.167 154.467 58.463C155.299 57.759 155.715 56.799 155.715 55.583C155.715 54.367 155.299 53.407 154.467 52.703C153.657 51.999 152.526 51.647 151.075 51.647H142.755ZM167.693 58.815V51.647H176.173C177.581 51.647 178.69 51.967 179.501 52.607C180.333 53.2257 180.749 54.1003 180.749 55.231C180.749 56.3403 180.333 57.215 179.501 57.855C178.69 58.495 177.581 58.815 176.173 58.815H167.693ZM355.104 57.887C356.044 57.4413 356.912 56.8352 357.708 56.0688C357.684 56.0129 357.658 55.9577 357.632 55.903C357.078 54.7297 356.267 53.8443 355.2 53.247C354.155 52.6497 352.886 52.351 351.392 52.351C350.326 52.351 349.44 52.5003 348.736 52.799C348.032 53.0763 347.488 53.4603 347.104 53.951C346.742 54.4417 346.56 54.9963 346.56 55.615C346.56 56.255 346.731 56.8097 347.072 57.279C347.435 57.7483 347.958 58.1217 348.64 58.399C349.323 58.655 350.176 58.783 351.2 58.783C352.566 58.783 353.867 58.4843 355.104 57.887ZM382.542 57.887C383.481 57.4413 384.349 56.8352 385.146 56.0688C385.121 56.0129 385.096 55.9577 385.07 55.903C384.515 54.7297 383.705 53.8443 382.638 53.247C381.593 52.6497 380.323 52.351 378.83 52.351C377.763 52.351 376.878 52.5003 376.174 52.799C375.47 53.0763 374.926 53.4603 374.542 53.951C374.179 54.4417 373.998 54.9963 373.998 55.615C373.998 56.255 374.169 56.8097 374.51 57.279C374.873 57.7483 375.395 58.1217 376.078 58.399C376.761 58.655 377.614 58.783 378.638 58.783C380.003 58.783 381.305 58.4843 382.542 57.887ZM52.4477 68.607H63.3755C64.6981 68.607 65.7221 68.3083 66.4475 67.711C67.1941 67.0923 67.5675 66.2177 67.5675 65.087C67.5675 63.8923 67.1301 62.9643 66.2555 62.303C65.4021 61.6417 64.1328 61.311 62.4475 61.311H53.5589L52.4477 68.607ZM53.5438 58.047H62.0315C63.1621 58.047 64.1008 57.7377 64.8475 57.119C65.5941 56.479 65.9675 55.5723 65.9675 54.399C65.9675 53.5243 65.6581 52.8097 65.0395 52.255C64.4208 51.679 63.5248 51.391 62.3515 51.391H52.4683L53.5438 58.047Z" fill="#98FFAF"/>
<path fill-rule="evenodd" clip-rule="evenodd" d="M16 0H424C432.837 0 440 7.16344 440 16V104C440 112.837 432.837 120 424 120H16C7.16346 120 0 112.837 0 104V16C0 7.16344 7.16344 0 16 0ZM68.3035 60.031C69.5195 60.5857 70.4048 61.3323 70.9595 62.271C71.5355 63.2097 71.8235 64.2657 71.8235 65.439C71.8235 66.719 71.5141 67.8497 70.8955 68.831C70.2981 69.8123 69.4128 70.591 68.2395 71.167C67.0661 71.7217 65.6048 71.999 63.8555 71.999H47.8555L49.7435 59.679L47.8555 47.999H63.2795C65.4981 47.999 67.2048 48.5217 68.3995 49.567C69.6155 50.591 70.2235 52.0097 70.2235 53.823C70.2235 54.783 69.9888 55.7217 69.5195 56.639C69.0715 57.535 68.3355 58.303 67.3115 58.943C67.0223 59.1214 66.7038 59.2804 66.356 59.4198C67.0851 59.563 67.7342 59.7667 68.3035 60.031ZM80.5492 65.407C79.9732 64.3617 79.6852 63.1243 79.6852 61.695V47.999H75.4612V61.855C75.4612 63.967 75.9412 65.823 76.9012 67.423C77.8612 69.0017 79.1945 70.239 80.9012 71.135C82.6292 72.0097 84.6239 72.447 86.8852 72.447C89.1679 72.447 91.1626 72.0097 92.8692 71.135C94.5759 70.239 95.9092 69.0017 96.8692 67.423C97.8292 65.823 98.3092 63.967 98.3092 61.855V47.999H94.0852V61.695C94.0852 63.1243 93.7972 64.3617 93.2212 65.407C92.6452 66.4523 91.8239 67.263 90.7572 67.839C89.6906 68.3937 88.3999 68.671 86.8852 68.671C85.3919 68.671 84.1012 68.3937 83.0132 67.839C81.9465 67.263 81.1252 66.4523 80.5492 65.407ZM116.751 71.999H112.527V62.204L101.199 47.999H105.967L114.623 58.8614L123.279 47.999H128.047L116.751 62.1714V71.999ZM151.235 47.999C153.027 47.999 154.574 48.319 155.875 48.959C157.198 49.599 158.211 50.495 158.915 51.647C159.641 52.7777 160.003 54.0897 160.003 55.583C160.003 57.0763 159.641 58.399 158.915 59.551C158.211 60.6817 157.198 61.567 155.875 62.207C154.574 62.847 153.027 63.167 151.235 63.167H142.755V71.999H138.531V47.999H151.235ZM167.693 71.999H163.469V47.999H176.557C178.242 47.999 179.714 48.3083 180.973 48.927C182.253 49.5243 183.245 50.367 183.949 51.455C184.674 52.5217 185.037 53.7803 185.037 55.231C185.037 56.639 184.674 57.887 183.949 58.975C183.245 60.0417 182.253 60.8843 180.973 61.503C179.946 61.99 178.778 62.2785 177.468 62.3685L185.645 71.999H180.589L172.52 62.399H167.693V71.999ZM208.574 61.759H194.312L193.269 68.351H209.502V71.999H188.574L190.494 59.999L188.574 47.999H209.342V51.647H193.269L194.312 58.239H208.574V61.759ZM246.194 71.999H242.162V52.0046L232.306 71.999H227.794L217.938 52.0328V71.999H213.906V47.999H220.37L230.065 67.9938L239.73 47.999H246.194V71.999ZM332.255 71.839C332.831 72.159 333.461 72.319 334.143 72.319C334.847 72.319 335.477 72.159 336.031 71.839C336.586 71.519 337.023 71.0817 337.343 70.527C337.663 69.951 337.823 69.3217 337.823 68.639C337.823 67.9563 337.663 67.3377 337.343 66.783C337.023 66.2283 336.586 65.791 336.031 65.471C335.477 65.1297 334.847 64.959 334.143 64.959C333.461 64.959 332.831 65.1297 332.255 65.471C331.701 65.791 331.263 66.2283 330.943 66.783C330.623 67.3377 330.463 67.9563 330.463 68.639C330.463 69.3217 330.623 69.951 330.943 70.527C331.263 71.0817 331.701 71.519 332.255 71.839ZM351.68 72.511C349.611 72.511 347.766 72.2017 346.144 71.583C344.544 70.943 343.243 70.079 342.24 68.991C341.259 67.903 340.662 66.6977 340.448 65.375H346.56C346.88 66.015 347.424 66.559 348.192 67.007C348.982 67.455 350.08 67.679 351.488 67.679C353.088 67.679 354.4 67.391 355.424 66.815C356.448 66.2177 357.206 65.375 357.696 64.287C358.208 63.1777 358.464 61.8337 358.464 60.255L358.464 60.164L358.464 60.0986L358.463 60.0297C358.369 60.1273 358.274 60.2237 358.176 60.319C357.131 61.343 355.894 62.1537 354.464 62.751C353.035 63.3483 351.392 63.647 349.536 63.647C347.552 63.647 345.835 63.3163 344.384 62.655C342.955 61.9937 341.856 61.0763 341.088 59.903C340.32 58.7297 339.926 57.375 339.904 55.839C339.926 54.2177 340.384 52.7777 341.28 51.519C342.176 50.2603 343.488 49.279 345.216 48.575C346.944 47.8497 349.035 47.487 351.488 47.487C354.432 47.487 356.875 48.0203 358.816 49.087C360.779 50.1537 362.251 51.6257 363.232 53.503C364.214 55.3803 364.694 57.535 364.672 59.967C364.694 62.399 364.214 64.5643 363.232 66.463C362.251 68.3403 360.79 69.823 358.848 70.911C356.928 71.9777 354.539 72.511 351.68 72.511ZM379.118 72.511C377.049 72.511 375.203 72.2017 373.582 71.583C371.982 70.943 370.681 70.079 369.678 68.991C368.697 67.903 368.099 66.6977 367.886 65.375H373.998C374.318 66.015 374.862 66.559 375.63 67.007C376.419 67.455 377.518 67.679 378.926 67.679C380.526 67.679 381.838 67.391 382.862 66.815C383.886 66.2177 384.643 65.375 385.134 64.287C385.646 63.1777 385.902 61.8337 385.902 60.255L385.902 60.159L385.901 60.0738L385.9 60.0297C385.807 60.1273 385.711 60.2237 385.614 60.319C384.569 61.343 383.331 62.1537 381.902 62.751C380.473 63.3483 378.83 63.647 376.974 63.647C374.99 63.647 373.273 63.3163 371.822 62.655C370.393 61.9937 369.294 61.0763 368.526 59.903C367.758 58.7297 367.363 57.375 367.342 55.839C367.363 54.2177 367.822 52.7777 368.718 51.519C369.614 50.2603 370.926 49.279 372.654 48.575C374.382 47.8497 376.473 47.487 378.926 47.487C381.87 47.487 384.313 48.0203 386.254 49.087C388.217 50.1537 389.689 51.6257 390.67 53.503C391.651 55.3803 392.131 57.535 392.11 59.967C392.131 62.399 391.651 64.5643 390.67 66.463C389.689 68.3403 388.227 69.823 386.286 70.911C384.366 71.9777 381.977 72.511 379.118 72.511ZM282.597 75.813L298.337 49.1656C300.215 45.9857 297.882 42 294.143 42H266.857C263.118 42 260.785 45.9857 262.663 49.1656L278.403 75.813C279.338 77.3957 281.662 77.3957 282.597 75.813ZM293.318 49.998L282.393 67.7753V46.4298H291.212C293.074 46.4298 294.242 48.4081 293.318 49.998ZM278.607 67.7753L267.682 49.998C266.758 48.4081 267.926 46.4298 269.788 46.4298H278.607V67.7753ZM316.328 72H322.888V67.52H326.728V62.624H322.888V61V57V48H314.504L306.319 57L302.681 61L301 62.848V67.52H316.328V72ZM307.746 62.624H316.328V61V57V53.1399L312.835 57L309.216 61L307.746 62.624Z" fill="#98FFAF"/>
</svg>
