<svg width="440" height="120" viewBox="0 0 440 120" fill="none" xmlns="http://www.w3.org/2000/svg">
<path fill-rule="evenodd" clip-rule="evenodd" d="M142.755 51.647V59.519H151.075C152.526 59.519 153.657 59.167 154.467 58.463C155.299 57.759 155.715 56.799 155.715 55.583C155.715 54.367 155.299 53.407 154.467 52.703C153.657 51.999 152.526 51.647 151.075 51.647H142.755ZM167.693 58.815V51.647H176.173C177.581 51.647 178.69 51.967 179.501 52.607C180.333 53.2257 180.749 54.1003 180.749 55.231C180.749 56.3403 180.333 57.215 179.501 57.855C178.69 58.495 177.581 58.815 176.173 58.815H167.693ZM355.104 79.887C356.044 79.4413 356.912 78.8352 357.708 78.0688C357.684 78.0129 357.658 77.9577 357.632 77.903C357.078 76.7297 356.267 75.8443 355.2 75.247C354.155 74.6497 352.886 74.351 351.392 74.351C350.326 74.351 349.44 74.5003 348.736 74.799C348.032 75.0763 347.488 75.4603 347.104 75.951C346.742 76.4417 346.56 76.9963 346.56 77.615C346.56 78.255 346.731 78.8097 347.072 79.279C347.435 79.7483 347.958 80.1217 348.64 80.399C349.323 80.655 350.176 80.783 351.2 80.783C352.566 80.783 353.867 80.4843 355.104 79.887ZM382.542 79.887C383.481 79.4413 384.349 78.8352 385.146 78.0688C385.121 78.0129 385.096 77.9577 385.07 77.903C384.515 76.7297 383.705 75.8443 382.638 75.247C381.593 74.6497 380.323 74.351 378.83 74.351C377.763 74.351 376.878 74.5003 376.174 74.799C375.47 75.0763 374.926 75.4603 374.542 75.951C374.179 76.4417 373.998 76.9963 373.998 77.615C373.998 78.255 374.169 78.8097 374.51 79.279C374.873 79.7483 375.395 80.1217 376.078 80.399C376.761 80.655 377.614 80.783 378.638 80.783C380.003 80.783 381.305 80.4843 382.542 79.887ZM52.4477 68.607H63.3755C64.6981 68.607 65.7221 68.3083 66.4475 67.711C67.1941 67.0923 67.5675 66.2177 67.5675 65.087C67.5675 63.8923 67.1301 62.9643 66.2555 62.303C65.4021 61.6417 64.1328 61.311 62.4475 61.311H53.5589L52.4477 68.607ZM53.5438 58.047H62.0315C63.1621 58.047 64.1008 57.7377 64.8475 57.119C65.5941 56.479 65.9675 55.5723 65.9675 54.399C65.9675 53.5243 65.6581 52.8097 65.0395 52.255C64.4208 51.679 63.5248 51.391 62.3515 51.391H52.4683L53.5438 58.047Z" fill="#98FFAF"/>
<path fill-rule="evenodd" clip-rule="evenodd" d="M424 0H16C7.16344 0 0 7.16344 0 16V104C0 112.837 7.16346 120 16 120H424C432.837 120 440 112.837 440 104V16C440 7.16344 432.837 0 424 0ZM70.9595 62.271C70.4048 61.3323 69.5195 60.5857 68.3035 60.031C67.7342 59.7667 67.0851 59.563 66.356 59.4198C66.7038 59.2804 67.0223 59.1214 67.3115 58.943C68.3355 58.303 69.0715 57.535 69.5195 56.639C69.9888 55.7217 70.2235 54.783 70.2235 53.823C70.2235 52.0097 69.6155 50.591 68.3995 49.567C67.2048 48.5217 65.4981 47.999 63.2795 47.999H47.8555L49.7435 59.679L47.8555 71.999H63.8555C65.6048 71.999 67.0661 71.7217 68.2395 71.167C69.4128 70.591 70.2981 69.8123 70.8955 68.831C71.5141 67.8497 71.8235 66.719 71.8235 65.439C71.8235 64.2657 71.5355 63.2097 70.9595 62.271ZM79.6852 61.695C79.6852 63.1243 79.9732 64.3617 80.5492 65.407C81.1252 66.4523 81.9465 67.263 83.0132 67.839C84.1012 68.3937 85.3919 68.671 86.8852 68.671C88.3999 68.671 89.6906 68.3937 90.7572 67.839C91.8239 67.263 92.6452 66.4523 93.2212 65.407C93.7972 64.3617 94.0852 63.1243 94.0852 61.695V47.999H98.3092V61.855C98.3092 63.967 97.8292 65.823 96.8692 67.423C95.9092 69.0017 94.5759 70.239 92.8692 71.135C91.1626 72.0097 89.1679 72.447 86.8852 72.447C84.6239 72.447 82.6292 72.0097 80.9012 71.135C79.1945 70.239 77.8612 69.0017 76.9012 67.423C75.9412 65.823 75.4612 63.967 75.4612 61.855V47.999H79.6852V61.695ZM112.527 71.999H116.751V62.1714L128.047 47.999H123.279L114.623 58.8614L105.967 47.999H101.199L112.527 62.204V71.999ZM155.875 48.959C154.574 48.319 153.027 47.999 151.235 47.999H138.531V71.999H142.755V63.167H151.235C153.027 63.167 154.574 62.847 155.875 62.207C157.198 61.567 158.211 60.6817 158.915 59.551C159.641 58.399 160.003 57.0763 160.003 55.583C160.003 54.0897 159.641 52.7777 158.915 51.647C158.211 50.495 157.198 49.599 155.875 48.959ZM163.469 71.999H167.693V62.399H172.52L180.589 71.999H185.645L177.468 62.3685C178.778 62.2785 179.946 61.99 180.973 61.503C182.253 60.8843 183.245 60.0417 183.949 58.975C184.674 57.887 185.037 56.639 185.037 55.231C185.037 53.7803 184.674 52.5217 183.949 51.455C183.245 50.367 182.253 49.5243 180.973 48.927C179.714 48.3083 178.242 47.999 176.557 47.999H163.469V71.999ZM194.312 61.759H208.574V58.239H194.312L193.269 51.647H209.342V47.999H188.574L190.494 59.999L188.574 71.999H209.502V68.351H193.269L194.312 61.759ZM242.162 71.999H246.194V47.999H239.73L230.065 67.9938L220.37 47.999H213.906V71.999H217.938V52.0328L227.794 71.999H232.306L242.162 52.0046V71.999ZM334.143 94.319C333.461 94.319 332.831 94.159 332.255 93.839C331.701 93.519 331.263 93.0817 330.943 92.527C330.623 91.951 330.463 91.3217 330.463 90.639C330.463 89.9563 330.623 89.3377 330.943 88.783C331.263 88.2283 331.701 87.791 332.255 87.471C332.831 87.1297 333.461 86.959 334.143 86.959C334.847 86.959 335.477 87.1297 336.031 87.471C336.586 87.791 337.023 88.2283 337.343 88.783C337.663 89.3377 337.823 89.9563 337.823 90.639C337.823 91.3217 337.663 91.951 337.343 92.527C337.023 93.0817 336.586 93.519 336.031 93.839C335.477 94.159 334.847 94.319 334.143 94.319ZM346.144 93.583C347.766 94.2017 349.611 94.511 351.68 94.511C354.539 94.511 356.928 93.9777 358.848 92.911C360.79 91.823 362.251 90.3403 363.232 88.463C364.214 86.5643 364.694 84.399 364.672 81.967C364.694 79.535 364.214 77.3803 363.232 75.503C362.251 73.6257 360.779 72.1537 358.816 71.087C356.875 70.0203 354.432 69.487 351.488 69.487C349.035 69.487 346.944 69.8497 345.216 70.575C343.488 71.279 342.176 72.2603 341.28 73.519C340.384 74.7777 339.926 76.2177 339.904 77.839C339.926 79.375 340.32 80.7297 341.088 81.903C341.856 83.0763 342.955 83.9937 344.384 84.655C345.835 85.3163 347.552 85.647 349.536 85.647C351.392 85.647 353.035 85.3483 354.464 84.751C355.894 84.1537 357.131 83.343 358.176 82.319C358.274 82.2237 358.369 82.1273 358.463 82.0297L358.464 82.0986L358.464 82.164L358.464 82.255C358.464 83.8337 358.208 85.1777 357.696 86.287C357.206 87.375 356.448 88.2177 355.424 88.815C354.4 89.391 353.088 89.679 351.488 89.679C350.08 89.679 348.982 89.455 348.192 89.007C347.424 88.559 346.88 88.015 346.56 87.375H340.448C340.662 88.6977 341.259 89.903 342.24 90.991C343.243 92.079 344.544 92.943 346.144 93.583ZM373.582 93.583C375.203 94.2017 377.049 94.511 379.118 94.511C381.977 94.511 384.366 93.9777 386.286 92.911C388.227 91.823 389.689 90.3403 390.67 88.463C391.651 86.5643 392.131 84.399 392.11 81.967C392.131 79.535 391.651 77.3803 390.67 75.503C389.689 73.6257 388.217 72.1537 386.254 71.087C384.313 70.0203 381.87 69.487 378.926 69.487C376.473 69.487 374.382 69.8497 372.654 70.575C370.926 71.279 369.614 72.2603 368.718 73.519C367.822 74.7777 367.363 76.2177 367.342 77.839C367.363 79.375 367.758 80.7297 368.526 81.903C369.294 83.0763 370.393 83.9937 371.822 84.655C373.273 85.3163 374.99 85.647 376.974 85.647C378.83 85.647 380.473 85.3483 381.902 84.751C383.331 84.1537 384.569 83.343 385.614 82.319C385.711 82.2237 385.807 82.1273 385.9 82.0297L385.901 82.0738L385.902 82.159L385.902 82.255C385.902 83.8337 385.646 85.1777 385.134 86.287C384.643 87.375 383.886 88.2177 382.862 88.815C381.838 89.391 380.526 89.679 378.926 89.679C377.518 89.679 376.419 89.455 375.63 89.007C374.862 88.559 374.318 88.015 373.998 87.375H367.886C368.099 88.6977 368.697 89.903 369.678 90.991C370.681 92.079 371.982 92.943 373.582 93.583ZM298.337 71.1656L282.597 97.813C281.662 99.3957 279.338 99.3957 278.403 97.813L262.663 71.1656C260.785 67.9857 263.118 64 266.857 64H294.143C297.882 64 300.215 67.9857 298.337 71.1656ZM282.393 89.7753L293.318 71.998C294.242 70.4081 293.074 68.4298 291.212 68.4298H282.393V89.7753ZM267.682 71.998L278.607 89.7753V68.4298H269.788C267.926 68.4298 266.758 70.4081 267.682 71.998ZM305.136 73.616C304.176 74.8533 303.632 76.2293 303.504 77.744H310.128C310.299 76.7413 310.832 75.9627 311.728 75.408C312.624 74.8533 313.904 74.576 315.568 74.576C317.125 74.576 318.288 74.8 319.056 75.248C319.845 75.696 320.24 76.3253 320.24 77.136C320.24 77.8827 319.899 78.48 319.216 78.928C318.555 79.376 317.381 79.6 315.696 79.6H311.568V84.08H315.696C316.997 84.08 318.011 84.176 318.736 84.368C319.461 84.5387 319.963 84.8053 320.24 85.168C320.539 85.5307 320.688 85.9787 320.688 86.512C320.688 87.4293 320.229 88.144 319.312 88.656C318.416 89.168 317.115 89.424 315.408 89.424C313.531 89.424 312.112 89.136 311.152 88.56C310.213 87.984 309.659 87.1627 309.488 86.096H302.896C302.96 87.8027 303.504 89.296 304.528 90.576C305.573 91.8347 307.024 92.8053 308.88 93.488C310.736 94.1707 312.912 94.512 315.408 94.512C317.989 94.512 320.165 94.192 321.936 93.552C323.728 92.912 325.093 92.0267 326.032 90.896C326.971 89.7653 327.44 88.4747 327.44 87.024C327.44 85.68 327.035 84.5707 326.224 83.696C325.435 82.8213 324.293 82.192 322.8 81.808C322.497 81.7301 322.182 81.6619 321.854 81.6033C322.213 81.5146 322.549 81.4122 322.864 81.296C324.272 80.7627 325.296 80.048 325.936 79.152C326.597 78.256 326.928 77.2747 326.928 76.208C326.928 74.8427 326.469 73.6587 325.552 72.656C324.656 71.6533 323.376 70.8747 321.712 70.32C320.069 69.7653 318.139 69.488 315.92 69.488C313.317 69.488 311.109 69.8613 309.296 70.608C307.483 71.3547 306.096 72.3573 305.136 73.616ZM293.709 35L298.337 27.1656C300.215 23.9857 297.882 20 294.143 20H266.857C263.118 20 260.785 23.9857 262.663 27.1656L267.291 35H250V39H269.654L278.403 53.813C279.338 55.3957 281.662 55.3957 282.597 53.813L291.346 39H301.681L300 40.848V45.52H315.328V50H321.888V45.52H325.728V40.624H321.888V39H341.976C342.633 39.6644 343.436 40.2161 344.384 40.655C345.835 41.3163 347.552 41.647 349.536 41.647C351.392 41.647 353.035 41.3483 354.464 40.751C355.561 40.2928 356.544 39.7092 357.415 39C357.679 38.7846 357.933 38.5576 358.176 38.319C358.274 38.2237 358.369 38.1273 358.463 38.0297L358.464 38.0986L358.464 38.164L358.464 38.255C358.464 38.5094 358.458 38.7578 358.445 39C358.375 40.2608 358.126 41.3565 357.696 42.287C357.206 43.375 356.448 44.2177 355.424 44.815C354.4 45.391 353.088 45.679 351.488 45.679C350.08 45.679 348.982 45.455 348.192 45.007C347.424 44.559 346.88 44.015 346.56 43.375H340.448C340.662 44.6977 341.259 45.903 342.24 46.991C343.243 48.079 344.544 48.943 346.144 49.583C347.766 50.2017 349.611 50.511 351.68 50.511C354.539 50.511 356.928 49.9777 358.848 48.911C360.79 47.823 362.251 46.3403 363.232 44.463C364.073 42.8375 364.545 41.0165 364.651 39H369.413C370.07 39.6644 370.873 40.2161 371.822 40.655C373.273 41.3163 374.99 41.647 376.974 41.647C378.83 41.647 380.473 41.3483 381.902 40.751C382.998 40.2928 383.982 39.7092 384.852 39C385.116 38.7846 385.37 38.5576 385.614 38.319C385.711 38.2237 385.807 38.1273 385.9 38.0297L385.901 38.0738L385.902 38.159L385.902 38.255C385.902 38.5094 385.895 38.7578 385.882 39C385.813 40.2608 385.563 41.3565 385.134 42.287C384.643 43.375 383.886 44.2177 382.862 44.815C381.838 45.391 380.526 45.679 378.926 45.679C377.518 45.679 376.419 45.455 375.63 45.007C374.862 44.559 374.318 44.015 373.998 43.375H367.886C368.099 44.6977 368.697 45.903 369.678 46.991C370.681 48.079 371.982 48.943 373.582 49.583C375.203 50.2017 377.049 50.511 379.118 50.511C381.977 50.511 384.366 49.9777 386.286 48.911C388.227 47.823 389.689 46.3403 390.67 44.463C391.51 42.8375 391.983 41.0165 392.088 39H408V35H391.862C391.629 33.7434 391.232 32.5778 390.67 31.503C389.689 29.6257 388.217 28.1537 386.254 27.087C384.313 26.0203 381.87 25.487 378.926 25.487C376.473 25.487 374.382 25.8497 372.654 26.575C370.926 27.279 369.614 28.2603 368.718 29.519C367.822 30.7777 367.363 32.2177 367.342 33.839C367.348 34.2383 367.378 34.6253 367.434 35H364.425C364.192 33.7434 363.794 32.5778 363.232 31.503C362.251 29.6257 360.779 28.1537 358.816 27.087C356.875 26.0203 354.432 25.487 351.488 25.487C349.035 25.487 346.944 25.8497 345.216 26.575C343.488 27.279 342.176 28.2603 341.28 29.519C340.384 30.7777 339.926 32.2177 339.904 33.839C339.91 34.2383 339.941 34.6253 339.997 35H321.888V26H313.504L305.319 35H293.709ZM356.598 35C356.982 34.7216 357.352 34.4112 357.708 34.0688C357.684 34.0129 357.658 33.9577 357.632 33.903C357.078 32.7297 356.267 31.8443 355.2 31.247C354.155 30.6497 352.886 30.351 351.392 30.351C350.326 30.351 349.44 30.5003 348.736 30.799C348.032 31.0763 347.488 31.4603 347.104 31.951C346.742 32.4417 346.56 32.9963 346.56 33.615C346.56 34.1324 346.672 34.5941 346.895 35H356.598ZM315.328 35V31.1399L311.835 35H315.328ZM306.746 40.624L308.216 39H315.328V40.624H306.746ZM289.015 35L293.318 27.998C294.242 26.4081 293.074 24.4298 291.212 24.4298H282.393V35H289.015ZM282.393 45.7753V39H286.556L282.393 45.7753ZM271.985 35H278.607V24.4298H269.788C267.926 24.4298 266.758 26.4081 267.682 27.998L271.985 35ZM274.444 39L278.607 45.7753V39H274.444ZM384.035 35C384.42 34.7216 384.79 34.4112 385.146 34.0688C385.121 34.0129 385.096 33.9577 385.07 33.903C384.515 32.7297 383.705 31.8443 382.638 31.247C381.593 30.6497 380.323 30.351 378.83 30.351C377.763 30.351 376.878 30.5003 376.174 30.799C375.47 31.0763 374.926 31.4603 374.542 31.951C374.179 32.4417 373.998 32.9963 373.998 33.615C373.998 34.1324 374.11 34.5941 374.333 35H384.035ZM332.255 49.839C332.831 50.159 333.461 50.319 334.143 50.319C334.847 50.319 335.477 50.159 336.031 49.839C336.586 49.519 337.023 49.0817 337.343 48.527C337.663 47.951 337.823 47.3217 337.823 46.639C337.823 45.9563 337.663 45.3377 337.343 44.783C337.023 44.2283 336.586 43.791 336.031 43.471C335.477 43.1297 334.847 42.959 334.143 42.959C333.461 42.959 332.831 43.1297 332.255 43.471C331.701 43.791 331.263 44.2283 330.943 44.783C330.623 45.3377 330.463 45.9563 330.463 46.639C330.463 47.3217 330.623 47.951 330.943 48.527C331.263 49.0817 331.701 49.519 332.255 49.839Z" fill="#98FFAF"/>
</svg>
