<svg width="440" height="120" viewBox="0 0 440 120" fill="none" xmlns="http://www.w3.org/2000/svg">
<path d="M16 1H424C432.284 1 439 7.71573 439 16V104C439 112.284 432.284 119 424 119H16C7.71574 119 1 112.284 1 104V16C1 7.71573 7.71573 1 16 1Z" stroke="#98FFAF" stroke-width="2"/>
<path d="M62.392 60.095L62.808 59.167C64.7067 59.1883 66.2533 59.4763 67.448 60.031C68.664 60.5857 69.5493 61.3323 70.104 62.271C70.68 63.2097 70.968 64.2657 70.968 65.439C70.968 66.719 70.6587 67.8497 70.04 68.831C69.4427 69.8123 68.5573 70.591 67.384 71.167C66.2107 71.7217 64.7493 71.999 63 71.999H47L48.888 59.679L47 47.999H62.424C64.6427 47.999 66.3493 48.5217 67.544 49.567C68.76 50.591 69.368 52.0097 69.368 53.823C69.368 54.783 69.1333 55.7217 68.664 56.639C68.216 57.535 67.48 58.303 66.456 58.943C65.4533 59.5617 64.0987 59.9457 62.392 60.095ZM51.256 70.815L49.624 68.607H62.52C63.8427 68.607 64.8667 68.3083 65.592 67.711C66.3387 67.0923 66.712 66.2177 66.712 65.087C66.712 63.8923 66.2747 62.9643 65.4 62.303C64.5467 61.6417 63.2773 61.311 61.592 61.311H51.192V58.047H61.176C62.3067 58.047 63.2453 57.7377 63.992 57.119C64.7387 56.479 65.112 55.5723 65.112 54.399C65.112 53.5243 64.8027 52.8097 64.184 52.255C63.5653 51.679 62.6693 51.391 61.496 51.391H49.624L51.256 49.183L52.952 59.679L51.256 70.815Z" fill="#98FFAF"/>
<path d="M78.8298 61.695C78.8298 63.1243 79.1177 64.3617 79.6937 65.407C80.2697 66.4523 81.0911 67.263 82.1577 67.839C83.2457 68.3937 84.5364 68.671 86.0298 68.671C87.5444 68.671 88.8351 68.3937 89.9018 67.839C90.9684 67.263 91.7898 66.4523 92.3657 65.407C92.9417 64.3617 93.2298 63.1243 93.2298 61.695V47.999H97.4538V61.855C97.4538 63.967 96.9738 65.823 96.0138 67.423C95.0538 69.0017 93.7204 70.239 92.0138 71.135C90.3071 72.0097 88.3124 72.447 86.0298 72.447C83.7684 72.447 81.7737 72.0097 80.0457 71.135C78.3391 70.239 77.0057 69.0017 76.0457 67.423C75.0857 65.823 74.6057 63.967 74.6057 61.855V47.999H78.8298V61.695Z" fill="#98FFAF"/>
<path d="M111.672 71.999V60.543H115.896V71.999H111.672ZM100.343 47.999H105.111L114.904 60.287H112.632L122.424 47.999H127.191L115.128 63.135L112.439 63.167L100.343 47.999Z" fill="#98FFAF"/>
<path d="M152.236 60.095L152.652 59.167C154.55 59.1883 156.097 59.4763 157.292 60.031C158.508 60.5857 159.393 61.3323 159.948 62.271C160.524 63.2097 160.812 64.2657 160.812 65.439C160.812 66.719 160.502 67.8497 159.884 68.831C159.286 69.8123 158.401 70.591 157.228 71.167C156.054 71.7217 154.593 71.999 152.844 71.999H136.844L138.732 59.679L136.844 47.999H152.268C154.486 47.999 156.193 48.5217 157.388 49.567C158.604 50.591 159.212 52.0097 159.212 53.823C159.212 54.783 158.977 55.7217 158.508 56.639C158.06 57.535 157.324 58.303 156.3 58.943C155.297 59.5617 153.942 59.9457 152.236 60.095ZM141.1 70.815L139.468 68.607H152.364C153.686 68.607 154.71 68.3083 155.436 67.711C156.182 67.0923 156.556 66.2177 156.556 65.087C156.556 63.8923 156.118 62.9643 155.244 62.303C154.39 61.6417 153.121 61.311 151.436 61.311H141.036V58.047H151.02C152.15 58.047 153.089 57.7377 153.836 57.119C154.582 56.479 154.956 55.5723 154.956 54.399C154.956 53.5243 154.646 52.8097 154.028 52.255C153.409 51.679 152.513 51.391 151.34 51.391H139.468L141.1 49.183L142.796 59.679L141.1 70.815Z" fill="#98FFAF"/>
<path d="M166.813 66.495V63.007H183.581V66.495H166.813ZM177.949 47.999L189.469 71.999H184.957L174.493 49.599H176.125L165.661 71.999H161.149L172.669 47.999H177.949Z" fill="#98FFAF"/>
<path d="M189.766 64.191H194.054C194.182 65.151 194.577 65.9937 195.238 66.719C195.921 67.4443 196.817 68.0097 197.926 68.415C199.036 68.799 200.316 68.991 201.766 68.991C203.921 68.991 205.628 68.6603 206.886 67.999C208.145 67.3163 208.774 66.399 208.774 65.247C208.774 64.3083 208.412 63.6043 207.686 63.135C206.961 62.6657 205.649 62.3137 203.75 62.079L198.566 61.407C195.665 61.023 193.553 60.3083 192.23 59.263C190.929 58.1963 190.278 56.6923 190.278 54.751C190.278 53.279 190.716 52.0097 191.59 50.943C192.486 49.855 193.745 49.023 195.366 48.447C196.988 47.8497 198.886 47.551 201.062 47.551C203.217 47.551 205.126 47.871 206.79 48.511C208.454 49.151 209.777 50.047 210.758 51.199C211.761 52.3297 212.305 53.663 212.39 55.199H208.102C207.996 54.3457 207.633 53.6097 207.014 52.991C206.417 52.3723 205.606 51.8923 204.582 51.551C203.558 51.1883 202.353 51.007 200.966 51.007C199.004 51.007 197.436 51.327 196.262 51.967C195.089 52.607 194.502 53.4817 194.502 54.591C194.502 55.4443 194.844 56.1057 195.526 56.575C196.23 57.023 197.446 57.3643 199.174 57.599L204.422 58.335C206.577 58.6337 208.273 59.039 209.51 59.551C210.769 60.0417 211.665 60.7137 212.198 61.567C212.732 62.399 212.998 63.4763 212.998 64.799C212.998 66.335 212.529 67.679 211.59 68.831C210.652 69.983 209.329 70.879 207.622 71.519C205.937 72.1377 203.964 72.447 201.702 72.447C199.398 72.447 197.361 72.1057 195.59 71.423C193.841 70.719 192.454 69.7483 191.43 68.511C190.406 67.2737 189.852 65.8337 189.766 64.191Z" fill="#98FFAF"/>
<path d="M236.094 58.239V61.759H219.326V58.239H236.094ZM222.11 59.999L220.414 70.719L218.398 68.351H237.022V71.999H216.094L218.014 59.999L216.094 47.999H236.862V51.647H218.398L220.414 49.279L222.11 59.999Z" fill="#98FFAF"/>
<path d="M316.46 72.511C313.729 72.511 311.351 71.999 309.324 70.975C307.297 69.9297 305.729 68.4683 304.62 66.591C303.532 64.7137 302.988 62.5163 302.988 59.999C302.988 57.4817 303.532 55.2843 304.62 53.407C305.729 51.5297 307.297 50.079 309.324 49.055C311.351 48.0097 313.729 47.487 316.46 47.487C319.169 47.487 321.527 48.0097 323.532 49.055C325.559 50.079 327.127 51.5297 328.236 53.407C329.345 55.2843 329.9 57.4817 329.9 59.999C329.9 62.5163 329.345 64.7137 328.236 66.591C327.127 68.4683 325.559 69.9297 323.532 70.975C321.527 71.999 319.169 72.511 316.46 72.511ZM316.46 67.135C318.615 67.135 320.289 66.5163 321.484 65.279C322.679 64.0203 323.276 62.2603 323.276 59.999C323.276 57.7163 322.679 55.9563 321.484 54.719C320.289 53.4817 318.615 52.863 316.46 52.863C314.305 52.863 312.62 53.4817 311.404 54.719C310.188 55.9563 309.58 57.7163 309.58 59.999C309.58 62.2603 310.188 64.0203 311.404 65.279C312.62 66.5163 314.305 67.135 316.46 67.135Z" fill="#98FFAF"/>
<path d="M335.225 72.319C334.543 72.319 333.913 72.159 333.337 71.839C332.783 71.519 332.345 71.0817 332.025 70.527C331.705 69.951 331.545 69.3217 331.545 68.639C331.545 67.9563 331.705 67.3377 332.025 66.783C332.345 66.2283 332.783 65.791 333.337 65.471C333.913 65.1297 334.543 64.959 335.225 64.959C335.929 64.959 336.559 65.1297 337.113 65.471C337.668 65.791 338.105 66.2283 338.425 66.783C338.745 67.3377 338.905 67.9563 338.905 68.639C338.905 69.3217 338.745 69.951 338.425 70.527C338.105 71.0817 337.668 71.519 337.113 71.839C336.559 72.159 335.929 72.319 335.225 72.319Z" fill="#98FFAF"/>
<path d="M341.107 56.639C341.235 54.7617 341.854 53.1403 342.963 51.775C344.072 50.3883 345.544 49.3323 347.379 48.607C349.235 47.8603 351.326 47.487 353.651 47.487C355.87 47.487 357.8 47.8283 359.443 48.511C361.107 49.1723 362.398 50.1003 363.315 51.295C364.232 52.4897 364.691 53.8763 364.691 55.455C364.691 56.671 364.36 57.8123 363.699 58.879C363.038 59.9243 362.003 60.959 360.595 61.983C359.187 62.9857 357.342 64.0417 355.059 65.151L348.467 68.447L348.211 66.751H365.363V71.999H341.619V67.391L351.923 61.599C353.523 60.6817 354.76 59.9137 355.635 59.295C356.531 58.655 357.16 58.0683 357.523 57.535C357.907 57.0017 358.099 56.4363 358.099 55.839C358.099 55.1777 357.918 54.6123 357.555 54.143C357.214 53.6523 356.691 53.2683 355.987 52.991C355.283 52.7137 354.419 52.575 353.395 52.575C352.115 52.575 351.07 52.767 350.259 53.151C349.448 53.5137 348.84 54.0043 348.435 54.623C348.03 55.2203 347.784 55.8923 347.699 56.639H341.107Z" fill="#98FFAF"/>
<path d="M379.794 72.511C377.724 72.511 375.879 72.2017 374.258 71.583C372.658 70.943 371.356 70.079 370.354 68.991C369.372 67.903 368.775 66.6977 368.562 65.375H374.674C374.994 66.015 375.538 66.559 376.306 67.007C377.095 67.455 378.194 67.679 379.602 67.679C381.202 67.679 382.514 67.391 383.538 66.815C384.562 66.2177 385.319 65.375 385.81 64.287C386.322 63.1777 386.578 61.8337 386.578 60.255C386.578 58.527 386.3 57.0763 385.746 55.903C385.191 54.7297 384.38 53.8443 383.314 53.247C382.268 52.6497 380.999 52.351 379.506 52.351C378.439 52.351 377.554 52.5003 376.85 52.799C376.146 53.0763 375.602 53.4603 375.218 53.951C374.855 54.4417 374.674 54.9963 374.674 55.615C374.674 56.255 374.844 56.8097 375.186 57.279C375.548 57.7483 376.071 58.1217 376.754 58.399C377.436 58.655 378.29 58.783 379.314 58.783C380.679 58.783 381.98 58.4843 383.218 57.887C384.476 57.2897 385.607 56.4043 386.61 55.231L388.85 56.767C388.21 58.0897 387.356 59.2737 386.29 60.319C385.244 61.343 384.007 62.1537 382.578 62.751C381.148 63.3483 379.506 63.647 377.65 63.647C375.666 63.647 373.948 63.3163 372.498 62.655C371.068 61.9937 369.97 61.0763 369.202 59.903C368.434 58.7297 368.039 57.375 368.018 55.839C368.039 54.2177 368.498 52.7777 369.394 51.519C370.29 50.2603 371.602 49.279 373.33 48.575C375.058 47.8497 377.148 47.487 379.602 47.487C382.546 47.487 384.988 48.0203 386.93 49.087C388.892 50.1537 390.364 51.6257 391.346 53.503C392.327 55.3803 392.807 57.535 392.786 59.967C392.807 62.399 392.327 64.5643 391.346 66.463C390.364 68.3403 388.903 69.823 386.962 70.911C385.042 71.9777 382.652 72.511 379.794 72.511Z" fill="#98FFAF"/>
<path fill-rule="evenodd" clip-rule="evenodd" d="M297.337 49.1656L281.597 75.813C280.662 77.3957 278.338 77.3957 277.403 75.813L261.663 49.1656C259.785 45.9857 262.118 42 265.857 42H293.143C296.882 42 299.215 45.9857 297.337 49.1656ZM281.393 67.7753L292.318 49.998C293.242 48.4081 292.074 46.4298 290.212 46.4298H281.393V67.7753ZM277.607 67.7753L266.682 49.998C265.758 48.4081 266.926 46.4298 268.788 46.4298H277.607V67.7753Z" fill="#98FFAF"/>
</svg>
