<svg width="256" height="256" viewBox="0 0 256 256" fill="none" xmlns="http://www.w3.org/2000/svg">
<path fill-rule="evenodd" clip-rule="evenodd" d="M256 128C256 198.692 198.692 256 128 256C57.3076 256 0 198.692 0 128C0 57.3076 57.3076 0 128 0C198.692 0 256 57.3076 256 128ZM155.973 147.274L167.906 124.302L171.914 127.534L163.946 162.899L182.796 181.446L200.497 191.088C205.289 193.698 208.17 198.814 207.916 204.263C207.626 210.469 203.344 215.77 197.336 217.364C192.061 218.763 186.449 217.029 182.883 212.898L169.716 197.643L147.596 183.145L114.69 198.395L110.682 195.163L130.631 178.656L97.5304 148.615L56.667 117.762C41.2653 106.134 30.9757 88.9898 27.9628 69.9372C47.2336 68.8577 66.1738 75.2895 80.7992 87.8794L119.603 121.283L155.973 147.274ZM83.4034 81.2198L125.368 118.572L148.89 134.375C153.335 130.75 157.795 126.973 160.662 122.006C165.436 113.734 166.861 104.187 166.413 94.1231L166.011 85.1547L164.565 86.9035C162.692 89.1697 160.068 90.6852 157.172 91.1728L155.619 91.4343C153.891 91.7254 152.115 91.4195 150.584 90.5669C147.752 88.9903 146.204 85.811 146.707 82.6042L147.126 79.9276C147.454 77.8365 148.345 75.8745 149.704 74.2532L151.747 71.8161C153.493 69.7331 154.841 67.3458 155.724 64.7739L156.398 62.8074C157.712 58.9802 157.587 54.8054 156.047 51.0654C155.518 49.7813 154.83 48.5686 154 47.4559L149.669 41.6484L150.007 45.0119C150.223 47.1609 149.595 49.3101 148.256 51.0036L147.871 51.49C146.252 53.537 143.659 54.5532 141.084 54.1497C138.964 53.8176 137.102 52.5595 136.001 50.7158L134.736 48.599C132.711 45.208 132.405 41.0568 133.911 37.4028L134.961 34.8557C135.866 32.6628 137.194 30.6703 138.869 28.9929L147.882 19.9694L138.503 21.7766C132.562 22.9215 127.051 25.6882 122.579 29.7713C119.231 32.8276 116.55 36.5442 114.705 40.6873L113.689 42.97C111.427 48.0486 110.586 53.6468 111.255 59.1658L112.752 71.5069C113.062 74.0569 112.069 76.5924 110.11 78.2524C108.422 79.6837 106.196 80.3095 104.011 79.9671L103.326 79.8597C101.236 79.5322 99.324 78.4878 97.9178 76.9049L95.7856 74.5049C93.1827 71.5751 91.6745 68.3029 91.9578 64.3928L92.2159 60.8313L87.0482 65.6425C85.0826 67.9442 83.4034 81.2198 83.4034 81.2198Z" fill="#98FFAF"/>
</svg>
