<svg width="181" height="229" viewBox="0 0 181 229" fill="none" xmlns="http://www.w3.org/2000/svg">
<path d="M120.848 62.8827L137.655 4.01123L139.28 3.38185C145.525 0.962843 152.757 3.40883 155.754 8.95309L137.136 65.9594C135.542 70.1742 130.683 72.5893 125.926 71.5314L125.773 71.4974L123.499 70.1993C120.798 68.6579 119.684 65.5847 120.848 62.8827Z" fill="#98FFAF"/>
<path fill-rule="evenodd" clip-rule="evenodd" d="M24.7211 228.566L41.0416 224.587C44.023 218.323 51.6791 215.078 58.8629 217.035L65.04 218.718C67.0914 219.277 69.2212 219.56 71.3624 219.56H110.642C112.784 219.56 114.913 219.277 116.965 218.718L123.142 217.035C130.326 215.078 137.982 218.323 140.963 224.587L157.284 228.566L155.594 214.986C155.48 214.068 155.245 213.167 154.896 212.3C153.121 207.894 154.44 202.948 158.236 199.773L165.422 193.766C166.382 192.963 167.569 191.783 168.777 190.504C173.077 185.95 176.135 180.399 178.31 174.525C181.136 166.895 181.072 152.639 180.912 146.831C180.865 145.123 180.653 143.428 180.328 141.75C179.646 138.232 178.459 134.831 176.803 131.652L173.104 124.554L168.906 115.987C166.307 110.685 165.826 104.723 167.546 99.132L164.277 100.031C150.217 103.895 135.48 105.294 120.848 104.152L125.773 103.773C137.208 102.892 148.471 100.68 159.287 97.1897C172.987 93.2727 174.159 76.0359 161.095 70.6099L158.716 69.6219C157.763 69.2261 156.771 68.9129 155.754 68.6866L140.73 65.9594C134.69 82.087 113.249 75.4244 117.063 62.8827L90.855 61.4859L65.9175 62.1404C65.3281 60.293 64.6085 58.447 63.3151 57.0023C55.2421 47.9847 38.304 52.4113 38.0196 64.9649L32.1048 66.111C27.1919 67.0628 22.381 68.408 17.7281 70.1307C14.0502 71.8418 11.5424 74.5066 10.1817 77.5306C7.38582 84.4007 10.3451 93.3641 18.5056 96.7756C19.1651 97.0513 19.8454 97.2838 20.5413 97.4713L27.5394 99.3564C35.1659 101.411 43.0021 102.754 50.927 103.364L61.1569 104.152C46.5245 105.294 31.7873 103.895 17.7281 100.031L14.459 99.132C16.1784 104.723 15.6974 110.685 13.0992 115.987L8.90094 124.554L6.38796 129.377C3.94534 134.064 2.19391 139.08 1.18811 144.269L0.744803 148.698C0.152681 154.612 0.523096 160.584 1.84164 166.38C3.06985 171.779 5.10613 176.961 7.88164 181.752L8.90094 183.512L16.5827 193.766L23.7683 199.773C27.5649 202.948 28.8838 207.894 27.1086 212.3C26.7593 213.167 26.5251 214.068 26.4109 214.986L24.7211 228.566ZM23.2792 116.209L24.7211 114.374C17.9509 128.685 14.459 144.107 14.459 159.688C10.1593 144.722 13.3913 128.79 23.2792 116.209ZM88.0979 95.2737L72.6167 94.4376C57.7716 93.6358 43.0846 91.2245 28.867 87.2546L29.4134 84.4468C31.6532 72.9379 49.5995 72.463 52.5697 83.8341L52.7231 83.735C59.0218 79.6688 67.6041 80.2454 73.1788 85.1095L73.8132 83.0211C77.4182 71.1528 96.1253 71.7617 98.7902 83.8341C101.046 75.6184 113.974 75.8985 115.799 84.2026L115.998 85.1095L116.372 84.8491C125.745 78.3294 139.24 80.5212 145.558 89.5894C132.701 92.0137 119.667 93.583 106.56 94.285L88.0979 95.2737Z" fill="#98FFAF"/>
<path d="M57.3324 4.80083C57.4532 7.05932 55.7203 8.98816 53.4618 9.109C51.2033 9.22985 49.2745 7.49694 49.1537 5.23844C49.0328 2.97995 50.7657 1.05111 53.0242 0.930271C55.2827 0.809428 57.2115 2.54234 57.3324 4.80083Z" fill="#98FFAF"/>
<path d="M23.8484 42.1906L26.0627 47.3475L31.4264 48.9988L26.2695 51.2131L24.6182 56.5768L22.4039 51.4199L17.0402 49.7686L22.1971 47.5544L23.8484 42.1906Z" fill="#98FFAF"/>
<path d="M103.802 5.31041L107.586 14.123L116.752 16.9449L107.939 20.7288L105.117 29.8949L101.333 21.0823L92.1672 18.2604L100.98 14.4764L103.802 5.31041Z" fill="#98FFAF"/>
<path d="M66.1937 44.9994C66.1937 44.9994 62.0029 35.9971 55.2756 34.9557C48.5482 33.9144 41.8317 41.2283 41.8317 41.2283C42.8731 34.5009 49.1709 29.8915 55.8983 30.9329C62.6257 31.9742 67.2351 38.2721 66.1937 44.9994Z" fill="#98FFAF"/>
<path d="M98.0436 50.446C98.0436 50.446 93.7182 48.5943 91.015 50.3541C88.3117 52.1138 88.2543 56.8185 88.2543 56.8185C86.4945 54.1153 87.2594 50.4973 89.9627 48.7376C92.6659 46.9778 96.2839 47.7427 98.0436 50.446Z" fill="#98FFAF"/>
<path fill-rule="evenodd" clip-rule="evenodd" d="M75.0587 27.3703C78.7711 27.1717 81.6195 24.0012 81.4209 20.2888C81.2222 16.5765 78.0518 13.728 74.3394 13.9267C70.627 14.1253 67.7786 17.2958 67.9772 21.0082C68.1758 24.7205 71.3463 27.569 75.0587 27.3703ZM72.287 17.463C74.9902 15.7033 76.0138 15.5908 76.0138 15.5908C76.0138 15.5908 73.938 14.0868 71.2347 15.8465C68.5315 17.6062 68.8186 22.1693 70.5783 24.8726C70.5783 24.8726 69.5837 19.2227 72.287 17.463Z" fill="#98FFAF"/>
</svg>
