<svg width="180" height="60" viewBox="0 0 180 60" fill="none" xmlns="http://www.w3.org/2000/svg">
<rect x="1.5" y="1.5" width="177" height="57" rx="4.5" stroke="#98FFAF" stroke-width="3"/>
<path d="M58.92 31.8721C58.76 33.3441 58.24 34.6481 57.36 35.7841C56.496 36.9041 55.36 37.7761 53.952 38.4001C52.544 39.0241 50.936 39.3361 49.128 39.3361C47.112 39.3361 45.344 38.9441 43.824 38.1601C42.304 37.3761 41.12 36.2881 40.272 34.8961C39.424 33.4881 39 31.8561 39 30.0001C39 28.1441 39.424 26.5201 40.272 25.1281C41.12 23.7201 42.304 22.6241 43.824 21.8401C45.344 21.0561 47.112 20.6641 49.128 20.6641C50.936 20.6641 52.544 20.9761 53.952 21.6001C55.36 22.2241 56.496 23.0961 57.36 24.2161C58.24 25.3361 58.76 26.6401 58.92 28.1281H55.728C55.552 27.1681 55.168 26.3441 54.576 25.6561C54 24.9681 53.248 24.4401 52.32 24.0721C51.392 23.6881 50.32 23.4961 49.104 23.4961C47.696 23.4961 46.472 23.7601 45.432 24.2881C44.408 24.8161 43.616 25.5681 43.056 26.5441C42.496 27.5201 42.216 28.6721 42.216 30.0001C42.216 31.3281 42.496 32.4801 43.056 33.4561C43.616 34.4321 44.408 35.1841 45.432 35.7121C46.472 36.2401 47.696 36.5041 49.104 36.5041C50.32 36.5041 51.392 36.3201 52.32 35.9521C53.248 35.5841 54 35.0561 54.576 34.3681C55.168 33.6641 55.552 32.8321 55.728 31.8721H58.92Z" fill="white"/>
<path d="M61.8266 21.0001H64.9946V39.0001H61.8266V21.0001ZM76.4666 21.0001H79.6346V39.0001H76.4666V21.0001ZM63.5306 28.5361H77.9786V31.3201H63.5306V28.5361Z" fill="white"/>
<path d="M98.0464 28.6801V31.3201H85.4704V28.6801H98.0464ZM87.5584 30.0001L86.2864 38.0401L84.7744 36.2641H98.7424V39.0001H83.0464L84.4864 30.0001L83.0464 21.0001H98.6224V23.7361H84.7744L86.2864 21.9601L87.5584 30.0001Z" fill="white"/>
<path d="M120.725 31.8721C120.565 33.3441 120.045 34.6481 119.165 35.7841C118.301 36.9041 117.165 37.7761 115.757 38.4001C114.349 39.0241 112.741 39.3361 110.933 39.3361C108.917 39.3361 107.149 38.9441 105.629 38.1601C104.109 37.3761 102.925 36.2881 102.077 34.8961C101.229 33.4881 100.805 31.8561 100.805 30.0001C100.805 28.1441 101.229 26.5201 102.077 25.1281C102.925 23.7201 104.109 22.6241 105.629 21.8401C107.149 21.0561 108.917 20.6641 110.933 20.6641C112.741 20.6641 114.349 20.9761 115.757 21.6001C117.165 22.2241 118.301 23.0961 119.165 24.2161C120.045 25.3361 120.565 26.6401 120.725 28.1281H117.533C117.357 27.1681 116.973 26.3441 116.381 25.6561C115.805 24.9681 115.053 24.4401 114.125 24.0721C113.197 23.6881 112.125 23.4961 110.909 23.4961C109.501 23.4961 108.277 23.7601 107.237 24.2881C106.213 24.8161 105.421 25.5681 104.861 26.5441C104.301 27.5201 104.021 28.6721 104.021 30.0001C104.021 31.3281 104.301 32.4801 104.861 33.4561C105.421 34.4321 106.213 35.1841 107.237 35.7121C108.277 36.2401 109.501 36.5041 110.909 36.5041C112.125 36.5041 113.197 36.3201 114.125 35.9521C115.053 35.5841 115.805 35.0561 116.381 34.3681C116.973 33.6641 117.357 32.8321 117.533 31.8721H120.725Z" fill="white"/>
<path d="M123.631 39.0001V21.0001H126.799V36.3361L125.839 35.7361L137.887 21.0001H141.319L126.463 39.0001H123.631ZM132.199 29.9521L134.431 27.7681L141.583 39.0001H137.959L132.199 29.9521Z" fill="white"/>
</svg>
