<svg width="129" height="129" viewBox="0 0 129 129" fill="none" xmlns="http://www.w3.org/2000/svg">
<path fill-rule="evenodd" clip-rule="evenodd" d="M128.24 64.3066C128.24 99.6529 99.5865 128.307 64.2402 128.307C28.894 128.307 0.240234 99.6529 0.240234 64.3066C0.240234 28.9604 28.894 0.306641 64.2402 0.306641C99.5865 0.306641 128.24 28.9604 128.24 64.3066ZM29.6716 101.977L26.1107 75.8232C25.0324 67.9029 25.0817 59.8698 26.257 51.9633C26.4215 50.857 26.9302 49.8306 27.711 49.0297L29.9554 46.7278C32.3724 44.2489 35.56 42.6648 38.9956 42.2353L42.5243 41.7942L39.2243 43.0429C36.9469 43.9046 35.0148 45.4894 33.7242 47.5543C32.6185 49.3235 32.0322 51.3678 32.0322 53.4541V62.617C32.0322 63.3377 32.574 63.9431 33.2903 64.0226L52.2626 66.1308C53.0061 66.2134 53.5686 66.8418 53.5686 67.5899V69.5936C53.5686 70.4044 52.9113 71.0617 52.1005 71.0617H33.7357C32.8386 71.0617 32.1512 71.8593 32.2837 72.7466L35.5421 94.5783C35.6426 95.2517 36.193 95.7676 36.8715 95.8246L64.2402 98.1204L91.6089 95.8246C92.2874 95.7676 92.8377 95.2517 92.9382 94.5783L96.1967 72.7466C96.3291 71.8593 95.6418 71.0617 94.7446 71.0617H76.3799C75.569 71.0617 74.9117 70.4044 74.9117 69.5936V67.5899C74.9117 66.8418 75.4742 66.2134 76.2177 66.1308L95.1901 64.0226C95.9063 63.9431 96.4482 63.3377 96.4482 62.617V53.4541C96.4482 51.3678 95.8619 49.3235 94.7561 47.5543C93.4656 45.4894 91.5335 43.9046 89.256 43.0429L85.956 41.7942L89.4848 42.2353C92.9203 42.6648 96.108 44.2489 98.525 46.7278L100.769 49.0297C101.55 49.8306 102.059 50.857 102.223 51.9633C103.399 59.8698 103.448 67.9029 102.37 75.8232L98.8088 101.977C98.7219 102.615 98.1774 103.09 97.5339 103.09H30.9465C30.303 103.09 29.7584 102.615 29.6716 101.977ZM56.3135 68.5144V74.6043C56.3135 75.8758 56.7066 77.1163 57.439 78.1558L58.0632 79.0417C58.8835 80.2061 60.0817 81.0506 61.4541 81.4317C63.277 81.9379 65.2034 81.9379 67.0263 81.4317C68.3987 81.0506 69.5968 80.2061 70.4172 79.0417L71.0414 78.1558C71.7737 77.1163 72.1668 75.8758 72.1668 74.6043V68.5144C72.1668 67.1003 71.5208 65.7637 70.4127 64.8851C69.5941 64.2361 68.58 63.8828 67.5353 63.8828H60.9451C59.9003 63.8828 58.8863 64.2361 58.0676 64.8851C56.9595 65.7637 56.3135 67.1003 56.3135 68.5144ZM60.804 70.3618C60.804 68.4639 62.3426 66.9253 64.2405 66.9253C66.1384 66.9253 67.677 68.4639 67.677 70.3618C67.677 71.4415 67.1668 72.4577 66.3009 73.1026L66.1 73.2522V77.7063C65.3164 79.2102 63.1645 79.2102 62.3809 77.7063L62.381 73.2522L62.18 73.1026C61.3141 72.4577 60.8039 71.4415 60.804 70.3618ZM59.1805 37.4518C59.1805 36.1319 59.5618 34.9439 60.3244 33.888C61.087 32.8027 62.3776 31.8641 64.1962 31.0722L67.628 29.5762C68.3026 29.3123 68.8012 28.9896 69.1239 28.6083C69.4759 28.227 69.6519 27.8017 69.6519 27.3324C69.6519 26.3937 69.2265 25.6751 68.3759 25.1765C67.5253 24.6485 66.2641 24.3845 64.5921 24.3845C62.8909 24.3845 61.5417 24.7365 60.5444 25.4405C59.5764 26.1444 59.0045 27.127 58.8285 28.3883H49.193C49.4277 24.6925 50.9089 21.818 53.6368 19.7648C56.3646 17.6822 60.0311 16.641 64.6361 16.641C69.2412 16.641 72.8343 17.5502 75.4155 19.3688C77.9967 21.158 79.2873 23.6806 79.2873 26.9364C79.2873 28.5496 78.8473 29.9869 77.9674 31.2481C77.0874 32.5094 75.7382 33.5507 73.9196 34.372L70.0918 36.0439C69.4759 36.3079 69.0066 36.6305 68.6839 37.0118C68.3906 37.3931 68.2439 37.8624 68.2439 38.4197V38.9037H59.4004C59.3124 38.6397 59.2538 38.3904 59.2245 38.1558C59.1951 37.8918 59.1805 37.6571 59.1805 37.4518ZM59.7524 49.4631C60.7497 50.4017 62.0696 50.871 63.7122 50.871C65.3548 50.871 66.6747 50.4017 67.672 49.4631C68.6693 48.5245 69.1679 47.3072 69.1679 45.8113C69.1679 44.2861 68.6693 43.0541 67.672 42.1155C66.6747 41.1769 65.3548 40.7076 63.7122 40.7076C62.0696 40.7076 60.7497 41.1769 59.7524 42.1155C58.7551 43.0541 58.2565 44.2861 58.2565 45.8113C58.2565 47.3072 58.7551 48.5245 59.7524 49.4631ZM31.5119 25.4427L34.1309 30.3513L39.6505 29.6534L34.7419 32.2724L35.4398 37.7921L32.8208 32.8834L27.3011 33.5813L32.2097 30.9623L31.5119 25.4427ZM96.2004 24.1502L98.6785 17.1763L93.8779 22.8093L86.904 20.3313L92.537 25.1318L90.0589 32.1057L94.8595 26.4727L101.833 28.9508L96.2004 24.1502Z" fill="#98FFAF"/>
</svg>
