<svg width="180" height="60" viewBox="0 0 180 60" fill="none" xmlns="http://www.w3.org/2000/svg">
<rect x="1.5" y="1.5" width="177" height="57" rx="4.5" stroke="#98FFAF" stroke-width="3"/>
<path d="M62.92 32.208C62.76 33.68 62.24 34.984 61.36 36.12C60.496 37.24 59.36 38.112 57.952 38.736C56.544 39.36 54.936 39.672 53.128 39.672C51.112 39.672 49.344 39.28 47.824 38.496C46.304 37.712 45.12 36.624 44.272 35.232C43.424 33.824 43 32.192 43 30.336C43 28.48 43.424 26.856 44.272 25.464C45.12 24.056 46.304 22.96 47.824 22.176C49.344 21.392 51.112 21 53.128 21C54.936 21 56.544 21.312 57.952 21.936C59.36 22.56 60.496 23.432 61.36 24.552C62.24 25.672 62.76 26.976 62.92 28.464H59.728C59.552 27.504 59.168 26.68 58.576 25.992C58 25.304 57.248 24.776 56.32 24.408C55.392 24.024 54.32 23.832 53.104 23.832C51.696 23.832 50.472 24.096 49.432 24.624C48.408 25.152 47.616 25.904 47.056 26.88C46.496 27.856 46.216 29.008 46.216 30.336C46.216 31.664 46.496 32.816 47.056 33.792C47.616 34.768 48.408 35.52 49.432 36.048C50.472 36.576 51.696 36.84 53.104 36.84C54.32 36.84 55.392 36.656 56.32 36.288C57.248 35.92 58 35.392 58.576 34.704C59.168 34 59.552 33.168 59.728 32.208H62.92Z" fill="white"/>
<path d="M68.9946 21.336V37.92L67.5786 36.552H81.1386V39.336H65.8266V21.336H68.9946Z" fill="white"/>
<path d="M85.9454 35.208V32.592H98.5214V35.208H85.9454ZM94.2974 21.336L102.937 39.336H99.5534L91.7054 22.536H92.9294L85.0814 39.336H81.6974L90.3374 21.336H94.2974Z" fill="white"/>
<path d="M105.131 21.336H108.299V39.336H105.131V21.336Z" fill="white"/>
<path d="M136.543 21.336V39.336H133.519V22.296L134.503 22.344L126.127 39.336H122.743L114.367 22.368L115.351 22.32V39.336H112.327V21.336H117.175L125.239 37.968H123.655L131.695 21.336H136.543Z" fill="white"/>
</svg>
