<svg width="257" height="257" viewBox="0 0 257 257" fill="none" xmlns="http://www.w3.org/2000/svg">
<path d="M256.854 128.627C256.854 199.319 199.546 256.627 128.854 256.627C58.1616 256.627 0.854004 199.319 0.854004 128.627C0.854004 57.9344 58.1616 0.626892 128.854 0.626892C199.546 0.626892 256.854 57.9344 256.854 128.627Z" fill="#98FFAF"/>
<path d="M92.8793 65.2657H162.829L183.638 86.3405H101.224L94.2683 93.3654V150.004L101.224 156.59H158.404L129.679 127.241H155.313L183.638 156.59V199.988L162.829 177.665H92.8793L72.0706 156.59V86.3405L92.8793 65.2657Z" fill="#0F161E"/>
<path d="M79.9556 23.6379C74.3691 26.0966 69.0569 29.1038 64.0739 32.6284L68.4656 38.6021C73.4486 35.0774 77.3267 32.8821 82.9132 30.4234L79.9556 23.6379Z" fill="#0F161E"/>
<path d="M53.1858 40.9185C47.9182 45.4787 43.0656 50.4909 38.678 55.9031L44.666 60.3023C49.0536 54.89 52.5962 51.231 57.8637 46.6708L53.1858 40.9185Z" fill="#0F161E"/>
<path d="M29.3297 69.4018C25.7768 75.3951 22.7606 81.6858 20.3122 88.2087L27.3849 90.4858C29.8333 83.9629 32.0352 79.3705 35.5881 73.3771L29.3297 69.4018Z" fill="#0F161E"/>
<path d="M15.7047 104.032C14.2198 110.839 13.3378 117.76 13.068 124.722L20.498 124.656C20.7678 117.694 21.4117 112.642 22.8966 105.835L15.7047 104.032Z" fill="#0F161E"/>
<path d="M13.7207 141.194C14.4759 148.12 15.8387 154.962 17.7952 161.649L24.8192 159.226C22.8627 152.539 21.8677 147.544 21.1125 140.618L13.7207 141.194Z" fill="#0F161E"/>
<path d="M23.8596 177.437C26.7934 183.757 30.2759 189.802 34.2711 195.51L40.1488 190.964C36.1536 185.256 33.6113 180.843 30.6775 174.524L23.8596 177.437Z" fill="#0F161E"/>
<path d="M44.6995 208.219C49.4927 213.275 54.7185 217.897 60.3231 222.036L64.4478 215.856C58.8432 211.717 55.0281 208.343 50.235 203.286L44.6995 208.219Z" fill="#0F161E"/>
<path d="M74.1983 230.71C80.3413 233.997 86.7578 236.736 93.3815 238.896L95.3472 231.731C88.7235 229.57 84.0392 227.571 77.8963 224.284L74.1983 230.71Z" fill="#0F161E"/>
<path d="M109.45 242.806C116.32 243.965 123.275 244.517 130.242 244.454L129.822 237.036C122.855 237.098 117.778 236.696 110.908 235.537L109.45 242.806Z" fill="#0F161E"/>
<path d="M146.381 243.131C153.265 242.062 160.038 240.389 166.629 238.13L163.888 231.224C157.298 233.482 152.353 234.704 145.468 235.773L146.381 243.131Z" fill="#0F161E"/>
<path d="M177.752 233.616C183.339 231.157 188.651 228.15 193.634 224.625L189.242 218.651C184.259 222.176 180.381 224.371 174.795 226.83L177.752 233.616Z" fill="#0F161E"/>
<path d="M204.522 216.335C209.79 211.774 214.642 206.762 219.03 201.35L213.042 196.951C208.654 202.363 205.112 206.022 199.844 210.582L204.522 216.335Z" fill="#0F161E"/>
<path d="M228.378 187.852C231.931 181.858 234.947 175.568 237.396 169.045L230.323 166.768C227.874 173.29 225.673 177.883 222.12 183.876L228.378 187.852Z" fill="#0F161E"/>
<path d="M242.003 153.221C243.488 146.414 244.37 139.493 244.64 132.531L237.21 132.597C236.94 139.559 236.296 144.611 234.811 151.419L242.003 153.221Z" fill="#0F161E"/>
<path d="M243.987 116.059C243.232 109.133 241.869 102.291 239.913 95.6042L232.889 98.0277C234.845 104.715 235.84 109.709 236.595 116.636L243.987 116.059Z" fill="#0F161E"/>
<path d="M233.848 79.8161C230.914 73.4966 227.432 67.4516 223.437 61.7435L217.559 66.289C221.554 71.9971 224.096 76.4101 227.03 82.7296L233.848 79.8161Z" fill="#0F161E"/>
<path d="M213.008 49.0347C208.215 43.9781 202.989 39.3564 197.385 35.2174L193.26 41.3977C198.865 45.5367 202.68 48.9107 207.473 53.9673L213.008 49.0347Z" fill="#0F161E"/>
<path d="M183.509 26.5434C177.366 23.256 170.95 20.5177 164.326 18.3568L162.361 25.5224C168.984 27.6832 173.669 29.6823 179.811 32.9697L183.509 26.5434Z" fill="#0F161E"/>
<path d="M148.258 14.4471C141.388 13.288 134.433 12.7367 127.466 12.7987L127.886 20.2171C134.853 20.1551 139.93 20.5576 146.8 21.7166L148.258 14.4471Z" fill="#0F161E"/>
<path d="M111.327 14.1218C104.442 15.1915 97.6696 16.8644 91.0786 19.1233L93.8193 26.0296C100.41 23.7707 105.355 22.5495 112.239 21.4797L111.327 14.1218Z" fill="#0F161E"/>
</svg>
