<svg width="257" height="257" viewBox="0 0 257 257" fill="none" xmlns="http://www.w3.org/2000/svg">
<path fill-rule="evenodd" clip-rule="evenodd" d="M256.718 128.627C256.718 199.319 199.41 256.627 128.718 256.627C58.0256 256.627 0.718018 199.319 0.718018 128.627C0.718018 57.9344 58.0256 0.626892 128.718 0.626892C199.41 0.626892 256.718 57.9344 256.718 128.627ZM69.1035 83.3032V153.553L89.9122 174.627H159.862L180.671 196.951V153.553L152.346 124.204H126.712L155.437 153.553H98.2568L91.3012 146.967V90.3282L98.2568 83.3032H180.671L159.862 62.2285H89.9122L69.1035 83.3032ZM68.3297 38.6021L63.938 32.6284C68.921 29.1038 74.2332 26.0966 79.8197 23.6379L82.7773 30.4234C77.1909 32.8821 73.3128 35.0774 68.3297 38.6021ZM44.5301 60.3023L38.5421 55.9031C42.9297 50.4908 47.7823 45.4787 53.0499 40.9185L57.7279 46.6708C52.4603 51.231 48.9177 54.89 44.5301 60.3023ZM27.249 90.4858L20.1763 88.2087C22.6247 81.6857 25.6409 75.3951 29.1938 69.4018L35.4522 73.3771C31.8994 79.3705 29.6974 83.9629 27.249 90.4858ZM20.3621 124.656L12.9321 124.722C13.202 117.76 14.0839 110.839 15.5688 104.032L22.7607 105.835C21.2758 112.642 20.6319 117.694 20.3621 124.656ZM24.6833 159.226L17.6593 161.649C15.7029 154.962 14.34 148.12 13.5848 141.194L20.9767 140.618C21.7319 147.544 22.7268 152.539 24.6833 159.226ZM40.0129 190.964L34.1352 195.51C30.1401 189.802 26.6576 183.757 23.7237 177.437L30.5416 174.524C33.4754 180.843 36.0178 185.256 40.0129 190.964ZM64.3119 215.856L60.1872 222.036C54.5827 217.897 49.3568 213.275 44.5637 208.219L50.0991 203.286C54.8923 208.343 58.7073 211.717 64.3119 215.856ZM95.2114 231.731L93.2457 238.896C86.6219 236.736 80.2054 233.997 74.0625 230.71L77.7604 224.284C83.9034 227.571 88.5876 229.57 95.2114 231.731ZM129.686 237.036L130.106 244.454C123.139 244.517 116.184 243.965 109.314 242.806L110.772 235.537C117.642 236.696 122.719 237.098 129.686 237.036ZM163.753 231.224L166.493 238.13C159.902 240.389 153.129 242.062 146.245 243.131L145.333 235.773C152.217 234.704 157.162 233.482 163.753 231.224ZM189.106 218.651L193.498 224.625C188.515 228.15 183.203 231.157 177.616 233.616L174.659 226.83C180.245 224.371 184.123 222.176 189.106 218.651ZM212.906 196.951L218.894 201.35C214.506 206.762 209.654 211.774 204.386 216.335L199.708 210.582C204.976 206.022 208.518 202.363 212.906 196.951ZM230.187 166.768L237.26 169.045C234.811 175.568 231.795 181.858 228.242 187.852L221.984 183.876C225.537 177.883 227.739 173.29 230.187 166.768ZM237.074 132.597L244.504 132.531C244.234 139.493 243.352 146.414 241.867 153.221L234.675 151.419C236.16 144.611 236.804 139.559 237.074 132.597ZM232.753 98.0277L239.777 95.6042C241.733 102.291 243.096 109.133 243.851 116.059L236.459 116.636C235.704 109.709 234.709 104.715 232.753 98.0277ZM217.423 66.289L223.301 61.7435C227.296 67.4516 230.778 73.4966 233.712 79.816L226.894 82.7296C223.961 76.4101 221.418 71.9971 217.423 66.289ZM193.124 41.3976L197.249 35.2174C202.853 39.3564 208.079 43.9781 212.872 49.0347L207.337 53.9673C202.544 48.9107 198.729 45.5367 193.124 41.3976ZM162.225 25.5224L164.19 18.3568C170.814 20.5177 177.231 23.256 183.374 26.5434L179.676 32.9697C173.533 29.6822 168.848 27.6832 162.225 25.5224ZM127.75 20.2171L127.33 12.7987C134.297 12.7367 141.252 13.288 148.122 14.4471L146.664 21.7166C139.794 20.5576 134.717 20.1551 127.75 20.2171ZM93.6834 26.0296L90.9427 19.1233C97.5337 16.8644 104.307 15.1915 111.191 14.1218L112.103 21.4797C105.219 22.5494 100.274 23.7707 93.6834 26.0296Z" fill="#98FFAF"/>
</svg>
