<svg width="912" height="151" viewBox="0 0 912 151" fill="none" xmlns="http://www.w3.org/2000/svg">
<rect width="912" height="150.061" rx="24" fill="#049ADD"/>
<path d="M340.322 63.0112C338.629 63.0112 337.103 63.3052 335.745 63.8931C334.401 64.467 333.254 65.3068 332.302 66.4126C331.364 67.5044 330.643 68.8271 330.139 70.3809C329.635 71.9346 329.383 73.6842 329.383 75.6299C329.383 78.2054 329.782 80.445 330.58 82.3486C331.392 84.2383 332.596 85.701 334.191 86.7368C335.801 87.7726 337.81 88.2905 340.217 88.2905C341.589 88.2905 342.877 88.1785 344.081 87.9546C345.298 87.7166 346.481 87.4227 347.629 87.0728V90.1802C346.509 90.6001 345.333 90.908 344.102 91.104C342.87 91.314 341.407 91.4189 339.713 91.4189C336.592 91.4189 333.981 90.7751 331.882 89.4873C329.796 88.1855 328.229 86.3519 327.179 83.9863C326.143 81.6208 325.625 78.8283 325.625 75.6089C325.625 73.2853 325.947 71.1647 326.591 69.2471C327.249 67.3154 328.201 65.6497 329.446 64.25C330.706 62.8503 332.246 61.7725 334.065 61.0166C335.899 60.2467 337.999 59.8618 340.364 59.8618C341.918 59.8618 343.416 60.0158 344.857 60.3237C346.299 60.6317 347.601 61.0726 348.763 61.6465L347.335 64.6699C346.355 64.222 345.277 63.8371 344.102 63.5151C342.94 63.1792 341.68 63.0112 340.322 63.0112Z" fill="white"/>
<path d="M373.601 79.4512C373.601 81.3408 373.356 83.0275 372.866 84.5112C372.376 85.995 371.669 87.2477 370.746 88.2695C369.822 89.2913 368.702 90.0752 367.386 90.6211C366.084 91.153 364.608 91.4189 362.956 91.4189C361.416 91.4189 360.003 91.153 358.715 90.6211C357.441 90.0752 356.335 89.2913 355.397 88.2695C354.474 87.2477 353.753 85.995 353.235 84.5112C352.731 83.0275 352.479 81.3408 352.479 79.4512C352.479 76.9316 352.906 74.79 353.76 73.0264C354.614 71.2487 355.831 69.8979 357.413 68.9741C359.009 68.0363 360.905 67.5674 363.103 67.5674C365.203 67.5674 367.036 68.0363 368.604 68.9741C370.186 69.9119 371.41 71.2697 372.278 73.0474C373.16 74.811 373.601 76.9456 373.601 79.4512ZM356.09 79.4512C356.09 81.2988 356.335 82.9015 356.825 84.2593C357.315 85.617 358.071 86.6668 359.093 87.4087C360.115 88.1506 361.43 88.5215 363.04 88.5215C364.636 88.5215 365.944 88.1506 366.966 87.4087C368.002 86.6668 368.765 85.617 369.255 84.2593C369.745 82.9015 369.99 81.2988 369.99 79.4512C369.99 77.6175 369.745 76.0358 369.255 74.7061C368.765 73.3623 368.009 72.3265 366.987 71.5986C365.965 70.8708 364.643 70.5068 363.019 70.5068C360.625 70.5068 358.869 71.2977 357.749 72.8794C356.643 74.4611 356.09 76.6517 356.09 79.4512Z" fill="white"/>
<path d="M404.612 67.5674C407.146 67.5674 409.056 68.2323 410.344 69.562C411.632 70.8778 412.276 72.9984 412.276 75.9238V90.999H408.833V76.0918C408.833 74.2301 408.427 72.8374 407.615 71.9136C406.817 70.9757 405.627 70.5068 404.045 70.5068C401.82 70.5068 400.203 71.1507 399.195 72.4385C398.188 73.7262 397.684 75.6229 397.684 78.1284V90.999H394.219V76.0918C394.219 74.846 394.037 73.8102 393.673 72.9844C393.323 72.1585 392.792 71.5426 392.078 71.1367C391.378 70.7168 390.489 70.5068 389.411 70.5068C387.885 70.5068 386.661 70.8218 385.737 71.4517C384.813 72.0815 384.141 73.0194 383.721 74.2651C383.315 75.4969 383.112 77.0156 383.112 78.8213V90.999H379.627V67.9873H382.44L382.965 71.2417H383.154C383.616 70.4438 384.197 69.772 384.897 69.2261C385.597 68.6802 386.381 68.2673 387.249 67.9873C388.116 67.7074 389.04 67.5674 390.02 67.5674C391.77 67.5674 393.232 67.8963 394.408 68.5542C395.598 69.1981 396.459 70.1849 396.991 71.5146H397.18C397.936 70.1849 398.971 69.1981 400.287 68.5542C401.603 67.8963 403.045 67.5674 404.612 67.5674Z" fill="white"/>
<path d="M422.921 67.9873V90.999H419.436V67.9873H422.921ZM421.22 59.3789C421.794 59.3789 422.284 59.5679 422.69 59.9458C423.11 60.3097 423.32 60.8836 423.32 61.6675C423.32 62.4373 423.11 63.0112 422.69 63.3892C422.284 63.7671 421.794 63.9561 421.22 63.9561C420.618 63.9561 420.114 63.7671 419.708 63.3892C419.317 63.0112 419.121 62.4373 419.121 61.6675C419.121 60.8836 419.317 60.3097 419.708 59.9458C420.114 59.5679 420.618 59.3789 421.22 59.3789Z" fill="white"/>
<path d="M441.208 67.5674C443.938 67.5674 446.003 68.2393 447.402 69.583C448.802 70.9128 449.502 73.0544 449.502 76.0078V90.999H446.059V76.2388C446.059 74.3211 445.618 72.8864 444.736 71.9346C443.868 70.9827 442.531 70.5068 440.726 70.5068C438.178 70.5068 436.386 71.2277 435.351 72.6694C434.315 74.1112 433.797 76.2038 433.797 78.9473V90.999H430.312V67.9873H433.125L433.65 71.3047H433.839C434.329 70.4928 434.952 69.814 435.708 69.2681C436.463 68.7082 437.31 68.2882 438.248 68.0083C439.186 67.7144 440.173 67.5674 441.208 67.5674Z" fill="white"/>
<path d="M463.107 101.329C460.084 101.329 457.753 100.762 456.116 99.6284C454.478 98.5086 453.659 96.9339 453.659 94.9043C453.659 93.4626 454.114 92.2308 455.024 91.209C455.948 90.1872 457.222 89.5083 458.845 89.1724C458.243 88.8924 457.725 88.4725 457.292 87.9126C456.872 87.3527 456.662 86.7088 456.662 85.981C456.662 85.1411 456.893 84.4062 457.354 83.7764C457.83 83.1325 458.551 82.5166 459.517 81.9287C458.313 81.4388 457.333 80.613 456.578 79.4512C455.836 78.2754 455.465 76.9106 455.465 75.3569C455.465 73.7052 455.808 72.2985 456.494 71.1367C457.18 69.9609 458.173 69.0651 459.475 68.4492C460.777 67.8333 462.352 67.5254 464.199 67.5254C464.605 67.5254 465.011 67.5464 465.417 67.5884C465.837 67.6164 466.236 67.6654 466.614 67.7354C466.992 67.7913 467.321 67.8613 467.601 67.9453H475.495V70.1919L471.254 70.7168C471.674 71.2627 472.024 71.9206 472.304 72.6904C472.584 73.4603 472.724 74.3141 472.724 75.252C472.724 77.5475 471.947 79.3742 470.393 80.7319C468.839 82.0757 466.705 82.7476 463.989 82.7476C463.345 82.7476 462.688 82.6916 462.016 82.5796C461.33 82.9575 460.805 83.3774 460.441 83.8394C460.091 84.3013 459.916 84.8332 459.916 85.4351C459.916 85.883 460.049 86.2399 460.315 86.5059C460.595 86.7718 460.994 86.9678 461.512 87.0938C462.03 87.2057 462.653 87.2617 463.38 87.2617H467.433C469.938 87.2617 471.856 87.7866 473.186 88.8364C474.529 89.8862 475.201 91.4189 475.201 93.4346C475.201 95.9821 474.165 97.9347 472.094 99.2925C470.022 100.65 467.027 101.329 463.107 101.329ZM463.212 98.5996C465.116 98.5996 466.691 98.4036 467.937 98.0117C469.196 97.6338 470.134 97.0809 470.75 96.353C471.38 95.6392 471.695 94.7853 471.695 93.7915C471.695 92.8677 471.485 92.1678 471.065 91.6919C470.645 91.23 470.029 90.922 469.217 90.7681C468.405 90.6001 467.412 90.5161 466.236 90.5161H462.247C461.211 90.5161 460.308 90.6771 459.538 90.999C458.768 91.321 458.173 91.7969 457.753 92.4268C457.347 93.0566 457.145 93.8405 457.145 94.7783C457.145 96.0241 457.669 96.9689 458.719 97.6128C459.769 98.2707 461.267 98.5996 463.212 98.5996ZM464.115 80.207C465.781 80.207 467.034 79.7871 467.874 78.9473C468.713 78.1074 469.133 76.8826 469.133 75.2729C469.133 73.5513 468.706 72.2635 467.853 71.4097C466.999 70.5418 465.739 70.1079 464.073 70.1079C462.478 70.1079 461.246 70.5558 460.378 71.4517C459.524 72.3335 459.097 73.6283 459.097 75.3359C459.097 76.9036 459.531 78.1074 460.399 78.9473C461.267 79.7871 462.506 80.207 464.115 80.207Z" fill="white"/>
<path d="M506.086 84.7002C506.086 86.1699 505.715 87.4087 504.974 88.4165C504.246 89.4103 503.196 90.1592 501.824 90.6631C500.466 91.167 498.843 91.4189 496.953 91.4189C495.343 91.4189 493.951 91.293 492.775 91.041C491.599 90.7891 490.57 90.4321 489.688 89.9702V86.7578C490.626 87.2197 491.746 87.6396 493.048 88.0176C494.35 88.3955 495.679 88.5845 497.037 88.5845C499.025 88.5845 500.466 88.2625 501.362 87.6187C502.258 86.9748 502.706 86.0999 502.706 84.9941C502.706 84.3643 502.524 83.8114 502.16 83.3354C501.81 82.8455 501.215 82.3766 500.375 81.9287C499.536 81.4668 498.374 80.9629 496.89 80.417C495.42 79.8571 494.147 79.3042 493.069 78.7583C492.005 78.1984 491.179 77.5195 490.591 76.7217C490.017 75.9238 489.73 74.888 489.73 73.6143C489.73 71.6686 490.514 70.1779 492.082 69.1421C493.664 68.0923 495.735 67.5674 498.297 67.5674C499.683 67.5674 500.977 67.7074 502.181 67.9873C503.399 68.2533 504.533 68.6172 505.583 69.0791L504.407 71.8716C503.455 71.4657 502.44 71.1227 501.362 70.8428C500.285 70.5628 499.186 70.4229 498.066 70.4229C496.456 70.4229 495.217 70.6888 494.35 71.2207C493.496 71.7526 493.069 72.4805 493.069 73.4043C493.069 74.1182 493.265 74.7061 493.657 75.168C494.063 75.6299 494.707 76.0638 495.588 76.4697C496.47 76.8757 497.632 77.3516 499.074 77.8975C500.515 78.4294 501.761 78.9823 502.811 79.5562C503.861 80.116 504.666 80.8019 505.226 81.6138C505.799 82.4116 506.086 83.4404 506.086 84.7002Z" fill="white"/>
<path d="M531.534 79.4512C531.534 81.3408 531.289 83.0275 530.799 84.5112C530.309 85.995 529.602 87.2477 528.678 88.2695C527.754 89.2913 526.635 90.0752 525.319 90.6211C524.017 91.153 522.54 91.4189 520.889 91.4189C519.349 91.4189 517.935 91.153 516.647 90.6211C515.374 90.0752 514.268 89.2913 513.33 88.2695C512.406 87.2477 511.685 85.995 511.167 84.5112C510.664 83.0275 510.412 81.3408 510.412 79.4512C510.412 76.9316 510.839 74.79 511.692 73.0264C512.546 71.2487 513.764 69.8979 515.346 68.9741C516.941 68.0363 518.838 67.5674 521.036 67.5674C523.135 67.5674 524.969 68.0363 526.537 68.9741C528.118 69.9119 529.343 71.2697 530.211 73.0474C531.093 74.811 531.534 76.9456 531.534 79.4512ZM514.023 79.4512C514.023 81.2988 514.268 82.9015 514.758 84.2593C515.248 85.617 516.004 86.6668 517.025 87.4087C518.047 88.1506 519.363 88.5215 520.973 88.5215C522.568 88.5215 523.877 88.1506 524.899 87.4087C525.935 86.6668 526.698 85.617 527.188 84.2593C527.677 82.9015 527.922 81.2988 527.922 79.4512C527.922 77.6175 527.677 76.0358 527.188 74.7061C526.698 73.3623 525.942 72.3265 524.92 71.5986C523.898 70.8708 522.575 70.5068 520.952 70.5068C518.558 70.5068 516.801 71.2977 515.682 72.8794C514.576 74.4611 514.023 76.6517 514.023 79.4512Z" fill="white"/>
<path d="M557.401 79.4512C557.401 81.3408 557.156 83.0275 556.666 84.5112C556.176 85.995 555.469 87.2477 554.545 88.2695C553.622 89.2913 552.502 90.0752 551.186 90.6211C549.884 91.153 548.408 91.4189 546.756 91.4189C545.216 91.4189 543.802 91.153 542.515 90.6211C541.241 90.0752 540.135 89.2913 539.197 88.2695C538.273 87.2477 537.553 85.995 537.035 84.5112C536.531 83.0275 536.279 81.3408 536.279 79.4512C536.279 76.9316 536.706 74.79 537.56 73.0264C538.413 71.2487 539.631 69.8979 541.213 68.9741C542.809 68.0363 544.705 67.5674 546.903 67.5674C549.002 67.5674 550.836 68.0363 552.404 68.9741C553.986 69.9119 555.21 71.2697 556.078 73.0474C556.96 74.811 557.401 76.9456 557.401 79.4512ZM539.89 79.4512C539.89 81.2988 540.135 82.9015 540.625 84.2593C541.115 85.617 541.871 86.6668 542.893 87.4087C543.914 88.1506 545.23 88.5215 546.84 88.5215C548.436 88.5215 549.744 88.1506 550.766 87.4087C551.802 86.6668 552.565 85.617 553.055 84.2593C553.545 82.9015 553.79 81.2988 553.79 79.4512C553.79 77.6175 553.545 76.0358 553.055 74.7061C552.565 73.3623 551.809 72.3265 550.787 71.5986C549.765 70.8708 548.443 70.5068 546.819 70.5068C544.425 70.5068 542.669 71.2977 541.549 72.8794C540.443 74.4611 539.89 76.6517 539.89 79.4512Z" fill="white"/>
<path d="M574.324 67.5674C577.053 67.5674 579.118 68.2393 580.518 69.583C581.917 70.9128 582.617 73.0544 582.617 76.0078V90.999H579.174V76.2388C579.174 74.3211 578.733 72.8864 577.851 71.9346C576.983 70.9827 575.646 70.5068 573.841 70.5068C571.293 70.5068 569.502 71.2277 568.466 72.6694C567.43 74.1112 566.912 76.2038 566.912 78.9473V90.999H563.427V67.9873H566.24L566.765 71.3047H566.954C567.444 70.4928 568.067 69.814 568.823 69.2681C569.579 68.7082 570.425 68.2882 571.363 68.0083C572.301 67.7144 573.288 67.5674 574.324 67.5674Z" fill="white"/>
<path fill-rule="evenodd" clip-rule="evenodd" d="M131.512 56.3784L96.2039 117.287C94.1069 120.904 88.8931 120.904 86.7961 117.287L51.4884 56.3784C47.2751 49.1102 52.5081 40 60.8962 40H122.104C130.492 40 135.725 49.1102 131.512 56.3784ZM96.2232 102.582L123.116 55.4239C125.188 51.7899 122.569 47.2682 118.392 47.2682H95.1266V103.951C95.5466 103.572 95.9187 103.116 96.2232 102.582ZM59.8844 55.4239L86.7768 102.582C87.0813 103.116 87.4534 103.572 87.8734 103.951V47.2682H64.6076C60.4307 47.2682 57.8121 51.7899 59.8844 55.4239Z" fill="white"/>
<path d="M838 104L867 75L838 46" stroke="white" stroke-width="4" stroke-linecap="round"/>
</svg>
