<svg width="912" height="151" viewBox="0 0 912 151" fill="none" xmlns="http://www.w3.org/2000/svg">
<path fill-rule="evenodd" clip-rule="evenodd" d="M0 24C0 10.7452 10.7452 0 24 0H888C901.255 0 912 10.7452 912 24V126.061C912 139.315 901.255 150.061 888 150.061H24C10.7452 150.061 0 139.315 0 126.061V24ZM387.373 68.5195H391.11L396.191 81.873C396.485 82.6569 396.758 83.4128 397.01 84.1406C397.262 84.8545 397.486 85.5404 397.682 86.1982C397.878 86.8561 398.032 87.493 398.144 88.1089H398.291C398.486 87.409 398.766 86.4922 399.13 85.3584C399.494 84.2106 399.886 83.0418 400.306 81.8521L405.114 68.5195H408.873L398.857 94.9116C398.326 96.3254 397.703 97.5571 396.989 98.6069C396.289 99.6567 395.435 100.462 394.427 101.021C393.419 101.595 392.202 101.882 390.774 101.882C390.116 101.882 389.535 101.84 389.031 101.756C388.527 101.686 388.093 101.602 387.729 101.504V98.7119C388.037 98.7819 388.408 98.8449 388.842 98.9009C389.29 98.9569 389.752 98.9849 390.228 98.9849C391.096 98.9849 391.845 98.8169 392.475 98.481C393.118 98.159 393.671 97.6831 394.133 97.0532C394.595 96.4233 394.994 95.6745 395.33 94.8066L396.59 91.5732L387.373 68.5195ZM431.653 85.0435C432.143 83.5597 432.388 81.873 432.388 79.9834C432.388 77.4779 431.947 75.3433 431.065 73.5796C430.198 71.8019 428.973 70.4442 427.391 69.5063C425.823 68.5685 423.99 68.0996 421.89 68.0996C419.693 68.0996 417.796 68.5685 416.2 69.5063C414.618 70.4302 413.401 71.7809 412.547 73.5586C411.693 75.3223 411.266 77.4639 411.266 79.9834C411.266 81.873 411.518 83.5597 412.022 85.0435C412.54 86.5272 413.261 87.7799 414.185 88.8018C415.122 89.8236 416.228 90.6074 417.502 91.1533C418.79 91.6852 420.203 91.9512 421.743 91.9512C423.395 91.9512 424.872 91.6852 426.173 91.1533C427.489 90.6074 428.609 89.8236 429.533 88.8018C430.457 87.7799 431.163 86.5272 431.653 85.0435ZM414.877 79.9834C414.877 81.8311 415.122 83.4338 415.612 84.7915C416.102 86.1493 416.858 87.1991 417.88 87.9409C418.902 88.6828 420.217 89.0537 421.827 89.0537C423.423 89.0537 424.732 88.6828 425.753 87.9409C426.789 87.1991 427.552 86.1493 428.042 84.7915C428.532 83.4338 428.777 81.8311 428.777 79.9834C428.777 78.1497 428.532 76.568 428.042 75.2383C427.552 73.8945 426.796 72.8587 425.774 72.1309C424.753 71.403 423.43 71.0391 421.806 71.0391C419.413 71.0391 417.656 71.8299 416.536 73.4116C415.43 74.9933 414.877 77.1839 414.877 79.9834ZM457.416 68.5195V91.5312H454.56L454.056 88.2979H453.867C453.391 89.0957 452.775 89.7676 452.02 90.3135C451.264 90.8594 450.41 91.2653 449.458 91.5312C448.52 91.8112 447.519 91.9512 446.456 91.9512C444.636 91.9512 443.11 91.6572 441.878 91.0693C440.647 90.4814 439.716 89.5716 439.086 88.3398C438.47 87.1081 438.162 85.5264 438.162 83.5947V68.5195H441.689V83.3428C441.689 85.2604 442.123 86.6951 442.991 87.647C443.859 88.5848 445.182 89.0537 446.959 89.0537C448.667 89.0537 450.025 88.7318 451.033 88.0879C452.055 87.444 452.789 86.4992 453.237 85.2534C453.685 83.9937 453.909 82.4539 453.909 80.6343V68.5195H457.416ZM476.69 68.1836C476.186 68.1276 475.703 68.0996 475.241 68.0996C474.149 68.0996 473.156 68.3096 472.26 68.7295C471.378 69.1494 470.601 69.7163 469.929 70.4302C469.257 71.13 468.683 71.9069 468.208 72.7607H468.061L467.683 68.5195H464.785V91.5312H468.292V79.1855C468.292 77.9958 468.466 76.918 468.816 75.9521C469.166 74.9723 469.649 74.1395 470.265 73.4536C470.881 72.7537 471.595 72.2218 472.407 71.8579C473.233 71.48 474.107 71.291 475.031 71.291C475.437 71.291 475.871 71.319 476.333 71.375C476.795 71.431 477.215 71.508 477.593 71.606L478.034 68.3726C477.642 68.2886 477.194 68.2256 476.69 68.1836ZM371.94 89.0957C372.514 89.0957 373.102 89.0467 373.704 88.9487C374.306 88.8507 374.796 88.7318 375.174 88.5918V91.3003C374.768 91.4823 374.201 91.6362 373.473 91.7622C372.759 91.8882 372.059 91.9512 371.374 91.9512C370.156 91.9512 369.05 91.7412 368.056 91.3213C367.062 90.8874 366.264 90.1595 365.663 89.1377C365.075 88.1159 364.781 86.7021 364.781 84.8965V71.249H361.505V69.5483L364.802 68.1836L366.188 63.1865H368.287V68.5195H375.027V71.249H368.287V84.7915C368.287 86.2332 368.616 87.311 369.274 88.0249C369.946 88.7388 370.835 89.0957 371.94 89.0957ZM347.627 90.6704C349.209 91.5243 351.035 91.9512 353.107 91.9512C354.409 91.9512 355.528 91.8462 356.466 91.6362C357.418 91.4263 358.279 91.1253 359.049 90.7334V87.626C358.251 87.9759 357.362 88.2839 356.382 88.5498C355.403 88.8018 354.304 88.9277 353.086 88.9277C351.56 88.9277 350.286 88.5848 349.265 87.8989C348.257 87.1991 347.494 86.1912 346.976 84.8755C346.472 83.5597 346.22 81.971 346.22 80.1094C346.22 78.1637 346.479 76.526 346.997 75.1963C347.529 73.8665 348.32 72.8587 349.37 72.1729C350.433 71.487 351.763 71.144 353.359 71.144C354.157 71.144 355.011 71.256 355.92 71.48C356.844 71.7039 357.656 71.9559 358.356 72.2358L359.406 69.3174C358.72 68.9674 357.838 68.6805 356.76 68.4565C355.696 68.2186 354.591 68.0996 353.443 68.0996C351.357 68.0996 349.496 68.5265 347.858 69.3804C346.22 70.2342 344.932 71.55 343.995 73.3276C343.071 75.0913 342.609 77.3659 342.609 80.1514C342.609 82.8109 343.05 85.0155 343.932 86.7651C344.813 88.5148 346.045 89.8166 347.627 90.6704ZM328.604 68.0996C330.564 68.0996 332.244 68.5335 333.644 69.4014C335.043 70.2692 336.114 71.487 336.856 73.0547C337.598 74.6084 337.969 76.4281 337.969 78.5137V80.6763H322.075C322.117 83.3778 322.789 85.4354 324.09 86.8491C325.392 88.2629 327.226 88.9697 329.591 88.9697C331.047 88.9697 332.335 88.8368 333.455 88.5708C334.574 88.3049 335.736 87.9129 336.94 87.395V90.4604C335.778 90.9784 334.623 91.3563 333.476 91.5942C332.342 91.8322 330.998 91.9512 329.444 91.9512C327.233 91.9512 325.301 91.5033 323.649 90.6074C322.012 89.6976 320.738 88.3678 319.828 86.6182C318.918 84.8685 318.463 82.7269 318.463 80.1934C318.463 77.7158 318.876 75.5742 319.702 73.7686C320.542 71.9489 321.718 70.5492 323.229 69.5693C324.755 68.5895 326.547 68.0996 328.604 68.0996ZM324.111 72.7817C325.217 71.564 326.701 70.9551 328.562 70.9551C329.878 70.9551 330.956 71.249 331.796 71.8369C332.636 72.4108 333.259 73.2227 333.665 74.2725C334.084 75.3083 334.301 76.512 334.315 77.8838H322.138C322.348 75.7002 323.006 73.9995 324.111 72.7817ZM284.093 70.1152C282.693 68.7715 280.628 68.0996 277.899 68.0996C276.863 68.0996 275.876 68.2466 274.938 68.5405C274.001 68.8205 273.154 69.2404 272.398 69.8003C271.642 70.3462 271.019 71.0251 270.529 71.8369H270.34L269.815 68.5195H267.002V91.5312H270.487V79.4795C270.487 76.736 271.005 74.6434 272.041 73.2017C273.077 71.7599 274.868 71.0391 277.416 71.0391C279.222 71.0391 280.558 71.515 281.426 72.4668C282.308 73.4186 282.749 74.8534 282.749 76.771V91.5312H286.192V76.54C286.192 73.5866 285.493 71.445 284.093 70.1152ZM304.27 68.0996C307 68.0996 309.064 68.7715 310.464 70.1152C311.864 71.445 312.563 73.5866 312.563 76.54V91.5312H309.12V76.771C309.12 74.8534 308.679 73.4186 307.797 72.4668C306.93 71.515 305.593 71.0391 303.787 71.0391C301.24 71.0391 299.448 71.7599 298.412 73.2017C297.376 74.6434 296.858 76.736 296.858 79.4795V91.5312H293.373V68.5195H296.187L296.711 71.8369H296.9C297.39 71.0251 298.013 70.3462 298.769 69.8003C299.525 69.2404 300.372 68.8205 301.31 68.5405C302.247 68.2466 303.234 68.0996 304.27 68.0996ZM260.241 85.0435C260.731 83.5597 260.976 81.873 260.976 79.9834C260.976 77.4779 260.535 75.3433 259.653 73.5796C258.785 71.8019 257.561 70.4442 255.979 69.5063C254.411 68.5685 252.578 68.0996 250.478 68.0996C248.28 68.0996 246.384 68.5685 244.788 69.5063C243.206 70.4302 241.989 71.7809 241.135 73.5586C240.281 75.3223 239.854 77.4639 239.854 79.9834C239.854 81.873 240.106 83.5597 240.61 85.0435C241.128 86.5272 241.849 87.7799 242.772 88.8018C243.71 89.8236 244.816 90.6074 246.09 91.1533C247.378 91.6852 248.791 91.9512 250.331 91.9512C251.983 91.9512 253.459 91.6852 254.761 91.1533C256.077 90.6074 257.197 89.8236 258.121 88.8018C259.044 87.7799 259.751 86.5272 260.241 85.0435ZM243.465 79.9834C243.465 81.8311 243.71 83.4338 244.2 84.7915C244.69 86.1493 245.446 87.1991 246.468 87.9409C247.49 88.6828 248.805 89.0537 250.415 89.0537C252.011 89.0537 253.319 88.6828 254.341 87.9409C255.377 87.1991 256.14 86.1493 256.63 84.7915C257.12 83.4338 257.365 81.8311 257.365 79.9834C257.365 78.1497 257.12 76.568 256.63 75.2383C256.14 73.8945 255.384 72.8587 254.362 72.1309C253.34 71.403 252.018 71.0391 250.394 71.0391C248 71.0391 246.244 71.8299 245.124 73.4116C244.018 74.9933 243.465 77.1839 243.465 79.9834ZM227.697 63.5435C226.004 63.5435 224.478 63.8374 223.12 64.4253C221.776 64.9992 220.629 65.839 219.677 66.9448C218.739 68.0366 218.018 69.3594 217.514 70.9131C217.01 72.4668 216.758 74.2165 216.758 76.1621C216.758 78.7376 217.157 80.9772 217.955 82.8809C218.767 84.7705 219.971 86.2332 221.566 87.269C223.176 88.3049 225.185 88.8228 227.592 88.8228C228.964 88.8228 230.252 88.7108 231.456 88.4868C232.673 88.2489 233.856 87.9549 235.004 87.605V90.7124C233.884 91.1323 232.708 91.4403 231.477 91.6362C230.245 91.8462 228.782 91.9512 227.088 91.9512C223.967 91.9512 221.356 91.3073 219.257 90.0195C217.171 88.7178 215.604 86.8841 214.554 84.5186C213.518 82.153 213 79.3605 213 76.1411C213 73.8175 213.322 71.6969 213.966 69.7793C214.624 67.8477 215.576 66.182 216.821 64.7822C218.081 63.3825 219.621 62.3047 221.44 61.5488C223.274 60.779 225.374 60.394 227.739 60.394C229.293 60.394 230.791 60.548 232.232 60.856C233.674 61.1639 234.976 61.6048 236.138 62.1787L234.71 65.2021C233.73 64.7542 232.652 64.3693 231.477 64.0474C230.315 63.7114 229.055 63.5435 227.697 63.5435ZM499.072 91.5312H505.581V66.252H513.916V60.835H490.736V66.252H499.072V91.5312ZM546.502 76.1411C546.502 78.5067 546.208 80.6623 545.62 82.6079C545.032 84.5396 544.136 86.2052 542.933 87.605C541.743 89.0047 540.231 90.0825 538.397 90.8384C536.564 91.5802 534.394 91.9512 531.889 91.9512C529.383 91.9512 527.214 91.5802 525.38 90.8384C523.546 90.0825 522.028 89.0047 520.824 87.605C519.634 86.2052 518.745 84.5326 518.157 82.5869C517.569 80.6413 517.275 78.4787 517.275 76.0991C517.275 72.9217 517.793 70.1572 518.829 67.8057C519.879 65.4401 521.489 63.6064 523.658 62.3047C525.828 61.0029 528.585 60.3521 531.931 60.3521C535.262 60.3521 537.999 61.0029 540.14 62.3047C542.296 63.6064 543.891 65.4401 544.927 67.8057C545.977 70.1712 546.502 72.9497 546.502 76.1411ZM524.897 81.6841C524.365 80.1304 524.099 78.2827 524.099 76.1411C524.099 73.9855 524.365 72.1379 524.897 70.5981C525.443 69.0444 526.29 67.8547 527.438 67.0288C528.599 66.189 530.097 65.769 531.931 65.769C534.688 65.769 536.669 66.6929 537.873 68.5405C539.076 70.3882 539.678 72.9217 539.678 76.1411C539.678 78.2827 539.412 80.1304 538.88 81.6841C538.362 83.2238 537.53 84.4136 536.382 85.2534C535.234 86.0793 533.736 86.4922 531.889 86.4922C530.069 86.4922 528.585 86.0793 527.438 85.2534C526.29 84.4136 525.443 83.2238 524.897 81.6841ZM571.823 91.5312H580.096V60.835H574.238V75.3643L574.322 78.1777L574.448 80.9912C574.49 81.929 574.525 82.8739 574.553 83.8257H574.406L561.073 60.835H552.864V91.5312H558.68V77.0859C558.638 76.1061 558.596 75.1333 558.554 74.1675L558.428 71.228C558.386 70.2482 558.337 69.2754 558.281 68.3096H558.47L571.823 91.5312ZM636.722 60.835L628.912 91.5312H621.5L617.343 75.4062C617.259 75.0983 617.147 74.6294 617.007 73.9995C616.867 73.3696 616.72 72.6838 616.566 71.9419C616.412 71.186 616.272 70.4792 616.146 69.8213C616.034 69.1494 615.957 68.6175 615.915 68.2256C615.873 68.6175 615.789 69.1424 615.663 69.8003C615.551 70.4582 615.418 71.158 615.264 71.8999C615.124 72.6418 614.984 73.3346 614.844 73.9785C614.704 74.6224 614.592 75.1123 614.508 75.4482L610.372 91.5312H602.981L595.15 60.835H601.554L605.48 77.5898C605.592 78.0937 605.718 78.6956 605.858 79.3955C606.012 80.0954 606.159 80.8302 606.299 81.6001C606.453 82.356 606.586 83.0908 606.698 83.8047C606.824 84.5046 606.915 85.1134 606.971 85.6313C607.041 85.0994 607.132 84.4836 607.244 83.7837C607.356 83.0698 607.475 82.349 607.601 81.6211C607.741 80.8792 607.881 80.1934 608.021 79.5635C608.16 78.9336 608.286 78.4227 608.398 78.0308L612.871 60.835H619.022L623.495 78.0308C623.593 78.4087 623.705 78.9196 623.831 79.5635C623.971 80.1934 624.111 80.8792 624.25 81.6211C624.39 82.363 624.516 83.0908 624.628 83.8047C624.754 84.5046 624.845 85.1134 624.901 85.6313C624.999 84.9315 625.132 84.0846 625.3 83.0908C625.482 82.083 625.671 81.0822 625.867 80.0884C626.077 79.0946 626.259 78.2617 626.413 77.5898L630.318 60.835H636.722ZM666.075 91.5312H672.479V58.8613H666.075V91.5312ZM649.698 67.5747C652.847 67.5747 655.262 68.2606 656.941 69.6323C658.621 71.0041 659.461 73.0897 659.461 75.8892V91.5312H654.989L653.75 88.3398H653.582C652.91 89.1797 652.224 89.8656 651.524 90.3975C650.825 90.9294 650.02 91.3213 649.11 91.5732C648.2 91.8252 647.094 91.9512 645.792 91.9512C644.407 91.9512 643.161 91.6852 642.055 91.1533C640.963 90.6214 640.103 89.8096 639.473 88.7178C638.843 87.612 638.528 86.2122 638.528 84.5186C638.528 82.027 639.403 80.1934 641.152 79.0176C642.902 77.8278 645.527 77.1699 649.026 77.0439L653.099 76.918V75.8892C653.099 74.6574 652.777 73.7546 652.133 73.1807C651.489 72.6068 650.594 72.3198 649.446 72.3198C648.312 72.3198 647.199 72.4808 646.107 72.8027C645.016 73.1247 643.924 73.5306 642.832 74.0205L640.711 69.6953C641.957 69.0374 643.35 68.5195 644.89 68.1416C646.443 67.7637 648.046 67.5747 649.698 67.5747ZM650.622 80.7393L653.099 80.6553V82.5869C653.099 84.0846 652.623 85.2394 651.671 86.0513C650.734 86.8631 649.579 87.269 648.207 87.269C647.283 87.269 646.534 87.0661 645.96 86.6602C645.387 86.2402 645.1 85.5404 645.1 84.5605C645.1 83.4408 645.499 82.5379 646.296 81.8521C647.108 81.1662 648.55 80.7952 650.622 80.7393ZM679.218 91.5312H685.622V58.8613H679.218V91.5312ZM702.041 67.6167C704.211 67.6167 706.079 68.0366 707.647 68.8765C709.215 69.7023 710.425 70.9061 711.279 72.4878C712.133 74.0695 712.56 76.0011 712.56 78.2827V81.3901H697.422C697.492 83.1958 698.031 84.6165 699.039 85.6523C700.06 86.6742 701.474 87.1851 703.28 87.1851C704.778 87.1851 706.149 87.0311 707.395 86.7231C708.641 86.4152 709.922 85.9533 711.237 85.3374V90.2925C710.076 90.8664 708.858 91.2863 707.584 91.5522C706.324 91.8182 704.792 91.9512 702.986 91.9512C700.634 91.9512 698.549 91.5173 696.729 90.6494C694.923 89.7816 693.503 88.4588 692.467 86.6812C691.445 84.9035 690.934 82.6639 690.934 79.9624C690.934 77.2189 691.396 74.9373 692.32 73.1177C693.258 71.284 694.559 69.9123 696.225 69.0024C697.891 68.0786 699.829 67.6167 702.041 67.6167ZM698.976 73.3696C699.801 72.5718 700.837 72.1729 702.083 72.1729C703.091 72.1729 703.917 72.3898 704.561 72.8237C705.218 73.2576 705.708 73.8455 706.03 74.5874C706.366 75.3293 706.541 76.1761 706.555 77.1279H697.569C697.695 75.4202 698.164 74.1675 698.976 73.3696ZM729.693 86.6392C729.035 86.7791 728.356 86.8491 727.656 86.8491C726.816 86.8491 726.138 86.6322 725.62 86.1982C725.116 85.7503 724.864 85.0785 724.864 84.1826V72.8657H731.436V68.0576H724.864V63.0605H720.77L718.922 68.0156L715.395 70.1572V72.8657H718.46V84.1826C718.46 86.1982 718.775 87.7729 719.405 88.9067C720.049 90.0265 720.924 90.8174 722.029 91.2793C723.149 91.7272 724.409 91.9512 725.809 91.9512C727.012 91.9512 728.118 91.8462 729.126 91.6362C730.148 91.4403 731.002 91.1883 731.688 90.8804V86.1143C731.03 86.3242 730.365 86.4992 729.693 86.6392ZM59.1809 41H108.552C115.609 41 121.33 46.6283 121.33 53.5713H103.646C93.6053 53.5713 85.4655 61.5794 85.4655 71.458V78.3292C85.4655 88.2078 93.6053 96.216 103.646 96.216H121.33C121.33 103.276 115.512 109 108.336 109H59.1809C49.1399 109 41 100.992 41 91.1133V58.8868C41 49.0082 49.1399 41 59.1809 41ZM118.43 58.1123H102.208C96.0661 58.1123 90.9945 62.8342 90.6561 68.8678L90.3214 74.837L90.667 81.1202C90.9992 87.1587 96.073 91.8876 102.22 91.8876H118.43C124.82 91.8876 130 86.7915 130 80.5051V69.4948C130 63.2084 124.82 58.1123 118.43 58.1123ZM110.839 75C110.839 78.6 107.873 81.5183 104.214 81.5183C100.554 81.5183 97.588 78.6 97.588 75C97.588 71.4 100.554 68.4817 104.214 68.4817C107.873 68.4817 110.839 71.4 110.839 75Z" fill="#8C8C8C"/>
</svg>
