<svg width="912" height="151" viewBox="0 0 912 151" fill="none" xmlns="http://www.w3.org/2000/svg">
<path fill-rule="evenodd" clip-rule="evenodd" d="M0 24C0 10.7452 10.7452 0 24 0H888C901.255 0 912 10.7452 912 24V126.061C912 139.315 901.255 150.061 888 150.061H24C10.7452 150.061 0 139.315 0 126.061V24ZM59.1809 41H108.552C115.609 41 121.33 46.6283 121.33 53.5713H103.646C93.6053 53.5713 85.4655 61.5794 85.4655 71.458V78.3292C85.4655 88.2078 93.6053 96.216 103.646 96.216H121.33C121.33 103.276 115.512 109 108.336 109H59.1809C49.1399 109 41 100.992 41 91.1133V58.8868C41 49.0082 49.1399 41 59.1809 41ZM118.43 58.1123H102.208C96.0661 58.1123 90.9945 62.8342 90.6561 68.8678L90.3214 74.837L90.667 81.1202C90.9992 87.1587 96.073 91.8876 102.22 91.8876H118.43C124.82 91.8876 130 86.7915 130 80.5051V69.4948C130 63.2084 124.82 58.1123 118.43 58.1123ZM110.839 75C110.839 78.6 107.873 81.5183 104.214 81.5183C100.554 81.5183 97.588 78.6 97.588 75C97.588 71.4 100.554 68.4817 104.214 68.4817C107.873 68.4817 110.839 71.4 110.839 75ZM458.503 77.0034C458.503 79.4192 458.185 81.5756 457.547 83.4724C456.909 85.3693 455.99 86.9709 454.787 88.2772C453.585 89.5835 452.128 90.5857 450.416 91.2836C448.722 91.9636 446.8 92.3036 444.65 92.3036C442.647 92.3036 440.807 91.9636 439.131 91.2836C437.473 90.5857 436.034 89.5835 434.814 88.2772C433.612 86.9709 432.674 85.3693 432 83.4724C431.344 81.5756 431.016 79.4192 431.016 77.0034C431.016 73.7823 431.571 71.0444 432.683 68.7897C433.794 66.517 435.379 64.7901 437.437 63.6091C439.514 62.4101 441.982 61.8106 444.842 61.8106C447.574 61.8106 449.96 62.4101 452 63.6091C454.059 64.808 455.653 66.5438 456.782 68.8165C457.93 71.0713 458.503 73.8002 458.503 77.0034ZM436.672 83.1503C436.034 81.4145 435.716 79.3655 435.716 77.0034C435.716 73.4244 436.435 70.6239 437.874 68.6018C439.331 66.5796 441.617 65.5686 444.732 65.5686C446.845 65.5686 448.567 66.0338 449.896 66.9644C451.226 67.8949 452.21 69.2191 452.847 70.937C453.485 72.6371 453.804 74.6592 453.804 77.0034C453.804 79.3655 453.485 81.4145 452.847 83.1503C452.21 84.8861 451.217 86.2282 449.869 87.1767C448.539 88.1251 446.836 88.5993 444.76 88.5993C442.665 88.5993 440.953 88.1251 439.623 87.1767C438.293 86.2282 437.309 84.8861 436.672 83.1503ZM404.785 62.3475H399.922L411.917 91.8204L410.277 95.9541C409.84 97.0636 409.321 98.021 408.72 98.8263C408.119 99.6315 407.399 100.24 406.561 100.652C405.742 101.081 404.767 101.296 403.638 101.296C403.018 101.296 402.417 101.26 401.834 101.188C401.27 101.117 400.787 101.036 400.386 100.947V104.517C400.86 104.642 401.425 104.749 402.08 104.839C402.736 104.946 403.492 105 404.348 105C406.206 105 407.791 104.633 409.102 103.899C410.414 103.184 411.525 102.155 412.436 100.813C413.365 99.4705 414.176 97.8957 414.868 96.0883L427.901 62.3475H423.01L416.753 79.3924C416.207 80.9135 415.697 82.4077 415.223 83.8751C414.749 85.3245 414.385 86.4967 414.13 87.3914H413.939C413.793 86.604 413.593 85.7898 413.338 84.9488C413.083 84.1077 412.791 83.2308 412.463 82.3182C412.135 81.3877 411.78 80.4213 411.398 79.4192L404.785 62.3475ZM491.073 62.3475V91.7667H487.357L486.701 87.633H486.455C485.836 88.653 485.034 89.512 484.051 90.2099C483.067 90.9078 481.956 91.4267 480.717 91.7667C479.497 92.1246 478.194 92.3036 476.81 92.3036C474.442 92.3036 472.457 91.9278 470.854 91.1762C469.251 90.4246 468.039 89.2614 467.22 87.6867C466.418 86.1119 466.017 84.0898 466.017 81.6203V62.3475H470.608V81.2982C470.608 83.7498 471.172 85.584 472.302 86.8009C473.431 87.9998 475.152 88.5993 477.466 88.5993C479.688 88.5993 481.455 88.1877 482.767 87.3646C484.096 86.5414 485.053 85.3335 485.636 83.7408C486.219 82.1303 486.51 80.1619 486.51 77.8355V62.3475H491.073ZM516.156 61.918C515.5 61.8464 514.872 61.8106 514.271 61.8106C512.85 61.8106 511.556 62.0791 510.391 62.6159C509.243 63.1528 508.232 63.8775 507.358 64.7901C506.483 65.6849 505.737 66.6781 505.117 67.7696H504.926L504.434 62.3475H500.664V91.7667H505.227V75.9834C505.227 74.4623 505.454 73.0844 505.91 71.8497C506.365 70.597 506.993 69.5323 507.795 68.6554C508.596 67.7607 509.525 67.0807 510.582 66.6154C511.657 66.1323 512.795 65.8907 513.997 65.8907C514.526 65.8907 515.09 65.9265 515.691 65.998C516.293 66.0696 516.839 66.168 517.331 66.2933L517.905 62.1596C517.395 62.0522 516.812 61.9717 516.156 61.918ZM553.753 91.7667H545.283V59.4485H534.435V52.5232H564.601V59.4485H553.753V91.7667ZM605.859 80.3587C606.624 77.8713 607.007 75.1155 607.007 72.0913C607.007 68.0112 606.324 64.4591 604.957 61.4348C603.609 58.4106 601.533 56.0664 598.728 54.4021C595.941 52.7379 592.379 51.9058 588.044 51.9058C583.691 51.9058 580.102 52.7379 577.279 54.4021C574.455 56.0664 572.36 58.4106 570.994 61.4348C569.646 64.4412 568.972 67.9754 568.972 72.0376C568.972 75.0797 569.355 77.8445 570.12 80.3319C570.885 82.8193 572.042 84.9577 573.59 86.7472C575.157 88.5367 577.133 89.9146 579.519 90.8809C581.905 91.8293 584.729 92.3036 587.99 92.3036C591.25 92.3036 594.073 91.8293 596.46 90.8809C598.846 89.9146 600.813 88.5367 602.362 86.7472C603.928 84.9577 605.094 82.8282 605.859 80.3587ZM577.852 72.0913C577.852 74.8292 578.199 77.1913 578.891 79.1776C579.601 81.1461 580.703 82.6671 582.197 83.7408C583.691 84.7966 585.621 85.3245 587.99 85.3245C590.394 85.3245 592.343 84.7966 593.837 83.7408C595.33 82.6671 596.414 81.1461 597.088 79.1776C597.78 77.1913 598.126 74.8292 598.126 72.0913C598.126 67.9754 597.343 64.7365 595.777 62.3743C594.21 60.0122 591.633 58.8311 588.044 58.8311C585.658 58.8311 583.709 59.368 582.197 60.4417C580.703 61.4975 579.601 63.0185 578.891 65.0049C578.199 66.9733 577.852 69.3354 577.852 72.0913ZM650.724 91.7667H639.959L622.581 62.0791H622.335C622.408 63.3138 622.472 64.5575 622.526 65.8102L622.69 69.5681C622.745 70.8028 622.8 72.0465 622.854 73.2992V91.7667H615.286V52.5232H625.969L643.32 81.9156H643.511C643.474 80.6987 643.429 79.4908 643.374 78.2918L643.21 74.695L643.101 71.0981V52.5232H650.724V91.7667ZM714.251 91.7667L724.416 52.5232H716.082L711 73.9434C710.799 74.8023 710.563 75.8671 710.289 77.1376C710.034 78.4082 709.789 79.6877 709.552 80.9761C709.333 82.2466 709.16 83.3293 709.033 84.224C708.96 83.5619 708.841 82.7835 708.677 81.8887C708.532 80.9761 708.368 80.0456 708.186 79.0971C708.003 78.1487 707.821 77.2718 707.639 76.4666C707.475 75.6434 707.329 74.9902 707.202 74.5071L701.382 52.5232H693.376L687.556 74.5071C687.411 75.0081 687.247 75.6613 687.065 76.4666C686.882 77.2718 686.7 78.1487 686.518 79.0971C686.354 80.0277 686.199 80.9492 686.054 81.8619C685.908 82.7566 685.789 83.544 685.698 84.224C685.625 83.5619 685.507 82.7835 685.343 81.8887C685.197 80.9761 685.024 80.0366 684.824 79.0703C684.642 78.0861 684.451 77.1466 684.25 76.2518C684.068 75.3571 683.904 74.5876 683.758 73.9434L678.649 52.5232H670.315L680.507 91.7667H690.125L695.507 71.2055C695.617 70.776 695.763 70.1497 695.945 69.3265C696.127 68.5033 696.309 67.6175 696.491 66.6691C696.691 65.7207 696.865 64.8259 697.01 63.9849C697.174 63.1438 697.284 62.4728 697.338 61.9717C697.393 62.4728 697.493 63.1528 697.639 64.0117C697.803 64.8528 697.985 65.7565 698.185 66.7228C698.386 67.6712 698.577 68.5481 698.759 69.3533C698.941 70.1586 699.087 70.7581 699.196 71.1518L704.606 91.7667H714.251ZM741.302 61.1396C745.4 61.1396 748.542 62.0164 750.728 63.7701C752.914 65.5238 754.007 68.1902 754.007 71.7692V91.7667H748.187L746.575 87.6867H746.357C745.482 88.7604 744.59 89.6372 743.679 90.3172C742.768 90.9972 741.721 91.4983 740.537 91.8204C739.353 92.1425 737.914 92.3036 736.219 92.3036C734.416 92.3036 732.795 91.9636 731.356 91.2836C729.935 90.6035 728.815 89.5656 727.995 88.1698C727.175 86.7561 726.766 84.9666 726.766 82.8014C726.766 79.6161 727.904 77.2718 730.181 75.7687C732.458 74.2476 735.873 73.4065 740.427 73.2455L745.728 73.0844V71.7692C745.728 70.1944 745.309 69.0402 744.471 68.3065C743.633 67.5728 742.467 67.206 740.974 67.206C739.498 67.206 738.05 67.4117 736.629 67.8233C735.209 68.2349 733.788 68.7539 732.367 69.3802L729.607 63.8507C731.228 63.0096 733.041 62.3475 735.045 61.8643C737.067 61.3812 739.152 61.1396 741.302 61.1396ZM742.504 77.9697L745.728 77.8624V80.3319C745.728 82.2466 745.109 83.723 743.87 84.7609C742.65 85.7988 741.147 86.3177 739.362 86.3177C738.159 86.3177 737.185 86.0582 736.438 85.5393C735.691 85.0024 735.318 84.1077 735.318 82.855C735.318 81.4235 735.837 80.2692 736.875 79.3924C737.932 78.5155 739.808 78.0413 742.504 77.9697ZM762.614 91.7667H770.948V50H762.614V91.7667ZM788.052 91.7667H779.719V50H788.052V91.7667ZM816.715 62.8038C814.674 61.7301 812.243 61.1933 809.419 61.1933C806.541 61.1933 804.018 61.7838 801.851 62.9649C799.683 64.128 797.989 65.8817 796.768 68.226C795.566 70.5523 794.965 73.4692 794.965 76.9766C794.965 80.4303 795.63 83.2935 796.96 85.5661C798.308 87.8388 800.156 89.5299 802.506 90.6393C804.874 91.7488 807.589 92.3036 810.649 92.3036C812.999 92.3036 814.993 92.1336 816.633 91.7936C818.29 91.4536 819.875 90.9167 821.387 90.183V83.8482C819.675 84.6356 818.008 85.2261 816.387 85.6198C814.766 86.0135 812.98 86.2103 811.031 86.2103C808.681 86.2103 806.842 85.5572 805.512 84.2509C804.2 82.9266 803.499 81.1103 803.408 78.8018H823.108V74.8292C823.108 71.9123 822.553 69.4428 821.442 67.4207C820.33 65.3986 818.755 63.8596 816.715 62.8038ZM809.474 67.0181C807.853 67.0181 806.505 67.5281 805.43 68.5481C804.373 69.5681 803.763 71.1697 803.599 73.3529H815.294C815.276 72.136 815.048 71.0534 814.611 70.1049C814.192 69.1565 813.554 68.4049 812.698 67.8502C811.86 67.2954 810.785 67.0181 809.474 67.0181ZM842.754 85.7809C843.665 85.7809 844.548 85.6914 845.404 85.5124C846.279 85.3335 847.144 85.1098 848 84.8414V90.9346C847.107 91.3283 845.996 91.6504 844.667 91.9009C843.355 92.1693 841.916 92.3036 840.349 92.3036C838.528 92.3036 836.888 92.0172 835.431 91.4446C833.992 90.8541 832.854 89.843 832.016 88.4114C831.196 86.9619 830.786 84.9488 830.786 82.3719V67.9039H826.797V64.4412L831.387 61.7033L833.792 55.3685H839.12V61.757H847.672V67.9039H839.12V82.3719C839.12 83.5172 839.448 84.3761 840.103 84.9488C840.777 85.5035 841.661 85.7809 842.754 85.7809ZM330.001 63.4749C328.179 62.3654 325.993 61.8106 323.443 61.8106C320.766 61.8106 318.434 62.437 316.448 63.6896C314.481 64.9422 312.951 66.7317 311.858 69.0581C310.783 71.3665 310.246 74.1044 310.246 77.2718C310.246 80.5108 310.838 83.2487 312.022 85.4856C313.206 87.7225 314.864 89.4225 316.995 90.5856C319.144 91.7309 321.658 92.3036 324.536 92.3036C326.558 92.3036 328.307 92.1515 329.782 91.8472C331.276 91.543 332.779 91.0599 334.291 90.3978V86.4788C332.724 87.1409 331.212 87.6419 329.755 87.9819C328.298 88.3219 326.622 88.4919 324.727 88.4919C321.649 88.4919 319.263 87.5883 317.569 85.7809C315.875 83.9735 315 81.3429 314.946 77.8892H335.63V75.1245C335.63 72.4581 335.147 70.1318 334.181 68.1454C333.216 66.1412 331.822 64.5843 330.001 63.4749ZM323.389 65.4612C320.966 65.4612 319.035 66.2396 317.596 67.7965C316.157 69.3533 315.301 71.5276 315.028 74.3192H330.875C330.857 72.5655 330.575 71.0265 330.028 69.7023C329.5 68.3602 328.689 67.3223 327.596 66.5886C326.503 65.837 325.101 65.4612 323.389 65.4612ZM355.33 92.3036C352.634 92.3036 350.257 91.7578 348.198 90.6662C346.14 89.5746 344.537 87.9104 343.389 85.6735C342.242 83.4366 341.668 80.6182 341.668 77.2182C341.668 73.6571 342.269 70.7491 343.471 68.4944C344.692 66.2217 346.368 64.5396 348.499 63.448C350.63 62.3564 353.053 61.8106 355.767 61.8106C357.261 61.8106 358.7 61.9627 360.084 62.267C361.487 62.5533 362.634 62.9201 363.527 63.3675L362.161 67.0986C361.25 66.7407 360.193 66.4186 358.991 66.1323C357.807 65.8459 356.696 65.7028 355.658 65.7028C353.581 65.7028 351.851 66.1412 350.466 67.0181C349.1 67.8949 348.071 69.1833 347.379 70.8834C346.705 72.5834 346.368 74.6771 346.368 77.1645C346.368 79.5445 346.696 81.5756 347.351 83.2577C348.025 84.9398 349.018 86.2282 350.33 87.123C351.659 87.9998 353.317 88.4383 355.302 88.4383C356.887 88.4383 358.317 88.2772 359.592 87.9551C360.867 87.6151 362.024 87.2214 363.062 86.774V90.7467C362.06 91.2478 360.94 91.6325 359.702 91.9009C358.481 92.1693 357.024 92.3036 355.33 92.3036ZM382.134 88.4651C381.351 88.5904 380.586 88.653 379.839 88.653C378.4 88.653 377.243 88.1967 376.369 87.284C375.513 86.3714 375.085 84.9935 375.085 83.1503V65.837H383.856V62.3475H375.085V55.5295H372.352L370.549 61.918L366.259 63.6628V65.837H370.522V83.2845C370.522 85.593 370.904 87.4004 371.669 88.7067C372.453 90.013 373.491 90.9436 374.784 91.4983C376.077 92.0351 377.516 92.3036 379.101 92.3036C379.994 92.3036 380.905 92.223 381.834 92.062C382.781 91.9009 383.519 91.7041 384.047 91.4715V88.0088C383.555 88.1877 382.917 88.3398 382.134 88.4651ZM257.457 61.8106C261.009 61.8106 263.696 62.6696 265.517 64.3875C267.339 66.0875 268.25 68.8254 268.25 72.6013V91.7667H263.769V72.8965C263.769 70.4449 263.195 68.6107 262.047 67.3939C260.918 66.177 259.178 65.5686 256.829 65.5686C253.513 65.5686 251.182 66.4902 249.834 68.3333C248.486 70.1765 247.812 72.8518 247.812 76.3592V91.7667H243.276V62.3475H246.937L247.621 66.5886H247.866C248.504 65.5507 249.315 64.6828 250.298 63.9849C251.282 63.2691 252.384 62.7322 253.604 62.3743C254.825 61.9985 256.109 61.8106 257.457 61.8106ZM234.478 83.4724C235.115 81.5756 235.434 79.4192 235.434 77.0034C235.434 73.8002 234.86 71.0713 233.713 68.8165C232.583 66.5438 230.99 64.808 228.931 63.6091C226.891 62.4101 224.505 61.8106 221.772 61.8106C218.913 61.8106 216.444 62.4101 214.368 63.6091C212.309 64.7901 210.725 66.517 209.613 68.7897C208.502 71.0444 207.947 73.7823 207.947 77.0034C207.947 79.4192 208.275 81.5756 208.93 83.4724C209.604 85.3693 210.543 86.9709 211.745 88.2772C212.965 89.5835 214.404 90.5857 216.062 91.2836C217.738 91.9636 219.577 92.3036 221.581 92.3036C223.731 92.3036 225.652 91.9636 227.346 91.2836C229.059 90.5857 230.516 89.5835 231.718 88.2772C232.92 86.9709 233.84 85.3693 234.478 83.4724ZM212.646 77.0034C212.646 79.3655 212.965 81.4145 213.603 83.1503C214.24 84.8861 215.224 86.2282 216.554 87.1767C217.883 88.1251 219.596 88.5993 221.69 88.5993C223.767 88.5993 225.47 88.1251 226.8 87.1767C228.148 86.2282 229.141 84.8861 229.778 83.1503C230.416 81.4145 230.735 79.3655 230.735 77.0034C230.735 74.6592 230.416 72.6371 229.778 70.937C229.141 69.2191 228.157 67.8949 226.827 66.9644C225.498 66.0338 223.776 65.5686 221.663 65.5686C218.548 65.5686 216.262 66.5796 214.805 68.6018C213.366 70.6239 212.646 73.4244 212.646 77.0034ZM192.126 55.9858C189.922 55.9858 187.937 56.3616 186.17 57.1132C184.421 57.8469 182.928 58.9206 181.689 60.3343C180.468 61.7301 179.53 63.4212 178.875 65.4075C178.219 67.3939 177.891 69.6307 177.891 72.1181C177.891 75.4108 178.41 78.274 179.448 80.7077C180.505 83.1235 182.071 84.9935 184.148 86.3177C186.243 87.6419 188.857 88.304 191.99 88.304C193.775 88.304 195.451 88.1609 197.017 87.8746C198.602 87.5704 200.141 87.1946 201.635 86.7472V90.7199C200.178 91.2567 198.648 91.6504 197.045 91.9009C195.442 92.1693 193.538 92.3036 191.334 92.3036C187.272 92.3036 183.875 91.4804 181.142 89.8341C178.428 88.1698 176.388 85.8256 175.022 82.8014C173.674 79.7771 173 76.2071 173 72.0913C173 69.1207 173.419 66.4096 174.257 63.958C175.113 61.4885 176.352 59.359 177.973 57.5695C179.612 55.7801 181.616 54.4021 183.984 53.4358C186.37 52.4516 189.103 51.9595 192.181 51.9595C194.203 51.9595 196.152 52.1563 198.028 52.55C199.905 52.9437 201.599 53.5074 203.111 54.2411L201.253 58.1064C199.977 57.5338 198.575 57.0416 197.045 56.6301C195.533 56.2006 193.893 55.9858 192.126 55.9858ZM299.836 64.3875C298.014 62.6696 295.327 61.8106 291.775 61.8106C290.427 61.8106 289.143 61.9985 287.923 62.3743C286.702 62.7322 285.6 63.2691 284.617 63.9849C283.633 64.6828 282.822 65.5507 282.185 66.5886H281.939L281.256 62.3475H277.594V91.7667H282.13V76.3592C282.13 72.8518 282.804 70.1765 284.152 68.3333C285.5 66.4902 287.832 65.5686 291.147 65.5686C293.497 65.5686 295.236 66.177 296.366 67.3939C297.513 68.6107 298.087 70.4449 298.087 72.8965V91.7667H302.568V72.6013C302.568 68.8254 301.657 66.0875 299.836 64.3875Z" fill="#8C8C8C"/>
</svg>
