<svg width="65" height="64" viewBox="0 0 65 64" fill="none" xmlns="http://www.w3.org/2000/svg">
<path fill-rule="evenodd" clip-rule="evenodd" d="M4.46094 8.00513C2.2518 8.00513 0.460938 9.79583 0.460938 12.0048V60.0004C0.460938 62.2093 2.2518 64 4.46094 64H52.4609C54.6701 64 56.4609 62.2093 56.4609 60.0004V12.0048C56.4609 9.79582 54.6701 8.00513 52.4609 8.00513H4.46094ZM51.4609 11.0049H5.46094C4.35637 11.0049 3.46094 11.9002 3.46094 13.0047V59.0005C3.46094 60.1049 4.35637 61.0003 5.46094 61.0003H51.4609C52.5655 61.0003 53.4609 60.1049 53.4609 59.0005V13.0047C53.4609 11.9002 52.5655 11.0049 51.4609 11.0049Z" fill="#98FFAF"/>
<path d="M60.4609 0H13.9609C13.1325 0 12.4609 0.671511 12.4609 1.49986C12.4609 2.32821 13.1325 2.99973 13.9609 2.99973H59.4609C60.5655 2.99973 61.4609 3.89507 61.4609 4.99954V50.4954C61.4609 51.3237 62.1325 51.9952 62.9609 51.9952C63.7894 51.9952 64.4609 51.3237 64.4609 50.4954V3.99963C64.4609 1.7907 62.6701 0 60.4609 0Z" fill="#98FFAF"/>
</svg>
