<svg width="181" height="61" viewBox="0 0 181 61" fill="none" xmlns="http://www.w3.org/2000/svg">
<path d="M158.033 31.3739L159.094 30.3132L158.033 29.2526L147.533 18.7526L145.412 20.8739L154.851 30.3132L145.412 39.7526L147.533 41.8739L158.033 31.3739ZM30.3782 2.18823H150.378C166.118 2.18823 178.878 14.9481 178.878 30.6882C178.878 46.4283 166.118 59.1882 150.378 59.1882H30.3782C14.6381 59.1882 1.87817 46.4283 1.87817 30.6882C1.87817 14.9481 14.6381 2.18823 30.3782 2.18823Z" stroke="#98FFAF" stroke-width="3"/>
<path d="M53.845 30.4932V33.1332H41.269V30.4932H53.845ZM43.357 31.8132L42.085 39.8532L40.573 38.0772H54.541V40.8132H38.845L40.285 31.8132L38.845 22.8132H54.421V25.5492H40.573L42.085 23.7732L43.357 31.8132Z" fill="white"/>
<path d="M59.8924 36.6852V34.0692H72.4684V36.6852H59.8924ZM68.2444 22.8132L76.8844 40.8132H73.5004L65.6524 24.0132H66.8764L59.0284 40.8132H55.6444L64.2844 22.8132H68.2444Z" fill="white"/>
<path d="M81.2863 30.9252H88.6063C89.6623 30.9252 90.4943 30.6852 91.1023 30.2052C91.7263 29.7252 92.0383 29.0692 92.0383 28.2372C92.0383 27.3892 91.7263 26.7332 91.1023 26.2692C90.4943 25.7892 89.6623 25.5492 88.6063 25.5492H80.8303L82.2463 23.7732V40.8132H79.0783V22.8132H88.8943C90.1583 22.8132 91.2623 23.0452 92.2063 23.5092C93.1663 23.9572 93.9103 24.5892 94.4383 25.4052C94.9823 26.2052 95.2543 27.1492 95.2543 28.2372C95.2543 29.2932 94.9823 30.2292 94.4383 31.0452C93.9103 31.8452 93.1663 32.4772 92.2063 32.9412C91.2623 33.3892 90.1583 33.6132 88.8943 33.6132H81.2863V30.9252ZM84.8383 32.3892H88.5583L95.7103 40.8132H91.9183L84.8383 32.3892Z" fill="white"/>
<path d="M115.211 38.8932L113.915 39.0372V22.8132H116.987V40.8132H112.955L100.331 24.5892L101.603 24.4452V40.8132H98.5315V22.8132H102.659L115.211 38.8932Z" fill="white"/>
</svg>
