<svg width="21" height="32" viewBox="0 0 21 32" fill="none" xmlns="http://www.w3.org/2000/svg">
<path d="M13.7113 0L13.498 0.209867C10.8252 2.83925 9.17102 6.33104 8.82949 10.0648C8.70835 11.389 8.75436 12.7233 8.96641 14.036L8.98183 14.1315C9.23165 15.678 9.69894 17.1815 10.3698 18.5971L11.8964 21.8183L10.5965 20.934C8.99982 19.8477 7.74709 18.3274 6.98616 16.5524C6.59031 15.6291 6.3341 14.6519 6.22595 13.6531L5.73382 9.10814V6.23544C5.21332 8.14507 4.48961 9.99341 3.57509 11.7488L2.61824 13.5854L1.02453 18.0147C0.724094 18.8497 0.51088 19.7135 0.388302 20.5924L0.250771 21.5785C0.0855405 22.7633 0.178152 23.9697 0.522269 25.1153C0.882172 26.3135 1.50809 27.4149 2.35328 28.3372L2.60565 28.6127C3.84384 29.9639 5.43157 30.9465 7.19332 31.4517L8.04986 31.6973C8.75 31.8981 9.47479 32 10.2031 32C10.8408 32 11.4761 31.9219 12.0948 31.7675L13.5097 31.4143C15.42 30.9375 17.1199 29.8442 18.346 28.3036C19.415 26.9604 20.0753 25.3381 20.2481 23.6302L20.2999 23.1182C20.4781 21.3565 20.2165 19.578 19.5384 17.9422L18.735 16.0041C18.3266 15.019 17.8362 14.07 17.2689 13.1671L15.8987 10.9863L15.1783 9.80973C14.4113 8.55687 13.8776 7.17542 13.6031 5.73228C13.372 4.5168 13.3276 3.27316 13.4717 2.0443L13.7113 0Z" fill="#15202B"/>
</svg>
