<svg width="20" height="33" viewBox="0 0 20 33" fill="none" xmlns="http://www.w3.org/2000/svg">
<path d="M13.2465 2.84974L13.4701 0.783081C10.8803 3.54344 9.27935 7.11716 8.96094 10.8888C8.85137 12.1866 8.89303 13.4928 9.08509 14.781L9.10287 14.9003C9.335 16.4573 9.77216 17.9767 10.403 19.4189L11.795 22.6014L10.7331 21.8187C9.16832 20.6653 7.9593 19.0951 7.24406 17.2874C6.89107 16.3953 6.66361 15.4585 6.5682 14.5038L6.10723 9.89122V7.01852C5.62668 8.92877 4.95449 10.7856 4.10088 12.5608L3.2317 14.3684L1.76597 18.7821C1.48513 19.6278 1.28645 20.4986 1.17268 21.3824L1.04128 22.4033C0.892055 23.5625 0.976041 24.7399 1.2883 25.8662C1.62669 27.0868 2.22545 28.2197 3.04338 29.1868L3.16033 29.3251C4.34066 30.7207 5.89499 31.7503 7.64051 32.2927L8.25156 32.4825C8.89277 32.6818 9.56039 32.7831 10.2318 32.7831C10.8203 32.7831 11.4061 32.7053 11.9741 32.5516L13.0393 32.2636C14.9579 31.7447 16.6435 30.5899 17.8201 28.9881C18.7616 27.7064 19.3371 26.1929 19.4849 24.6094L19.5535 23.8749C19.7167 22.1267 19.4753 20.3644 18.8479 18.7245L18.1189 16.8191C17.7338 15.8126 17.2688 14.8385 16.7281 13.9063L15.4889 11.7694L14.8531 10.6443C14.1253 9.35619 13.6227 7.95333 13.3669 6.49612C13.1556 5.29236 13.115 4.06482 13.2465 2.84974Z" fill="#98FFAF"/>
</svg>
