<?xml version="1.0" encoding="UTF-8"?>
<svg xmlns="http://www.w3.org/2000/svg" xmlns:xlink="http://www.w3.org/1999/xlink" width="40px" height="66px" viewBox="0 0 40 66" version="1.1">
<g id="surface1">
<path style=" stroke:none;fill-rule:nonzero;fill:rgb(59.607843%,100%,68.627451%);fill-opacity:1;" d="M 26.492188 5.699219 L 26.941406 1.566406 C 21.761719 7.085938 18.558594 14.234375 17.921875 21.777344 C 17.703125 24.375 17.785156 26.984375 18.171875 29.5625 L 18.207031 29.800781 C 18.671875 32.914062 19.542969 35.953125 20.804688 38.835938 L 23.589844 45.203125 L 21.464844 43.636719 C 18.335938 41.332031 15.917969 38.191406 14.488281 34.574219 C 13.78125 32.789062 13.328125 30.917969 13.136719 29.007812 L 12.214844 19.78125 L 12.214844 14.035156 C 11.253906 17.859375 9.910156 21.570312 8.203125 25.121094 L 6.464844 28.738281 L 3.53125 37.5625 C 2.96875 39.253906 2.574219 40.996094 2.34375 42.765625 L 2.082031 44.804688 C 1.785156 47.125 1.953125 49.480469 2.578125 51.730469 C 3.253906 54.171875 4.449219 56.4375 6.085938 58.375 L 6.320312 58.648438 C 8.679688 61.441406 11.789062 63.5 15.28125 64.585938 L 16.503906 64.964844 C 17.785156 65.363281 19.121094 65.566406 20.464844 65.566406 C 21.640625 65.566406 22.8125 65.410156 23.949219 65.101562 L 26.078125 64.527344 C 29.914062 63.488281 33.285156 61.179688 35.640625 57.976562 C 37.523438 55.414062 38.675781 52.386719 38.96875 49.21875 L 39.105469 47.75 C 39.433594 44.253906 38.949219 40.730469 37.695312 37.449219 L 36.238281 33.636719 C 35.46875 31.625 34.539062 29.675781 33.457031 27.8125 L 30.976562 23.539062 L 29.707031 21.289062 C 28.25 18.710938 27.246094 15.90625 26.734375 12.992188 C 26.3125 10.585938 26.230469 8.128906 26.492188 5.699219 Z M 26.492188 5.699219 "/>
</g>
</svg>
