<?xml version="1.0" encoding="UTF-8"?>
<svg xmlns="http://www.w3.org/2000/svg" xmlns:xlink="http://www.w3.org/1999/xlink" width="156px" height="257px" viewBox="0 0 156 257" version="1.1">
<g id="surface1">
<path style=" stroke:none;fill-rule:nonzero;fill:rgb(59.607843%,100%,68.627451%);fill-opacity:1;" d="M 103.324219 22.195312 L 105.066406 6.097656 C 84.867188 27.597656 72.378906 55.425781 69.894531 84.800781 C 69.039062 94.90625 69.367188 105.082031 70.863281 115.113281 L 71.003906 116.042969 C 72.8125 128.167969 76.222656 140 81.144531 151.230469 L 92 176.015625 L 83.71875 169.921875 C 71.511719 160.9375 62.082031 148.710938 56.503906 134.632812 C 53.75 127.683594 51.976562 120.390625 51.230469 112.953125 L 47.636719 77.03125 L 47.636719 54.660156 C 43.886719 69.535156 38.644531 83.996094 31.988281 97.820312 L 25.207031 111.898438 L 13.773438 146.273438 C 11.585938 152.859375 10.035156 159.640625 9.148438 166.523438 L 8.121094 174.472656 C 6.957031 183.5 7.613281 192.671875 10.046875 201.441406 C 12.6875 210.949219 17.359375 219.773438 23.738281 227.304688 L 24.652344 228.378906 C 33.855469 239.25 45.980469 247.265625 59.597656 251.492188 L 64.363281 252.96875 C 69.363281 254.523438 74.570312 255.3125 79.808594 255.3125 C 84.398438 255.3125 88.96875 254.703125 93.398438 253.507812 L 101.707031 251.265625 C 116.671875 247.222656 129.820312 238.230469 138.996094 225.753906 C 146.339844 215.773438 150.828125 203.988281 151.980469 191.65625 L 152.515625 185.933594 C 153.789062 172.320312 151.90625 158.59375 147.011719 145.824219 L 141.328125 130.984375 C 138.324219 123.148438 134.695312 115.558594 130.480469 108.300781 L 120.8125 91.660156 L 115.855469 82.898438 C 110.175781 72.863281 106.257812 61.941406 104.261719 50.589844 C 102.613281 41.214844 102.296875 31.65625 103.324219 22.195312 Z M 103.324219 22.195312 "/>
</g>
</svg>
