<svg width="103" height="78" viewBox="0 0 103 78" fill="none" xmlns="http://www.w3.org/2000/svg">
<path d="M26.2225 33.4815V36.5909C26.2225 37.1402 25.8027 37.5855 25.2849 37.5855C12.8466 37.5855 2.36414 47.4321 0.858615 60.5301L0 78H67.4312V70.5301C65.5 48.5 53.5846 37.5855 41.1463 37.5855C40.6285 37.5855 40.2087 37.1402 40.2087 36.5909V33.4815C40.2087 33.1993 40.2992 32.9255 40.4653 32.7052L43.4917 28.6921C45.8931 25.5076 47.2015 18.2598 47.2015 14.1817C47.2015 -4.72723 19.2297 -4.72723 19.2297 14.1817C19.2297 18.2598 20.538 25.5076 22.9395 28.6921L25.9658 32.7052C26.132 32.9255 26.2225 33.1993 26.2225 33.4815Z" fill="#98FFAF"/>
<path d="M62.7913 33.4815V36.5909C62.7913 37.1402 62.5347 37.5855 58.32 37.5855C58.32 37.5855 73.3555 44.5 73.3555 78H103L102.141 60.5301C100.636 47.4321 90.1534 37.5855 77.7151 37.5855C77.1973 37.5855 76.7775 37.1402 76.7775 36.5909V33.4815C76.7775 33.1993 76.868 32.9255 77.0342 32.7052L80.0605 28.6921C82.462 25.5076 83.7703 18.2598 83.7703 14.1817C83.7703 -4.72723 55.7985 -4.72723 55.7985 14.1817C55.7985 18.2598 57.1069 25.5076 59.5083 28.6921L62.5347 32.7052C62.7008 32.9255 62.7913 33.1993 62.7913 33.4815Z" fill="#98FFAF"/>
</svg>
