<svg width="111" height="84" viewBox="0 0 111 84" fill="none" xmlns="http://www.w3.org/2000/svg">
<path d="M28.2396 36.057V39.4056C28.2396 39.9972 27.7875 40.4767 27.2299 40.4767C13.8348 40.4767 2.546 51.0807 0.924662 65.1863L0 84H72.6182V75.9555C70.5385 52.2308 57.7065 40.4767 44.3114 40.4767C43.7537 40.4767 43.3017 39.9972 43.3017 39.4056V36.057C43.3017 35.7531 43.3991 35.4583 43.5781 35.221L46.8372 30.8992C49.4234 27.4698 50.8323 19.6644 50.8323 15.2726C50.8323 -5.09086 20.7089 -5.09086 20.7089 15.2726C20.7089 19.6644 22.1179 27.4698 24.7041 30.8992L27.9632 35.221C28.1421 35.4583 28.2396 35.7531 28.2396 36.057Z" fill="#98FFAF"/>
<path d="M67.6214 36.057V39.4056C67.6214 39.9972 67.345 40.4767 62.8062 40.4767C62.8062 40.4767 78.9982 47.9231 78.9982 84H110.923L109.998 65.1863C108.377 51.0807 97.0883 40.4767 83.6932 40.4767C83.1356 40.4767 82.6835 39.9972 82.6835 39.4056V36.057C82.6835 35.7531 82.781 35.4583 82.9599 35.221L86.219 30.8992C88.8052 27.4698 90.2142 19.6644 90.2142 15.2726C90.2142 -5.09086 60.0907 -5.09086 60.0907 15.2726C60.0907 19.6644 61.4997 27.4698 64.0859 30.8992L67.345 35.221C67.5239 35.4583 67.6214 35.7531 67.6214 36.057Z" fill="#98FFAF"/>
</svg>
