<svg width="84" height="84" viewBox="0 0 84 84" fill="none" xmlns="http://www.w3.org/2000/svg">
<path d="M0 0H84V84H0V0Z" fill="#0F161E"/>
<path d="M22.367 49.755V52.1468C22.367 52.5694 22.0409 52.9119 21.6387 52.9119C11.9779 52.9119 3.83623 60.4862 2.66689 70.5616L2 84H54.3737V78.2539C52.8738 61.3077 43.6191 52.9119 33.9583 52.9119C33.5561 52.9119 33.23 52.5694 33.23 52.1468V49.755C33.23 49.5379 33.3003 49.3273 33.4294 49.1579L35.7799 46.0709C37.6451 43.6213 38.6613 38.046 38.6613 34.909C38.6613 20.3637 16.9357 20.3637 16.9357 34.909C16.9357 38.046 17.9519 43.6213 19.8171 46.0709L22.1676 49.1579C22.2967 49.3273 22.367 49.5379 22.367 49.755Z" fill="#98FFAF"/>
<path d="M50.77 49.755V52.1468C50.77 52.5694 50.5706 52.9119 47.2971 52.9119C47.2971 52.9119 58.9751 58.2308 58.9751 84H82L81.3331 70.5616C80.1638 60.4862 72.0221 52.9119 62.3613 52.9119C61.9591 52.9119 61.633 52.5694 61.633 52.1468V49.755C61.633 49.5379 61.7033 49.3273 61.8324 49.1579L64.1829 46.0709C66.0481 43.6213 67.0643 38.046 67.0643 34.909C67.0643 20.3637 45.3387 20.3637 45.3387 34.909C45.3387 38.046 46.3549 43.6213 48.2201 46.0709L50.5706 49.1579C50.6997 49.3273 50.77 49.5379 50.77 49.755Z" fill="#98FFAF"/>
</svg>
