<svg width="122" height="74" viewBox="0 0 122 74" fill="none" xmlns="http://www.w3.org/2000/svg">
<path fill-rule="evenodd" clip-rule="evenodd" d="M61 54.2942L60.0781 54.48C58.1537 54.868 56.4809 56.0562 55.4712 57.7526C54.7897 58.8976 53.7983 59.823 52.6134 60.4202L52.4917 60.4815C51.4597 61.0016 50.3217 61.2724 49.1678 61.2724H43.9378C43.3495 61.2724 42.7743 61.0969 42.2849 60.768C41.1741 60.0215 39.7063 60.1109 38.6927 60.9866L30.5136 68.0533C28.9429 69.4104 27.1422 70.4708 25.198 71.1834L20.0241 73.0799C10.0781 76.7255 -0.367783 69.0667 0.00994778 58.4057C0.0670495 56.794 0.380872 55.2021 0.9394 53.6909L14.1689 17.8962C15.8586 13.3243 18.6869 9.26762 22.3818 6.11617L24.3192 4.46369C26.8213 2.32961 29.8355 0.895303 33.0602 0.304295C36.1552 -0.262928 39.3421 -0.0346319 42.3264 0.968086L48.9369 3.18921C52.0046 4.21997 55.1718 4.92116 58.3856 5.28111L61 5.57392L63.6143 5.28111C66.8282 4.92116 69.9954 4.21997 73.0631 3.18921L79.6736 0.968086C82.6579 -0.0346319 85.8448 -0.262928 88.9397 0.304295C92.1645 0.895303 95.1787 2.32961 97.6808 4.46369L99.6182 6.11617C103.313 9.26762 106.141 13.3243 107.831 17.8962L121.061 53.6909C121.619 55.2021 121.933 56.794 121.99 58.4057C122.368 69.0667 111.922 76.7255 101.976 73.0799L96.802 71.1834C94.8578 70.4708 93.0571 69.4104 91.4864 68.0533L83.3073 60.9866C82.2937 60.1109 80.8259 60.0215 79.7151 60.768C79.2256 61.0969 78.6505 61.2724 78.0622 61.2724H72.8322C71.6783 61.2724 70.5403 61.0016 69.5082 60.4815L69.3866 60.4202C68.2017 59.823 67.2103 58.8976 66.5288 57.7526C65.5191 56.0562 63.8463 54.868 61.9219 54.48L61 54.2942ZM45.5904 56.8558C44.4921 56.8558 43.4144 56.5549 42.4725 55.9853C40.6472 54.8813 39.5303 52.8929 39.5303 50.7472V48.8312C39.5303 46.6855 40.6472 44.6971 42.4725 43.5931C43.4144 43.0235 44.4921 42.7226 45.5904 42.7226H47.4912C48.5896 42.7226 49.6673 43.0235 50.6091 43.5931C52.4344 44.6971 53.5513 46.6855 53.5513 48.8312V50.7472C53.5513 52.8929 52.4344 54.8813 50.6091 55.9853C49.6673 56.5549 48.5896 56.8558 47.4912 56.8558H45.5904ZM35.4431 32.9094C34.7117 32.4179 34.2724 31.5905 34.2724 30.7045V29.6592C34.2724 27.117 32.2279 25.0561 29.7058 25.0561H28.3508C27.6536 25.0561 26.9849 24.7769 26.4919 24.28C25.4652 23.2451 25.4652 21.5672 26.4919 20.5323C26.9849 20.0354 27.6536 19.7562 28.3508 19.7562H29.3152C32.053 19.7562 34.2724 17.519 34.2724 14.7593V13.7872C34.2724 13.0844 34.5494 12.4104 35.0424 11.9134C36.0691 10.8786 37.7336 10.8786 38.7603 11.9134C39.2533 12.4104 39.5303 13.0844 39.5303 13.7872V14.7593C39.5303 17.519 41.7497 19.7562 44.4875 19.7562H45.4519C46.1491 19.7562 46.8178 20.0354 47.3108 20.5323C48.3375 21.5672 48.3375 23.2451 47.3108 24.28C46.8178 24.7769 46.1491 25.0561 45.4519 25.0561H44.0969C41.5748 25.0561 39.5303 27.117 39.5303 29.6592V30.7045C39.5303 31.5905 39.091 32.4179 38.3596 32.9094C37.4766 33.5028 36.3261 33.5028 35.4431 32.9094ZM76.4096 56.8558C77.5079 56.8558 78.5856 56.5549 79.5275 55.9853C81.3528 54.8813 82.4697 52.8929 82.4697 50.7472V48.8312C82.4697 46.6855 81.3528 44.6971 79.5275 43.5931C78.5856 43.0235 77.5079 42.7226 76.4096 42.7226H74.5088C73.4104 42.7226 72.3327 43.0235 71.3909 43.5931C69.5655 44.6971 68.4487 46.6855 68.4487 48.8312V50.7472C68.4487 52.8929 69.5655 54.8813 71.3909 55.9853C72.3327 56.5549 73.4104 56.8558 74.5088 56.8558H76.4096ZM75.4592 26.8228C77.879 26.8228 79.8407 24.8454 79.8407 22.4062C79.8407 19.9669 77.879 17.9895 75.4592 17.9895C73.0393 17.9895 71.0776 19.9669 71.0776 22.4062C71.0776 24.8454 73.0393 26.8228 75.4592 26.8228ZM85.9749 16.2229C88.3948 16.2229 90.3565 14.2455 90.3565 11.8063C90.3565 9.36703 88.3948 7.38964 85.9749 7.38964C83.5551 7.38964 81.5934 9.36703 81.5934 11.8063C81.5934 14.2455 83.5551 16.2229 85.9749 16.2229ZM85.9749 37.4227C88.3948 37.4227 90.3565 35.4453 90.3565 33.0061C90.3565 30.5668 88.3948 28.5894 85.9749 28.5894C83.5551 28.5894 81.5934 30.5668 81.5934 33.0061C81.5934 35.4453 83.5551 37.4227 85.9749 37.4227ZM96.4907 26.8228C98.9106 26.8228 100.872 24.8454 100.872 22.4062C100.872 19.9669 98.9106 17.9895 96.4907 17.9895C94.0708 17.9895 92.1091 19.9669 92.1091 22.4062C92.1091 24.8454 94.0708 26.8228 96.4907 26.8228Z" fill="#98FFAF"/>
</svg>
