<svg width="139" height="84" viewBox="0 0 139 84" fill="none" xmlns="http://www.w3.org/2000/svg">
<path fill-rule="evenodd" clip-rule="evenodd" d="M69.2432 61.6312L68.1968 61.8422C66.0123 62.2826 64.1135 63.6314 62.9673 65.557C62.1937 66.8567 61.0683 67.9072 59.7233 68.5851L59.5852 68.6547C58.4137 69.2451 57.1219 69.5525 55.8121 69.5525H49.8753C49.2075 69.5525 48.5547 69.3533 47.999 68.9799C46.7381 68.1325 45.072 68.234 43.9214 69.2281L34.6371 77.2497C32.8541 78.7902 30.81 79.9939 28.6031 80.8028L22.73 82.9555C11.44 87.0939 -0.417483 78.4001 0.0112921 66.2983C0.0761102 64.4689 0.432342 62.6619 1.06635 60.9465L16.0836 20.3146C18.0016 15.1249 21.2121 10.52 25.4063 6.94267L27.6056 5.0669C30.4458 2.64442 33.8673 1.01629 37.5278 0.345416C41.0411 -0.298459 44.6586 -0.0393118 48.0462 1.09891L55.55 3.62018C59.0322 4.79023 62.6274 5.58618 66.2756 5.99478L69.2432 6.32715L72.2109 5.99478C75.8591 5.58618 79.4542 4.79023 82.9365 3.62018L90.4403 1.09891C93.8279 -0.0393118 97.4454 -0.298459 100.959 0.345416C104.619 1.01629 108.041 2.64442 110.881 5.0669L113.08 6.94267C117.274 10.52 120.485 15.1249 122.403 20.3146L137.42 60.9465C138.054 62.6619 138.41 64.4689 138.475 66.2983C138.904 78.4001 127.047 87.0939 115.756 82.9555L109.883 80.8028C107.676 79.9939 105.632 78.7902 103.849 77.2497L94.5651 69.2281C93.4145 68.234 91.7483 68.1325 90.4874 68.9799C89.9318 69.3533 89.279 69.5525 88.6112 69.5525H82.6744C81.3646 69.5525 80.0728 69.2451 78.9012 68.6547L78.7632 68.5851C77.4182 67.9072 76.2928 66.8567 75.5191 65.557C74.373 63.6314 72.4742 62.2826 70.2897 61.8422L69.2432 61.6312ZM51.7513 64.539C50.5045 64.539 49.2812 64.1975 48.212 63.5509C46.14 62.2977 44.8722 60.0406 44.8722 57.6049V55.43C44.8722 52.9944 46.14 50.7373 48.212 49.4841C49.2812 48.8375 50.5045 48.496 51.7513 48.496H53.9089C55.1557 48.496 56.3791 48.8375 57.4482 49.4841C59.5202 50.7373 60.788 52.9944 60.788 55.43V57.6049C60.788 60.0406 59.5202 62.2977 57.4482 63.5509C56.3791 64.1975 55.1557 64.539 53.9089 64.539H51.7513ZM40.2327 37.3566C39.4025 36.7987 38.9038 35.8595 38.9038 34.8538V33.6672C38.9038 30.7815 36.583 28.4421 33.7202 28.4421H32.182C31.3906 28.4421 30.6315 28.1252 30.0719 27.5611C28.9065 26.3863 28.9065 24.4817 30.0719 23.307C30.6315 22.7429 31.3906 22.4259 32.182 22.4259H33.2767C36.3845 22.4259 38.9038 19.8865 38.9038 16.7539V15.6504C38.9038 14.8526 39.2182 14.0875 39.7779 13.5234C40.9433 12.3486 42.8328 12.3486 43.9982 13.5234C44.5578 14.0875 44.8722 14.8526 44.8722 15.6504V16.7539C44.8722 19.8865 47.3916 22.4259 50.4993 22.4259H51.594C52.3855 22.4259 53.1445 22.7429 53.7042 23.307C54.8696 24.4817 54.8696 26.3863 53.7042 27.5611C53.1445 28.1252 52.3855 28.4421 51.594 28.4421H50.0559C47.193 28.4421 44.8722 30.7815 44.8722 33.6672V34.8538C44.8722 35.8595 44.3736 36.7987 43.5434 37.3566C42.541 38.0302 41.2351 38.0302 40.2327 37.3566ZM86.7352 64.539C87.982 64.539 89.2053 64.1975 90.2744 63.5509C92.3464 62.2977 93.6142 60.0406 93.6142 57.6049V55.43C93.6142 52.9944 92.3464 50.7373 90.2744 49.4841C89.2053 48.8375 87.982 48.496 86.7352 48.496H84.5776C83.3308 48.496 82.1074 48.8375 81.0383 49.4841C78.9663 50.7373 77.6985 52.9944 77.6985 55.43V57.6049C77.6985 60.0406 78.9663 62.2977 81.0383 63.5509C82.1074 64.1975 83.3308 64.539 84.5776 64.539H86.7352ZM85.6564 30.4475C88.4032 30.4475 90.63 28.2029 90.63 25.434C90.63 22.6652 88.4032 20.4206 85.6564 20.4206C82.9095 20.4206 80.6827 22.6652 80.6827 25.434C80.6827 28.2029 82.9095 30.4475 85.6564 30.4475ZM97.5932 18.4152C100.34 18.4152 102.567 16.1706 102.567 13.4017C102.567 10.6328 100.34 8.38824 97.5932 8.38824C94.8463 8.38824 92.6195 10.6328 92.6195 13.4017C92.6195 16.1706 94.8463 18.4152 97.5932 18.4152ZM97.5932 42.4798C100.34 42.4798 102.567 40.2352 102.567 37.4663C102.567 34.6975 100.34 32.4529 97.5932 32.4529C94.8463 32.4529 92.6195 34.6975 92.6195 37.4663C92.6195 40.2352 94.8463 42.4798 97.5932 42.4798ZM109.53 30.4475C112.277 30.4475 114.504 28.2029 114.504 25.434C114.504 22.6652 112.277 20.4206 109.53 20.4206C106.783 20.4206 104.556 22.6652 104.556 25.434C104.556 28.2029 106.783 30.4475 109.53 30.4475Z" fill="#98FFAF"/>
</svg>
