<svg width="84" height="84" viewBox="0 0 84 84" fill="none" xmlns="http://www.w3.org/2000/svg">
<path d="M0 0H84V84H0V0Z" fill="#111A22"/>
<path fill-rule="evenodd" clip-rule="evenodd" d="M42.5332 52.2762L42.032 52.7146C40.9858 53.6299 40.3719 54.9374 40.3414 56.3156C40.3209 57.246 40.0339 58.154 39.5141 58.933L39.4608 59.013C39.0081 59.6916 38.4037 60.2578 37.6956 60.6666L34.486 62.5197C34.1249 62.7281 33.711 62.8263 33.2963 62.8019C32.3554 62.7464 31.4857 63.3202 31.1678 64.2062L28.6028 71.3554C28.1102 72.7284 27.3734 74.0043 26.4278 75.1219L23.9113 78.096C19.0737 83.8133 10.003 82.9069 6.53189 76.3595C6.00716 75.3697 5.64684 74.3008 5.46472 73.1938L1.15102 46.9725C0.600049 43.6234 0.926748 40.1808 2.09969 36.9757L2.71473 35.2952C3.50902 33.1248 4.86066 31.1939 6.6344 29.6958C8.33675 28.2579 10.3718 27.2661 12.5515 26.812L17.3798 25.806C19.6205 25.3391 21.8077 24.6388 23.9051 23.7166L25.6112 22.9664L27.1139 21.8639C28.9613 20.5087 30.6614 18.9646 32.186 17.2576L35.4714 13.5792C36.9546 11.9186 38.8311 10.6521 40.9274 9.89669C43.1117 9.10965 45.4597 8.90452 47.7365 9.30184L49.4994 9.60949C52.8616 10.1962 56.0063 11.6346 58.6312 13.7863L79.1827 30.6327C80.0503 31.344 80.7958 32.1904 81.3906 33.1398C85.3254 39.4195 81.5749 47.7282 74.2048 49.059L70.3709 49.7513C68.9303 50.0115 67.4569 50.0116 66.0216 49.7517L58.5476 48.3984C57.6214 48.2307 56.6896 48.697 56.2672 49.5397C56.081 49.911 55.789 50.2203 55.428 50.4288L52.2184 52.2819C51.5102 52.6907 50.7178 52.931 49.9037 52.9838L49.8078 52.99C48.8732 53.0506 47.9434 52.8451 47.1274 52.3978C45.9186 51.735 44.4793 51.6129 43.1635 52.0613L42.5332 52.2762ZM33.9662 59.2771C33.2921 59.6663 32.5262 59.8671 31.7503 59.8582C30.2467 59.8408 28.8706 59.0403 28.1254 57.7494L27.4599 56.5968C26.7146 55.3059 26.7094 53.714 27.4462 52.4031C27.8263 51.7267 28.3832 51.1639 29.0573 50.7747L30.2238 50.1012C30.8978 49.712 31.6637 49.5112 32.4396 49.5202C33.9432 49.5376 35.3193 50.338 36.0646 51.6289L36.73 52.7815C37.4753 54.0724 37.4805 55.6643 36.7437 56.9752C36.3636 57.6516 35.8067 58.2145 35.1326 58.6036L33.9662 59.2771ZM19.4215 48.4665C18.8019 48.43 18.2449 48.0879 17.9372 47.5548L17.5741 46.926C16.6912 45.3966 14.7206 44.8812 13.1729 45.7748L12.3413 46.2549C11.9134 46.502 11.4061 46.571 10.9309 46.4467C9.94139 46.1879 9.35861 45.1785 9.62923 44.1921C9.75918 43.7185 10.0726 43.3136 10.5005 43.0665L11.0923 42.7248C12.7725 41.7548 13.3575 39.6226 12.399 37.9624L12.0613 37.3775C11.8172 36.9547 11.7531 36.4511 11.883 35.9774C12.1537 34.9911 13.1752 34.4013 14.1647 34.6601C14.6399 34.7844 15.044 35.0918 15.2881 35.5146L15.6257 36.0994C16.5842 37.7596 18.7233 38.3191 20.4035 37.349L20.9953 37.0073C21.4232 36.7603 21.9305 36.6913 22.4057 36.8156C23.3952 37.0744 23.978 38.0838 23.7074 39.0702C23.5774 39.5438 23.264 39.9487 22.8361 40.1957L22.0046 40.6758C20.4568 41.5695 19.9179 43.5337 20.8009 45.0631L21.1639 45.6919C21.4717 46.2249 21.4895 46.8783 21.2113 47.4331C20.8755 48.103 20.1695 48.5106 19.4215 48.4665ZM52.8798 48.3573C53.5538 47.9682 54.1107 47.4053 54.4908 46.7289C55.2276 45.418 55.2224 43.8261 54.4771 42.5352L53.8116 41.3826C53.0664 40.0918 51.6903 39.2913 50.1867 39.2739C49.4108 39.2649 48.6449 39.4658 47.9709 39.8549L46.8044 40.5284C46.1303 40.9176 45.5734 41.4804 45.1933 42.1568C44.4565 43.4677 44.4617 45.0597 45.207 46.3505L45.8725 47.5031C46.6177 48.794 47.9938 49.5945 49.4975 49.6119C50.2733 49.6208 51.0392 49.42 51.7133 49.0308L52.8798 48.3573ZM41.8651 30.6264C43.3502 29.769 43.8673 27.8844 43.0201 26.4169C42.1728 24.9495 40.2821 24.455 38.7971 25.3124C37.312 26.1698 36.7949 28.0545 37.6422 29.5219C38.4894 30.9893 40.3801 31.4838 41.8651 30.6264ZM44.637 20.5237C46.122 19.6663 46.6391 17.7816 45.7919 16.3142C44.9447 14.8468 43.054 14.3523 41.5689 15.2097C40.0838 16.0671 39.5668 17.9517 40.414 19.4191C41.2612 20.8866 43.1519 21.3811 44.637 20.5237ZM52.0003 33.2773C53.4854 32.4199 54.0024 30.5353 53.1552 29.0678C52.308 27.6004 50.4173 27.1059 48.9322 27.9633C47.4472 28.8207 46.9301 30.7054 47.7773 32.1728C48.6245 33.6402 50.5152 34.1347 52.0003 33.2773ZM54.7721 23.1746C56.2572 22.3172 56.7743 20.4325 55.927 18.9651C55.0798 17.4977 53.1891 17.0032 51.7041 17.8606C50.219 18.718 49.7019 20.6026 50.5491 22.07C51.3964 23.5375 53.287 24.032 54.7721 23.1746Z" fill="#98FFAF"/>
</svg>
