<svg width="300" height="300" viewBox="0 0 300 300" fill="none" xmlns="http://www.w3.org/2000/svg">
<g clip-path="url(#clip0_533_140)">
<rect width="300" height="300" fill="#15202B"/>
<g filter="url(#filter0_f_533_140)">
<path d="M108.908 166.23C112.857 184.943 137.937 193.243 155.023 177.013C179.694 178.57 193.327 141.7 189.378 122.986C185.429 104.272 155.447 117.071 140.723 109.244C120.104 126.896 104.959 147.516 108.908 166.23Z" fill="#DDFFE4"/>
</g>
<g filter="url(#filter1_f_533_140)">
<path d="M242.137 196.109L210.772 147.263L267.869 67.7656L170.757 100.422L122.366 44.3438L109.1 116.893L28.4668 88.8713L84.3184 152.071L44.7033 237.771L122.494 180.366L173.669 258.894L181.486 167.918L242.137 196.109Z" fill="#98FFAF" fill-opacity="0.2"/>
</g>
<g filter="url(#filter2_f_533_140)">
<path d="M181.486 167.918L242.137 196.109L169.75 134.044L210.772 147.263L267.869 67.7656L169.75 134.044L181.486 167.918L173.669 258.894L145.056 151.869L122.494 180.366L118.759 144.804L144.758 122.613L170.757 100.422L122.366 44.3438L144.758 122.613L118.759 144.804L109.1 116.893L28.4668 88.8713C56.7949 105.086 114.513 138.972 118.759 144.804L44.7033 237.771L122.494 180.366L173.669 258.894L181.486 167.918Z" fill="white" fill-opacity="0.2"/>
</g>
<path d="M50.4508 213.228C52.9377 221.708 61.8277 226.566 70.3071 224.079L259.64 168.549C268.119 166.062 272.977 157.173 270.49 148.693L249.269 76.3352C246.782 67.8558 237.892 62.998 229.412 65.4849L40.0793 121.014C31.6 123.501 26.7421 132.391 29.229 140.87L50.4508 213.228Z" fill="#15202B" fill-opacity="0.67"/>
<path fill-rule="evenodd" clip-rule="evenodd" d="M30.2252 123.905C27.1871 124.796 25.446 127.98 26.3364 131.015L53.3398 223.086C54.2302 226.122 57.4148 227.861 60.4529 226.97L219.982 180.182L209.327 169.315L212.425 154.415L201.77 143.549L204.868 128.649L194.213 117.783L197.311 102.883L186.656 92.0169L189.754 77.1171L30.2252 123.905ZM178.358 170.783L180.163 176.936L197.02 171.992L199.488 166.323L196.721 156.888L191.582 153.451L181.235 156.485L179.615 155.401L178.833 152.735L179.611 150.947L192.425 147.189L190.62 141.036L174.106 145.88L171.638 151.548L174.189 160.245L179.339 163.724L189.687 160.689L191.307 161.773L192.293 165.137L191.515 166.924L178.358 170.783ZM157.577 183.56L155.772 177.407L168.929 173.548L169.707 171.761L168.72 168.397L167.1 167.313L156.753 170.348L151.602 166.869L149.052 158.173L151.519 152.504L168.034 147.661L169.839 153.814L157.024 157.572L156.246 159.359L157.028 162.026L158.648 163.11L168.996 160.075L174.134 163.513L176.901 172.948L174.434 178.616L157.577 183.56ZM129.116 159.075L130.582 191.478L137.366 189.488L136.865 183.086L145.979 180.413L149.015 186.071L155.799 184.082L139.532 156.02L129.116 159.075ZM136.401 176.807L142.979 174.878L136.637 163.15L135.404 163.512L136.401 176.807ZM111.432 197.094L102.566 166.862L119.457 161.908L124.596 165.345L128.013 176.995L125.545 182.664L115.06 185.739L117.84 195.215L111.432 197.094ZM120.239 177.894L113.352 179.914L110.681 170.807L117.568 168.788L119.188 169.872L121.017 176.107L120.239 177.894ZM84.1644 211.061C95.5573 207.72 102.086 195.782 98.7476 184.398C95.4087 173.014 83.4663 166.494 72.0733 169.835C60.6804 173.177 54.1513 185.114 57.4902 196.498C60.829 207.882 72.7715 214.402 84.1644 211.061ZM69.6885 197.28L66.3706 185.967L68.7288 181.59L80.002 178.283L84.351 180.694L71.069 184.589L70.2798 186.049L72.9549 195.17L74.3869 195.902L83.6023 193.199L77.5866 189.831L81.7179 188.619L87.6689 192.006L89.7186 198.995L85.3107 196.384L74.0375 199.69L69.6885 197.28ZM63.1447 178.051L64.1346 178.805C64.7712 178.002 65.2926 177.465 66.0768 176.805L65.2796 175.852C64.4954 176.512 63.7813 177.247 63.1447 178.051ZM60.1512 182.999L61.324 183.424C61.7755 182.346 62.1736 181.589 62.8071 180.605L61.7815 179.9C61.148 180.884 60.6026 181.92 60.1512 182.999ZM58.7171 189.07L59.9645 189.102C60.051 187.936 60.189 187.092 60.4785 185.959L59.2821 185.615C58.9926 186.748 58.8036 187.903 58.7171 189.07ZM59.2742 195.292L60.4685 194.93C60.1832 193.796 60.0483 192.952 59.9661 191.786L58.7219 191.836C58.8041 193.002 58.9888 194.158 59.2742 195.292ZM61.7801 201.015L62.7977 200.293C62.1665 199.309 61.7703 198.551 61.3214 197.472L60.1573 197.914C60.6062 198.993 61.149 200.031 61.7801 201.015ZM66.0347 205.689L66.7672 204.68C65.8538 203.949 65.2356 203.359 64.4643 202.48L63.5032 203.271C64.2745 204.15 65.1212 204.959 66.0347 205.689ZM71.4861 208.73L71.859 207.539C70.7602 207.138 69.986 206.775 68.9747 206.187L68.3156 207.243C69.3269 207.831 70.3874 208.328 71.4861 208.73ZM77.6102 209.882L77.5886 208.635C76.419 208.601 75.5697 208.5 74.4244 208.261L74.132 209.471C75.2772 209.71 76.4407 209.847 77.6102 209.882ZM83.8131 209.035L83.3951 207.86C82.2752 208.2 81.438 208.375 80.2761 208.513L80.3845 209.752C81.5464 209.614 82.6933 209.374 83.8131 209.035ZM89.3787 206.297L88.6108 205.314C87.6553 205.989 86.9161 206.42 85.8571 206.917L86.3517 208.059C87.4107 207.562 88.4232 206.972 89.3787 206.297ZM93.093 202.845L92.1031 202.091C91.4665 202.894 90.9452 203.431 90.161 204.091L90.9581 205.044C91.7423 204.384 92.4564 203.649 93.093 202.845ZM96.0866 197.897L94.9137 197.471C94.4623 198.55 94.0641 199.307 93.4306 200.291L94.4562 200.996C95.0897 200.012 95.6351 198.976 96.0866 197.897ZM97.5206 191.826L96.2732 191.794C96.1867 192.96 96.0487 193.804 95.7592 194.937L96.9556 195.281C97.2451 194.148 97.4341 192.993 97.5206 191.826ZM96.9635 185.604L95.7692 185.966C96.0546 187.1 96.1894 187.944 96.2716 189.11L97.5158 189.06C97.4336 187.894 97.2489 186.738 96.9635 185.604ZM94.4576 179.881L93.4401 180.603C94.0712 181.587 94.4675 182.345 94.9163 183.424L96.0804 182.982C95.6315 181.902 95.0887 180.865 94.4576 179.881ZM90.203 175.207L89.4705 176.216C90.3839 176.947 91.0021 177.537 91.7734 178.416L92.7346 177.625C91.9633 176.746 91.1165 175.937 90.203 175.207ZM84.7516 172.166L84.3788 173.356C85.4775 173.758 86.2517 174.121 87.263 174.709L87.9221 173.653C86.9108 173.065 85.8503 172.568 84.7516 172.166ZM78.6275 171.014L78.6492 172.26C79.8187 172.295 80.668 172.396 81.8133 172.635L82.1058 171.425C80.9605 171.186 79.7971 171.049 78.6275 171.014ZM72.4246 171.861L72.8426 173.036C73.9625 172.696 74.7997 172.521 75.9617 172.383L75.8533 171.144C74.6913 171.282 73.5445 171.522 72.4246 171.861ZM66.859 174.599L67.6269 175.582C68.5824 174.907 69.3216 174.476 70.3806 173.979L69.886 172.837C68.827 173.334 67.8145 173.924 66.859 174.599ZM75.4549 159.143L66.5881 128.911L85.2674 123.432L87.0961 129.667L74.6543 133.316L76.2905 138.895L87.4981 135.608L89.1945 141.392L77.9869 144.679L79.8637 151.078L92.3055 147.429L94.1342 153.664L75.4549 159.143ZM47.4895 162.4L52.5274 165.867L62.6009 162.913L64.2752 159.481L65.0692 162.189L70.3394 160.643L65.5752 144.399L55.435 147.373L57.1554 153.239L61.6585 151.918L61.9713 152.985L59.7917 157.411L54.5549 158.947L52.9209 157.822L48.3251 142.152L49.1048 140.364L55.5425 138.476L57.1644 139.56L57.9946 142.39L64.0774 140.651L62.4412 135.072L57.4032 131.604L43.6606 135.635L41.2935 141.274L47.4895 162.4ZM96.7922 152.885L87.9254 122.652L94.0296 120.862L105.757 137.381L106.705 117.145L112.776 115.364L121.642 145.596L115.838 147.299L110.966 130.685L110.317 147.493L107.381 148.353L97.7236 134.569L102.596 151.183L96.7922 152.885ZM123.299 138.428L125.104 144.581L141.515 139.768L143.882 134.129L141.115 124.694L136.077 121.227L126.003 124.181L124.415 123.088L123.633 120.422L124.379 118.643L136.854 114.985L135.05 108.832L118.972 113.547L116.605 119.186L119.155 127.882L124.205 131.391L134.279 128.436L135.867 129.53L136.854 132.893L136.108 134.672L123.299 138.428ZM147.708 137.952L138.841 107.719L157.521 102.241L159.349 108.476L146.908 112.125L148.544 117.704L159.751 114.417L161.448 120.201L150.24 123.488L152.117 129.887L164.559 126.238L166.387 132.473L147.708 137.952ZM160.179 101.461L169.046 131.694L187.725 126.215L185.896 119.98L173.454 123.629L171.578 117.23L182.785 113.943L181.089 108.159L169.881 111.446L168.245 105.867L180.687 102.218L178.858 95.9829L160.179 101.461Z" fill="#98FFAF"/>
<path fill-rule="evenodd" clip-rule="evenodd" d="M246.376 66.4801C245.486 63.4443 242.301 61.7056 239.263 62.5967L196.63 75.1004L193.532 90.0002L204.187 100.866L201.089 115.766L211.744 126.633L208.646 141.532L219.301 152.399L216.203 167.299L226.858 178.165L269.491 165.661C272.529 164.77 274.27 161.587 273.379 158.551L246.376 66.4801ZM265.404 159.06L237.816 167.151L236.994 164.347L264.581 156.256L265.404 159.06ZM236.583 162.946L264.17 154.855L263.759 153.453L236.172 161.544L236.583 162.946ZM262.526 149.248L234.939 157.339L234.527 155.937L262.115 147.846L262.526 149.248ZM233.293 151.729L260.881 143.638L260.469 142.236L232.882 150.327L233.293 151.729ZM259.236 138.031L231.649 146.122L230.826 143.319L258.414 135.228L259.236 138.031ZM230.415 141.917L258.003 133.826L257.592 132.424L230.004 140.515L230.415 141.917ZM256.357 128.215L228.77 136.307L228.359 134.905L255.946 126.814L256.357 128.215ZM227.948 133.503L255.535 125.412L254.302 121.207L226.714 129.298L227.948 133.503ZM253.891 119.805L226.303 127.896L225.481 125.093L253.069 117.002L253.891 119.805ZM224.247 120.884L251.834 112.793L251.012 109.99L223.425 118.081L224.247 120.884ZM250.601 108.588L223.014 116.679L221.78 112.474L249.368 104.383L250.601 108.588ZM221.369 111.073L248.957 102.982L248.545 101.58L220.958 109.671L221.369 111.073ZM247.311 97.3713L219.724 105.462L219.313 104.061L246.9 95.9696L247.311 97.3713ZM218.079 99.8557L245.667 91.7646L244.845 88.9612L217.257 97.0523L218.079 99.8557ZM244.433 87.5595L216.846 95.6506L216.435 94.249L244.022 86.1579L244.433 87.5595ZM215.201 90.0403L242.788 81.9492L242.377 80.5475L214.789 88.6386L215.201 90.0403ZM241.144 76.3425L213.556 84.4336L212.734 81.6302L240.321 73.5391L241.144 76.3425ZM212.323 80.2285L239.91 72.1374L239.499 70.7358L211.912 78.8269L212.323 80.2285Z" fill="#98FFAF"/>
</g>
<defs>
<filter id="filter0_f_533_140" x="13.2793" y="-93.5" width="271.773" height="487.441" filterUnits="userSpaceOnUse" color-interpolation-filters="sRGB">
<feFlood flood-opacity="0" result="BackgroundImageFix"/>
<feBlend mode="normal" in="SourceGraphic" in2="BackgroundImageFix" result="shape"/>
<feGaussianBlur stdDeviation="47.5" result="effect1_foregroundBlur_533_140"/>
</filter>
<filter id="filter1_f_533_140" x="21.9668" y="37.8438" width="252.402" height="227.551" filterUnits="userSpaceOnUse" color-interpolation-filters="sRGB">
<feFlood flood-opacity="0" result="BackgroundImageFix"/>
<feBlend mode="normal" in="SourceGraphic" in2="BackgroundImageFix" result="shape"/>
<feGaussianBlur stdDeviation="3.25" result="effect1_foregroundBlur_533_140"/>
</filter>
<filter id="filter2_f_533_140" x="21.9668" y="-5.5" width="252.402" height="311.5" filterUnits="userSpaceOnUse" color-interpolation-filters="sRGB">
<feFlood flood-opacity="0" result="BackgroundImageFix"/>
<feBlend mode="normal" in="SourceGraphic" in2="BackgroundImageFix" result="shape"/>
<feGaussianBlur stdDeviation="3.25" result="effect1_foregroundBlur_533_140"/>
</filter>
<clipPath id="clip0_533_140">
<rect width="300" height="300" fill="white"/>
</clipPath>
</defs>
</svg>
