<svg width="300" height="300" viewBox="0 0 300 300" fill="none" xmlns="http://www.w3.org/2000/svg">
<g clip-path="url(#clip0_533_140)">
<rect width="300" height="300" fill="#15202B"/>
<g filter="url(#filter0_f_533_140)">
<path d="M75.7076 178.852C82.0191 208.761 122.104 222.026 149.412 196.086C188.844 198.575 210.632 139.646 204.32 109.737C198.009 79.8269 150.09 100.283 126.556 87.7738C93.6029 115.985 69.3961 148.942 75.7076 178.852Z" fill="#C5FFD1"/>
</g>
<g filter="url(#filter1_f_533_140)">
<path d="M236.137 196.109L204.772 147.263L261.869 67.7652L164.758 100.421L116.366 44.3433L103.1 116.892L22.467 88.8709L78.3186 152.071L38.7035 237.771L116.494 180.366L167.67 258.893L175.486 167.917L236.137 196.109Z" fill="#98FFAF" fill-opacity="0.2"/>
</g>
<g filter="url(#filter2_f_533_140)">
<path d="M175.486 167.917L236.137 196.109L163.75 134.043L204.772 147.263L261.869 67.7652L163.75 134.043L175.486 167.917L167.67 258.893L139.056 151.869L116.494 180.366L112.759 144.803L138.759 122.612L164.758 100.421L116.366 44.3433L138.759 122.612L112.759 144.803L103.1 116.892L22.467 88.8709C50.7951 105.085 108.513 138.972 112.759 144.803L38.7035 237.771L116.494 180.366L167.67 258.893L175.486 167.917Z" fill="white" fill-opacity="0.2"/>
</g>
<rect width="229.308" height="107.406" rx="16" transform="matrix(0.95958 -0.281435 -0.281435 -0.95958 48.9531 228.582)" fill="#15202B" fill-opacity="0.67"/>
<path fill-rule="evenodd" clip-rule="evenodd" d="M24.2256 123.904C21.1875 124.795 19.4464 127.979 20.3368 131.014L47.3402 223.085C48.2305 226.121 51.4152 227.86 54.4533 226.969L213.982 180.181L203.327 169.314L206.425 154.415L195.77 143.548L198.868 128.648L188.213 117.782L191.311 102.882L180.656 92.0159L183.754 77.1161L24.2256 123.904ZM172.359 170.782L174.164 176.935L191.021 171.991L193.488 166.322L190.721 156.887L185.583 153.45L175.235 156.484L173.615 155.4L172.833 152.734L173.611 150.947L186.425 147.188L184.621 141.035L168.106 145.879L165.639 151.547L168.189 160.244L173.34 163.723L183.687 160.688L185.307 161.772L186.294 165.136L185.516 166.923L172.359 170.782ZM151.577 183.559L149.772 177.406L162.929 173.548L163.707 171.76L162.721 168.396L161.1 167.312L150.753 170.347L145.602 166.868L143.052 158.172L145.52 152.503L162.034 147.66L163.839 153.813L151.025 157.571L150.247 159.358L151.029 162.025L152.649 163.109L162.996 160.074L168.135 163.512L170.902 172.947L168.434 178.615L151.577 183.559ZM123.116 159.074L124.582 191.477L131.366 189.487L130.866 183.085L139.98 180.412L143.016 186.07L149.8 184.081L133.532 156.019L123.116 159.074ZM130.401 176.806L136.979 174.877L130.637 163.149L129.404 163.511L130.401 176.806ZM105.433 197.093L96.566 166.861L113.458 161.907L118.596 165.344L122.013 176.994L119.545 182.663L109.061 185.738L111.84 195.214L105.433 197.093ZM114.239 177.893L107.352 179.913L104.682 170.806L111.568 168.787L113.189 169.871L115.017 176.106L114.239 177.893ZM78.1648 211.06C89.5577 207.719 96.0868 195.781 92.748 184.397C89.4091 173.013 77.4666 166.493 66.0737 169.834C54.6808 173.176 48.1517 185.113 51.4905 196.497C54.8294 207.881 66.7719 214.401 78.1648 211.06ZM63.6889 197.279L60.371 185.966L62.7292 181.589L74.0024 178.282L78.3513 180.693L65.0694 184.588L64.2802 186.048L66.9553 195.169L68.3873 195.901L77.6026 193.198L71.587 189.83L75.7183 188.618L81.6693 192.005L83.719 198.994L79.3111 196.383L68.0379 199.689L63.6889 197.279ZM57.1451 178.05L58.135 178.804C58.7716 178.001 59.2929 177.464 60.0771 176.804L59.28 175.851C58.4958 176.511 57.7817 177.246 57.1451 178.05ZM54.1515 182.998L55.3244 183.423C55.7758 182.345 56.174 181.588 56.8075 180.604L55.7819 179.899C55.1484 180.883 54.603 181.919 54.1515 182.998ZM52.7175 189.069L53.9649 189.101C54.0514 187.935 54.1894 187.091 54.4789 185.958L53.2825 185.614C52.993 186.747 52.804 187.902 52.7175 189.069ZM53.2746 195.291L54.4689 194.929C54.1835 193.795 54.0487 192.951 53.9665 191.785L52.7223 191.835C52.8045 193.001 52.9892 194.157 53.2746 195.291ZM55.7805 201.014L56.798 200.292C56.1669 199.308 55.7706 198.55 55.3218 197.471L54.1577 197.913C54.6066 198.993 55.1494 200.03 55.7805 201.014ZM60.0351 205.688L60.7676 204.679C59.8542 203.948 59.236 203.358 58.4647 202.479L57.5035 203.27C58.2748 204.149 59.1216 204.958 60.0351 205.688ZM65.4865 208.729L65.8593 207.539C64.7606 207.137 63.9864 206.774 62.9751 206.186L62.316 207.242C63.3273 207.83 64.3878 208.327 65.4865 208.729ZM71.6106 209.881L71.5889 208.635C70.4194 208.6 69.5701 208.499 68.4248 208.26L68.1323 209.47C69.2776 209.709 70.441 209.846 71.6106 209.881ZM77.8135 209.034L77.3955 207.859C76.2756 208.199 75.4384 208.374 74.2764 208.512L74.3848 209.751C75.5468 209.613 76.6936 209.373 77.8135 209.034ZM83.3791 206.296L82.6112 205.313C81.6557 205.988 80.9165 206.419 79.8575 206.916L80.352 208.058C81.4111 207.561 82.4236 206.971 83.3791 206.296ZM87.0934 202.845L86.1035 202.09C85.4669 202.893 84.9456 203.43 84.1614 204.09L84.9585 205.043C85.7427 204.383 86.4568 203.648 87.0934 202.845ZM90.0869 197.896L88.9141 197.471C88.4626 198.55 88.0645 199.306 87.431 200.29L88.4566 200.995C89.0901 200.011 89.6355 198.975 90.0869 197.896ZM91.521 191.825L90.2736 191.793C90.1871 192.959 90.0491 193.803 89.7596 194.936L90.956 195.28C91.2455 194.147 91.4345 192.992 91.521 191.825ZM90.9639 185.603L89.7696 185.965C90.0549 187.099 90.1898 187.943 90.272 189.109L91.5162 189.059C91.434 187.893 91.2493 186.737 90.9639 185.603ZM88.458 179.88L87.4405 180.602C88.0716 181.586 88.4678 182.344 88.9167 183.423L90.0808 182.981C89.6319 181.902 89.0891 180.864 88.458 179.88ZM84.2034 175.206L83.4709 176.215C84.3843 176.946 85.0025 177.536 85.7738 178.415L86.7349 177.624C85.9636 176.745 85.1169 175.936 84.2034 175.206ZM78.752 172.165L78.3791 173.356C79.4779 173.757 80.2521 174.12 81.2634 174.708L81.9225 173.652C80.9112 173.064 79.8507 172.567 78.752 172.165ZM72.6279 171.013L72.6495 172.26C73.8191 172.294 74.6684 172.395 75.8137 172.634L76.1062 171.424C74.9609 171.185 73.7974 171.048 72.6279 171.013ZM66.425 171.86L66.843 173.035C67.9628 172.695 68.8001 172.52 69.962 172.382L69.8536 171.143C68.6917 171.281 67.5448 171.521 66.425 171.86ZM60.8594 174.598L61.6273 175.581C62.5828 174.906 63.3219 174.475 64.381 173.978L63.8864 172.836C62.8274 173.333 61.8149 173.923 60.8594 174.598ZM69.4553 159.142L60.5885 128.91L79.2678 123.431L81.0965 129.666L68.6547 133.315L70.2909 138.894L81.4985 135.607L83.1949 141.391L71.9873 144.678L73.8641 151.077L86.3059 147.428L88.1346 153.663L69.4553 159.142ZM41.4898 162.399L46.5278 165.866L56.6013 162.912L58.2755 159.48L59.0696 162.188L64.3398 160.642L59.5756 144.398L49.4354 147.372L51.1558 153.238L55.6588 151.917L55.9717 152.984L53.7921 157.41L48.5552 158.946L46.9213 157.821L42.3255 142.151L43.1052 140.363L49.5429 138.475L51.1648 139.559L51.9949 142.389L58.0777 140.65L56.4415 135.071L51.4036 131.603L37.661 135.634L35.2939 141.273L41.4898 162.399ZM90.7926 152.884L81.9258 122.652L88.0299 120.861L99.7574 137.38L100.705 117.144L106.776 115.363L115.643 145.595L109.839 147.298L104.966 130.684L104.317 147.492L101.382 148.353L91.724 134.568L96.5965 151.182L90.7926 152.884ZM117.299 138.427L119.104 144.58L135.515 139.767L137.882 134.128L135.115 124.693L130.077 121.226L120.004 124.18L118.415 123.087L117.633 120.421L118.379 118.642L130.855 114.984L129.05 108.831L112.972 113.546L110.605 119.185L113.156 127.882L118.206 131.39L128.279 128.435L129.868 129.529L130.854 132.892L130.108 134.671L117.299 138.427ZM141.709 137.951L132.842 107.718L151.521 102.24L153.35 108.475L140.908 112.124L142.544 117.703L153.752 114.416L155.448 120.2L144.241 123.487L146.117 129.886L158.559 126.237L160.388 132.472L141.709 137.951ZM154.179 101.46L163.046 131.693L181.725 126.214L179.897 119.979L167.455 123.628L165.578 117.229L176.786 113.942L175.089 108.158L163.882 111.445L162.245 105.866L174.687 102.217L172.858 95.982L154.179 101.46Z" fill="#98FFAF"/>
<path fill-rule="evenodd" clip-rule="evenodd" d="M240.376 66.4791C239.486 63.4433 236.301 61.7047 233.263 62.5957L190.631 75.0994L187.533 89.9992L198.187 100.866L195.09 115.765L205.744 126.632L202.647 141.531L213.301 152.398L210.204 167.298L220.858 178.164L263.491 165.66C266.529 164.769 268.27 161.586 267.38 158.55L240.376 66.4791ZM259.404 159.059L231.817 167.15L230.994 164.346L258.582 156.255L259.404 159.059ZM230.583 162.945L258.171 154.854L257.76 153.452L230.172 161.543L230.583 162.945ZM256.526 149.247L228.939 157.338L228.528 155.936L256.115 147.845L256.526 149.247ZM227.293 151.728L254.881 143.637L254.47 142.235L226.882 150.326L227.293 151.728ZM253.236 138.03L225.649 146.121L224.827 143.318L252.414 135.227L253.236 138.03ZM224.416 141.916L252.003 133.825L251.592 132.423L224.005 140.514L224.416 141.916ZM250.358 128.215L222.77 136.306L222.359 134.904L249.947 126.813L250.358 128.215ZM221.948 133.502L249.536 125.411L248.302 121.206L220.715 129.297L221.948 133.502ZM247.891 119.804L220.304 127.896L219.482 125.092L247.069 117.001L247.891 119.804ZM218.247 120.884L245.835 112.792L245.012 109.989L217.425 118.08L218.247 120.884ZM244.601 108.587L217.014 116.678L215.781 112.473L243.368 104.382L244.601 108.587ZM215.369 111.072L242.957 102.981L242.546 101.579L214.958 109.67L215.369 111.072ZM241.311 97.3703L213.724 105.461L213.313 104.06L240.9 95.9686L241.311 97.3703ZM212.08 99.8547L239.667 91.7636L238.845 88.9603L211.257 97.0514L212.08 99.8547ZM238.434 87.5586L210.846 95.6497L210.435 94.248L238.023 86.1569L238.434 87.5586ZM209.201 90.0393L236.788 81.9482L236.377 80.5465L208.79 88.6376L209.201 90.0393ZM235.144 76.3415L207.557 84.4326L206.734 81.6293L234.322 73.5382L235.144 76.3415ZM206.323 80.2276L233.911 72.1365L233.5 70.7348L205.912 78.8259L206.323 80.2276Z" fill="#98FFAF"/>
</g>
<defs>
<filter id="filter0_f_533_140" x="-15.2969" y="-2.22656" width="310.695" height="302.148" filterUnits="userSpaceOnUse" color-interpolation-filters="sRGB">
<feFlood flood-opacity="0" result="BackgroundImageFix"/>
<feBlend mode="normal" in="SourceGraphic" in2="BackgroundImageFix" result="shape"/>
<feGaussianBlur stdDeviation="45" result="effect1_foregroundBlur_533_140"/>
</filter>
<filter id="filter1_f_533_140" x="15.9668" y="37.8438" width="252.402" height="227.549" filterUnits="userSpaceOnUse" color-interpolation-filters="sRGB">
<feFlood flood-opacity="0" result="BackgroundImageFix"/>
<feBlend mode="normal" in="SourceGraphic" in2="BackgroundImageFix" result="shape"/>
<feGaussianBlur stdDeviation="3.25" result="effect1_foregroundBlur_533_140"/>
</filter>
<filter id="filter2_f_533_140" x="15.9668" y="37.8438" width="252.402" height="227.549" filterUnits="userSpaceOnUse" color-interpolation-filters="sRGB">
<feFlood flood-opacity="0" result="BackgroundImageFix"/>
<feBlend mode="normal" in="SourceGraphic" in2="BackgroundImageFix" result="shape"/>
<feGaussianBlur stdDeviation="3.25" result="effect1_foregroundBlur_533_140"/>
</filter>
<clipPath id="clip0_533_140">
<rect width="300" height="300" fill="white"/>
</clipPath>
</defs>
</svg>
