<svg width="101" height="101" viewBox="0 0 101 101" fill="none" xmlns="http://www.w3.org/2000/svg">
<path d="M5.43282 25.4247L50.7894 13.3904C52.9121 12.8272 55.0866 14.0753 55.6527 16.1672L73.5932 82.4665C74.1593 84.5585 72.9064 86.716 70.7837 87.2792L25.4271 99.3134C23.3044 99.8766 21.1299 98.6285 20.5638 96.5366L2.62328 30.2373C2.05721 28.1454 3.31015 25.9879 5.43282 25.4247Z" stroke="#98FFAF"/>
<path fill-rule="evenodd" clip-rule="evenodd" d="M10.3878 20.3338C7.40661 21.1248 5.63746 24.1591 6.43626 27.111C7.22491 30.0255 9.52238 29.0858 12.4683 28.3146L29.327 23.901L46.0969 19.4516C49.0781 18.6606 51.5707 18.2997 50.7719 15.3477C49.9731 12.3957 46.9088 10.6439 43.9276 11.4349L40.5434 12.3328C39.0729 12.723 37.5053 12.5024 36.2028 11.722L29.0465 7.43465C26.3281 5.80602 22.7872 6.74552 21.2553 9.50186L17.2227 16.7579C16.4887 18.0786 15.2425 19.0457 13.7721 19.4359L10.3878 20.3338ZM27.9864 18.9466C29.9021 18.4383 31.039 16.4884 30.5257 14.5915C30.0124 12.6945 28.0432 11.5687 26.1275 12.077C24.2117 12.5853 23.0748 14.5352 23.5882 16.4322C24.1015 18.3292 26.0706 19.4549 27.9864 18.9466Z" fill="#98FFAF"/>
<path fill-rule="evenodd" clip-rule="evenodd" d="M8.69707 33.2101L51.8938 21.7489L67.8088 80.5628L35.4113 89.1587L22.6014 84.5937L33.1161 80.6771L32.8626 79.7401L21.915 82.057L8.69707 33.2101ZM18.7551 46.854L50.0727 38.5446C50.9674 38.3072 51.887 38.8329 52.1267 39.7188C52.3664 40.6047 51.8355 41.5153 50.9408 41.7526L19.6232 50.062C18.7285 50.2994 17.809 49.7736 17.5693 48.8878C17.3295 48.0019 17.8605 47.0913 18.7551 46.854ZM39.4067 49.9705L20.9253 54.874C20.0307 55.1114 19.4998 56.022 19.7395 56.9078C19.9792 57.7937 20.8988 58.3194 21.7934 58.0821L40.2748 53.1785C41.1695 52.9411 41.7004 52.0305 41.4607 51.1447C41.2209 50.2588 40.3014 49.7331 39.4067 49.9705ZM16.5849 38.8339L41.5684 32.2051C42.463 31.9678 43.3826 32.4935 43.6223 33.3793C43.8621 34.2652 43.3311 35.1758 42.4365 35.4132L17.453 42.0419C16.5583 42.2793 15.6387 41.7536 15.399 40.8677C15.1593 39.9818 15.6902 39.0713 16.5849 38.8339ZM56.2208 61.2648L24.9031 69.5741C24.0085 69.8115 23.4776 70.722 23.7173 71.6079C23.957 72.4938 24.8766 73.0195 25.7712 72.7821L57.0889 64.4728C57.9835 64.2354 58.5144 63.3248 58.2747 62.439C58.035 61.5531 57.1154 61.0274 56.2208 61.2648Z" fill="#98FFAF"/>
<path d="M100.291 8.59808C100.673 6.2191 99.0349 3.98405 96.6324 3.60597C94.2299 3.22788 91.9727 4.84992 91.5909 7.22891L90.6022 13.3894L95.298 11.9203L99.3024 14.7586L100.291 8.59808Z" fill="#98FFAF"/>
<path d="M83.7089 70.2316L82.9972 60.7722L86.9844 63.7181L91.6974 62.1414L88.0591 70.9162L86.5855 73.1501L84.5199 79.0733L84.4105 72.8076L83.7089 70.2316Z" fill="#98FFAF"/>
<path d="M83.5212 57.5075L87.5202 60.38L92.2215 58.8767L98.7839 17.9893L94.7794 15.1509L90.0836 16.6201L83.5212 57.5075Z" fill="#98FFAF"/>
</svg>
