<svg width="181" height="61" viewBox="0 0 181 61" fill="none" xmlns="http://www.w3.org/2000/svg">
<path d="M158.532 31.3739L159.593 30.3132L158.532 29.2526L148.032 18.7526L145.911 20.8739L155.35 30.3132L145.911 39.7526L148.032 41.8739L158.532 31.3739ZM30.8769 2.18823H150.877C166.617 2.18823 179.377 14.9481 179.377 30.6882C179.377 46.4283 166.617 59.1882 150.877 59.1882H30.8769C15.1368 59.1882 2.37689 46.4283 2.37689 30.6882C2.37689 14.9481 15.1368 2.18823 30.8769 2.18823Z" stroke="#98FFAF" stroke-width="3"/>
<path d="M72.9721 32.9892C72.9561 34.1092 72.7401 35.1652 72.3241 36.1572C71.9081 37.1332 71.3161 37.9972 70.5481 38.7492C69.7801 39.5012 68.8441 40.0932 67.7401 40.5252C66.6521 40.9412 65.4041 41.1492 63.9961 41.1492C62.5721 41.1492 61.2521 40.9332 60.0361 40.5012C58.8201 40.0692 57.7561 39.4532 56.8441 38.6532C55.9481 37.8372 55.2521 36.8532 54.7561 35.7012C54.2601 34.5492 54.0121 33.2532 54.0121 31.8132C54.0121 30.3732 54.2601 29.0772 54.7561 27.9252C55.2681 26.7732 55.9801 25.7972 56.8921 24.9972C57.8041 24.1812 58.8761 23.5572 60.1081 23.1252C61.3401 22.6932 62.6921 22.4772 64.1641 22.4772C66.0041 22.4772 67.6121 22.7812 68.9881 23.3892C70.3801 23.9812 71.5001 24.7972 72.3481 25.8372C73.1961 26.8772 73.7161 28.0692 73.9081 29.4132H70.6921C70.5161 28.5652 70.1321 27.8292 69.5401 27.2052C68.9641 26.5812 68.2201 26.1012 67.3081 25.7652C66.3961 25.4292 65.3401 25.2612 64.1401 25.2612C62.7321 25.2612 61.5081 25.5252 60.4681 26.0532C59.4441 26.5652 58.6441 27.3092 58.0681 28.2852C57.5081 29.2612 57.2281 30.4372 57.2281 31.8132C57.2281 33.1892 57.5161 34.3732 58.0921 35.3652C58.6841 36.3572 59.5161 37.1172 60.5881 37.6452C61.6601 38.1732 62.9241 38.4372 64.3801 38.4372C65.7881 38.4372 67.0201 38.1972 68.0761 37.7172C69.1321 37.2372 69.9641 36.5732 70.5721 35.7252C71.1801 34.8612 71.5081 33.8612 71.5561 32.7252L72.9721 32.9892ZM65.0041 34.3572V31.9572H74.1001V40.8132H71.7481L71.3641 33.3492L72.1081 34.3572H65.0041Z" fill="white"/>
<path d="M92.035 30.4932V33.1332H79.459V30.4932H92.035ZM81.547 31.8132L80.275 39.8532L78.763 38.0772H92.731V40.8132H77.035L78.475 31.8132L77.035 22.8132H92.611V25.5492H78.763L80.275 23.7732L81.547 31.8132Z" fill="white"/>
<path d="M101.514 24.2772H104.682V40.8132H101.514V24.2772ZM94.0739 22.8132H112.122V25.5972H94.0739V22.8132Z" fill="white"/>
</svg>
