<svg width="266" height="257" viewBox="0 0 266 257" fill="none" xmlns="http://www.w3.org/2000/svg">
<path d="M0.314453 79.577C0.314453 74.3601 4.54359 70.1309 9.7605 70.1309H256.258C261.474 70.1309 265.704 74.3601 265.704 79.577V119.081C265.704 124.298 261.474 128.527 256.258 128.527H9.7605C4.5436 128.527 0.314453 124.298 0.314453 119.081V79.577Z" fill="#98FFAF"/>
<path d="M12.0795 138.908H253.938V240.272C253.938 249.267 246.647 256.559 237.652 256.559H28.3658C19.3712 256.559 12.0795 249.267 12.0795 240.272V138.908Z" fill="#98FFAF"/>
<path fill-rule="evenodd" clip-rule="evenodd" d="M191.981 56.554C184.218 69.9991 157.013 91.9489 143.568 84.1863C130.123 76.4237 135.529 41.8883 143.292 28.4432C151.054 14.998 168.247 10.3913 181.692 18.1539C195.137 25.9165 199.744 43.1088 191.981 56.554ZM179.611 49.4123C175.793 56.0259 157.323 75.6349 150.71 71.8166C144.096 67.9982 151.843 42.1984 155.661 35.5848C159.48 28.9712 167.936 26.7053 174.55 30.5236C181.164 34.342 183.43 42.7987 179.611 49.4123Z" fill="#98FFAF"/>
<path fill-rule="evenodd" clip-rule="evenodd" d="M74.7076 50.2284C83.8506 66.0644 115.894 91.9173 131.73 82.7744C147.566 73.6314 141.198 32.9549 132.055 17.1189C122.912 1.28284 102.663 -4.14298 86.8265 4.99995C70.9905 14.1429 65.5647 34.3923 74.7076 50.2284ZM89.277 41.8168C93.7743 49.6064 115.528 72.7024 123.318 68.205C131.108 63.7077 121.983 33.3201 117.486 25.5305C112.988 17.7409 103.028 15.072 95.2382 19.5693C87.4485 24.0666 84.7796 34.0272 89.277 41.8168Z" fill="#98FFAF"/>
</svg>
