<svg width="65" height="62" viewBox="0 0 65 62" fill="none" xmlns="http://www.w3.org/2000/svg">
<path d="M0.533203 19.1391C0.533203 17.8851 1.5497 16.8686 2.80362 16.8686H62.0508C63.3047 16.8686 64.3212 17.8851 64.3212 19.1391V28.6342C64.3212 29.8881 63.3047 30.9046 62.0508 30.9046H2.80362C1.54971 30.9046 0.533203 29.8881 0.533203 28.6342V19.1391Z" fill="#15202B"/>
<path d="M3.36102 33.3997H61.4934V57.7632C61.4934 59.9251 59.7408 61.6777 57.5789 61.6777H7.27553C5.1136 61.6777 3.36102 59.9251 3.36102 57.7632V33.3997Z" fill="#15202B"/>
<path fill-rule="evenodd" clip-rule="evenodd" d="M46.6015 13.6053C44.7357 16.837 38.1967 22.1127 34.9651 20.2469C31.7334 18.3812 33.0329 10.0804 34.8987 6.84872C36.7645 3.61708 40.8968 2.50984 44.1284 4.37563C47.36 6.24141 48.4673 10.3737 46.6015 13.6053ZM43.6284 11.8888C42.7106 13.4784 38.2712 18.1916 36.6816 17.2738C35.092 16.356 36.9541 10.1549 37.8718 8.56526C38.7896 6.97565 40.8222 6.43101 42.4119 7.34877C44.0015 8.26654 44.5461 10.2992 43.6284 11.8888Z" fill="#15202B"/>
<path fill-rule="evenodd" clip-rule="evenodd" d="M18.4141 12.0849C20.6116 15.8912 28.3134 22.1051 32.1197 19.9076C35.926 17.71 34.3955 7.93315 32.1979 4.12686C30.0003 0.320563 25.1332 -0.98357 21.3269 1.21399C17.5206 3.41156 16.2165 8.27864 18.4141 12.0849ZM21.9159 10.0632C22.9969 11.9354 28.2256 17.4867 30.0979 16.4057C31.9702 15.3248 29.777 8.02092 28.6961 6.14864C27.6151 4.27636 25.221 3.63487 23.3487 4.71583C21.4764 5.79679 20.835 8.19087 21.9159 10.0632Z" fill="#15202B"/>
</svg>
