<svg width="229" height="166" viewBox="0 0 229 166" fill="none" xmlns="http://www.w3.org/2000/svg">
<path d="M27.7232 83.5266L19.9289 91.8776C18.1695 93.7627 17.191 96.2451 17.191 98.8237C17.191 104.446 21.7488 109.004 27.3712 109.004H29.7265C31.5617 109.004 33.3296 109.695 34.6781 110.94C36.1753 112.322 37.0267 114.267 37.0267 116.304V117.586C37.0267 123.235 41.6059 127.814 47.2545 127.814H48.7092C50.7657 127.814 52.7493 128.575 54.2779 129.951C56.0319 131.529 57.0335 133.778 57.0335 136.138V136.698C57.0335 141.991 61.3239 146.281 66.6164 146.281H68.4805C70.6973 146.281 72.8447 147.055 74.5525 148.468C76.0603 149.716 77.147 151.398 77.6648 153.285L78.2849 155.545C79.1944 158.86 82.2078 161.158 85.6454 161.158C87.789 161.158 89.8338 160.257 91.2798 158.674L95.3563 154.213C97.0823 152.324 97.9067 149.781 97.6172 147.239L97.5847 146.954C97.1969 143.549 94.7856 140.718 91.4855 139.793C89.8719 139.341 88.4298 138.418 87.3433 137.142L86.8984 136.62C85.2537 134.688 84.3504 132.234 84.3504 129.698V128.452C84.3504 122.622 79.624 117.896 73.7937 117.896H72.4444C70.6711 117.896 68.9621 117.231 67.6549 116.033C66.3243 114.813 65.5091 113.131 65.3758 111.331L65.2525 109.667C64.8498 104.23 60.6226 99.8563 55.2029 99.2686L52.938 99.0231C51.2637 98.8415 49.6871 98.1447 48.4258 97.0289C46.8197 95.6082 45.8396 93.6106 45.6989 91.4709L45.5956 89.9014C45.2832 85.1531 41.7698 81.2315 37.0843 80.4012C33.636 79.7901 30.1127 80.9664 27.7232 83.5266Z" fill="#98FFAF"/>
<path d="M97.4299 32.4597L84.0295 34.084C81.6297 34.3749 79.8248 36.4117 79.8248 38.8291C79.8248 40.0279 80.2753 41.183 81.087 42.0653L82.4145 43.5081C83.6788 44.8824 85.3091 45.8671 87.1139 46.3465L94.3545 48.2698C96.0624 48.7234 97.8449 48.8241 99.593 48.5657L117.879 45.8625C119.002 45.6965 120.142 45.6783 121.27 45.8085L126.123 46.3684C128.528 46.646 130.808 47.5896 132.706 49.0931L179.158 85.8945C183.135 89.0459 188.583 89.5945 193.109 87.2995L198.251 84.6925C199.183 84.2201 200.054 83.637 200.846 82.956L224.128 62.9421C229.297 58.4984 230.156 50.8165 226.096 45.3409L197.976 7.41841C193.768 1.74287 185.797 0.467742 180.028 4.54719L165.69 14.6861C163.835 15.9979 161.669 16.8006 159.407 17.0142L129.497 19.8391C128.135 19.9677 126.802 20.3103 125.548 20.8543L101.037 31.4814C99.8879 31.9795 98.6731 32.309 97.4299 32.4597Z" fill="#98FFAF"/>
<path d="M22.167 74.6562L3.35059 57.4619C-0.226967 54.1927 -0.573551 48.6777 2.56657 44.9864L37.3851 4.05612C40.4552 0.44712 45.7977 -0.163458 49.6029 2.65977L63.0184 12.6132C64.656 13.8282 66.6577 14.4511 68.6955 14.3798L87.6667 13.7165L104.788 10.8629L119.424 10.0808C120.444 10.0264 121.43 10.4498 122.093 11.2262C123.496 12.8702 122.953 15.3984 120.998 16.3206L112.692 20.2386C112.191 20.475 111.669 20.6646 111.133 20.805L91.429 25.9655L81.2546 27.7878C77.5395 28.4532 74.6342 31.3659 73.9783 35.0827L73.5147 37.7098C73.1033 40.0407 73.6268 42.4398 74.9717 44.3876L77.9932 48.7636C79.2552 50.5914 81.1485 51.8879 83.3088 52.4038L94.6726 55.1175C95.7562 55.3763 96.8786 55.4316 97.9824 55.2807L120.989 52.1345C123.469 51.7953 125.979 52.5049 127.915 54.0927L173.803 91.7291C174.718 92.4795 175.476 93.4031 176.034 94.4468L179.138 100.256C181.901 105.427 179.06 111.817 173.37 113.231L172.823 113.367C167.991 114.568 165.145 119.565 166.578 124.334C168.458 130.587 163.047 136.61 156.629 135.408L154.039 134.923C148.597 133.905 144.047 139.078 145.752 144.345C147.547 149.892 142.435 155.201 136.824 153.617L133.327 152.629C128.948 151.393 124.528 154.457 124.149 158.992C123.837 162.742 120.702 165.626 116.938 165.626H115.185C113.087 165.626 111.055 164.893 109.44 163.554L106.478 161.097C103.716 158.807 102.578 155.095 103.582 151.65L104.123 149.798C104.559 148.301 104.599 146.717 104.239 145.2L103.151 140.618C102.398 137.444 99.9619 134.94 96.8096 134.099C93.52 133.222 91.0233 130.538 90.3851 127.194L89.0623 120.262C88.2525 116.019 84.5419 112.949 80.2218 112.949H79.0444C74.7199 112.949 71.0068 109.874 70.2017 105.625L69.172 100.19C68.367 95.9415 64.6538 92.8658 60.3294 92.8658H59.9244C55.0742 92.8658 51.1423 88.9339 51.1423 84.0837C51.1423 78.7767 46.4715 74.6823 41.2102 75.3771L29.4166 76.9348C26.7822 77.2827 24.1286 76.4487 22.167 74.6562Z" fill="#98FFAF"/>
</svg>
