<svg width="181" height="61" viewBox="0 0 181 61" fill="none" xmlns="http://www.w3.org/2000/svg">
<path d="M157.689 31.3739L158.75 30.3132L157.689 29.2526L147.189 18.7526L145.068 20.8739L154.507 30.3132L145.068 39.7526L147.189 41.8739L157.689 31.3739ZM30.0341 2.18823H150.034C165.774 2.18823 178.534 14.9481 178.534 30.6882C178.534 46.4283 165.774 59.1882 150.034 59.1882H30.0341C14.2939 59.1882 1.53406 46.4283 1.53406 30.6882C1.53406 14.9481 14.2939 2.18823 30.0341 2.18823Z" stroke="#98FFAF" stroke-width="3"/>
<path d="M42.9119 32.1972H46.0319V32.9892C46.0319 34.6692 46.4239 35.9812 47.2079 36.9252C47.9919 37.8532 49.2639 38.3172 51.0239 38.3172C52.7839 38.3172 54.0559 37.8612 54.8399 36.9492C55.6399 36.0372 56.0399 34.7812 56.0399 33.1812V22.8132H59.2079V33.3012C59.2079 35.0292 58.8639 36.4772 58.1759 37.6452C57.4879 38.8132 56.5279 39.6932 55.2959 40.2852C54.0639 40.8612 52.6399 41.1492 51.0239 41.1492C49.4239 41.1492 48.0079 40.8532 46.7759 40.2612C45.5599 39.6692 44.6079 38.7812 43.9199 37.5972C43.2479 36.4132 42.9119 34.9412 42.9119 33.1812V32.1972Z" fill="white"/>
<path d="M72.3911 41.1492C70.3431 41.1492 68.5431 40.7572 66.9911 39.9732C65.4391 39.1892 64.2311 38.1012 63.3671 36.7092C62.5031 35.3012 62.0711 33.6692 62.0711 31.8132C62.0711 29.9572 62.5031 28.3332 63.3671 26.9412C64.2311 25.5332 65.4391 24.4372 66.9911 23.6532C68.5431 22.8692 70.3431 22.4772 72.3911 22.4772C74.4391 22.4772 76.2391 22.8692 77.7911 23.6532C79.3431 24.4372 80.5511 25.5332 81.4151 26.9412C82.2791 28.3332 82.7111 29.9572 82.7111 31.8132C82.7111 33.6692 82.2791 35.3012 81.4151 36.7092C80.5511 38.1012 79.3431 39.1892 77.7911 39.9732C76.2391 40.7572 74.4391 41.1492 72.3911 41.1492ZM72.3911 38.3172C73.8471 38.3172 75.1031 38.0532 76.1591 37.5252C77.2151 36.9972 78.0311 36.2452 78.6071 35.2692C79.1991 34.2932 79.4951 33.1412 79.4951 31.8132C79.4951 30.4852 79.1991 29.3332 78.6071 28.3572C78.0311 27.3812 77.2151 26.6292 76.1591 26.1012C75.1031 25.5732 73.8471 25.3092 72.3911 25.3092C70.9511 25.3092 69.6951 25.5732 68.6231 26.1012C67.5671 26.6292 66.7431 27.3812 66.1511 28.3572C65.5751 29.3332 65.2871 30.4852 65.2871 31.8132C65.2871 33.1412 65.5751 34.2932 66.1511 35.2692C66.7431 36.2452 67.5671 36.9972 68.6231 37.5252C69.6951 38.0532 70.9511 38.3172 72.3911 38.3172Z" fill="white"/>
<path d="M85.7889 22.8132H88.9569V40.8132H85.7889V22.8132Z" fill="white"/>
<path d="M109.664 38.8932L108.368 39.0372V22.8132H111.44V40.8132H107.408L94.7842 24.5892L96.0562 24.4452V40.8132H92.9842V22.8132H97.1122L109.664 38.8932Z" fill="white"/>
</svg>
