<svg width="129" height="49" viewBox="0 0 129 49" fill="none" xmlns="http://www.w3.org/2000/svg">
<path fill-rule="evenodd" clip-rule="evenodd" d="M6.26201 17.9799H55.9998L61.0268 12.9529C61.82 12.1597 63.1061 12.1597 63.8993 12.9529L68.9263 17.9799H77.0757L93.672 1.38364C94.5608 0.494818 95.7663 -0.0045166 97.0232 -0.0045166H108.552C109.809 -0.0045166 111.015 0.494817 111.904 1.38364L127.112 16.5918C128.001 17.4806 128.5 18.6861 128.5 19.9431V28.6626C128.5 29.9196 128.001 31.1251 127.112 32.0139L111.904 47.2221C111.015 48.1109 109.809 48.6102 108.552 48.6102H97.0232C95.7663 48.6102 94.5608 48.1109 93.672 47.2221L77.0757 30.6258H68.9263L63.8993 35.6528C63.1061 36.446 61.82 36.446 61.0268 35.6528L55.9998 30.6258H31.7792C31.3693 30.6258 30.9814 30.4401 30.7244 30.1208L29.0771 28.0744C28.5351 27.401 27.5095 27.401 26.9674 28.0744L25.3202 30.1208C25.0632 30.4401 24.6753 30.6258 24.2654 30.6258H23.0318C22.6568 30.6258 22.2985 30.4702 22.0424 30.1962L19.7992 27.7956C19.2734 27.233 18.3849 27.2215 17.8447 27.7703L15.4323 30.2215C15.1778 30.4801 14.8301 30.6258 14.4672 30.6258H6.26201L0.896612 25.2603C0.367796 24.7315 0.367796 23.8741 0.896614 23.3453L6.26201 17.9799ZM102.836 37.5041C110.127 37.5041 116.037 31.5938 116.037 24.303C116.037 17.0123 110.127 11.1019 102.836 11.1019C95.5453 11.1019 89.6349 17.0123 89.6349 24.303C89.6349 31.5938 95.5453 37.5041 102.836 37.5041Z" fill="url(#paint0_linear_183_6)"/>
<defs>
<linearGradient id="paint0_linear_183_6" x1="121.294" y1="-0.00452401" x2="0.499997" y2="32.6842" gradientUnits="userSpaceOnUse">
<stop stop-color="#E1B311"/>
<stop offset="0.58" stop-color="#FFE175"/>
<stop offset="1" stop-color="#FFEEB3"/>
</linearGradient>
</defs>
</svg>
