<svg width="129" height="65" viewBox="0 0 129 65" fill="none" xmlns="http://www.w3.org/2000/svg">
<path fill-rule="evenodd" clip-rule="evenodd" d="M0.932751 32.4051C-0.334122 30.1866 1.33231 27.4721 3.9611 27.4721L56.086 27.4721C57.9899 27.4721 59.8159 26.7437 61.1622 25.4471C63.9656 22.747 68.511 22.747 71.3145 25.4471L72.7635 26.8427C73.182 27.2457 73.7495 27.4721 74.3413 27.4721C78.0383 27.4721 81.0352 24.5857 81.0352 21.0251V12.6866C81.0352 9.50583 82.3472 6.45534 84.6824 4.20619C89.5454 -0.477421 97.4297 -0.477421 102.293 4.20619L103.816 5.6732C105.176 6.98304 105.94 8.75956 105.94 10.6119C105.94 14.4694 109.187 17.5964 113.192 17.5964H114.642C116.95 17.5964 119.163 18.4794 120.795 20.0511L125.495 24.5784C127.419 26.4312 128.5 28.9442 128.5 31.5645C128.5 34.1848 127.419 36.6978 125.495 38.5506L120.795 43.0779C119.163 44.6496 116.95 45.5326 114.642 45.5326C109.836 45.5326 105.94 49.2849 105.94 53.9136V54.1137C105.94 56.3895 105.001 58.5721 103.33 60.1814L102.293 61.1808C97.4297 65.8644 89.5454 65.8644 84.6824 61.1808L83.6448 60.1814C81.9739 58.5721 81.0352 56.3895 81.0352 54.1137V51.9797C81.0352 48.4191 78.0383 45.5326 74.3413 45.5326C73.7495 45.5326 73.182 45.759 72.7635 46.162L71.3145 47.5577C68.511 50.2578 63.9656 50.2578 61.1622 47.5577L60.5157 46.9351C59.5833 46.0371 59.0596 44.8192 59.0596 43.5493C59.0596 40.9048 56.8337 38.761 54.088 38.761H36.2307C35.0845 38.761 34.1553 39.6559 34.1553 40.7598V47.6564C34.1553 50.622 30.4325 52.1072 28.2553 50.0102L23.6062 45.5326L18.9572 50.0102C16.7799 52.1072 13.0572 50.622 13.0572 47.6564V42.0897C13.0572 40.2513 11.5098 38.761 9.60098 38.761H6.60594C5.34551 38.761 4.18502 38.1002 3.57759 37.0365L0.932751 32.4051ZM93.5251 57.6681C97.8954 57.6681 101.438 54.2559 101.438 50.0468C101.438 45.8377 97.8954 42.4255 93.5251 42.4255C89.1549 42.4255 85.6121 45.8377 85.6121 50.0468C85.6121 54.2559 89.1549 57.6681 93.5251 57.6681ZM93.5251 22.6758C97.8954 22.6758 101.438 19.2636 101.438 15.0545C101.438 10.8454 97.8954 7.43321 93.5251 7.43321C89.1549 7.43321 85.6121 10.8454 85.6121 15.0545C85.6121 19.2636 89.1549 22.6758 93.5251 22.6758ZM113.155 39.5828C117.525 39.5828 121.068 36.1706 121.068 31.9615C121.068 27.7523 117.525 24.3402 113.155 24.3402C108.785 24.3402 105.242 27.7523 105.242 31.9615C105.242 36.1706 108.785 39.5828 113.155 39.5828Z" fill="url(#paint0_linear_183_5)"/>
<defs>
<linearGradient id="paint0_linear_183_5" x1="20.8996" y1="9.94625" x2="122.339" y2="81.6244" gradientUnits="userSpaceOnUse">
<stop stop-color="#E6B1FF"/>
<stop offset="0.218757" stop-color="#CE79F5"/>
<stop offset="0.447287" stop-color="#D375FF"/>
<stop offset="0.511401" stop-color="#FFE2FE"/>
<stop offset="0.593871" stop-color="#D989FF"/>
<stop offset="0.8123" stop-color="#B230EF"/>
</linearGradient>
</defs>
</svg>
