<svg width="116" height="122" viewBox="0 0 116 122" fill="none" xmlns="http://www.w3.org/2000/svg">
<path d="M36.3801 49.6873L30.8084 27.0092L39.7251 35.3283C40.3065 35.8257 40.9565 36.2356 41.6548 36.545L42.1687 36.7727C44.1335 37.6432 46.3919 37.5241 48.2557 36.4517C50.3356 35.2548 51.1718 32.7831 51.9467 30.4923L51.9918 30.3589L58.1696 12.1117L64.508 30.3683L64.5702 30.5475C65.3579 32.8197 66.2048 35.2627 68.2711 36.4517C70.1349 37.5241 72.3932 37.6432 74.3581 36.7727L74.872 36.545C75.5703 36.2356 76.2203 35.8257 76.8017 35.3283L85.7184 27.0092L80.1466 49.6873H36.3801Z" fill="#98FFAF"/>
<path d="M36.3801 53.6412V61.3589H80.1466V53.6412H36.3801Z" fill="#98FFAF"/>
<path d="M63.1805 4.9516C63.1805 7.68629 60.9789 9.90319 58.2632 9.90319C55.5475 9.90319 53.346 7.68629 53.346 4.9516C53.346 2.2169 55.5475 0 58.2632 0C60.9789 0 63.1805 2.2169 63.1805 4.9516Z" fill="#98FFAF"/>
<path d="M94.1024 21.0239C94.1024 23.7595 91.9001 25.9772 89.1835 25.9772C86.4669 25.9772 84.2646 23.7595 84.2646 21.0239C84.2646 18.2883 86.4669 16.0706 89.1835 16.0706C91.9001 16.0706 94.1024 18.2883 94.1024 21.0239Z" fill="#98FFAF"/>
<path d="M32.2624 21.0239C32.2624 23.7595 30.0602 25.9772 27.3435 25.9772C24.6269 25.9772 22.4246 23.7595 22.4246 21.0239C22.4246 18.2883 24.6269 16.0706 27.3435 16.0706C30.0602 16.0706 32.2624 18.2883 32.2624 21.0239Z" fill="#98FFAF"/>
<path fill-rule="evenodd" clip-rule="evenodd" d="M82.939 89.6546L85.2212 99.1259L87.5849 97.7788L88.9826 83.1723L100.588 75.4542L110.351 71.422C112.994 70.3302 115.101 68.2071 115.776 65.9543C116.544 63.3883 115.296 61.2064 112.692 60.5624C110.406 59.997 107.503 60.7282 105.218 62.4456L96.7755 68.7881L84.2175 74.8397L70.9073 68.6148L68.5435 69.9618L75.5532 76.739L55.5438 89.2466L31.7509 102.11C22.7832 106.958 15.4243 114.074 11.2222 121.962C20.1625 122.36 30.0426 119.652 38.784 114.408L61.9766 100.496L82.939 89.6546Z" fill="#98FFAF"/>
<path fill-rule="evenodd" clip-rule="evenodd" d="M33.061 89.6546L30.7788 99.1259L28.4151 97.7788L27.0174 83.1723L15.4125 75.4542L5.64914 71.422C3.0056 70.3302 0.899145 68.2071 0.224473 65.9543C-0.544004 63.3883 0.703731 61.2064 3.30787 60.5624C5.59413 59.997 8.49658 60.7282 10.7824 62.4456L19.2245 68.7881L31.7825 74.8397L45.0927 68.6148L47.4565 69.9618L40.4468 76.739L60.4562 89.2466L84.2491 102.11C93.2168 106.958 100.576 114.074 104.778 121.962C95.8375 122.36 85.9574 119.652 77.216 114.408L54.0234 100.496L33.061 89.6546Z" fill="#98FFAF"/>
</svg>
