<svg width="129" height="129" viewBox="0 0 129 129" fill="none" xmlns="http://www.w3.org/2000/svg">
<path fill-rule="evenodd" clip-rule="evenodd" d="M128.549 64.2075C128.549 99.5537 99.8951 128.208 64.5488 128.208C29.2026 128.208 0.548828 99.5537 0.548828 64.2075C0.548828 28.8613 29.2026 0.20752 64.5488 0.20752C99.8951 0.20752 128.549 28.8613 128.549 64.2075ZM39.25 78.194L32.8086 42.1862L43.1171 51.737C43.7892 52.3081 44.5407 52.7785 45.348 53.1338L45.9421 53.3952C48.2136 54.3946 50.8245 54.2579 52.9792 53.0267C55.3837 51.6526 56.3504 48.8149 57.2463 46.1849L57.2985 46.0318L64.4405 25.083L71.7682 46.0426L71.8401 46.2484C72.7508 48.8569 73.7299 51.6617 76.1187 53.0267C78.2734 54.2579 80.8842 54.3946 83.1557 53.3952L83.7498 53.1338C84.5571 52.7785 85.3086 52.3081 85.9808 51.737L96.2893 42.1862L89.8478 78.194H39.25ZM39.25 91.332V82.4716H89.8478V91.332H39.25Z" fill="#98FFAF"/>
</svg>
