<svg width="80" height="84" viewBox="0 0 80 84" fill="none" xmlns="http://www.w3.org/2000/svg">
<path d="M25.0486 34.2109L21.2123 18.5965L27.3517 24.3244C27.752 24.6669 28.1996 24.9491 28.6804 25.1621L29.0342 25.3189C30.387 25.9183 31.942 25.8363 33.2252 25.0979C34.6573 24.2738 35.233 22.572 35.7666 20.9947L35.7976 20.9029L40.0512 8.33922L44.4154 20.9093L44.4582 21.0327C45.0005 22.5972 45.5837 24.2792 47.0063 25.0979C48.2896 25.8363 49.8445 25.9183 51.1974 25.3189L51.5512 25.1621C52.032 24.9491 52.4795 24.6669 52.8799 24.3244L59.0192 18.5965L55.1829 34.2109H25.0486Z" fill="#98FFAF"/>
<path d="M25.0486 36.9333V42.2471H55.1829V36.9333H25.0486Z" fill="#98FFAF"/>
<path d="M43.5013 3.4093C43.5013 5.2922 41.9855 6.81859 40.1157 6.81859C38.2458 6.81859 36.7301 5.2922 36.7301 3.4093C36.7301 1.52639 38.2458 0 40.1157 0C41.9855 0 43.5013 1.52639 43.5013 3.4093Z" fill="#98FFAF"/>
<path d="M64.7918 14.4755C64.7918 16.359 63.2755 17.8859 61.405 17.8859C59.5346 17.8859 58.0182 16.359 58.0182 14.4755C58.0182 12.5919 59.5346 11.065 61.405 11.065C63.2755 11.065 64.7918 12.5919 64.7918 14.4755Z" fill="#98FFAF"/>
<path d="M22.2135 14.4755C22.2135 16.359 20.6972 17.8859 18.8267 17.8859C16.9562 17.8859 15.4399 16.359 15.4399 14.4755C15.4399 12.5919 16.9562 11.065 18.8267 11.065C20.6972 11.065 22.2135 12.5919 22.2135 14.4755Z" fill="#98FFAF"/>
<path fill-rule="evenodd" clip-rule="evenodd" d="M57.1056 61.7294L58.6769 68.2506L60.3044 67.3231L61.2667 57.2662L69.257 51.9521L75.9793 49.1758C77.7994 48.4241 79.2498 46.9622 79.7143 45.4112C80.2434 43.6444 79.3843 42.1421 77.5913 41.6987C76.0172 41.3094 74.0187 41.8129 72.4449 42.9953L66.6323 47.3623L57.9858 51.529L48.8214 47.243L47.1939 48.1704L52.0202 52.8367L38.2432 61.4485L21.8613 70.3049C15.6868 73.643 10.62 78.5428 7.72678 83.9735C13.8824 84.2477 20.6851 82.3834 26.7038 78.7729L42.6724 69.1937L57.1056 61.7294Z" fill="#98FFAF"/>
<path fill-rule="evenodd" clip-rule="evenodd" d="M22.7633 61.7294L21.192 68.2506L19.5645 67.3231L18.6022 57.2662L10.6119 51.9521L3.88957 49.1758C2.06943 48.4241 0.619083 46.9622 0.154555 45.4112C-0.37456 43.6444 0.484536 42.1421 2.27755 41.6987C3.8517 41.3094 5.85011 41.8129 7.42395 42.9953L13.2366 47.3623L21.883 51.529L31.0474 47.243L32.6749 48.1704L27.8486 52.8367L41.6256 61.4485L58.0076 70.3049C64.1821 73.643 69.2488 78.5428 72.1421 83.9735C65.9865 84.2477 59.1838 82.3834 53.1651 78.7729L37.1965 69.1937L22.7633 61.7294Z" fill="#98FFAF"/>
</svg>
