<svg width="84" height="84" viewBox="0 0 84 84" fill="none" xmlns="http://www.w3.org/2000/svg">
<path d="M0 0H84V84H0V0Z" fill="#0F161E"/>
<path d="M26.717 34.2109L22.7783 18.5965L29.0815 24.3244C29.4925 24.6669 29.952 24.9491 30.4457 25.1621L30.8089 25.3189C32.1979 25.9183 33.7943 25.8363 35.1118 25.0979C36.5821 24.2738 37.1731 22.572 37.7209 20.9947L37.7528 20.9029L42.1199 8.33922L46.6005 20.9093L46.6444 21.0327C47.2013 22.5972 47.8 24.2792 49.2606 25.0979C50.5781 25.8363 52.1745 25.9183 53.5635 25.3189L53.9267 25.1621C54.4204 24.9491 54.8799 24.6669 55.2909 24.3244L61.5941 18.5965L57.6554 34.2109H26.717Z" fill="#98FFAF"/>
<path d="M45.662 3.4093C45.662 5.2922 44.1058 6.81859 42.1861 6.81859C40.2664 6.81859 38.7101 5.2922 38.7101 3.4093C38.7101 1.52639 40.2664 0 42.1861 0C44.1058 0 45.662 1.52639 45.662 3.4093Z" fill="#98FFAF"/>
<path d="M67.5207 14.4755C67.5207 16.359 65.9639 17.8859 64.0435 17.8859C62.1231 17.8859 60.5664 16.359 60.5664 14.4755C60.5664 12.5919 62.1231 11.065 64.0435 11.065C65.9639 11.065 67.5207 12.5919 67.5207 14.4755Z" fill="#98FFAF"/>
<path d="M23.8062 14.4755C23.8062 16.359 22.2494 17.8859 20.3291 17.8859C18.4087 17.8859 16.8519 16.359 16.8519 14.4755C16.8519 12.5919 18.4087 11.065 20.3291 11.065C22.2494 11.065 23.8062 12.5919 23.8062 14.4755Z" fill="#98FFAF"/>
<path d="M59.6293 61.7294L61.2426 68.2506L62.9135 67.3231L63.9015 57.2662L72.105 51.9521L79.0066 49.1758C80.8754 48.4241 82.3644 46.9622 82.8413 45.4112C83.3846 43.6444 82.5025 42.1421 80.6617 41.6987C79.0455 41.3094 76.9938 41.8129 75.378 42.9953L69.4103 47.3623L60.5331 51.529L51.1241 47.243L49.4532 48.1704L54.4083 52.8367L42 60.3914L29.5917 52.8367L34.5468 48.1704L32.8759 47.243L23.4669 51.529L14.5897 47.3623L8.62204 42.9953C7.00621 41.8129 4.95447 41.3094 3.33832 41.6987C1.49746 42.1421 0.615445 43.6444 1.15868 45.4112C1.6356 46.9622 3.12465 48.4241 4.99336 49.1758L11.895 51.9521L20.0985 57.2662L21.0865 67.3231L22.7574 68.2506L24.3707 61.7294L32 65.6704L23.4446 70.3049C17.1054 73.643 11.9034 78.5428 8.93295 83.9735C9.33817 83.9911 9.74612 83.9999 10.1564 84H10.1702C16.1551 83.9986 22.6376 82.1493 28.4163 78.7729L42 70.8362L55.5837 78.7729C61.3624 82.1493 67.8449 83.9986 73.8298 84H73.8436C74.2539 83.9999 74.6618 83.9911 75.0671 83.9735C72.0966 78.5428 66.8946 73.643 60.5554 70.3049L51.881 65.6704L59.6293 61.7294Z" fill="#98FFAF"/>
<path d="M26.717 36.9333V42.2471H57.6554V36.9333H26.717Z" fill="#98FFAF"/>
<path fill-rule="evenodd" clip-rule="evenodd" d="M42.1861 0C44.1058 0 45.662 1.52639 45.662 3.4093C45.662 5.2922 44.1058 6.81859 42.1861 6.81859C40.2664 6.81859 38.7101 5.2922 38.7101 3.4093C38.7101 1.52639 40.2664 0 42.1861 0ZM26.717 34.2109L22.7783 18.5965L29.0815 24.3244C29.4925 24.6669 29.952 24.9491 30.4457 25.1621L30.8089 25.3189C32.1979 25.9183 33.7943 25.8363 35.1118 25.0979C36.5821 24.2738 37.1731 22.572 37.7209 20.9947L37.7528 20.9029L42.1199 8.33922L46.6005 20.9093L46.6444 21.0327C47.2013 22.5972 47.8 24.2792 49.2606 25.0979C50.5781 25.8363 52.1745 25.9183 53.5635 25.3189L53.9267 25.1621C54.4204 24.9491 54.8799 24.6669 55.2909 24.3244L61.5941 18.5965L57.6554 34.2109H26.717ZM67.5207 14.4755C67.5207 16.359 65.9639 17.8859 64.0435 17.8859C62.1231 17.8859 60.5664 16.359 60.5664 14.4755C60.5664 12.5919 62.1231 11.065 64.0435 11.065C65.9639 11.065 67.5207 12.5919 67.5207 14.4755ZM23.8062 14.4755C23.8062 16.359 22.2494 17.8859 20.3291 17.8859C18.4087 17.8859 16.8519 16.359 16.8519 14.4755C16.8519 12.5919 18.4087 11.065 20.3291 11.065C22.2494 11.065 23.8062 12.5919 23.8062 14.4755Z" fill="#98FFAF"/>
</svg>
