<svg width="218" height="256" viewBox="0 0 218 256" fill="none" xmlns="http://www.w3.org/2000/svg">
<path d="M61.8041 71.2982V106.105H35.9588V72.9825C35.9588 32.6754 68.6604 0 109 0C149.34 0 182.041 32.6754 182.041 72.9825V106.105H156.196V71.2982C156.196 45.2537 135.066 24.1404 109 24.1404C82.9344 24.1404 61.8041 45.2537 61.8041 71.2982Z" fill="#98FFAF"/>
<path fill-rule="evenodd" clip-rule="evenodd" d="M0 131.368C0 121.447 8.04964 113.404 17.9794 113.404H200.021C209.95 113.404 218 121.447 218 131.368V238.035C218 247.957 209.95 256 200.021 256H17.9794C8.04964 256 0 247.957 0 238.035V131.368ZM100.892 183.018C96.3236 180.267 93.268 175.262 93.268 169.544C93.268 160.862 100.311 153.825 109 153.825C117.689 153.825 124.732 160.862 124.732 169.544C124.732 175.262 121.676 180.267 117.108 183.018L119.923 217.537C120.092 219.504 118.54 221.193 116.565 221.193H101.435C99.4599 221.193 97.9078 219.504 98.0765 217.537L100.892 183.018Z" fill="#98FFAF"/>
</svg>
