<svg width="256" height="256" viewBox="0 0 256 256" fill="none" xmlns="http://www.w3.org/2000/svg">
<path fill-rule="evenodd" clip-rule="evenodd" d="M256 128C256 198.692 198.692 256 128 256C57.3075 256 0 198.692 0 128C0 57.3075 57.3075 0 128 0C198.692 0 256 57.3075 256 128ZM155.187 146.39C178.117 122.631 180.479 84.9835 159.396 58.4084C136.432 29.464 94.3529 24.6152 65.4085 47.5784C36.4641 70.5416 31.6153 112.621 54.5785 141.565C75.6621 168.141 112.86 174.403 141.211 157.477L165.995 188.717L182.601 212.234C186.093 217.18 193.024 218.175 197.767 214.412C202.51 210.649 203.117 203.674 199.095 199.148L179.971 177.629L155.187 146.39ZM141.636 143.661C165.756 124.525 169.797 89.4585 150.661 65.3381C131.525 41.2178 96.4586 37.1772 72.3382 56.3132C48.2179 75.4492 44.1773 110.515 63.3133 134.636C82.4493 158.756 117.515 162.797 141.636 143.661Z" fill="#98FFAF"/>
</svg>
