<svg width="129" height="129" viewBox="0 0 129 129" fill="none" xmlns="http://www.w3.org/2000/svg">
<path fill-rule="evenodd" clip-rule="evenodd" d="M128.24 64.7998C128.24 100.146 99.5865 128.8 64.2402 128.8C28.894 128.8 0.240234 100.146 0.240234 64.7998C0.240234 29.4536 28.894 0.799805 64.2402 0.799805C99.5865 0.799805 128.24 29.4536 128.24 64.7998ZM29.5782 67.4854L97.206 42.0289C99.4038 41.2016 101.856 42.3126 102.683 44.5103L115.538 78.6594C116.365 80.8572 115.254 83.3095 113.056 84.1368L45.4286 109.593C43.2308 110.421 40.7785 109.31 39.9512 107.112L27.0968 72.9627C26.2695 70.7649 27.3805 68.3126 29.5782 67.4854ZM56.999 92.5276L54.9712 87.1404L57.7293 86.1022L56.9562 84.0486L49.1285 86.9951L49.9015 89.0488L52.6596 88.0106L54.6874 93.3978L56.999 92.5276ZM60.1122 82.8606L57.8005 83.7308L60.6014 91.1716L62.913 90.3015L60.1122 82.8606ZM71.3805 85.4944C71.5749 84.8473 71.5873 84.1781 71.4177 83.4869L69.0962 84.3607C69.1396 84.6767 69.1106 84.9707 69.0092 85.243C68.9144 85.5128 68.748 85.7528 68.51 85.9632C68.2696 86.167 67.9609 86.3399 67.5839 86.4818C67.1606 86.6411 66.7682 86.702 66.4067 86.6644C66.0427 86.6202 65.7245 86.487 65.452 86.2648C65.1796 86.0427 64.9687 85.7332 64.8194 85.3363C64.67 84.9395 64.6244 84.5677 64.6827 84.2211C64.7385 83.8678 64.8899 83.5579 65.1369 83.2912C65.3839 83.0246 65.719 82.8116 66.1423 82.6522C66.5193 82.5103 66.8679 82.4433 67.188 82.4512C67.5056 82.4524 67.789 82.5232 68.0382 82.6635C68.2915 82.7947 68.5047 82.9901 68.6779 83.2496L70.9994 82.3757C70.6686 81.7375 70.218 81.2427 69.6477 80.891C69.0815 80.5302 68.4319 80.3292 67.699 80.2879C66.9727 80.2442 66.2061 80.3742 65.3992 80.6779C64.5261 81.0066 63.8232 81.4562 63.2904 82.0267C62.7576 82.5973 62.4188 83.2421 62.2742 83.961C62.1295 84.68 62.204 85.4297 62.4978 86.2102C62.7916 86.9907 63.2299 87.6034 63.8128 88.0485C64.3957 88.4937 65.0755 88.755 65.8523 88.8326C66.6291 88.9102 67.454 88.7847 68.327 88.4561C69.134 88.1523 69.796 87.7446 70.3132 87.2327C70.8369 86.7184 71.1927 86.139 71.3805 85.4944ZM70.7445 78.8584L73.5454 86.2992L75.6387 85.5112L76.715 82.2323L79.1111 84.2042L81.7303 83.2182L77.4896 79.8726L78.8203 75.8185L76.3995 76.7297L74.6799 82.3621L73.0363 77.9957L70.7445 78.8584ZM87.7589 77.6231L87.1464 75.9961L83.066 77.5321L82.4943 76.5353L87.0445 74.8225L86.3498 72.9772L79.3455 75.6137L81.3016 79.125L82.1464 83.0546L89.2003 80.3993L88.5057 78.554L83.893 80.2903L83.6784 79.1591L87.7589 77.6231ZM94.8742 78.2636L92.8464 72.8764L95.6044 71.8382L94.8314 69.7845L87.0036 72.7311L87.7767 74.7847L90.5348 73.7465L92.5626 79.1337L94.8742 78.2636ZM43.1497 81.2305L41.1219 75.8433L38.8102 76.7135L41.6111 84.1543L48.4269 81.5887L47.6539 79.535L43.1497 81.2305ZM50.6705 80.3817C51.4672 80.4519 52.3119 80.3189 53.2048 79.9828C54.0977 79.6467 54.8172 79.1908 55.3632 78.6153C55.9159 78.0372 56.2678 77.3875 56.4191 76.666C56.577 75.9421 56.5091 75.1899 56.2153 74.4094C55.9215 73.629 55.4766 73.0187 54.8805 72.5785C54.291 72.1359 53.598 71.8795 52.8013 71.8094C52.0113 71.7368 51.1699 71.8685 50.277 72.2046C49.3841 72.5407 48.6613 72.9978 48.1087 73.5758C47.5626 74.1514 47.2107 74.8011 47.0527 75.5251C46.9014 76.2465 46.9727 76.9975 47.2665 77.778C47.5603 78.5584 48.0019 79.1699 48.5914 79.6126C49.1875 80.0527 49.8805 80.3091 50.6705 80.3817ZM62.9375 76.1266L60.9097 70.7394L63.6677 69.7012L62.8947 67.6476L55.0669 70.5941L55.84 72.6478L58.5981 71.6096L60.6259 76.9968L62.9375 76.1266ZM71.1631 73.0303L69.1353 67.6431L71.8934 66.6049L71.1203 64.5513L63.2926 67.4978L64.0656 69.5515L66.8237 68.5133L68.8515 73.9005L71.1631 73.0303ZM80.1696 66.3213L79.5572 64.6942L75.4767 66.2302L74.9051 65.2334L79.4552 63.5206L78.7606 61.6753L71.7563 64.3119L73.7123 67.8232L74.5572 71.7527L81.6111 69.0975L80.9165 67.2522L76.3167 68.9836L76.0892 67.8573L80.1696 66.3213ZM82.7295 68.6765L85.0412 67.8063L84.0702 65.2268L85.0051 64.8749L85.9037 65.4938L87.7992 66.7681L90.4482 65.771L88.5129 64.5116L87.3982 63.7905C87.7575 63.4212 88.3012 62.7356 88.409 62.2797C88.5143 61.8172 88.4774 61.3478 88.2981 60.8716C88.1139 60.3822 87.8309 60.0016 87.4493 59.73C87.0676 59.4583 86.6199 59.3021 86.1062 59.2614C85.5925 59.2207 85.0479 59.3086 84.4725 59.5252L79.9286 61.2356L82.7295 68.6765ZM92.3804 61.6399L93.5026 64.6213L95.8143 63.7511L94.6767 60.7291L96.4758 55.0069L93.936 55.963L92.8504 59.4547L89.7592 57.5352L87.2194 58.4912L92.3804 61.6399ZM87.1729 42.4102L66.1488 17.5489C64.6599 15.7883 62.039 15.5352 60.2407 16.9783L10.9785 56.5126C9.16292 57.9697 8.85654 60.6158 10.2911 62.4491L29.1458 86.5451L23.8853 72.5701C22.7855 69.6482 24.255 66.3869 27.1724 65.2751L32.8121 63.126L32.4541 59.2583L25.7798 64.7217L23.6659 62.1392L33.9816 53.695L36.1304 56.3201L36.9395 61.5531L47.588 57.4952L46.7744 47.5361L40.1217 52.9818L38.0077 50.3994L48.3234 41.9552L50.4722 44.5803L51.8582 55.8679L87.1729 42.4102ZM54.4635 41.242L52.3496 38.6596L62.6653 30.2154L64.8141 32.8405L66.3251 44.9925L62.5082 48.1169L61.1521 35.7669L54.4635 41.242ZM52.4318 77.9291C52.8749 77.7623 53.2279 77.5464 53.4906 77.2814C53.7574 77.0072 53.9257 76.7022 53.9956 76.3663C54.063 76.0238 54.0258 75.664 53.8839 75.287C53.7419 74.91 53.534 74.6183 53.2599 74.4118C52.9834 74.1988 52.6557 74.0805 52.2768 74.057C51.9021 74.0244 51.4932 74.0915 51.05 74.2583C50.6069 74.4251 50.2519 74.6455 49.9851 74.9197C49.7224 75.1847 49.5573 75.4884 49.4899 75.831C49.42 76.1669 49.456 76.5233 49.5979 76.9003C49.7398 77.2773 49.9491 77.5724 50.2256 77.7854C50.4996 77.9919 50.824 78.1114 51.1988 78.144C51.5776 78.1675 51.9886 78.0959 52.4318 77.9291ZM85.3353 62.8704L83.4502 63.5799L82.8677 62.0322L84.7527 61.3227C85.0437 61.2131 85.2935 61.1946 85.502 61.2672C85.7171 61.3372 85.872 61.4979 85.9666 61.7492C86.0612 62.0006 86.0508 62.2235 85.9352 62.418C85.8263 62.61 85.6263 62.7608 85.3353 62.8704Z" fill="#98FFAF"/>
</svg>
