<svg width="273" height="196" viewBox="0 0 273 196" fill="none" xmlns="http://www.w3.org/2000/svg">
<path d="M99.6431 70.7527L98.5039 76.6689L96.8631 71.4956C95.726 67.9105 94.3042 64.4221 92.6112 61.0636C90.7403 57.3521 88.5268 53.7885 86.033 50.4634C83.7796 47.4586 81.2754 44.6145 78.5769 42.0019L77.3139 40.7791C75.0536 39.7009 72.3843 39.7273 70.3133 41.1354C68.3469 42.4725 66.502 43.9848 64.8019 45.6551L46.8169 63.3257L16.3126 98.0946C14.7476 99.8784 12.6254 101.081 10.2907 101.506L9.20165 101.704C7.7932 101.961 6.33996 101.779 5.03805 101.183C3.58066 100.517 2.39628 99.3702 1.68296 97.9351C1.04573 96.6531 0.817118 95.2065 1.02796 93.7905L1.191 92.6956C1.54049 90.3484 2.67344 88.1884 4.40575 86.5665L38.1705 54.9544L55.2506 36.4077C56.8651 34.6545 58.317 32.7617 59.5898 30.753C60.9302 28.6376 60.8703 25.9689 59.7196 23.7446L58.4566 22.5218C55.7582 19.9092 52.8347 17.4982 49.7586 15.343C46.3546 12.9581 42.7213 10.8609 38.9513 9.11089C35.5399 7.52735 32.0073 6.21905 28.3874 5.19847L23.1637 3.72573L29.04 2.39592C34.5305 1.15341 40.2097 0.98581 45.7639 1.90237C49.6966 2.55134 53.5216 3.73644 57.1323 5.42457L58.0375 5.8478C62.0173 7.70851 65.7392 10.0771 69.1103 12.8943L69.7263 13.4091L72.4745 12.4818L75.4404 15.3533L78.131 11.9762C79.3035 10.5046 81.023 9.57181 82.896 9.39147C84.9209 9.19648 86.9295 9.89937 88.3911 11.3144L88.8109 11.7209C90.2724 13.1359 91.0399 15.1208 90.9105 17.151C90.7907 19.0288 89.914 20.7776 88.481 21.997L85.1927 24.7953L88.1586 27.6669L87.3206 30.4436L87.855 31.0426C90.7798 34.3209 93.2674 37.9643 95.2557 41.8819L95.708 42.773C97.512 46.3272 98.8201 50.112 99.5958 54.0215C100.691 59.5433 100.707 65.2249 99.6431 70.7527Z" fill="#98FFAF"/>
<path d="M69.6467 165.028V119.385C69.6467 118.842 69.7573 118.305 69.9716 117.806L76.6951 102.157C77.0608 101.306 77.7105 100.608 78.5334 100.183L93.122 92.6414L117.998 91.9466L121.908 104.871L110.215 130.719L112.578 142.254L104.795 149.758L103.545 160.042L105.768 151.287L114.106 145.033L117.164 155.734L127.031 162.126L117.998 154.761L114.106 133.221L128.281 107.928H148.988L142.317 111.541L134.535 133.221L143.707 113.348L151.489 109.457L157.882 131.831L144.541 157.818L160.794 133.221H169.035L160.794 129.627L152.601 103.62L156.353 93.7532L174.836 88.4724L155.242 92.6414L148.988 102.786L129.254 100.841L132.589 80.829L121.908 71.2273L124.535 62.2942L140.953 51.6449C149.164 46.3189 159.043 44.188 168.719 45.6558L193.777 49.4566C198.204 50.1282 202.488 51.5385 206.448 53.6288L219.382 60.4549L191.406 91.9466L185.604 113.348L194.556 91.9466L221.636 63.6906L231.587 77.5092C232.732 79.0991 233.993 80.6027 235.358 82.0079L258.996 106.337C265.647 113.181 269.631 122.177 270.229 131.702L272.192 162.921L262.733 195.763H240.138L223.323 173.43L189.168 153.2L219.382 176.32L231.993 195.763L173.141 193.052L136.096 195.763L126.494 195.085L133.942 172.321L145.463 160.675L133.003 170.13L121.693 194.746L97.6896 193.052L70.9109 167.946C70.1044 167.19 69.6467 166.134 69.6467 165.028Z" fill="#98FFAF"/>
<path d="M110.478 46.8658L120.229 59.6171L124.667 49.5727C125.449 47.804 125.716 45.8508 125.438 43.9371C124.99 40.8507 125.967 37.7277 128.093 35.446L132.318 30.9115L123.149 29.7265C121.875 29.5619 120.581 29.7508 119.408 30.2724L114.634 32.3947C112.107 33.5184 110.478 36.025 110.478 38.791V46.8658Z" fill="#98FFAF"/>
<path d="M73.773 89.0385L74.0205 89.1073C74.6046 89.2696 75.2081 89.3519 75.8143 89.3519C78.5693 89.3519 81.0435 87.6655 82.0506 85.1012L82.8749 83.0025L74.9007 76.7285L66.3425 78.918L67.9625 83.5837C68.8866 86.2454 71.0582 88.2841 73.773 89.0385Z" fill="#98FFAF"/>
<path d="M101.039 11.493L105.223 15.25C105.867 15.8281 106.891 15.3712 106.891 14.5059V7.1887C106.891 5.2642 105.968 3.4565 104.409 2.32816L101.652 0.33252L99.6623 4.38475C98.4789 6.79534 99.0413 9.6987 101.039 11.493Z" fill="#98FFAF"/>
</svg>
