<svg width="257" height="256" viewBox="0 0 257 256" fill="none" xmlns="http://www.w3.org/2000/svg">
<path fill-rule="evenodd" clip-rule="evenodd" d="M256.153 128C256.153 198.692 198.846 256 128.153 256C57.4609 256 0.15332 198.692 0.15332 128C0.15332 57.3075 57.4609 0 128.153 0C198.846 0 256.153 57.3075 256.153 128ZM24.3774 56.4164L20.6152 87.7686L235.691 92.1579L225.031 50.146L24.3774 56.4164ZM40.9226 96.678L68.5289 223.539L94.4337 225.854L93.1071 215.993L83.7155 215.14C82.2094 215.003 80.7485 214.553 79.4261 213.819C75.9727 211.903 73.8304 208.264 73.8304 204.315V201.063C73.8304 196.473 75.7554 192.093 79.137 188.988L88.7309 180.181L87.309 161.266L80.1843 96.678H40.9226ZM175.556 185.427L176.78 179.584C177.923 174.124 177.998 168.494 177.001 163.006C176.295 159.12 175.059 155.349 173.329 151.798L172.895 150.908C170.988 146.995 168.581 143.345 165.736 140.05L165.216 139.448L166.091 136.71L163.198 133.818L166.501 131.098C167.941 129.912 168.837 128.194 168.986 126.335C169.147 124.326 168.418 122.347 166.993 120.921L166.583 120.512C165.158 119.086 163.179 118.358 161.169 118.519C159.311 118.667 157.592 119.564 156.407 121.003L153.687 124.306L150.794 121.414L148.056 122.288L147.454 121.768C144.159 118.923 140.51 116.517 136.596 114.609L135.706 114.176C132.156 112.445 128.385 111.21 124.499 110.504C119.01 109.507 113.381 109.582 107.921 110.725L102.077 111.948L107.229 113.491C110.8 114.56 114.279 115.913 117.633 117.537C121.341 119.331 124.907 121.467 128.241 123.885C131.255 126.069 134.113 128.505 136.744 131.137L137.976 132.368C139.081 134.591 139.097 137.236 137.735 139.31C136.442 141.28 134.973 143.132 133.346 144.844L116.126 162.946L82.1649 193.727C80.4226 195.306 79.2654 197.428 78.8816 199.748L78.7025 200.83C78.4709 202.23 78.6742 203.667 79.2851 204.947C79.9688 206.381 81.124 207.536 82.5573 208.219C83.8377 208.83 85.2746 209.034 86.6743 208.802L87.7565 208.623C90.0765 208.239 92.1985 207.082 93.7777 205.34L124.558 171.379L142.661 154.159C144.372 152.531 146.224 151.062 148.194 149.769C150.269 148.407 152.914 148.424 155.136 149.528L156.368 150.76C159 153.392 161.435 156.25 163.62 159.263C166.037 162.598 168.173 166.164 169.968 169.871C171.591 173.226 172.944 176.705 174.013 180.275L175.556 185.427ZM217.507 99.9104L195.563 215.354L169.812 219.004L172.017 189.23L174.188 193.034C175.407 195.171 178.163 195.857 180.242 194.542C181.405 193.806 182.147 192.559 182.239 191.186L183.637 170.453C184.163 162.644 182.656 154.832 179.261 147.78L175.38 139.718L176.426 129.684L178.63 99.9104H217.507Z" fill="#98FFAF"/>
</svg>
