<svg width="129" height="129" viewBox="0 0 129 129" fill="none" xmlns="http://www.w3.org/2000/svg">
<path fill-rule="evenodd" clip-rule="evenodd" d="M64.1309 128.208C99.4771 128.208 128.131 99.5537 128.131 64.2075C128.131 28.8613 99.4771 0.20752 64.1309 0.20752C28.7846 0.20752 0.130859 28.8613 0.130859 64.2075C0.130859 99.5537 28.7846 128.208 64.1309 128.208ZM24.6785 39.8542H84.0817V45.212C84.0817 46.557 85.172 47.6473 86.517 47.6473C87.862 47.6473 88.9524 46.557 88.9524 45.212V39.8542H103.583C106.004 39.8542 107.967 41.8168 107.967 44.2378V84.1772C107.967 86.5982 106.004 88.5608 103.583 88.5608H88.9524V83.2031C88.9524 81.8581 87.862 80.7677 86.517 80.7677C85.172 80.7677 84.0817 81.8581 84.0817 83.2031V88.5608H24.6785C22.2575 88.5608 20.2949 86.5982 20.2949 84.1772V44.2378C20.2949 41.8168 22.2575 39.8542 24.6785 39.8542ZM88.9524 69.5652V72.4876C88.9524 73.8326 87.862 74.923 86.517 74.923C85.172 74.923 84.0817 73.8326 84.0817 72.4876V69.5652C84.0817 68.2202 85.172 67.1299 86.517 67.1299C87.862 67.1299 88.9524 68.2202 88.9524 69.5652ZM88.9524 55.9274V58.8498C88.9524 60.1948 87.862 61.2851 86.517 61.2851C85.172 61.2851 84.0817 60.1948 84.0817 58.8498V55.9274C84.0817 54.5824 85.172 53.4921 86.517 53.4921C87.862 53.4921 88.9524 54.5824 88.9524 55.9274ZM38.8034 71.3474V55.0931L43.6181 50.2168H59.8031L64.6179 55.0931H45.5489L43.9395 56.7185V69.8235L45.5489 71.3474H58.7794L52.1329 64.5567H58.0641L64.6179 71.3474V81.3889L59.8031 76.2237H43.6181L38.8034 71.3474Z" fill="#98FFAF"/>
</svg>
