<svg width="257" height="256" viewBox="0 0 257 256" fill="none" xmlns="http://www.w3.org/2000/svg">
<path fill-rule="evenodd" clip-rule="evenodd" d="M256.464 128C256.464 198.692 199.157 256 128.464 256C57.7719 256 0.464355 198.692 0.464355 128C0.464355 57.3075 57.7719 0 128.464 0C199.157 0 256.464 57.3075 256.464 128ZM189.068 155.559L150.966 210.236L164.674 168.536H135.153L171.696 113.859L158.889 155.559H189.068ZM213.484 152.891L211.395 162.868L208.761 154.072C206.936 147.976 204.626 142.036 201.854 136.309C198.791 129.979 195.144 123.891 191.017 118.198C187.287 113.053 183.128 108.174 178.635 103.68L176.532 101.577C172.738 99.6917 168.222 99.6634 164.68 101.989C161.317 104.197 158.155 106.704 155.234 109.483L124.327 138.883L71.7759 196.864C69.0797 199.838 65.4569 201.814 61.496 202.469L59.6483 202.775C57.2588 203.17 54.8055 202.823 52.6194 201.78C50.1724 200.613 48.2002 198.641 47.0328 196.194C45.99 194.008 45.6428 191.554 46.0382 189.165L46.3439 187.317C46.9993 183.356 48.9749 179.733 51.9496 177.037L109.93 124.486L139.33 93.5794C142.109 90.6579 144.616 87.4958 146.824 84.1327C149.15 80.591 149.121 76.0749 147.236 72.2808L145.133 70.1778C140.639 65.6846 135.76 61.5263 130.616 57.7965C124.922 53.6691 118.834 50.0221 112.504 46.9588C106.777 44.1868 100.837 41.8771 94.7415 40.0517L85.9455 37.4176L95.9222 35.3288C105.244 33.3771 114.855 33.2489 124.226 34.9512C130.86 36.1565 137.298 38.2658 143.36 41.2202L144.88 41.9609C151.561 45.2173 157.792 49.3256 163.418 54.1834L164.445 55.071L169.12 53.5776L174.058 58.5162L178.702 52.8771C180.726 50.4198 183.66 48.8889 186.833 48.635C190.264 48.3606 193.642 49.6045 196.076 52.0381L196.775 52.7372C199.209 55.1708 200.453 58.5494 200.178 61.9801C199.924 65.1533 198.393 68.0876 195.936 70.1112L190.297 74.7549L195.235 79.6934L193.742 84.3676L194.63 85.3955C199.487 91.021 203.596 97.2522 206.852 103.933L207.593 105.453C210.547 111.515 212.657 117.953 213.862 124.587C215.564 133.958 215.436 143.569 213.484 152.891Z" fill="#98FFAF"/>
</svg>
