<svg width="37" height="37" viewBox="0 0 37 37" fill="none" xmlns="http://www.w3.org/2000/svg">
<path d="M35.9726 26.3327L35.5281 28.4557L34.9676 26.5839C34.5791 25.2868 34.0876 24.0227 33.4977 22.8039C32.8458 21.457 32.0697 20.1613 31.1914 18.9498C30.3977 17.8551 29.5128 16.8167 28.5566 15.8605L28.1091 15.413V15.413C27.3017 15.0117 26.3407 15.0057 25.587 15.5005C24.8713 15.9704 24.1984 16.504 23.5767 17.0954L16.9997 23.3517L5.81664 35.6902C5.24289 36.3232 4.47193 36.7436 3.62904 36.8831L3.23585 36.9481C2.72735 37.0323 2.20528 36.9584 1.74009 36.7365C1.21934 36.488 0.79967 36.0684 0.551243 35.5476C0.329318 35.0824 0.255439 34.5604 0.339577 34.0519L0.404637 33.6587C0.544105 32.8158 0.964509 32.0448 1.59754 31.4711L13.936 20.288L20.1923 13.711C20.7837 13.0893 21.3173 12.4164 21.7872 11.7007C22.282 10.947 22.276 9.986 21.8747 9.17861V9.17861L21.4272 8.73108C20.471 7.77492 19.4327 6.89001 18.3379 6.0963C17.1264 5.21797 15.8307 4.44188 14.4838 3.79C13.265 3.20011 12.001 2.7086 10.7038 2.32015L8.83198 1.7596L10.955 1.3151C12.9387 0.899774 14.9841 0.872491 16.9781 1.23475C18.39 1.49125 19.76 1.94011 21.0499 2.56881L21.3733 2.72643C22.7951 3.4194 24.1212 4.29367 25.3183 5.32742L25.537 5.51631L26.5317 5.19851L27.5826 6.24945L28.5708 5.04944C29.0015 4.5265 29.6259 4.20073 30.3011 4.14671C31.0312 4.0883 31.7502 4.35301 32.2681 4.8709L32.4168 5.01966C32.9347 5.53755 33.1994 6.25651 33.141 6.98658C33.087 7.66184 32.7612 8.28627 32.2383 8.71689L31.0383 9.70509L32.0892 10.756L31.7714 11.7507L31.9603 11.9695C32.994 13.1666 33.8683 14.4926 34.5613 15.9144L34.7189 16.2378C35.3476 17.5277 35.7965 18.8977 36.053 20.3096C36.4152 22.3037 36.3879 24.349 35.9726 26.3327Z" fill="#98FFAF"/>
</svg>
