<svg width="160" height="61" viewBox="0 0 160 61" fill="none" xmlns="http://www.w3.org/2000/svg">
<path d="M46.8974 18.7871C48.6894 18.7871 50.236 19.1071 51.5374 19.7471C52.86 20.3871 53.8734 21.2831 54.5774 22.4351C55.3027 23.5658 55.6654 24.8778 55.6654 26.3711C55.6654 27.8644 55.3027 29.1871 54.5774 30.3391C53.8734 31.4698 52.86 32.3551 51.5374 32.9951C50.236 33.6351 48.6894 33.9551 46.8974 33.9551H36.1134V30.3071H46.7374C48.188 30.3071 49.3187 29.9551 50.1294 29.2511C50.9614 28.5471 51.3774 27.5871 51.3774 26.3711C51.3774 25.1551 50.9614 24.1951 50.1294 23.4911C49.3187 22.7871 48.188 22.4351 46.7374 22.4351H36.5294L38.4174 20.3231V42.7871H34.1934V18.7871H46.8974Z" fill="white"/>
<path d="M63.3549 18.7871V40.8991L61.4669 39.0751H79.5469V42.7871H59.1309V18.7871H63.3549Z" fill="white"/>
<path d="M85.9559 37.2831V33.7951H102.724V37.2831H85.9559ZM97.0919 18.7871L108.612 42.7871H104.1L93.6359 20.3871H95.2679L84.8039 42.7871H80.2919L91.8119 18.7871H97.0919Z" fill="white"/>
<path d="M115.814 42.7871V31.3311H120.038V42.7871H115.814ZM104.486 18.7871H109.254L119.046 31.0751H116.774L126.566 18.7871H131.334L119.27 33.9231L116.582 33.9551L104.486 18.7871Z" fill="white"/>
<path d="M30.0049 2.28711H130.005C145.745 2.28711 158.505 15.047 158.505 30.7871C158.505 46.5272 145.745 59.2871 130.005 59.2871H30.0049C14.2648 59.2871 1.50488 46.5272 1.50488 30.7871C1.50488 15.047 14.2648 2.28711 30.0049 2.28711Z" stroke="#98FFAF" stroke-width="3"/>
</svg>
