<svg width="257" height="256" viewBox="0 0 257 256" fill="none" xmlns="http://www.w3.org/2000/svg">
<path fill-rule="evenodd" clip-rule="evenodd" d="M256.153 128C256.153 198.692 198.846 256 128.153 256C57.4609 256 0.15332 198.692 0.15332 128C0.15332 57.3073 57.4609 -0.000244141 128.153 -0.000244141C144.098 -0.000244141 159.361 2.91508 173.44 8.24177C172.869 8.07289 172.289 7.91268 171.701 7.76245L156.52 56.3241C155.435 58.8424 156.473 61.7067 158.99 63.1433L161.11 64.3532L161.253 64.3849C165.686 65.3709 170.214 63.12 171.701 59.1917L188.026 14.8372C228.55 36.3224 256.153 78.9375 256.153 128ZM66.9269 210.746L82.138 207.037C84.9168 201.198 92.0525 198.175 98.748 199.998L104.505 201.567C106.417 202.087 108.402 202.352 110.398 202.352H147.008C149.003 202.352 150.988 202.087 152.9 201.567L158.658 199.998C165.353 198.175 172.489 201.198 175.268 207.037L190.479 210.746L188.904 198.088C188.797 197.233 188.579 196.393 188.253 195.585C186.599 191.478 187.828 186.869 191.367 183.91L198.064 178.31C198.958 177.562 200.065 176.463 201.19 175.27C205.199 171.026 208.048 165.852 210.076 160.377C212.71 153.266 212.65 139.979 212.501 134.566C212.457 132.974 212.26 131.394 211.957 129.831C211.321 126.551 210.215 123.381 208.671 120.419L205.223 113.803L201.311 105.819C198.889 100.877 198.441 95.3202 200.043 90.1094L196.996 90.9469C183.893 94.5485 170.157 95.8521 156.52 94.7885L161.11 94.4348C171.768 93.6138 182.265 91.5518 192.346 88.2991C205.115 84.6483 206.207 68.5832 194.031 63.526L191.814 62.6052C190.926 62.2363 190.001 61.9444 189.053 61.7335L175.051 59.1917C169.421 74.223 149.438 68.0133 152.992 56.3241L128.565 55.0222L105.323 55.6322C104.774 53.9105 104.103 52.1898 102.898 50.8434C95.3732 42.4388 79.5865 46.5644 79.3214 58.2648L73.8087 59.3329C69.2297 60.2201 64.7458 61.4738 60.4093 63.0794C56.9813 64.6742 54.644 67.1579 53.3758 69.9763C50.77 76.3794 53.5281 84.7335 61.1339 87.9132C61.7486 88.1702 62.3826 88.3868 63.0312 88.5616L69.5536 90.3186C76.6617 92.2334 83.9652 93.485 91.3515 94.054L100.886 94.7885C87.2483 95.8521 73.5128 94.5485 60.4093 90.9469L57.3623 90.1094C58.9649 95.3202 58.5166 100.877 56.0949 105.819L52.1821 113.803L49.8399 118.298C47.5633 122.667 45.931 127.342 44.9935 132.179L44.5803 136.306C44.0285 141.818 44.3737 147.384 45.6026 152.786C46.7474 157.818 48.6452 162.649 51.2321 167.114L52.1821 168.754L59.3417 178.31L66.0388 183.91C69.5774 186.869 70.8066 191.478 69.1521 195.585C68.8266 196.393 68.6083 197.233 68.5019 198.088L66.9269 210.746ZM65.583 106.025L66.9269 104.315C60.6169 117.653 57.3623 132.027 57.3623 146.55C53.355 132.6 56.3673 117.751 65.583 106.025ZM125.996 86.5133L111.567 85.734C97.7308 84.9868 84.0422 82.7393 70.791 79.0394L71.3003 76.4224C73.3878 65.6957 90.1142 65.2532 92.8825 75.8513L93.0255 75.759C98.896 71.9691 106.895 72.5066 112.091 77.04L112.682 75.0936C116.042 64.032 133.478 64.5995 135.961 75.8513C138.064 68.1941 150.113 68.4552 151.814 76.1948L151.999 77.04L152.348 76.7973C161.084 70.7208 173.661 72.7637 179.55 81.2155C167.567 83.4749 155.419 84.9376 143.203 85.5918L125.996 86.5133Z" fill="#98FFAF"/>
</svg>
