<svg width="257" height="256" viewBox="0 0 257 256" fill="none" xmlns="http://www.w3.org/2000/svg">
<path fill-rule="evenodd" clip-rule="evenodd" d="M256.464 128C256.464 198.692 199.157 256 128.464 256C57.7719 256 0.464355 198.692 0.464355 128C0.464355 57.3075 57.7719 0 128.464 0C199.157 0 256.464 57.3075 256.464 128ZM118.405 159.132L141.85 125.488H123.28L131.161 99.8286L108.675 133.473H126.84L118.405 159.132ZM112.126 228.163L100.638 225.826C83.6769 222.376 69.4086 210.981 62.2929 195.203C56.231 181.761 55.9479 166.421 61.51 152.764L65.8143 142.196C73.5309 123.249 88.1766 107.955 106.771 99.4248L111.655 97.1844V79.7701C111.655 76.9825 110.667 74.2851 108.866 72.1573L102.493 64.6269C99.4759 61.0617 101.443 55.5672 106.037 54.727C109.194 54.1496 111.358 51.216 110.976 48.0293L110.163 41.2367C109.212 33.2902 115.417 26.2979 123.42 26.2979H127.475C135.701 26.2979 142.225 33.2299 141.728 41.4406L141.189 50.3315C141.026 53.0261 143.021 55.3681 145.708 55.6345C149.806 56.041 151.701 60.9362 148.944 63.9963L146.258 66.9781C145.33 68.0077 144.12 68.7411 142.778 69.087L137.165 70.5335C129.623 72.4774 121.642 71.7798 114.551 68.5567L117.593 97.1844L105.205 104.693C90.2937 113.73 78.9472 127.624 73.071 144.04L69.7335 153.364C66.7234 161.773 66.338 170.898 68.6285 179.531L73.071 171.785C84.4293 158.3 104.919 156.758 119.456 166.735L131.918 175.974C144.874 184.866 163.636 182.926 175.964 173.181C182.276 168.191 184.817 157.938 183.411 149.756C180.242 139.731 176.537 129.682 169.685 121.707C162.01 112.774 152.424 105.503 142.868 99.6199L138.911 97.1844L144.835 72.4811L143.977 97.1844C159.347 104.952 173.519 117.769 182.848 133.083C184.158 134.82 185.325 136.661 186.337 138.587L194.194 153.536C199.503 166.735 198.881 182.225 193.188 196.05C186.948 211.207 173.502 222.207 157.409 225.322L141.999 228.304C132.128 230.215 121.978 230.167 112.126 228.163ZM64.1894 86.9865L58.6559 74.6032L56.0566 87.9152L43.6733 93.4487L56.9853 96.048L62.5188 108.431L65.1181 95.1193L77.5014 89.5858L64.1894 86.9865ZM195.189 57.7287L196.71 39.459L184.954 53.5261L166.684 52.0046L180.751 63.761L179.23 82.0308L190.986 67.9637L209.256 69.4852L195.189 57.7287Z" fill="#98FFAF"/>
</svg>
