<svg width="128" height="128" viewBox="0 0 128 128" fill="none" xmlns="http://www.w3.org/2000/svg">
<path fill-rule="evenodd" clip-rule="evenodd" d="M128 64C128 99.3462 99.3462 128 64 128C28.6538 128 0 99.3462 0 64C0 28.6538 28.6538 0 64 0C99.3462 0 128 28.6538 128 64ZM58.8115 67.93C57.0355 70.196 56.1475 72.9931 56.1475 76.3212C56.1475 77.0294 56.1831 77.7375 56.2541 78.4456C56.3251 79.1537 56.4672 79.8972 56.6803 80.6762H68.5082V77.2772C68.5082 75.3653 69.041 73.8074 70.1066 72.6036C71.2432 71.329 72.8415 70.1252 74.9016 68.9922L83.5328 64.4249C87.582 62.3005 90.6721 59.6805 92.8033 56.5648C94.9344 53.4491 96 50.1209 96 46.5803C96 39.2159 93.194 33.4447 87.582 29.2668C82.041 25.0889 74.2978 23 64.3525 23C54.4781 23 46.5929 25.3014 40.6967 29.9041C34.8716 34.4361 31.6393 40.7737 31 48.9171H44.4262C44.9945 44.3851 47.0546 40.8446 50.6066 38.2953C54.1585 35.6753 58.7404 34.3653 64.3525 34.3653C70.0355 34.3653 74.4754 35.5337 77.6721 37.8705C80.9399 40.2073 82.5738 43.3584 82.5738 47.3238C82.5738 49.3066 81.8989 51.1477 80.5492 52.8472C79.1995 54.4758 77.4235 55.8921 75.2213 57.0959L67.1229 61.4508C63.3579 63.4335 60.5874 65.5933 58.8115 67.93ZM56.1475 102.769C57.7814 104.256 59.8415 105 62.3279 105C64.8852 105 66.9454 104.256 68.5082 102.769C70.1421 101.212 70.959 99.2288 70.959 96.8212C70.959 94.4136 70.1421 92.4663 68.5082 90.9793C66.9454 89.4214 64.8852 88.6425 62.3279 88.6425C59.8415 88.6425 57.7814 89.4214 56.1475 90.9793C54.5137 92.4663 53.6967 94.4136 53.6967 96.8212C53.6967 99.2288 54.5137 101.212 56.1475 102.769Z" fill="#98FFAF"/>
</svg>
