<svg width="257" height="257" viewBox="0 0 257 257" fill="none" xmlns="http://www.w3.org/2000/svg">
<path fill-rule="evenodd" clip-rule="evenodd" d="M256.541 128.575C256.541 199.267 199.233 256.575 128.541 256.575C57.8481 256.575 0.540527 199.267 0.540527 128.575C0.540527 57.8821 57.8481 0.574585 128.541 0.574585C199.233 0.574585 256.541 57.8821 256.541 128.575ZM136.616 77.7802C128.448 84.6607 116.248 83.6165 109.368 75.448C102.487 67.2794 103.531 55.0797 111.7 48.1992L136.616 77.7802ZM101.517 67.7123L70.307 90.7701L71.3507 90.9493C77.613 92.0245 82.7978 96.4148 84.8906 102.414L112.505 82.5178L111.55 81.9502C106.334 78.8467 102.685 73.669 101.517 67.7123ZM82.4447 110.21C82.4447 118.828 75.4587 125.814 66.841 125.814C58.2233 125.814 51.2373 118.828 51.2373 110.21C51.2373 101.593 58.2233 94.6065 66.841 94.6065C75.4587 94.6065 82.4447 101.593 82.4447 110.21ZM146.815 120.002L86.0011 104.57C87.5012 108.648 87.4881 113.129 85.9643 117.198L85.4447 118.586L137.443 132.542C138.344 127.374 141.545 122.897 146.142 120.372L146.815 120.002ZM83.8079 120.829L123.808 190.111C117.757 190.589 112.195 193.62 108.514 198.447L107.841 199.329L67.841 130.047L68.0425 130.051C74.6069 130.16 80.6856 126.604 83.8079 120.829ZM145.876 126.06C138.193 133.479 137.979 145.721 145.399 153.404L173.22 126.537C165.801 118.854 153.558 118.64 145.876 126.06ZM214.922 154.237L215.918 149.861C216.848 145.773 216.979 141.543 216.301 137.404C215.822 134.474 214.943 131.624 213.689 128.933L213.374 128.258C211.992 125.292 210.231 122.517 208.136 120.003L207.753 119.544L208.446 117.498L206.31 115.286L208.828 113.285C209.926 112.413 210.622 111.133 210.758 109.738C210.905 108.23 210.384 106.733 209.331 105.643L209.029 105.33C207.976 104.24 206.498 103.666 204.986 103.761C203.587 103.848 202.284 104.499 201.374 105.566L199.286 108.013L197.15 105.801L195.081 106.422L194.635 106.023C192.196 103.842 189.484 101.985 186.568 100.5L185.905 100.163C183.259 98.8155 180.441 97.8375 177.53 97.2559C173.418 96.4345 169.186 96.4172 165.067 97.2047L160.659 98.0477L164.511 99.2748C167.18 100.125 169.777 101.188 172.277 102.452C175.04 103.849 177.693 105.501 180.167 107.362C182.403 109.044 184.519 110.912 186.463 112.924L187.373 113.866C188.174 115.551 188.151 117.539 187.1 119.08C186.103 120.544 184.974 121.917 183.729 123.181L170.549 136.561L144.621 159.251C143.29 160.415 142.393 161.994 142.074 163.733L141.925 164.544C141.733 165.593 141.867 166.676 142.309 167.646C142.804 168.732 143.657 169.616 144.726 170.148C145.68 170.624 146.757 170.796 147.812 170.64L148.628 170.52C150.377 170.262 151.987 169.42 153.196 168.131L176.776 143.01L190.608 130.305C191.915 129.104 193.327 128.024 194.824 127.078C196.401 126.082 198.389 126.129 200.045 126.988L200.954 127.93C202.898 129.943 204.691 132.123 206.293 134.416C208.067 136.954 209.625 139.662 210.925 142.472C212.102 145.015 213.073 147.647 213.83 150.345L214.922 154.237ZM112.244 42.8158L139.76 75.3928L139.98 84.4073C140.086 88.7117 141.657 92.851 144.436 96.1403L165.31 78.5089C162.532 75.2196 158.714 72.9776 154.488 72.1538L145.637 70.4287L118.121 37.8516L129.45 28.2827L121.563 18.9458C117.386 13.9997 111.658 10.6116 105.312 9.33215L95.4655 7.34722C93.0978 6.86989 90.6417 7.50023 88.7965 9.05879C86.9289 10.6362 85.8842 12.9803 85.9597 15.4236L86.2685 25.4167C86.4684 31.888 88.8508 38.1016 93.0285 43.0477L100.915 52.3846L112.244 42.8158ZM145.234 90.3276L145.318 90.4269L159.53 78.4233L159.455 78.3346C158.307 76.9763 156.743 76.0322 155.007 75.6487C148.812 74.2802 143.005 79.185 143.333 85.5205C143.425 87.2875 144.093 88.9759 145.234 90.3276ZM104.267 218.36C104.267 204.954 115.135 194.086 128.541 194.086C141.947 194.086 152.814 204.954 152.814 218.36H104.267ZM178.541 231.85C178.541 226.745 174.402 222.606 169.296 222.606H87.785C82.6794 222.606 78.5405 226.745 78.5405 231.85C78.5405 236.956 82.6794 241.095 87.785 241.095H169.296C174.402 241.095 178.541 236.956 178.541 231.85Z" fill="#98FFAF"/>
</svg>
