<svg width="912" height="151" viewBox="0 0 912 151" fill="none" xmlns="http://www.w3.org/2000/svg">
<path d="M0 24C0 10.7452 10.7452 0 24 0H888C901.255 0 912 10.7452 912 24V126.061C912 139.315 901.255 150.061 888 150.061H24C10.7452 150.061 0 139.315 0 126.061V24Z" fill="#049ADD"/>
<path fill-rule="evenodd" clip-rule="evenodd" d="M131.512 51.3784L96.2039 112.287C94.1069 115.904 88.8931 115.904 86.7961 112.287L51.4884 51.3784C47.2751 44.1102 52.5081 35 60.8962 35H122.104C130.492 35 135.725 44.1102 131.512 51.3784ZM96.2232 97.5825L123.116 50.4239C125.188 46.7899 122.569 42.2682 118.392 42.2682H95.1266V98.9507C95.5466 98.5725 95.9187 98.1164 96.2232 97.5825ZM59.8844 50.4239L86.7768 97.5825C87.0813 98.1164 87.4534 98.5725 87.8734 98.9507V42.2682H64.6076C60.4307 42.2682 57.8121 46.7899 59.8844 50.4239Z" fill="white"/>
<path d="M839.588 104.871L869.64 74.8194L839.588 44.7674C838.612 43.7911 837.029 43.7911 836.053 44.7674C835.076 45.7437 835.076 47.3266 836.053 48.3029L862.569 74.8194L836.053 101.336C835.076 102.312 835.076 103.895 836.053 104.871C837.029 105.848 838.612 105.848 839.588 104.871Z" fill="white"/>
<path d="M208.167 92.4797L195.822 58.816H195.621C195.688 59.5271 195.746 60.3942 195.797 61.4175C195.847 62.4408 195.889 63.5594 195.922 64.7735C195.956 65.9702 195.973 67.1929 195.973 68.4416V92.4797H192V54.4454H198.336L209.977 86.0799H210.153L221.97 54.4454H228.255V92.4797H224.032V68.1294C224.032 67.0021 224.048 65.8748 224.082 64.7475C224.115 63.6028 224.157 62.5275 224.208 61.5216C224.258 60.4983 224.308 59.6138 224.358 58.868H224.157L211.661 92.4797H208.167Z" fill="white"/>
<path d="M247.992 63.4987C251.278 63.4987 253.716 64.2618 255.309 65.7881C256.901 67.3143 257.697 69.7511 257.697 73.0984V92.4797H254.655L253.851 88.2652H253.649C252.878 89.3058 252.074 90.1817 251.236 90.8928C250.398 91.5865 249.425 92.1155 248.319 92.4797C247.23 92.8266 245.889 93 244.296 93C242.62 93 241.128 92.6965 239.821 92.0895C238.53 91.4824 237.508 90.5632 236.754 89.3319C236.016 88.1005 235.647 86.5395 235.647 84.6491C235.647 81.8048 236.737 79.6195 238.916 78.0933C241.095 76.5671 244.414 75.7346 248.872 75.5958L253.624 75.3877V73.6447C253.624 71.1819 253.113 69.4562 252.091 68.4676C251.068 67.4791 249.627 66.9848 247.766 66.9848C246.325 66.9848 244.95 67.2016 243.643 67.6352C242.335 68.0687 241.095 68.5804 239.922 69.1701L238.639 65.8921C239.88 65.2331 241.304 64.6694 242.914 64.2011C244.523 63.7329 246.216 63.4987 247.992 63.4987ZM253.574 78.4315L249.375 78.6136C245.939 78.7523 243.517 79.3333 242.109 80.3566C240.701 81.3799 239.997 82.828 239.997 84.7011C239.997 86.3314 240.475 87.5368 241.43 88.3173C242.386 89.0977 243.651 89.4879 245.227 89.4879C247.674 89.4879 249.677 88.7855 251.236 87.3807C252.795 85.9759 253.574 83.8687 253.574 81.059V78.4315Z" fill="white"/>
<path d="M270.445 52V73.0203C270.445 73.714 270.419 74.5639 270.369 75.5698C270.319 76.5584 270.277 77.4342 270.243 78.1973H270.419C270.771 77.7464 271.283 77.0787 271.953 76.1942C272.64 75.3096 273.219 74.5986 273.688 74.0609L282.84 63.967H287.743L276.655 76.1421L288.547 92.4797H283.519L273.789 78.9778L270.445 82.1516V92.4797H266.296V52H270.445Z" fill="white"/>
<path d="M303.96 63.4467C306.306 63.4467 308.318 63.9844 309.994 65.0596C311.67 66.1349 312.952 67.6438 313.841 69.5863C314.729 71.5114 315.173 73.7661 315.173 76.3503V79.0298H296.14C296.191 82.3771 296.995 84.9266 298.554 86.6783C300.113 88.43 302.309 89.3058 305.141 89.3058C306.884 89.3058 308.427 89.1411 309.767 88.8115C311.108 88.482 312.5 87.9964 313.941 87.3547V91.1529C312.55 91.7946 311.167 92.2629 309.793 92.5577C308.435 92.8526 306.826 93 304.965 93C302.317 93 300.004 92.445 298.026 91.335C296.065 90.2077 294.54 88.5601 293.45 86.3921C292.361 84.2242 291.816 81.5706 291.816 78.4315C291.816 75.3617 292.31 72.7081 293.299 70.4708C294.305 68.2162 295.713 66.4818 297.523 65.2678C299.35 64.0537 301.496 63.4467 303.96 63.4467ZM303.909 66.9848C301.68 66.9848 299.903 67.7392 298.579 69.2481C297.255 70.757 296.467 72.8642 296.216 75.5698H310.798C310.782 73.8701 310.522 72.3786 310.019 71.0952C309.533 69.7944 308.787 68.7885 307.781 68.0774C306.776 67.349 305.485 66.9848 303.909 66.9848Z" fill="white"/>
<path d="M345.948 63.4987C349.233 63.4987 351.672 64.2618 353.264 65.7881C354.856 67.3143 355.653 69.7511 355.653 73.0984V92.4797H352.61L351.806 88.2652H351.605C350.834 89.3058 350.029 90.1817 349.191 90.8928C348.353 91.5865 347.381 92.1155 346.274 92.4797C345.185 92.8266 343.844 93 342.252 93C340.575 93 339.084 92.6965 337.776 92.0895C336.486 91.4824 335.463 90.5632 334.709 89.3319C333.971 88.1005 333.603 86.5395 333.603 84.6491C333.603 81.8048 334.692 79.6195 336.871 78.0933C339.05 76.5671 342.369 75.7346 346.828 75.5958L351.579 75.3877V73.6447C351.579 71.1819 351.068 69.4562 350.046 68.4676C349.023 67.4791 347.582 66.9848 345.721 66.9848C344.28 66.9848 342.905 67.2016 341.598 67.6352C340.29 68.0687 339.05 68.5804 337.877 69.1701L336.595 65.8921C337.835 65.2331 339.26 64.6694 340.869 64.2011C342.478 63.7329 344.171 63.4987 345.948 63.4987ZM351.529 78.4315L347.33 78.6136C343.894 78.7523 341.472 79.3333 340.064 80.3566C338.656 81.3799 337.952 82.828 337.952 84.7011C337.952 86.3314 338.43 87.5368 339.385 88.3173C340.341 89.0977 341.606 89.4879 343.182 89.4879C345.629 89.4879 347.632 88.7855 349.191 87.3807C350.75 85.9759 351.529 83.8687 351.529 81.059V78.4315Z" fill="white"/>
<path d="M389.545 92.4797H385.245V58.3477H373.68V54.4454H401.06V58.3477H389.545V92.4797Z" fill="white"/>
<path d="M438.497 73.4105C438.497 76.3416 438.137 79.0125 437.416 81.4232C436.695 83.8166 435.622 85.8805 434.198 87.6148C432.79 89.3319 431.038 90.6586 428.943 91.5952C426.848 92.5317 424.417 93 421.652 93C418.802 93 416.313 92.5317 414.184 91.5952C412.072 90.6586 410.312 89.3232 408.904 87.5888C407.513 85.8545 406.466 83.7819 405.762 81.3712C405.074 78.9604 404.731 76.2896 404.731 73.3585C404.731 69.4736 405.351 66.0656 406.591 63.1345C407.832 60.2035 409.709 57.9228 412.223 56.2925C414.754 54.6622 417.922 53.8471 421.727 53.8471C425.364 53.8471 428.423 54.6536 430.904 56.2665C433.402 57.8794 435.287 60.1514 436.561 63.0825C437.852 65.9962 438.497 69.4389 438.497 73.4105ZM409.231 73.4105C409.231 76.6364 409.675 79.4287 410.564 81.7874C411.452 84.1462 412.81 85.9672 414.637 87.2506C416.481 88.5341 418.819 89.1758 421.652 89.1758C424.501 89.1758 426.831 88.5341 428.641 87.2506C430.468 85.9672 431.818 84.1462 432.689 81.7874C433.561 79.4287 433.997 76.6364 433.997 73.4105C433.997 68.5023 432.999 64.6694 431.005 61.9118C429.027 59.1368 425.934 57.7494 421.727 57.7494C418.878 57.7494 416.531 58.3824 414.687 59.6485C412.843 60.9146 411.469 62.7183 410.564 65.0596C409.675 67.3837 409.231 70.1673 409.231 73.4105Z" fill="white"/>
<path d="M475.431 92.4797H470.504L450.465 60.533H450.264C450.314 61.3828 450.373 62.3541 450.44 63.4467C450.507 64.522 450.557 65.6753 450.591 66.9067C450.641 68.1208 450.666 69.3608 450.666 70.6269V92.4797H446.694V54.4454H451.596L471.56 86.2881H471.736C471.702 85.681 471.66 84.8225 471.61 83.7126C471.56 82.5852 471.509 81.3799 471.459 80.0964C471.425 78.7957 471.409 77.5903 471.409 76.4803V54.4454H475.431V92.4797Z" fill="white"/>
<path d="M507.111 89.4619C507.798 89.4619 508.502 89.4012 509.223 89.2798C509.944 89.1584 510.53 89.011 510.983 88.8376V92.1935C510.497 92.419 509.818 92.6098 508.946 92.7659C508.092 92.922 507.253 93 506.432 93C504.974 93 503.65 92.7398 502.46 92.2195C501.27 91.6819 500.314 90.78 499.593 89.514C498.889 88.2479 498.537 86.4962 498.537 84.2589V67.349H494.615V65.2418L498.563 63.5508L500.222 57.3591H502.736V63.967H510.807V67.349H502.736V84.1288C502.736 85.9152 503.13 87.2506 503.918 88.1352C504.722 89.0197 505.787 89.4619 507.111 89.4619Z" fill="white"/>
<path d="M529.086 63.4467C529.639 63.4467 530.217 63.4814 530.82 63.5508C531.424 63.6028 531.96 63.6808 532.43 63.7849L531.902 67.7912C531.449 67.6698 530.946 67.5744 530.393 67.5051C529.84 67.4357 529.32 67.401 528.834 67.401C527.728 67.401 526.68 67.6351 525.691 68.1034C524.719 68.5544 523.864 69.2134 523.127 70.0806C522.389 70.9304 521.811 71.9624 521.392 73.1764C520.973 74.3731 520.763 75.7085 520.763 77.1827V92.4797H516.565V63.967H520.034L520.487 69.2221H520.663C521.233 68.1641 521.92 67.2016 522.724 66.3344C523.529 65.4499 524.459 64.7475 525.515 64.2272C526.588 63.7069 527.778 63.4467 529.086 63.4467Z" fill="white"/>
<path d="M547.942 63.4987C551.228 63.4987 553.667 64.2618 555.259 65.7881C556.851 67.3143 557.647 69.7511 557.647 73.0984V92.4797H554.605L553.801 88.2652H553.599C552.828 89.3058 552.024 90.1817 551.186 90.8928C550.348 91.5865 549.376 92.1155 548.269 92.4797C547.18 92.8266 545.839 93 544.247 93C542.57 93 541.079 92.6965 539.771 92.0895C538.48 91.4824 537.458 90.5632 536.704 89.3319C535.966 88.1005 535.597 86.5395 535.597 84.6491C535.597 81.8048 536.687 79.6195 538.866 78.0933C541.045 76.5671 544.364 75.7346 548.822 75.5958L553.574 75.3877V73.6447C553.574 71.1819 553.063 69.4562 552.041 68.4676C551.018 67.4791 549.577 66.9848 547.716 66.9848C546.275 66.9848 544.9 67.2016 543.593 67.6352C542.285 68.0687 541.045 68.5804 539.872 69.1701L538.589 65.8921C539.83 65.2331 541.255 64.6694 542.864 64.2011C544.473 63.7329 546.166 63.4987 547.942 63.4987ZM553.524 78.4315L549.325 78.6136C545.889 78.7523 543.467 79.3333 542.059 80.3566C540.651 81.3799 539.947 82.828 539.947 84.7011C539.947 86.3314 540.425 87.5368 541.38 88.3173C542.336 89.0977 543.601 89.4879 545.177 89.4879C547.624 89.4879 549.627 88.7855 551.186 87.3807C552.745 85.9759 553.524 83.8687 553.524 81.059V78.4315Z" fill="white"/>
<path d="M579.295 63.4467C582.564 63.4467 585.036 64.2792 586.712 65.9442C588.388 67.5918 589.226 70.2453 589.226 73.9048V92.4797H585.103V74.191C585.103 71.8149 584.575 70.0372 583.519 68.8579C582.48 67.6785 580.879 67.0888 578.717 67.0888C575.666 67.0888 573.521 67.982 572.28 69.7684C571.04 71.5548 570.42 74.1476 570.42 77.547V92.4797H566.246V63.967H569.615L570.244 68.0774H570.47C571.057 67.0715 571.803 66.2303 572.708 65.5539C573.613 64.8602 574.627 64.3399 575.75 63.993C576.873 63.6288 578.055 63.4467 579.295 63.4467Z" fill="white"/>
<path d="M615.651 84.6751C615.651 86.4962 615.207 88.0311 614.319 89.2798C613.447 90.5112 612.19 91.4391 610.547 92.0635C608.921 92.6878 606.977 93 604.714 93C602.787 93 601.119 92.8439 599.711 92.5317C598.303 92.2195 597.071 91.7773 596.015 91.2049V87.2246C597.138 87.797 598.479 88.3173 600.038 88.7855C601.597 89.2538 603.189 89.4879 604.815 89.4879C607.195 89.4879 608.921 89.089 609.994 88.2912C611.067 87.4934 611.603 86.4095 611.603 85.0393C611.603 84.2589 611.385 83.5738 610.95 82.9841C610.531 82.3771 609.818 81.7961 608.812 81.2411C607.807 80.6688 606.416 80.0444 604.639 79.368C602.879 78.6743 601.354 77.9892 600.063 77.3128C598.789 76.6191 597.8 75.7779 597.096 74.7893C596.409 73.8008 596.065 72.5173 596.065 70.9391C596.065 68.5283 597.004 66.6813 598.881 65.3978C600.775 64.0971 603.256 63.4467 606.323 63.4467C607.983 63.4467 609.533 63.6201 610.975 63.967C612.433 64.2965 613.791 64.7475 615.048 65.3198L613.64 68.7798C612.5 68.2769 611.285 67.8519 609.994 67.5051C608.703 67.1582 607.388 66.9848 606.047 66.9848C604.119 66.9848 602.636 67.3143 601.597 67.9734C600.574 68.6324 600.063 69.5343 600.063 70.6789C600.063 71.5634 600.298 72.2919 600.767 72.8642C601.253 73.4365 602.024 73.9742 603.08 74.4772C604.136 74.9801 605.527 75.5698 607.254 76.2462C608.98 76.9052 610.472 77.5903 611.729 78.3014C612.986 78.9951 613.95 79.845 614.62 80.8509C615.308 81.8395 615.651 83.1142 615.651 84.6751Z" fill="white"/>
<path d="M632.673 63.4987C635.958 63.4987 638.397 64.2618 639.989 65.7881C641.581 67.3143 642.378 69.7511 642.378 73.0984V92.4797H639.335L638.531 88.2652H638.33C637.559 89.3058 636.754 90.1817 635.916 90.8928C635.078 91.5865 634.106 92.1155 633 92.4797C631.91 92.8266 630.569 93 628.977 93C627.301 93 625.809 92.6965 624.501 92.0895C623.211 91.4824 622.188 90.5632 621.434 89.3319C620.696 88.1005 620.328 86.5395 620.328 84.6491C620.328 81.8048 621.417 79.6195 623.596 78.0933C625.775 76.5671 629.094 75.7346 633.553 75.5958L638.305 75.3877V73.6447C638.305 71.1819 637.793 69.4562 636.771 68.4676C635.748 67.4791 634.307 66.9848 632.446 66.9848C631.005 66.9848 629.63 67.2016 628.323 67.6352C627.016 68.0687 625.775 68.5804 624.602 69.1701L623.32 65.8921C624.56 65.2331 625.985 64.6694 627.594 64.2011C629.203 63.7329 630.896 63.4987 632.673 63.4987ZM638.254 78.4315L634.056 78.6136C630.619 78.7523 628.197 79.3333 626.789 80.3566C625.381 81.3799 624.677 82.828 624.677 84.7011C624.677 86.3314 625.155 87.5368 626.11 88.3173C627.066 89.0977 628.331 89.4879 629.907 89.4879C632.354 89.4879 634.357 88.7855 635.916 87.3807C637.475 85.9759 638.254 83.8687 638.254 81.059V78.4315Z" fill="white"/>
<path d="M662.014 93C659.533 93 657.346 92.471 655.452 91.4131C653.558 90.3551 652.083 88.7422 651.027 86.5742C649.971 84.4063 649.443 81.6747 649.443 78.3794C649.443 74.9281 649.996 72.1098 651.102 69.9245C652.225 67.7219 653.767 66.0916 655.728 65.0336C657.689 63.9757 659.919 63.4467 662.416 63.4467C663.791 63.4467 665.115 63.5941 666.389 63.889C667.679 64.1665 668.735 64.522 669.557 64.9556L668.3 68.5717C667.462 68.2248 666.489 67.9127 665.383 67.6352C664.294 67.3577 663.271 67.2189 662.316 67.2189C660.405 67.2189 658.813 67.6438 657.539 68.4937C656.282 69.3435 655.334 70.5922 654.698 72.2398C654.077 73.8875 653.767 75.9167 653.767 78.3274C653.767 80.6341 654.069 82.6026 654.672 84.2329C655.293 85.8632 656.206 87.1119 657.413 87.9791C658.637 88.8289 660.162 89.2538 661.989 89.2538C663.447 89.2538 664.763 89.0977 665.936 88.7855C667.11 88.456 668.174 88.0744 669.129 87.6409V91.4911C668.207 91.9767 667.177 92.3496 666.037 92.6098C664.914 92.8699 663.573 93 662.014 93Z" fill="white"/>
<path d="M684.567 89.4619C685.254 89.4619 685.958 89.4012 686.679 89.2798C687.4 89.1584 687.986 89.011 688.439 88.8376V92.1935C687.953 92.419 687.274 92.6098 686.402 92.7659C685.547 92.922 684.709 93 683.888 93C682.43 93 681.106 92.7398 679.915 92.2195C678.725 91.6819 677.77 90.78 677.049 89.514C676.345 88.2479 675.993 86.4962 675.993 84.2589V67.349H672.071V65.2418L676.018 63.5508L677.678 57.3591H680.192V63.967H688.263V67.349H680.192V84.1288C680.192 85.9152 680.586 87.2506 681.374 88.1352C682.178 89.0197 683.243 89.4619 684.567 89.4619Z" fill="white"/>
<path d="M698.194 63.967V92.4797H694.02V63.967H698.194ZM696.158 53.3008C696.845 53.3008 697.431 53.5349 697.917 54.0032C698.42 54.4541 698.672 55.1652 698.672 56.1364C698.672 57.0903 698.42 57.8014 697.917 58.2697C697.431 58.7379 696.845 58.9721 696.158 58.9721C695.437 58.9721 694.833 58.7379 694.347 58.2697C693.878 57.8014 693.643 57.0903 693.643 56.1364C693.643 55.1652 693.878 54.4541 694.347 54.0032C694.833 53.5349 695.437 53.3008 696.158 53.3008Z" fill="white"/>
<path d="M730.804 78.1713C730.804 80.5127 730.511 82.6026 729.924 84.441C729.337 86.2794 728.491 87.8316 727.385 89.0977C726.278 90.3638 724.937 91.335 723.362 92.0114C721.803 92.6705 720.035 93 718.057 93C716.213 93 714.52 92.6705 712.978 92.0114C711.453 91.335 710.128 90.3638 709.005 89.0977C707.899 87.8316 707.036 86.2794 706.416 84.441C705.812 82.6026 705.51 80.5127 705.51 78.1713C705.51 75.0495 706.022 72.3959 707.044 70.2107C708.067 68.008 709.525 66.3344 711.419 65.1897C713.33 64.0277 715.601 63.4467 718.233 63.4467C720.747 63.4467 722.943 64.0277 724.82 65.1897C726.714 66.3517 728.181 68.034 729.22 70.2367C730.276 72.422 730.804 75.0668 730.804 78.1713ZM709.835 78.1713C709.835 80.4607 710.128 82.4465 710.715 84.1288C711.302 85.8111 712.207 87.1119 713.43 88.0311C714.654 88.9503 716.23 89.4099 718.157 89.4099C720.068 89.4099 721.635 88.9503 722.859 88.0311C724.099 87.1119 725.013 85.8111 725.599 84.1288C726.186 82.4465 726.479 80.4607 726.479 78.1713C726.479 75.8993 726.186 73.9395 725.599 72.2919C725.013 70.6269 724.108 69.3435 722.884 68.4416C721.66 67.5398 720.076 67.0888 718.132 67.0888C715.266 67.0888 713.162 68.0687 711.821 70.0286C710.497 71.9884 709.835 74.7026 709.835 78.1713Z" fill="white"/>
<path d="M751.069 63.4467C754.337 63.4467 756.81 64.2792 758.486 65.9442C760.162 67.5918 761 70.2453 761 73.9048V92.4797H756.877V74.191C756.877 71.8149 756.349 70.0372 755.293 68.8579C754.253 67.6785 752.653 67.0888 750.49 67.0888C747.44 67.0888 745.294 67.982 744.054 69.7684C742.814 71.5548 742.193 74.1476 742.193 77.547V92.4797H738.02V63.967H741.389L742.017 68.0774H742.244C742.83 67.0715 743.576 66.2303 744.481 65.5539C745.387 64.8602 746.401 64.3399 747.524 63.993C748.647 63.6288 749.828 63.4467 751.069 63.4467Z" fill="white"/>
</svg>
