<svg width="220" height="220" viewBox="0 0 220 220" fill="none" xmlns="http://www.w3.org/2000/svg">
<path fill-rule="evenodd" clip-rule="evenodd" d="M12 0C5.37258 0 0 5.37259 0 12V208C0 214.627 5.37259 220 12 220H208C214.627 220 220 214.627 220 208V12C220 5.37258 214.627 0 208 0H12ZM140.395 109.972L140.491 110.068L102.307 148.252C99.9641 150.595 96.1651 150.595 93.8219 148.252C91.4788 145.909 91.4788 142.11 93.8219 139.766L123.552 110.037L93.7574 80.2426C91.4142 77.8995 91.4142 74.1005 93.7574 71.7574C96.1005 69.4142 99.8995 69.4142 102.243 71.7574L140.426 109.941L140.395 109.972Z" fill="#98FFAF"/>
</svg>
