<svg width="912" height="151" viewBox="0 0 912 151" fill="none" xmlns="http://www.w3.org/2000/svg">
<path fill-rule="evenodd" clip-rule="evenodd" d="M24 0H888C901.255 0 912 10.7452 912 24V126.061C912 139.315 901.255 150.061 888 150.061H24C10.7452 150.061 0 139.315 0 126.061V24C0 10.7452 10.7452 0 24 0ZM131.512 51.3784L96.2039 112.287C94.1069 115.904 88.8931 115.904 86.7961 112.287L51.4884 51.3784C47.2751 44.1102 52.5081 35 60.8962 35H122.104C130.492 35 135.725 44.1102 131.512 51.3784ZM839.588 104.871L869.64 74.8194L839.588 44.7674C838.612 43.7911 837.029 43.7911 836.053 44.7674C835.076 45.7437 835.076 47.3266 836.053 48.3029L862.569 74.8194L836.053 101.336C835.076 102.312 835.076 103.895 836.053 104.871C837.029 105.848 838.612 105.848 839.588 104.871ZM195.822 58.816L208.167 92.4797H211.661L224.157 58.868H224.358C224.308 59.6138 224.258 60.4983 224.208 61.5216C224.157 62.5275 224.115 63.6028 224.082 64.7475C224.048 65.8748 224.032 67.0021 224.032 68.1294V92.4797H228.255V54.4454H221.97L210.153 86.0799H209.977L198.336 54.4454H192V92.4797H195.973V68.4416C195.973 67.1929 195.956 65.9702 195.922 64.7735C195.889 63.5594 195.847 62.4408 195.797 61.4175C195.746 60.3942 195.688 59.5271 195.621 58.816H195.822ZM255.309 65.7881C253.716 64.2618 251.278 63.4987 247.992 63.4987C246.216 63.4987 244.523 63.7329 242.914 64.2011C241.304 64.6694 239.88 65.2331 238.639 65.8921L239.922 69.1701C241.095 68.5804 242.335 68.0687 243.643 67.6352C244.95 67.2016 246.325 66.9848 247.766 66.9848C249.627 66.9848 251.068 67.4791 252.091 68.4676C253.113 69.4562 253.624 71.1819 253.624 73.6447V75.3877L248.872 75.5958C244.414 75.7346 241.095 76.5671 238.916 78.0933C236.737 79.6195 235.647 81.8048 235.647 84.6491C235.647 86.5395 236.016 88.1005 236.754 89.3319C237.508 90.5632 238.53 91.4824 239.821 92.0895C241.128 92.6965 242.62 93 244.296 93C245.889 93 247.23 92.8266 248.319 92.4797C249.425 92.1155 250.398 91.5865 251.236 90.8928C252.074 90.1817 252.878 89.3058 253.649 88.2652H253.851L254.655 92.4797H257.697V73.0984C257.697 69.7511 256.901 67.3143 255.309 65.7881ZM270.445 73.0203V52H266.296V92.4797H270.445V82.1516L273.789 78.9778L283.519 92.4797H288.547L276.655 76.1421L287.743 63.967H282.84L273.688 74.0609C273.219 74.5986 272.64 75.3096 271.953 76.1942C271.283 77.0787 270.771 77.7464 270.419 78.1973H270.243C270.277 77.4342 270.319 76.5584 270.369 75.5698C270.419 74.5639 270.445 73.714 270.445 73.0203ZM309.994 65.0596C308.318 63.9844 306.306 63.4467 303.96 63.4467C301.496 63.4467 299.35 64.0537 297.523 65.2678C295.713 66.4818 294.305 68.2162 293.299 70.4708C292.31 72.7081 291.816 75.3617 291.816 78.4315C291.816 81.5706 292.361 84.2242 293.45 86.3921C294.54 88.5601 296.065 90.2077 298.026 91.335C300.004 92.445 302.317 93 304.965 93C306.826 93 308.435 92.8526 309.793 92.5577C311.167 92.2629 312.55 91.7946 313.941 91.1529V87.3547C312.5 87.9964 311.108 88.482 309.767 88.8115C308.427 89.1411 306.884 89.3058 305.141 89.3058C302.309 89.3058 300.113 88.43 298.554 86.6783C296.995 84.9266 296.191 82.3771 296.14 79.0298H315.173V76.3503C315.173 73.7661 314.729 71.5114 313.841 69.5863C312.952 67.6438 311.67 66.1349 309.994 65.0596ZM353.264 65.7881C351.672 64.2618 349.233 63.4987 345.948 63.4987C344.171 63.4987 342.478 63.7329 340.869 64.2011C339.26 64.6694 337.835 65.2331 336.595 65.8921L337.877 69.1701C339.05 68.5804 340.29 68.0687 341.598 67.6352C342.905 67.2016 344.28 66.9848 345.721 66.9848C347.582 66.9848 349.023 67.4791 350.046 68.4676C351.068 69.4562 351.579 71.1819 351.579 73.6447V75.3877L346.828 75.5958C342.369 75.7346 339.05 76.5671 336.871 78.0933C334.692 79.6195 333.603 81.8048 333.603 84.6491C333.603 86.5395 333.971 88.1005 334.709 89.3319C335.463 90.5632 336.486 91.4824 337.776 92.0895C339.084 92.6965 340.575 93 342.252 93C343.844 93 345.185 92.8266 346.274 92.4797C347.381 92.1155 348.353 91.5865 349.191 90.8928C350.029 90.1817 350.834 89.3058 351.605 88.2652H351.806L352.61 92.4797H355.653V73.0984C355.653 69.7511 354.856 67.3143 353.264 65.7881ZM385.245 92.4797H389.545V58.3477H401.06V54.4454H373.68V58.3477H385.245V92.4797ZM437.416 81.4232C438.137 79.0125 438.497 76.3416 438.497 73.4105C438.497 69.4389 437.852 65.9962 436.561 63.0825C435.287 60.1514 433.402 57.8794 430.904 56.2665C428.423 54.6536 425.364 53.8471 421.727 53.8471C417.922 53.8471 414.754 54.6622 412.223 56.2925C409.709 57.9228 407.832 60.2035 406.591 63.1345C405.351 66.0656 404.731 69.4736 404.731 73.3585C404.731 76.2896 405.074 78.9604 405.762 81.3712C406.466 83.7819 407.513 85.8545 408.904 87.5888C410.312 89.3232 412.072 90.6586 414.184 91.5952C416.313 92.5317 418.802 93 421.652 93C424.417 93 426.848 92.5317 428.943 91.5952C431.038 90.6586 432.79 89.3319 434.198 87.6148C435.622 85.8805 436.695 83.8166 437.416 81.4232ZM470.504 92.4797H475.431V54.4454H471.409V76.4803C471.409 77.5903 471.425 78.7957 471.459 80.0964C471.509 81.3799 471.56 82.5852 471.61 83.7126C471.66 84.8225 471.702 85.681 471.736 86.2881H471.56L451.596 54.4454H446.694V92.4797H450.666V70.6269C450.666 69.3608 450.641 68.1208 450.591 66.9067C450.557 65.6753 450.507 64.522 450.44 63.4467C450.373 62.3541 450.314 61.3828 450.264 60.533H450.465L470.504 92.4797ZM509.223 89.2798C508.502 89.4012 507.798 89.4619 507.111 89.4619C505.787 89.4619 504.722 89.0197 503.918 88.1352C503.13 87.2506 502.736 85.9152 502.736 84.1288V67.349H510.807V63.967H502.736V57.3591H500.222L498.563 63.5508L494.615 65.2418V67.349H498.537V84.2589C498.537 86.4962 498.889 88.2479 499.593 89.514C500.314 90.78 501.27 91.6819 502.46 92.2195C503.65 92.7398 504.974 93 506.432 93C507.253 93 508.092 92.922 508.946 92.7659C509.818 92.6098 510.497 92.419 510.983 92.1935V88.8376C510.53 89.011 509.944 89.1584 509.223 89.2798ZM530.82 63.5508C530.217 63.4814 529.639 63.4467 529.086 63.4467C527.778 63.4467 526.588 63.7069 525.515 64.2272C524.459 64.7475 523.529 65.4499 522.724 66.3344C521.92 67.2016 521.233 68.1641 520.663 69.2221H520.487L520.034 63.967H516.565V92.4797H520.763V77.1827C520.763 75.7085 520.973 74.3731 521.392 73.1764C521.811 71.9624 522.389 70.9304 523.127 70.0806C523.864 69.2134 524.719 68.5544 525.691 68.1034C526.68 67.6351 527.728 67.401 528.834 67.401C529.32 67.401 529.84 67.4357 530.393 67.5051C530.946 67.5744 531.449 67.6698 531.902 67.7912L532.43 63.7849C531.96 63.6808 531.424 63.6028 530.82 63.5508ZM555.259 65.7881C553.667 64.2618 551.228 63.4987 547.942 63.4987C546.166 63.4987 544.473 63.7329 542.864 64.2011C541.255 64.6694 539.83 65.2331 538.589 65.8921L539.872 69.1701C541.045 68.5804 542.285 68.0687 543.593 67.6352C544.9 67.2016 546.275 66.9848 547.716 66.9848C549.577 66.9848 551.018 67.4791 552.041 68.4676C553.063 69.4562 553.574 71.1819 553.574 73.6447V75.3877L548.822 75.5958C544.364 75.7346 541.045 76.5671 538.866 78.0933C536.687 79.6195 535.597 81.8048 535.597 84.6491C535.597 86.5395 535.966 88.1005 536.704 89.3319C537.458 90.5632 538.48 91.4824 539.771 92.0895C541.079 92.6965 542.57 93 544.247 93C545.839 93 547.18 92.8266 548.269 92.4797C549.376 92.1155 550.348 91.5865 551.186 90.8928C552.024 90.1817 552.828 89.3058 553.599 88.2652H553.801L554.605 92.4797H557.647V73.0984C557.647 69.7511 556.851 67.3143 555.259 65.7881ZM586.712 65.9442C585.036 64.2792 582.564 63.4467 579.295 63.4467C578.055 63.4467 576.873 63.6288 575.75 63.993C574.627 64.3399 573.613 64.8602 572.708 65.5539C571.803 66.2303 571.057 67.0715 570.47 68.0774H570.244L569.615 63.967H566.246V92.4797H570.42V77.547C570.42 74.1476 571.04 71.5548 572.28 69.7684C573.521 67.982 575.666 67.0888 578.717 67.0888C580.879 67.0888 582.48 67.6785 583.519 68.8579C584.575 70.0372 585.103 71.8149 585.103 74.191V92.4797H589.226V73.9048C589.226 70.2453 588.388 67.5918 586.712 65.9442ZM614.319 89.2798C615.207 88.0311 615.651 86.4962 615.651 84.6751C615.651 83.1142 615.308 81.8395 614.62 80.8509C613.95 79.845 612.986 78.9951 611.729 78.3014C610.472 77.5903 608.98 76.9052 607.254 76.2462C605.527 75.5698 604.136 74.9801 603.08 74.4772C602.024 73.9742 601.253 73.4365 600.767 72.8642C600.298 72.2919 600.063 71.5634 600.063 70.6789C600.063 69.5343 600.574 68.6324 601.597 67.9734C602.636 67.3143 604.119 66.9848 606.047 66.9848C607.388 66.9848 608.703 67.1582 609.994 67.5051C611.285 67.8519 612.5 68.2769 613.64 68.7798L615.048 65.3198C613.791 64.7475 612.433 64.2965 610.975 63.967C609.533 63.6201 607.983 63.4467 606.323 63.4467C603.256 63.4467 600.775 64.0971 598.881 65.3978C597.004 66.6813 596.065 68.5283 596.065 70.9391C596.065 72.5173 596.409 73.8008 597.096 74.7893C597.8 75.7779 598.789 76.6191 600.063 77.3128C601.354 77.9892 602.879 78.6743 604.639 79.368C606.416 80.0444 607.807 80.6688 608.812 81.2411C609.818 81.7961 610.531 82.3771 610.95 82.9841C611.385 83.5738 611.603 84.2589 611.603 85.0393C611.603 86.4095 611.067 87.4934 609.994 88.2912C608.921 89.089 607.195 89.4879 604.815 89.4879C603.189 89.4879 601.597 89.2538 600.038 88.7855C598.479 88.3173 597.138 87.797 596.015 87.2246V91.2049C597.071 91.7773 598.303 92.2195 599.711 92.5317C601.119 92.8439 602.787 93 604.714 93C606.977 93 608.921 92.6878 610.547 92.0635C612.19 91.4391 613.447 90.5112 614.319 89.2798ZM639.989 65.7881C638.397 64.2618 635.958 63.4987 632.673 63.4987C630.896 63.4987 629.203 63.7329 627.594 64.2011C625.985 64.6694 624.56 65.2331 623.32 65.8921L624.602 69.1701C625.775 68.5804 627.016 68.0687 628.323 67.6352C629.63 67.2016 631.005 66.9848 632.446 66.9848C634.307 66.9848 635.748 67.4791 636.771 68.4676C637.793 69.4562 638.305 71.1819 638.305 73.6447V75.3877L633.553 75.5958C629.094 75.7346 625.775 76.5671 623.596 78.0933C621.417 79.6195 620.328 81.8048 620.328 84.6491C620.328 86.5395 620.696 88.1005 621.434 89.3319C622.188 90.5632 623.211 91.4824 624.501 92.0895C625.809 92.6965 627.301 93 628.977 93C630.569 93 631.91 92.8266 633 92.4797C634.106 92.1155 635.078 91.5865 635.916 90.8928C636.754 90.1817 637.559 89.3058 638.33 88.2652H638.531L639.335 92.4797H642.378V73.0984C642.378 69.7511 641.581 67.3143 639.989 65.7881ZM655.452 91.4131C657.346 92.471 659.533 93 662.014 93C663.573 93 664.914 92.8699 666.037 92.6098C667.177 92.3496 668.207 91.9767 669.129 91.4911V87.6409C668.174 88.0744 667.11 88.456 665.936 88.7855C664.763 89.0977 663.447 89.2538 661.989 89.2538C660.162 89.2538 658.637 88.8289 657.413 87.9791C656.206 87.1119 655.293 85.8632 654.672 84.2329C654.069 82.6026 653.767 80.6341 653.767 78.3274C653.767 75.9167 654.077 73.8875 654.698 72.2398C655.334 70.5922 656.282 69.3435 657.539 68.4937C658.813 67.6438 660.405 67.2189 662.316 67.2189C663.271 67.2189 664.294 67.3577 665.383 67.6352C666.489 67.9127 667.462 68.2248 668.3 68.5717L669.557 64.9556C668.735 64.522 667.679 64.1665 666.389 63.889C665.115 63.5941 663.791 63.4467 662.416 63.4467C659.919 63.4467 657.689 63.9757 655.728 65.0336C653.767 66.0916 652.225 67.7219 651.102 69.9245C649.996 72.1098 649.443 74.9281 649.443 78.3794C649.443 81.6747 649.971 84.4063 651.027 86.5742C652.083 88.7422 653.558 90.3551 655.452 91.4131ZM686.679 89.2798C685.958 89.4012 685.254 89.4619 684.567 89.4619C683.243 89.4619 682.178 89.0197 681.374 88.1352C680.586 87.2506 680.192 85.9152 680.192 84.1288V67.349H688.263V63.967H680.192V57.3591H677.678L676.018 63.5508L672.071 65.2418V67.349H675.993V84.2589C675.993 86.4962 676.345 88.2479 677.049 89.514C677.77 90.78 678.725 91.6819 679.915 92.2195C681.106 92.7398 682.43 93 683.888 93C684.709 93 685.547 92.922 686.402 92.7659C687.274 92.6098 687.953 92.419 688.439 92.1935V88.8376C687.986 89.011 687.4 89.1584 686.679 89.2798ZM698.194 92.4797V63.967H694.02V92.4797H698.194ZM697.917 54.0032C697.431 53.5349 696.845 53.3008 696.158 53.3008C695.437 53.3008 694.833 53.5349 694.347 54.0032C693.878 54.4541 693.643 55.1652 693.643 56.1364C693.643 57.0903 693.878 57.8014 694.347 58.2697C694.833 58.7379 695.437 58.9721 696.158 58.9721C696.845 58.9721 697.431 58.7379 697.917 58.2697C698.42 57.8014 698.672 57.0903 698.672 56.1364C698.672 55.1652 698.42 54.4541 697.917 54.0032ZM729.924 84.441C730.511 82.6026 730.804 80.5127 730.804 78.1713C730.804 75.0668 730.276 72.422 729.22 70.2367C728.181 68.034 726.714 66.3517 724.82 65.1897C722.943 64.0277 720.747 63.4467 718.233 63.4467C715.601 63.4467 713.33 64.0277 711.419 65.1897C709.525 66.3344 708.067 68.008 707.044 70.2107C706.022 72.3959 705.51 75.0495 705.51 78.1713C705.51 80.5127 705.812 82.6026 706.416 84.441C707.036 86.2794 707.899 87.8316 709.005 89.0977C710.128 90.3638 711.453 91.335 712.978 92.0114C714.52 92.6705 716.213 93 718.057 93C720.035 93 721.803 92.6705 723.362 92.0114C724.937 91.335 726.278 90.3638 727.385 89.0977C728.491 87.8316 729.337 86.2794 729.924 84.441ZM758.486 65.9442C756.81 64.2792 754.337 63.4467 751.069 63.4467C749.828 63.4467 748.647 63.6288 747.524 63.993C746.401 64.3399 745.387 64.8602 744.481 65.5539C743.576 66.2303 742.83 67.0715 742.244 68.0774H742.017L741.389 63.967H738.02V92.4797H742.193V77.547C742.193 74.1476 742.814 71.5548 744.054 69.7684C745.294 67.982 747.44 67.0888 750.49 67.0888C752.653 67.0888 754.253 67.6785 755.293 68.8579C756.349 70.0372 756.877 71.8149 756.877 74.191V92.4797H761V73.9048C761 70.2453 760.162 67.5918 758.486 65.9442Z" fill="#8C8C8C"/>
<path fill-rule="evenodd" clip-rule="evenodd" d="M96.2232 97.5825L123.116 50.4239C125.188 46.7899 122.569 42.2682 118.392 42.2682H95.1266V98.9507C95.5466 98.5725 95.9187 98.1164 96.2232 97.5825ZM59.8844 50.4239L86.7768 97.5825C87.0813 98.1164 87.4534 98.5725 87.8734 98.9507V42.2682H64.6076C60.4307 42.2682 57.8121 46.7899 59.8844 50.4239ZM253.574 78.4315L249.375 78.6136C245.939 78.7523 243.517 79.3333 242.109 80.3566C240.701 81.3799 239.997 82.828 239.997 84.7011C239.997 86.3314 240.475 87.5368 241.43 88.3173C242.386 89.0977 243.651 89.4879 245.227 89.4879C247.674 89.4879 249.677 88.7855 251.236 87.3807C252.795 85.9759 253.574 83.8687 253.574 81.059V78.4315ZM303.909 66.9848C301.68 66.9848 299.903 67.7392 298.579 69.2481C297.255 70.757 296.467 72.8642 296.216 75.5698H310.798C310.782 73.8701 310.522 72.3786 310.019 71.0952C309.533 69.7944 308.787 68.7885 307.781 68.0774C306.776 67.349 305.485 66.9848 303.909 66.9848ZM347.33 78.6136L351.529 78.4315V81.059C351.529 83.8687 350.75 85.9759 349.191 87.3807C347.632 88.7855 345.629 89.4879 343.182 89.4879C341.606 89.4879 340.341 89.0977 339.385 88.3173C338.43 87.5368 337.952 86.3314 337.952 84.7011C337.952 82.828 338.656 81.3799 340.064 80.3566C341.472 79.3333 343.894 78.7523 347.33 78.6136ZM410.564 81.7874C409.675 79.4287 409.231 76.6364 409.231 73.4105C409.231 70.1673 409.675 67.3837 410.564 65.0596C411.469 62.7183 412.843 60.9146 414.687 59.6485C416.531 58.3824 418.878 57.7494 421.727 57.7494C425.934 57.7494 429.027 59.1368 431.005 61.9118C432.999 64.6694 433.997 68.5023 433.997 73.4105C433.997 76.6364 433.561 79.4287 432.689 81.7874C431.818 84.1462 430.468 85.9672 428.641 87.2506C426.831 88.5341 424.501 89.1758 421.652 89.1758C418.819 89.1758 416.481 88.5341 414.637 87.2506C412.81 85.9672 411.452 84.1462 410.564 81.7874ZM553.524 78.4315L549.325 78.6136C545.889 78.7523 543.467 79.3333 542.059 80.3566C540.651 81.3799 539.947 82.828 539.947 84.7011C539.947 86.3314 540.425 87.5368 541.38 88.3173C542.336 89.0977 543.601 89.4879 545.177 89.4879C547.624 89.4879 549.627 88.7855 551.186 87.3807C552.745 85.9759 553.524 83.8687 553.524 81.059V78.4315ZM634.056 78.6136L638.254 78.4315V81.059C638.254 83.8687 637.475 85.9759 635.916 87.3807C634.357 88.7855 632.354 89.4879 629.907 89.4879C628.331 89.4879 627.066 89.0977 626.11 88.3173C625.155 87.5368 624.677 86.3314 624.677 84.7011C624.677 82.828 625.381 81.3799 626.789 80.3566C628.197 79.3333 630.619 78.7523 634.056 78.6136ZM710.715 84.1288C710.128 82.4465 709.835 80.4607 709.835 78.1713C709.835 74.7026 710.497 71.9884 711.821 70.0286C713.162 68.0687 715.266 67.0888 718.132 67.0888C720.076 67.0888 721.66 67.5398 722.884 68.4416C724.108 69.3435 725.013 70.6269 725.599 72.2919C726.186 73.9395 726.479 75.8993 726.479 78.1713C726.479 80.4607 726.186 82.4465 725.599 84.1288C725.013 85.8111 724.099 87.1119 722.859 88.0311C721.635 88.9503 720.068 89.4099 718.157 89.4099C716.23 89.4099 714.654 88.9503 713.43 88.0311C712.207 87.1119 711.302 85.8111 710.715 84.1288Z" fill="#8C8C8C"/>
</svg>
