<svg width="85" height="85" viewBox="0 0 85 85" fill="none" xmlns="http://www.w3.org/2000/svg">
<path fill-rule="evenodd" clip-rule="evenodd" d="M42.0758 84.7616C65.2718 84.7616 84.0758 65.9576 84.0758 42.7616C84.0758 19.5656 65.2718 0.761597 42.0758 0.761597C18.8798 0.761597 0.0758057 19.5656 0.0758057 42.7616C0.0758057 65.9576 18.8798 84.7616 42.0758 84.7616ZM33.896 59.7318L34.5538 49.7973C34.5967 49.1494 34.8907 48.5439 35.3734 48.1096L54.7704 30.6567C55.224 30.2487 54.6876 29.5394 54.1714 29.8646L28.7836 45.8608L17.2433 42.237C16.1141 41.8824 16.0692 40.301 17.1764 39.8828L60.5442 23.5066C61.6423 23.0919 62.7681 24.0465 62.5385 25.1977L55.5347 60.3095C55.2115 61.9299 53.3065 62.6562 51.9865 61.6623L41.3707 53.6685C41.2744 53.596 41.1399 53.6028 41.0514 53.6848L34.314 59.931C34.1487 60.0842 33.8811 59.9567 33.896 59.7318Z" fill="#98FFAF"/>
</svg>
