<svg width="435" height="257" viewBox="0 0 435 257" fill="none" xmlns="http://www.w3.org/2000/svg">
<path fill-rule="evenodd" clip-rule="evenodd" d="M0.442383 0.505859L0.442383 60.1235C79.4624 71.4696 79.4624 185.542 0.442383 196.888L0.442383 256.506H434.231V196.888C355.211 185.542 355.211 71.4696 434.231 60.1235V0.505859L0.442383 0.505859ZM314.854 221.865V211.009C314.854 202.016 307.564 194.726 298.571 194.726C289.578 194.726 282.287 202.016 282.287 211.009V221.865C282.287 230.858 289.578 238.149 298.571 238.149C307.564 238.149 314.854 230.858 314.854 221.865ZM314.854 152.388V163.244C314.854 172.237 307.564 179.528 298.571 179.528C289.578 179.528 282.287 172.237 282.287 163.244V152.388C282.287 143.395 289.578 136.105 298.571 136.105C307.564 136.105 314.854 143.395 314.854 152.388ZM314.854 104.623V93.7676C314.854 84.7744 307.564 77.484 298.571 77.484C289.578 77.484 282.287 84.7744 282.287 93.7676V104.623C282.287 113.616 289.578 120.907 298.571 120.907C307.564 120.907 314.854 113.616 314.854 104.623ZM314.854 35.1466V46.0024C314.854 54.9955 307.564 62.286 298.571 62.286C289.578 62.286 282.287 54.9955 282.287 46.0024V35.1466C282.287 26.1535 289.578 18.8631 298.571 18.8631C307.564 18.8631 314.854 26.1535 314.854 35.1466ZM146.12 174.878L124.321 135.915L136.287 123.948L164.81 177.387L150.221 191.976L112.544 173.379L131.096 211.1L116.562 225.635L63.0686 197.167L75.0896 185.146L114.117 206.981L93.7221 166.513L105.688 154.547L146.12 174.878ZM188.247 150.343C193.711 148.449 198.866 145.08 203.71 140.235C208.592 135.353 211.961 130.199 213.819 124.771C215.677 119.344 216.023 114.007 214.857 108.762C213.691 103.516 210.978 98.7624 206.716 94.5004C202.454 90.2385 197.7 87.5246 192.454 86.359C187.209 85.1933 181.872 85.5394 176.445 87.3971C171.017 89.2549 165.863 92.6244 160.981 97.5057C156.137 102.35 152.767 107.505 150.873 112.969C149.015 118.397 148.669 123.733 149.835 128.979C151.037 134.188 153.769 138.923 158.031 143.185C162.293 147.447 167.028 150.179 172.237 151.381C177.483 152.547 182.819 152.201 188.247 150.343ZM193.602 130.126C196.261 127.467 198.101 124.717 199.121 121.875C200.14 119.034 200.323 116.266 199.667 113.57C199.048 110.838 197.572 108.306 195.241 105.975C192.91 103.644 190.378 102.168 187.646 101.549C184.95 100.893 182.182 101.076 179.341 102.095C176.499 103.115 173.749 104.955 171.09 107.614C168.467 110.237 166.646 112.969 165.626 115.81C164.606 118.652 164.405 121.438 165.025 124.17C165.644 126.902 167.119 129.434 169.451 131.765C171.782 134.097 174.314 135.572 177.046 136.191C179.778 136.811 182.564 136.61 185.406 135.59C188.247 134.57 190.979 132.749 193.602 130.126ZM244.081 49.7036L220.149 73.6362L212.936 66.4237L237.907 41.4528L228.345 31.8907L192.063 68.1721L233.044 109.153L244.354 97.8421L229.711 83.1984L253.643 59.2657L244.081 49.7036Z" fill="#98FFAF"/>
</svg>
