<svg width="360" height="300" viewBox="0 0 360 300" fill="none" xmlns="http://www.w3.org/2000/svg">
<path fill-rule="evenodd" clip-rule="evenodd" d="M40.1786 84.7934L30.8218 118.982C74.4061 137.949 56.5027 203.366 9.35684 197.413L0 231.602L249.037 300L258.394 265.811C214.809 246.845 232.713 181.428 279.859 187.381L289.215 153.192L40.1786 84.7934ZM185.94 261.312L187.644 255.086C189.055 249.929 186.014 244.599 180.851 243.181C175.688 241.763 170.358 244.794 168.947 249.951L167.243 256.177C165.832 261.334 168.873 266.664 174.036 268.082C179.199 269.5 184.528 266.469 185.94 261.312ZM196.844 221.469L195.14 227.694C193.729 232.852 188.399 235.883 183.236 234.465C178.073 233.047 175.032 227.717 176.443 222.559L178.147 216.334C179.559 211.176 184.888 208.145 190.051 209.563C195.214 210.981 198.255 216.312 196.844 221.469ZM204.341 194.077L206.044 187.852C207.456 182.694 204.415 177.364 199.252 175.946C194.089 174.528 188.759 177.559 187.348 182.716L185.644 188.942C184.232 194.099 187.274 199.43 192.437 200.848C197.599 202.266 202.929 199.234 204.341 194.077ZM215.245 154.234L213.541 160.46C212.129 165.617 206.8 168.648 201.637 167.23C196.474 165.812 193.433 160.482 194.844 155.325L196.548 149.099C197.959 143.942 203.289 140.911 208.452 142.329C213.615 143.747 216.656 149.077 215.245 154.234ZM96.4444 207.76L90.0447 181.979L98.7926 177.003L106.78 212.146L96.115 218.212L77.4034 201.607L82.1343 226.164L71.509 232.207L45.2666 207.447L54.0545 202.449L73.033 221.125L67.6757 194.702L76.4236 189.726L96.4444 207.76ZM124.48 200.333C127.914 200.108 131.402 198.989 134.944 196.974C138.512 194.945 141.256 192.52 143.174 189.7C145.093 186.881 146.129 183.875 146.283 180.683C146.437 177.491 145.625 174.337 143.847 171.221C142.069 168.105 139.766 165.799 136.938 164.303C134.109 162.808 130.991 162.165 127.584 162.374C124.176 162.584 120.688 163.704 117.12 165.733C113.578 167.748 110.834 170.172 108.889 173.007C106.971 175.827 105.935 178.832 105.781 182.024C105.653 185.201 106.478 188.348 108.256 191.464C110.034 194.58 112.324 196.893 115.126 198.404C117.954 199.9 121.072 200.543 124.48 200.333ZM130.727 189.583C132.671 188.478 134.159 187.191 135.19 185.722C136.222 184.253 136.761 182.695 136.808 181.045C136.881 179.381 136.431 177.696 135.459 175.992C134.486 174.287 133.264 173.042 131.793 172.256C130.348 171.455 128.731 171.123 126.939 171.26C125.148 171.397 123.28 172.018 121.336 173.124C119.419 174.214 117.945 175.494 116.913 176.963C115.882 178.431 115.329 179.998 115.256 181.662C115.183 183.326 115.632 185.011 116.605 186.715C117.577 188.42 118.799 189.665 120.27 190.451C121.742 191.237 123.373 191.561 125.164 191.425C126.956 191.288 128.81 190.674 130.727 189.583ZM172.329 151.423L154.834 161.374L151.825 156.101L170.08 145.718L166.091 138.727L139.568 153.812L156.663 183.775L164.931 179.072L158.822 168.365L176.318 158.414L172.329 151.423Z" fill="#1D4225"/>
<path fill-rule="evenodd" clip-rule="evenodd" d="M137.12 0L119.249 30.5979C156.448 60.2184 122.254 118.765 78.2524 100.791L60.3813 131.388L283.261 262.026L301.132 231.428C263.933 201.808 298.127 143.261 342.129 161.235L360 130.637L137.12 0ZM232.309 208.296L235.563 202.725C238.259 198.109 236.699 192.172 232.078 189.463C227.458 186.755 221.526 188.301 218.831 192.917L215.576 198.488C212.881 203.104 214.441 209.041 219.062 211.75C223.682 214.458 229.614 212.912 232.309 208.296ZM253.136 172.638L249.882 178.21C247.186 182.825 241.255 184.372 236.634 181.663C232.013 178.955 230.453 173.018 233.149 168.402L236.403 162.83C239.099 158.215 245.03 156.669 249.651 159.377C254.271 162.085 255.832 168.023 253.136 172.638ZM267.454 148.123L270.708 142.552C273.404 137.936 271.844 131.999 267.223 129.291C262.602 126.582 256.671 128.128 253.975 132.744L250.721 138.316C248.025 142.931 249.586 148.869 254.206 151.577C258.827 154.285 264.758 152.739 267.454 148.123ZM288.28 112.465L285.026 118.037C282.331 122.653 276.399 124.199 271.779 121.49C267.158 118.782 265.598 112.845 268.293 108.229L271.548 102.658C274.243 98.0421 280.175 96.4959 284.795 99.2043C289.416 101.913 290.976 107.85 288.28 112.465ZM159.699 133.365L160.178 106.803L169.914 104.265L168.55 140.282L156.68 143.376L142.897 122.485L141.122 147.432L129.297 150.514L110.346 119.794L120.126 117.244L133.633 140.204L135.284 113.293L145.02 110.755L159.699 133.365ZM188.698 133.46C192.074 134.134 195.732 133.956 199.674 132.929C203.645 131.894 206.921 130.263 209.503 128.037C212.084 125.811 213.862 123.176 214.835 120.133C215.809 117.089 215.839 113.832 214.927 110.361C214.015 106.891 212.386 104.066 210.04 101.888C207.694 99.7102 204.849 98.2807 201.503 97.5996C198.158 96.9185 194.499 97.0956 190.528 98.1308C186.586 99.1583 183.31 100.789 180.699 103.023C178.117 105.249 176.34 107.884 175.366 110.927C174.423 113.963 174.407 117.216 175.319 120.687C176.231 124.158 177.845 126.986 180.161 129.172C182.507 131.35 185.353 132.779 188.698 133.46ZM197.51 124.697C199.673 124.133 201.443 123.275 202.819 122.124C204.194 120.973 205.118 119.607 205.589 118.026C206.09 116.437 206.091 114.694 205.592 112.795C205.093 110.896 204.234 109.377 203.016 108.236C201.828 107.088 200.351 106.348 198.585 106.015C196.819 105.683 194.855 105.799 192.692 106.363C190.558 106.919 188.803 107.773 187.427 108.924C186.052 110.075 185.113 111.445 184.612 113.034C184.112 114.622 184.111 116.366 184.61 118.265C185.109 120.163 185.967 121.683 187.185 122.824C188.403 123.964 189.895 124.701 191.661 125.033C193.426 125.365 195.376 125.253 197.51 124.697ZM247.554 98.623L228.083 103.699L226.539 97.8248L246.855 92.5289L244.808 84.7416L215.291 92.4363L224.062 125.81L233.264 123.412L230.13 111.486L249.6 106.41L247.554 98.623Z" fill="#98FFAF"/>
</svg>
