<svg width="82" height="49" viewBox="0 0 82 49" fill="none" xmlns="http://www.w3.org/2000/svg">
<path fill-rule="evenodd" clip-rule="evenodd" d="M0.964844 0.919922L0.964844 12.042C15.7066 14.1587 15.7066 35.4398 0.964844 37.5565L0.964844 48.6786L81.8914 48.6786V37.5565C67.1496 35.4398 67.1496 14.1587 81.8914 12.042V0.919922L0.964844 0.919922ZM59.6208 42.2161V40.1909C59.6208 38.5132 58.2607 37.1531 56.5829 37.1531C54.9052 37.1531 53.5451 38.5132 53.5451 40.1909V42.2161C53.5451 43.8939 54.9052 45.254 56.5829 45.254C58.2607 45.254 59.6208 43.8939 59.6208 42.2161ZM59.6208 29.2548V31.28C59.6208 32.9577 58.2607 34.3178 56.5829 34.3178C54.9052 34.3178 53.5451 32.9577 53.5451 31.28V29.2548C53.5451 27.577 54.9052 26.2169 56.5829 26.2169C58.2607 26.2169 59.6208 27.577 59.6208 29.2548ZM59.6208 20.3438V18.3186C59.6208 16.6408 58.2607 15.2808 56.5829 15.2808C54.9052 15.2808 53.5451 16.6408 53.5451 18.3186V20.3438C53.5451 22.0215 54.9052 23.3816 56.5829 23.3816C58.2607 23.3816 59.6208 22.0215 59.6208 20.3438ZM59.6208 7.38242V9.40763C59.6208 11.0854 58.2607 12.4455 56.5829 12.4455C54.9052 12.4455 53.5451 11.0854 53.5451 9.40763V7.38242C53.5451 5.70467 54.9052 4.34459 56.5829 4.34459C58.2607 4.34459 59.6208 5.70467 59.6208 7.38242ZM28.1421 33.4503L24.0753 26.1814L26.3077 23.949L31.6288 33.9184L28.9071 36.6401L21.8782 33.1708L25.3393 40.2079L22.6278 42.9194L12.6482 37.6085L14.8908 35.3659L22.1717 39.4394L18.3669 31.8899L20.5993 29.6575L28.1421 33.4503ZM36.0012 28.8732C37.0206 28.5198 37.9822 27.8912 38.886 26.9874C39.7966 26.0767 40.4252 25.1152 40.7718 24.1026C41.1184 23.09 41.183 22.0944 40.9655 21.1158C40.748 20.1373 40.2418 19.2504 39.4467 18.4553C38.6516 17.6602 37.7647 17.1539 36.7861 16.9365C35.8075 16.719 34.812 16.7836 33.7994 17.1301C32.7868 17.4767 31.8252 18.1053 30.9146 19.016C30.0107 19.9198 29.3821 20.8814 29.0288 21.9008C28.6822 22.9133 28.6176 23.9089 28.8351 24.8875C29.0593 25.8593 29.569 26.7427 30.3641 27.5378C31.1592 28.3329 32.0427 28.8426 33.0145 29.0669C33.9931 29.2843 34.9886 29.2198 36.0012 28.8732ZM37.0002 25.1016C37.4963 24.6055 37.8395 24.0924 38.0297 23.5623C38.22 23.0323 38.254 22.5158 38.1317 22.0129C38.0161 21.5032 37.7409 21.0309 37.306 20.596C36.8711 20.161 36.3988 19.8858 35.8891 19.7703C35.3862 19.648 34.8697 19.6819 34.3396 19.8722C33.8096 20.0625 33.2965 20.4057 32.8004 20.9018C32.3111 21.3911 31.9713 21.9008 31.781 22.4308C31.5908 22.9609 31.5534 23.4808 31.6689 23.9905C31.7844 24.5001 32.0597 24.9724 32.4946 25.4074C32.9295 25.8423 33.4018 26.1175 33.9115 26.2331C34.4212 26.3486 34.9411 26.3112 35.4711 26.1209C36.0012 25.9306 36.5109 25.5909 37.0002 25.1016ZM46.4175 10.0981L41.9527 14.5629L40.6071 13.2174L45.2656 8.55889L43.4817 6.775L36.7132 13.5436L44.3584 21.1888L46.4685 19.0787L43.7366 16.3468L48.2014 11.882L46.4175 10.0981Z" fill="#15202B"/>
</svg>
