<svg width="135" height="137" viewBox="0 0 135 137" fill="none" xmlns="http://www.w3.org/2000/svg">
<path d="M110.599 21.3416C90.5499 3.35406 60.4499 -0.624555 35.8566 13.5744C5.24591 31.2475 -5.2421 70.3893 12.431 101C15.9052 107.017 20.209 112.257 25.1145 116.658C40.1919 130.186 60.9535 135.79 80.7827 131.699M110.599 21.3416L90.7517 16.7191M110.599 21.3416L95.3752 3.28452M123.782 37.866C127.256 43.8835 129.642 50.2306 131.001 56.6795M115.692 111.544C111.255 116.532 105.955 120.905 99.8566 124.426M131.507 75.7234C130.801 82.3595 129.063 88.8547 126.361 94.957M63.5265 26.2278V71.5L86.9835 94.957" stroke="#98FFAF" stroke-width="6" stroke-linecap="round"/>
</svg>
