<svg width="34" height="34" viewBox="0 0 34 34" fill="none" xmlns="http://www.w3.org/2000/svg">
<path d="M27.7591 5.45419C22.7335 1.01716 15.1886 0.0357363 9.02392 3.53824C1.35092 7.89772 -1.27804 17.553 3.15196 25.1038C4.02281 26.5882 5.10162 27.8807 6.33126 28.9663C10.1106 32.3031 15.3148 33.6856 20.2853 32.6764M27.7591 5.45419L22.7841 4.31395M27.7591 5.45419L23.9431 1M31.0637 9.53034C31.9345 11.0147 32.5326 12.5804 32.8732 14.1711M29.0358 27.7047C27.9235 28.9351 26.5951 30.0138 25.0664 30.8823M33 18.8687C32.8229 20.5057 32.3873 22.1079 31.7102 23.6132M15.9598 6.6595V17.8269L21.8396 23.6132" stroke="#15202B" stroke-width="2" stroke-linecap="round"/>
</svg>
