<svg width="257" height="257" viewBox="0 0 257 257" fill="none" xmlns="http://www.w3.org/2000/svg">
<path fill-rule="evenodd" clip-rule="evenodd" d="M128.498 256.643C199.19 256.643 256.498 199.335 256.498 128.643C256.498 57.9501 199.19 0.642578 128.498 0.642578C57.8056 0.642578 0.498047 57.9501 0.498047 128.643C0.498047 199.335 57.8056 256.643 128.498 256.643ZM197.607 95.5045L136.623 200.754C133.001 207.005 123.995 207.005 120.373 200.754L59.3888 95.5045C52.1115 82.9451 61.1501 67.2026 75.6384 67.2026H181.358C195.846 67.2026 204.885 82.9451 197.607 95.5045ZM136.656 175.345L183.105 93.8551C186.685 87.5755 182.162 79.7621 174.947 79.7621H134.762V177.709C135.488 177.056 136.13 176.268 136.656 175.345ZM73.8907 93.8551L120.34 175.345C120.866 176.268 121.509 177.056 122.234 177.709V79.7621H82.0488C74.8342 79.7621 70.3113 87.5755 73.8907 93.8551Z" fill="#98FFAF"/>
</svg>
