<svg width="129" height="129" viewBox="0 0 129 129" fill="none" xmlns="http://www.w3.org/2000/svg">
<path fill-rule="evenodd" clip-rule="evenodd" d="M64.7554 128.169C100.102 128.169 128.755 99.515 128.755 64.1688C128.755 28.8226 100.102 0.168823 64.7554 0.168823C29.4091 0.168823 0.755371 28.8226 0.755371 64.1688C0.755371 99.515 29.4091 128.169 64.7554 128.169ZM95.9218 32.2065H85.1313L66.9104 53.0304L50.7718 32.2065H29.1972L55.2429 66.3647L29.1972 96.1312H39.9877L60.2125 73.1312L77.9398 96.1312H100.313L71.9302 59.7396L95.9218 32.2065ZM87.0785 89.7813H81.4119L64.5163 68.2125L67.683 64.5935L87.0785 89.7813ZM41.1611 37.8447H47.4768L62.7133 57.8271L59.4965 61.5034L41.1611 37.8447Z" fill="#98FFAF"/>
</svg>
