<svg width="301" height="301" viewBox="0 0 301 301" fill="none" xmlns="http://www.w3.org/2000/svg">
<path fill-rule="evenodd" clip-rule="evenodd" d="M150.238 300.834C233.081 300.834 300.238 233.677 300.238 150.834C300.238 67.9918 233.081 0.834473 150.238 0.834473C67.3951 0.834473 0.237854 67.9918 0.237854 150.834C0.237854 233.677 67.3951 300.834 150.238 300.834ZM150.238 126.612C144.631 126.612 139.159 126.74 133.879 126.984V108.151H89.8699V77.5239H210.942V108.151H166.934V126.999C161.55 126.745 155.965 126.612 150.238 126.612ZM166.934 161.467C202.924 159.77 229.917 152.699 229.917 144.233C229.917 135.768 202.924 128.696 166.934 126.999V129.533C161.576 129.288 155.986 129.159 150.238 129.159C144.611 129.159 139.135 129.283 133.879 129.517V126.984C97.7214 128.652 70.56 135.741 70.56 144.233C70.56 152.725 97.7214 159.814 133.879 161.483V223.948H166.934V161.467ZM133.879 129.517C102.04 130.94 78.3172 136.422 78.3172 142.968C78.3172 150.595 110.517 156.778 150.238 156.778C189.959 156.778 222.16 150.595 222.16 142.968C222.16 136.445 198.604 130.978 166.934 129.533V150.835H133.879V129.517Z" fill="#98FFAF"/>
</svg>
