<svg width="141" height="61" viewBox="0 0 141 61" fill="none" xmlns="http://www.w3.org/2000/svg">
<path d="M38.2738 32.6635C38.2738 34.0929 38.5618 35.3302 39.1378 36.3755C39.7138 37.4209 40.5351 38.2315 41.6018 38.8075C42.6898 39.3622 43.9805 39.6395 45.4738 39.6395C46.9885 39.6395 48.2791 39.3622 49.3458 38.8075C50.4125 38.2315 51.2338 37.4209 51.8098 36.3755C52.3858 35.3302 52.6738 34.0929 52.6738 32.6635V18.9675H56.8978V32.8235C56.8978 34.9355 56.4178 36.7915 55.4578 38.3915C54.4978 39.9702 53.1645 41.2075 51.4578 42.1035C49.7511 42.9782 47.7565 43.4155 45.4738 43.4155C43.2125 43.4155 41.2178 42.9782 39.4898 42.1035C37.7831 41.2075 36.4498 39.9702 35.4898 38.3915C34.5298 36.7915 34.0498 34.9355 34.0498 32.8235V18.9675H38.2738V32.6635Z" fill="white"/>
<path d="M60.4916 35.1595H64.7796C64.9076 36.1195 65.3022 36.9622 65.9636 37.6875C66.6462 38.4129 67.5422 38.9782 68.6516 39.3835C69.7609 39.7675 71.0409 39.9595 72.4916 39.9595C74.6462 39.9595 76.3529 39.6289 77.6116 38.9675C78.8702 38.2849 79.4996 37.3675 79.4996 36.2155C79.4996 35.2769 79.1369 34.5729 78.4116 34.1035C77.6862 33.6342 76.3742 33.2822 74.4756 33.0475L69.2916 32.3755C66.3902 31.9915 64.2782 31.2769 62.9556 30.2315C61.6542 29.1649 61.0036 27.6609 61.0036 25.7195C61.0036 24.2475 61.4409 22.9782 62.3156 21.9115C63.2116 20.8235 64.4702 19.9915 66.0916 19.4155C67.7129 18.8182 69.6116 18.5195 71.7876 18.5195C73.9422 18.5195 75.8516 18.8395 77.5156 19.4795C79.1796 20.1195 80.5022 21.0155 81.4836 22.1675C82.4862 23.2982 83.0302 24.6315 83.1156 26.1675H78.8276C78.7209 25.3142 78.3582 24.5782 77.7396 23.9595C77.1422 23.3409 76.3316 22.8609 75.3076 22.5195C74.2836 22.1569 73.0782 21.9755 71.6916 21.9755C69.7289 21.9755 68.1609 22.2955 66.9876 22.9355C65.8142 23.5755 65.2276 24.4502 65.2276 25.5595C65.2276 26.4129 65.5689 27.0742 66.2516 27.5435C66.9556 27.9915 68.1716 28.3329 69.8996 28.5675L75.1476 29.3035C77.3022 29.6022 78.9982 30.0075 80.2356 30.5195C81.4942 31.0102 82.3902 31.6822 82.9236 32.5355C83.4569 33.3675 83.7236 34.4449 83.7236 35.7675C83.7236 37.3035 83.2542 38.6475 82.3156 39.7995C81.3769 40.9515 80.0542 41.8475 78.3476 42.4875C76.6622 43.1062 74.6889 43.4155 72.4276 43.4155C70.1236 43.4155 68.0862 43.0742 66.3156 42.3915C64.5662 41.6875 63.1796 40.7169 62.1556 39.4795C61.1316 38.2422 60.5769 36.8022 60.4916 35.1595Z" fill="white"/>
<path d="M106.819 29.2075V32.7275H90.0511V29.2075H106.819ZM92.8351 30.9675L91.1391 41.6875L89.1231 39.3195H107.747V42.9675H86.8191L88.7391 30.9675L86.8191 18.9675H107.587V22.6155H89.1231L91.1391 20.2475L92.8351 30.9675Z" fill="white"/>
<path d="M30.6816 2.46753H110.682C126.422 2.46753 139.182 15.2274 139.182 30.9675C139.182 46.7076 126.422 59.4675 110.682 59.4675H30.6816C14.9415 59.4675 2.18164 46.7076 2.18164 30.9675C2.18164 15.2274 14.9415 2.46753 30.6816 2.46753Z" stroke="#98FFAF" stroke-width="3"/>
</svg>
