<svg width="84" height="84" viewBox="0 0 84 84" fill="none" xmlns="http://www.w3.org/2000/svg">
<path d="M0 0H84V84H0V0Z" fill="#111A22"/>
<path fill-rule="evenodd" clip-rule="evenodd" d="M14.1477 22.4517L55.254 11.4374C61.1297 9.86295 67.1712 13.357 68.7479 19.2416L54.0247 23.1867C45.6645 25.4268 40.7059 34.0302 42.9494 42.403L44.5099 48.2268C46.7534 56.5995 55.3493 61.571 63.7095 59.3309L78.4328 55.3859C80.0362 61.37 76.4922 67.5191 70.517 69.1201L29.5908 80.0863C21.2306 82.3264 12.6347 77.3549 10.3912 68.9821L3.07242 41.668C0.828952 33.2953 5.78753 24.6918 14.1477 22.4517ZM67.3651 23.7373L53.8586 27.3564C48.7447 28.7267 45.5944 33.8602 46.6829 39.0496L47.7598 44.1836L49.4746 49.4319C51.1225 54.4758 56.4209 57.3519 61.5387 55.9806L75.0357 52.3641C80.3558 50.9386 83.5112 45.4637 82.0836 40.1356L79.5831 30.8036C78.1554 25.4755 72.6853 22.3118 67.3651 23.7373ZM64.8799 39.7443C65.6975 42.7955 63.8905 45.9308 60.8438 46.7472C57.7972 47.5635 54.6646 45.7518 53.8471 42.7006C53.0295 39.6494 54.8365 36.5141 57.8831 35.6978C60.9298 34.8814 64.0623 36.6931 64.8799 39.7443Z" fill="#98FFAF"/>
</svg>
