<svg width="129" height="129" viewBox="0 0 129 129" fill="none" xmlns="http://www.w3.org/2000/svg">
<path fill-rule="evenodd" clip-rule="evenodd" d="M128.343 64.7831C128.343 100.129 99.6895 128.783 64.3433 128.783C28.997 128.783 0.343262 100.129 0.343262 64.7831C0.343262 29.4369 28.997 0.783081 64.3433 0.783081C99.6895 0.783081 128.343 29.4369 128.343 64.7831ZM47.9614 39.2946H84.3192C89.5162 39.2946 93.7292 43.5139 93.7292 48.7187H80.7067C73.3123 48.7187 67.3179 54.7221 67.3179 62.1277V67.2787C67.3179 74.6843 73.3123 80.6877 80.7067 80.6877H93.7292C93.7292 85.9806 89.4449 90.2714 84.1599 90.2714H47.9613C40.5669 90.2714 34.5725 84.268 34.5725 76.8624V52.7035C34.5725 45.298 40.5669 39.2946 47.9614 39.2946ZM91.5939 52.123H79.6476C75.1244 52.123 71.3896 55.6627 71.1404 60.1859L70.8939 64.6608L71.1484 69.371C71.393 73.8979 75.1295 77.4429 79.6561 77.4429H91.5939C96.2995 77.4429 100.114 73.6225 100.114 68.9099V60.6559C100.114 55.9433 96.2995 52.123 91.5939 52.123ZM86.0036 64.783C86.0036 67.4817 83.8191 69.6695 81.1244 69.6695C78.4297 69.6695 76.2452 67.4817 76.2452 64.783C76.2452 62.0842 78.4297 59.8964 81.1244 59.8964C83.8191 59.8964 86.0036 62.0842 86.0036 64.783Z" fill="#98FFAF"/>
</svg>
