<svg width="108" height="84" viewBox="0 0 108 84" fill="none" xmlns="http://www.w3.org/2000/svg">
<path d="M18.9296 56.0798C42.4619 62.5443 63.784 40.3321 56.3631 17.0837L55.8194 15.3803H86.2782C93.3141 15.3803 99.0178 21.0599 99.0178 28.0661H81.3876C71.3767 28.0661 63.2613 36.1473 63.2613 46.1159V53.0497C63.2613 63.0183 71.3767 71.0995 81.3876 71.0995H99.0178C99.0178 78.2242 93.2176 84 86.0626 84H37.0558C27.045 84 18.9296 75.9188 18.9296 65.9502V56.0798Z" fill="#98FFAF"/>
<path fill-rule="evenodd" clip-rule="evenodd" d="M79.9538 32.6486C73.8301 32.6486 68.7737 37.4135 68.4364 43.502L68.1027 49.5257L68.4472 55.8661C68.7784 61.9597 73.8369 66.7316 79.9653 66.7316H96.1271C102.498 66.7316 107.662 61.5891 107.662 55.2454V44.1348C107.662 37.7911 102.498 32.6486 96.1271 32.6486H79.9538ZM81.953 56.2679C85.6012 56.2679 88.5586 53.3229 88.5586 49.6901C88.5586 46.0574 85.6012 43.1124 81.953 43.1124C78.3049 43.1124 75.3474 46.0574 75.3474 49.6901C75.3474 53.3229 78.3049 56.2679 81.953 56.2679Z" fill="#98FFAF"/>
<path fill-rule="evenodd" clip-rule="evenodd" d="M53.2394 26.6197C53.2394 41.3214 41.3214 53.2394 26.6197 53.2394C11.9181 53.2394 0 41.3214 0 26.6197C0 11.9181 11.9181 0 26.6197 0C41.3214 0 53.2394 11.9181 53.2394 26.6197ZM14.2219 17.1939V31.8034L18.5494 36.1863H33.0966L37.4241 40.8288V31.8034L31.5335 25.6999H26.2025L32.1764 31.8034H20.2848L18.8383 30.4338V18.6549L20.2848 17.1939H37.4241L33.0966 12.8111H18.5494L14.2219 17.1939ZM14.061 7.89756L13.1476 6.65524C14.1839 5.92223 15.2887 5.29684 16.4505 4.78552L17.0656 6.19668C15.9038 6.708 15.0973 7.16456 14.061 7.89756ZM9.11145 12.4105L7.86615 11.4956C8.77861 10.37 9.7878 9.32768 10.8833 8.3793L11.8561 9.57559C10.7607 10.524 10.0239 11.2849 9.11145 12.4105ZM5.51756 18.6876L4.04667 18.2141C4.55585 16.8575 5.18313 15.5493 5.92201 14.3029L7.22356 15.1296C6.48468 16.376 6.02675 17.3311 5.51756 18.6876ZM4.08531 25.7939L2.54013 25.8076C2.59624 24.3597 2.77966 22.9205 3.08847 21.5049L4.58414 21.8797C4.27533 23.2954 4.14143 24.346 4.08531 25.7939ZM4.98397 32.9832L3.52323 33.4872C3.11635 32.0966 2.83291 30.6737 2.67586 29.2332L4.21312 29.1134C4.37018 30.5538 4.57709 31.5926 4.98397 32.9832ZM8.17203 39.5838L6.94966 40.5291C6.1188 39.342 5.39456 38.0849 4.78442 36.7706L6.20231 36.1647C6.81244 37.4789 7.34117 38.3967 8.17203 39.5838ZM13.2254 44.7604L12.3676 46.0457C11.202 45.1849 10.1152 44.2237 9.11843 43.1721L10.2696 42.1463C11.2664 43.1979 12.0598 43.8996 13.2254 44.7604ZM19.6515 48.0619L19.2427 49.5521C17.8651 49.1027 16.5307 48.5332 15.2532 47.8496L16.0222 46.5131C17.2998 47.1968 18.2739 47.6125 19.6515 48.0619ZM26.821 49.1652L26.9083 50.708C25.4594 50.7209 24.0131 50.6062 22.5843 50.3652L22.8875 48.8534C24.3163 49.0944 25.3721 49.1781 26.821 49.1652ZM33.9057 47.9564L34.4757 49.3927C33.105 49.8625 31.6965 50.2104 30.2647 50.4328L30.075 48.9026C31.5068 48.6802 32.535 48.4262 33.9057 47.9564ZM39.1785 45.3418L40.0918 46.5841C39.0555 47.3171 37.9507 47.9425 36.7889 48.4539L36.1738 47.0427C37.3356 46.5314 38.1422 46.0748 39.1785 45.3418ZM44.128 40.8288L45.3733 41.7437C44.4608 42.8693 43.4516 43.9116 42.3562 44.86L41.3833 43.6637C42.4788 42.7154 43.2155 41.9544 44.128 40.8288ZM47.7219 34.5517L49.1928 35.0253C48.6836 36.3818 48.0563 37.69 47.3174 38.9365L46.0159 38.1097C46.7548 36.8633 47.2127 35.9082 47.7219 34.5517ZM49.1541 27.4454L50.6993 27.4317C50.6432 28.8796 50.4598 30.3188 50.151 31.7345L48.6553 31.3596C48.9641 29.9439 49.098 28.8933 49.1541 27.4454ZM48.2555 20.2561L49.7162 19.7521C50.1231 21.1428 50.4065 22.5657 50.5636 24.0061L49.0263 24.126C48.8693 22.6855 48.6623 21.6468 48.2555 20.2561ZM45.0674 13.6555L46.2898 12.7102C47.1206 13.8973 47.8449 15.1545 48.455 16.4687L47.0371 17.0746C46.427 15.7604 45.8983 14.8426 45.0674 13.6555ZM40.014 8.47895L40.8718 7.19366C42.0374 8.05444 43.1242 9.0156 44.121 10.0672L42.9698 11.093C41.973 10.0414 41.1796 9.33973 40.014 8.47895ZM33.588 5.17742L33.9968 3.68723C35.3743 4.13661 36.7087 4.70609 37.9862 5.38976L37.2172 6.72622C35.9397 6.04254 34.9655 5.62681 33.588 5.17742ZM26.4184 4.07411L26.3311 2.53133C27.78 2.51843 29.2264 2.63309 30.6551 2.87413L30.3519 4.38596C28.9232 4.14492 27.8673 4.06121 26.4184 4.07411ZM19.3337 5.28291L18.7637 3.84663C20.1344 3.37686 21.5429 3.02895 22.9747 2.80648L23.1644 4.33669C21.7327 4.55916 20.7044 4.81315 19.3337 5.28291Z" fill="#98FFAF"/>
</svg>
