<svg width="257" height="257" viewBox="0 0 257 257" fill="none" xmlns="http://www.w3.org/2000/svg">
<path d="M175.362 97.0177L111.514 51.9978C109.806 50.7941 107.292 51.5879 106.586 53.5538L80.1704 127.077C79.3343 129.404 81.5885 131.556 84.0488 130.779L111.491 122.113L119.087 144.032C120.264 147.428 121.108 150.93 121.609 154.495L122.075 157.806C123.583 168.536 121.31 179.572 115.604 189.216L110.247 198.271C108.56 201.122 111.594 204.233 114.713 202.85L115.816 202.361C130.605 195.803 142.33 184.134 148.504 169.829C149.066 168.529 149.506 167.188 149.821 165.823L151.046 160.503C154.444 145.744 153.663 130.541 148.783 116.459L146.871 110.941L174.313 102.276C176.773 101.499 177.383 98.4427 175.362 97.0177Z" fill="#98FFAF"/>
<path fill-rule="evenodd" clip-rule="evenodd" d="M128.03 256.635C198.723 256.635 256.03 199.327 256.03 128.635C256.03 57.9423 198.723 0.634766 128.03 0.634766C57.3378 0.634766 0.0302734 57.9423 0.0302734 128.635C0.0302734 199.327 57.3378 256.635 128.03 256.635ZM128.03 237.663C188.245 237.663 237.059 188.849 237.059 128.635C237.059 68.4201 188.245 19.6064 128.03 19.6064C67.8156 19.6064 19.002 68.4201 19.002 128.635C19.002 188.849 67.8156 237.663 128.03 237.663ZM111.514 51.9978L175.362 97.0177C177.383 98.4427 176.773 101.499 174.313 102.276L146.871 110.941L148.783 116.459C153.663 130.541 154.444 145.744 151.046 160.503L149.821 165.823C149.506 167.188 149.066 168.529 148.504 169.829C142.33 184.134 130.605 195.803 115.816 202.361L114.713 202.85C111.594 204.233 108.56 201.122 110.247 198.271L115.604 189.216C121.31 179.572 123.583 168.536 122.075 157.806L121.609 154.495C121.108 150.93 120.264 147.428 119.087 144.032L111.491 122.113L84.0488 130.779C81.5885 131.556 79.3343 129.404 80.1704 127.077L106.586 53.5538C107.292 51.5879 109.806 50.7941 111.514 51.9978Z" fill="#98FFAF"/>
</svg>
