<svg width="65" height="64" viewBox="0 0 65 64" fill="none" xmlns="http://www.w3.org/2000/svg">
<path d="M44.1444 24.0054L28.3391 12.8611C27.9165 12.5631 27.2942 12.7596 27.1194 13.2462L20.5803 31.4463C20.3734 32.0224 20.9314 32.5551 21.5404 32.3627L28.3336 30.2176L30.214 35.6436C30.5053 36.4842 30.7143 37.351 30.8383 38.2334L30.9535 39.0531C31.3269 41.7093 30.7641 44.4412 29.3516 46.8286L28.0256 49.0699C27.608 49.7758 28.3591 50.546 29.1312 50.2036L29.4042 50.0825C33.065 48.4591 35.9676 45.5704 37.496 42.0294C37.6349 41.7075 37.744 41.3756 37.8218 41.0376L38.125 39.7207C38.9664 36.0673 38.773 32.304 37.5649 28.8179L37.0915 27.4521L43.8847 25.307C44.4937 25.1147 44.6447 24.3582 44.1444 24.0054Z" fill="#15202B"/>
<path fill-rule="evenodd" clip-rule="evenodd" d="M32.4277 63.5176C49.9272 63.5176 64.1133 49.3315 64.1133 31.832C64.1133 14.3326 49.9272 0.146484 32.4277 0.146484C14.9283 0.146484 0.742188 14.3326 0.742188 31.832C0.742188 49.3315 14.9283 63.5176 32.4277 63.5176ZM32.4277 58.8213C47.3335 58.8213 59.417 46.7378 59.417 31.832C59.417 16.9263 47.3335 4.8428 32.4277 4.8428C17.522 4.8428 5.4385 16.9263 5.4385 31.832C5.4385 46.7378 17.522 58.8213 32.4277 58.8213ZM28.3391 12.8611L44.1444 24.0054C44.6447 24.3582 44.4937 25.1147 43.8847 25.307L37.0915 27.4521L37.5649 28.8179C38.773 32.304 38.9664 36.0673 38.125 39.7207L37.8218 41.0376C37.744 41.3756 37.6349 41.7075 37.496 42.0294C35.9676 45.5704 33.065 48.4591 29.4042 50.0825L29.1312 50.2036C28.3591 50.546 27.608 49.7758 28.0256 49.0699L29.3516 46.8286C30.7641 44.4412 31.3269 41.7093 30.9535 39.0531L30.8383 38.2334C30.7143 37.351 30.5053 36.4842 30.214 35.6436L28.3336 30.2176L21.5404 32.3627C20.9314 32.5551 20.3734 32.0224 20.5803 31.4463L27.1194 13.2462C27.2942 12.7596 27.9165 12.5631 28.3391 12.8611Z" fill="#15202B"/>
</svg>
