<svg width="129" height="128" viewBox="0 0 129 128" fill="none" xmlns="http://www.w3.org/2000/svg">
<path fill-rule="evenodd" clip-rule="evenodd" d="M60.5488 30.8247C60.5488 30.8247 68.4838 22.3999 71.0257 18.1465C71.3837 17.5473 71.6348 17.0308 71.7416 16.6324C72.1299 15.1832 71.7394 13.6807 70.899 12.3867C70.3678 13.6323 69.0617 15.6315 67.6147 17.6711C65.0839 21.2386 62.1222 24.9298 62.1222 24.9298C62.1222 24.9298 61.5494 21.4722 61.0996 17.7307C60.766 14.9548 60.5001 12.0227 60.5862 10.2306C59.2516 11.1025 58.1995 12.3306 57.8246 13.7295C57.59 14.6051 57.6833 16.2644 57.9439 18.2175C58.6435 23.4618 60.5488 30.8247 60.5488 30.8247Z" fill="#98FFAF"/>
<path fill-rule="evenodd" clip-rule="evenodd" d="M64.7156 128C100.062 128 128.716 99.3462 128.716 64C128.716 28.6538 100.062 0 64.7156 0C29.3694 0 0.715576 28.6538 0.715576 64C0.715576 99.3462 29.3694 128 64.7156 128ZM29.5894 74.5174L55.7193 63.3685L58.3323 65.9815L47.0965 92.0245L46.782 91.884C39.084 88.4445 32.9512 82.2496 29.5894 74.5174ZM27.6562 44.5236L54.0163 55.1167V58.8121L27.6562 69.2824L27.5331 68.9606C24.522 61.0852 24.5658 52.3683 27.6562 44.5236ZM77.1438 94.0112L66.5507 67.6511L62.8553 67.6511L52.385 94.0112L52.7067 94.1342C60.5821 97.1454 69.2991 97.1015 77.1438 94.0112ZM99.7196 74.1693L73.5897 63.0203L70.9766 65.6334L82.2124 91.6764L82.5269 91.5359C90.2249 88.0964 96.3577 81.9015 99.7196 74.1693ZM99.8419 39.3858L73.712 50.5348L71.0989 47.9217L82.3348 21.8787L82.6493 22.0192C90.3472 25.4587 96.4801 31.6536 99.8419 39.3858ZM101.775 69.3797L75.4151 58.7866V55.0912L101.775 44.6209L101.898 44.9426C104.909 52.818 104.866 61.535 101.775 69.3797ZM52.2875 19.8921L62.8807 46.2522H66.5761L77.0464 19.8921L76.7246 19.769C74.8644 19.0578 72.9572 18.517 71.0257 18.1465C71.3837 17.5473 71.6348 17.0308 71.7416 16.6324C72.1299 15.1832 71.7394 13.6807 70.899 12.3867C70.9851 12.1848 71.0509 12.0026 71.0935 11.8434C71.86 8.98286 70.1625 6.04261 67.3019 5.27614C64.4414 4.50967 61.5012 6.20722 60.7347 9.06773C60.6568 9.35861 60.609 9.75435 60.5862 10.2306C59.2516 11.1025 58.1995 12.3306 57.8246 13.7295C57.59 14.6051 57.6833 16.2644 57.9439 18.2175C56.0251 18.6072 54.1322 19.1654 52.2875 19.8921ZM29.7116 39.7338L55.8415 50.8828L58.4546 48.2697L47.2188 22.2267L46.9042 22.3672C39.2063 25.8067 33.0735 32.0016 29.7116 39.7338ZM45.3936 96.0893V99.2922C45.3936 101.131 44.4583 102.843 42.9112 103.837L33.8082 109.683C32.5709 110.478 33.1337 112.395 34.6042 112.395H94.827C96.2975 112.395 96.8604 110.478 95.6231 109.683L86.5201 103.837C84.973 102.843 84.0377 101.131 84.0377 99.2922V96.0893L83.8258 96.1866C77.8315 98.941 71.3125 100.367 64.7156 100.367C58.1187 100.367 51.5998 98.941 45.6054 96.1866L45.3936 96.0893ZM71.8201 57.013C71.8201 60.9367 68.6393 64.1175 64.7156 64.1175C60.7919 64.1175 57.6111 60.9367 57.6111 57.013C57.6111 53.0893 60.7919 49.9085 64.7156 49.9085C68.6393 49.9085 71.8201 53.0893 71.8201 57.013ZM22.0231 83.242L24.5012 76.2681L19.7006 81.9011L12.7267 79.423L18.3597 84.2236L15.8817 91.1975L20.6822 85.5645L27.6562 88.0426L22.0231 83.242ZM109.787 55.0419L115.548 61.8019L123.918 58.828L117.158 64.589L120.131 72.9581L114.37 66.1981L106.001 69.172L112.761 63.411L109.787 55.0419ZM35.9794 16.9434L36.2942 12.6343L34.4645 16.5483L30.1554 16.2336L34.0694 18.0632L33.7547 22.3724L35.5843 18.4583L39.8935 18.7731L35.9794 16.9434Z" fill="#98FFAF"/>
</svg>
