<svg width="257" height="257" viewBox="0 0 257 257" fill="none" xmlns="http://www.w3.org/2000/svg">
<path fill-rule="evenodd" clip-rule="evenodd" d="M110.811 255.029C180.846 264.643 245.415 215.661 255.029 145.626C264.643 75.5899 215.661 11.0212 145.626 1.40737C75.5898 -8.20645 11.0212 40.7751 1.40732 110.811C-8.2065 180.846 40.7751 245.415 110.811 255.029ZM177.473 202.1C161.521 212.755 142.106 218.348 121.766 216.955L131.911 143.047L177.473 202.1ZM186.095 195.56C183.355 197.911 180.475 200.095 177.473 202.1L187.843 215.54C169.059 229.549 144.814 236.481 119.562 233.015L121.766 216.955C119.726 216.816 117.676 216.606 115.619 216.323C113.898 216.087 112.195 215.803 110.512 215.474L120.666 141.504L60.3459 186.491C57.976 183.772 55.7713 180.912 53.7446 177.93L113.389 131.911L38.4902 121.63C38.6299 119.59 38.84 117.54 39.1223 115.483C39.3585 113.762 39.6423 112.059 39.9719 110.376L114.933 120.666L69.4955 59.7425C72.2299 57.397 75.1033 55.2172 78.0989 53.216L124.525 113.389L134.815 38.4283C136.525 38.5644 138.241 38.7501 139.962 38.9863C142.019 39.2686 144.049 39.6187 146.052 40.034L135.771 114.933L196.159 69.8948C198.485 72.6502 200.645 75.5439 202.624 78.5588L143.047 124.525L217.017 134.679C216.881 136.389 216.696 138.105 216.459 139.826C216.177 141.883 215.827 143.914 215.412 145.916L141.504 135.771L186.095 195.56ZM186.095 195.56C200.654 183.068 211.272 165.879 215.412 145.916L231.471 148.121C228.004 173.373 214.796 194.853 196.244 209.167L186.095 195.56ZM217.017 134.679C218.646 114.225 213.199 94.6618 202.624 78.5588L215.54 68.5937C229.549 87.3775 236.481 111.622 233.014 136.875L217.017 134.679ZM146.052 40.034L148.121 24.9656C173.373 28.432 194.853 41.6402 209.167 60.1928L196.159 69.8948C183.631 55.0564 166.263 44.2248 146.052 40.034ZM134.815 38.4283L136.875 23.4218C111.622 19.9554 87.3774 26.887 68.5936 40.8962L78.0989 53.216C94.314 42.3829 114.108 36.7794 134.815 38.4283ZM69.4955 59.7425L60.1927 47.2691C41.6402 61.5831 28.432 83.0629 24.9655 108.316L39.9719 110.376C43.9637 89.9907 54.6938 72.4387 69.4955 59.7425ZM38.4902 121.63L23.4218 119.562C19.9553 144.814 26.8869 169.059 40.8961 187.843L53.7446 177.93C42.8309 161.867 37.0801 142.222 38.4902 121.63ZM60.3459 186.491L47.269 196.244C61.5831 214.796 83.0629 228.004 108.316 231.471L110.512 215.474C90.3757 211.531 73.0039 201.013 60.3459 186.491ZM112.219 241.091C174.868 249.691 232.627 205.875 241.227 143.226C249.827 80.5772 206.011 22.8185 143.362 14.2186C80.7131 5.61873 22.9544 49.4343 14.3545 112.083C5.75468 174.732 49.5702 232.491 112.219 241.091Z" fill="#98FFAF"/>
</svg>
