<svg width="65" height="65" viewBox="0 0 65 65" fill="none" xmlns="http://www.w3.org/2000/svg">
<path d="M63.9284 3.29096C64.6378 2.58156 64.6378 1.4314 63.9284 0.721998C63.219 0.0125995 62.0688 0.0125995 61.3594 0.721999L0.992987 61.0884C0.283588 61.7978 0.283587 62.948 0.992986 63.6574C1.70239 64.3668 2.85255 64.3668 3.56195 63.6574L63.9284 3.29096Z" fill="#98FFAF"/>
<path d="M63.9284 61.0879C64.6378 61.7973 64.6378 62.9475 63.9284 63.6569C63.219 64.3663 62.0688 64.3663 61.3594 63.6569L0.992987 3.29047C0.283588 2.58107 0.283588 1.4309 0.992987 0.721503C1.70239 0.0121033 2.85255 0.0121033 3.56195 0.721503L63.9284 61.0879Z" fill="#98FFAF"/>
</svg>
